<svg xmlns="http://www.w3.org/2000/svg" id="Avatar" viewBox="0 0 1000 1000"> <defs><style>.cls-2{fill:#d4d4d4}.cls-6{fill:#404040}.cls-7{fill:#111}.cls-8{fill:#3f3f3f}.cls-13{fill:#fdca99}.cls-14{fill:#633523}.cls-15{fill:#471707}.cls-16{fill:#1a1a1a}.cls-17{fill:#d08e6b}.cls-18{fill:#a9a9a9}.cls-21{fill:#0e0e0e}.cls-22{fill:#0f0f0f}.cls-23{fill:#101010}.cls-24{fill:#adadad}.cls-26{fill:#1b1b1b}.cls-27{fill:#1f1f1f}.cls-28{fill:#8d6151}.cls-29{fill:gray}.cls-33{fill:#151515}.cls-43{fill:#0a0a0a}.cls-46{fill:#080808}.cls-47{fill:#4d4d4d}.cls-48{fill:#666}.cls-49{fill:#4f5a63}.cls-50{fill:#d2d1d6}</style></defs> <path d="M278.66 637.15l-9.17-4.23C255.31 619.66 241 606.59 229 591.18c-6.27-13.54-12.87-26.82-15.23-41.9-4.4-28.07-10.21-55.92 4.89-82.94 5.34-9.55 3.73-12-6.47-15.13-3.85-1.18-5.44-3.78-5.24-7.57.36-6.67-.88-13.32 2.11-19.94 3.46-7.63 3.23-15.44-3.42-21.78a22.34 22.34 0 01-6.64-15.14c-.16-10.93-6.39-16.89-13.72-22.92a60.44 60.44 0 01-8-7.89c-2.67-3.2-6-6.57-4-10.92s6.73-1.77 10.21-2.4c9.48-.36 12.78-7.25 15.51-14.73h.06a7.89 7.89 0 00.81-7.56c-8.23-22.75-5-46.46-3.34-69.32 1.32-17.79 13.42-32.88 27.16-45.05 3.62-3.21 8-5.55 11.41-9.12 5.72-6.85 13.85-10 21.56-13.65 11.83-5.64 21.53-13.49 27.69-25.28a473.47 473.47 0 0135.21-41.69c11.32-12.12 26.19-18.05 38.88-27.6 26.44-14 53.49-21 84.18-15.1 16.84 3.25 32.47 11.93 50.12 11 11.21-3.8 21.82-11.77 34.23-8.65 18.36 4.61 36.38-.69 54.48 0 36.24 1.38 68.71 13.18 95.9 38.07 18.08 16.55 33.31 35.63 49.48 53.9 9.77 11 21.44 17.86 37.23 16.59 10.44-.84 12.29 2.23 7.88 11.8-3.87 8.41-3.25 15.07 4.15 21 16.77 13.33 23.6 32.36 29.57 51.88.92 3 .57 6 .59 9q.1 18.08 0 36.16c-.07 16.12 1.12 32.28-4 48.09-2.73 8.42-1.5 16.93 2.46 25.13 4.12 8.53 1.83 14.62-7.58 17.08-18.89 4.93-22.39 22.84-31 36.08-3.38 5.22-1 13 5.71 17.74 12.46 8.75 16.93 21.32 16.37 36.21-.35 9.4-.11 18.83-.06 28.25.15 24.84-4.18 49.66-19 69.06-15 19.72-29.89 42.16-57.81 47.34-5.28 1-7.89 4.88-9.19 10.21-6.71 27.48-13.86 54.84-28.6 79.44a261.17 261.17 0 00-18.37 26.18c-3.38 5.69-1.68 10.56 4 12.88 6.87 2.79 13.26 6.54 20.19 9.13 21.08 7.86 29.74 23.86 24.3 45.94-.79 3.2-1 6.61-2.36 9.68 8.12 7.64 19 7.92 28.68 8.32 39.49 1.64 70 37.39 75.23 74.53 4 28.07 3.75 56.92 13.37 84.11h-15.77c-4.88-2.2-6.87-6.05-7.82-11.3-2.2-12-2.81-24.2-4.23-36.3-.81-6.82-2.38-13.1-5.74-19-.21-23.71-5.17-46.22-26-60.18-17.19-11.54-37-17.18-58.29-11.91-10 .32-15.25 9-23.1 13.08-23.08 12.06-47.33 21.22-71.79 29.93-16.79 6-33.8 11.32-50.27 18.2a5.63 5.63 0 01-3.21-1.6c-2.52-4.1-1.86-8 .61-11.86 7.1-10.86 21.24-10.21 30-18.35 28.38-8.65 54.43-23.19 82.51-32.63a18.73 18.73 0 008.35-5.26c7-6.21 9.72-13.95 8.33-23.17 1.29-28.11 1.28-28.1-24.42-41.47-6-3.12-12.15-5.49-19.11-4.57-15 12.16-29.34 25.21-47.27 34.24 17.14 12.5 47.64-3.86 61.41-22.88 10.84-2 12.66 5.84 14.71 13.47.06 6-3.76 10.23-8.11 12.75-23.27 13.55-47 26.25-72 36.49-6.11-.56-8.71-5-11-9.87-15-3.48-29.42-3.85-44.92.28-25.84 6.9-52.35 5.24-78.18-2.08-8.21-2.33-15.3-1.08-22.5 2.59 2.86 9.81 18.83 8.06 16.71 21-6.88 7.35-14.41 4.11-21.92 1.37q-25-14.13-50.87-26.7c-12.87-6.3-24.66-14.25-36-23-7-5.37-12.72-11.33-10.75-20.63s9.61-12.83 18.16-14.69c2.87.55 6 .62 7.76 3.56 1.33 2.55.94 5-.32 7.51-2.61 5.15-.11 8.52 3.89 11.43 15.09 11 30.84 18.94 51.91 10.3-15.59-6.79-27.73-17-40.67-26.06-4.21-3.26-6.83-8.74-13-9.23-14.27.5-25.19 9-36.57 15.9-6.56 4-7.13 11-4.58 18 0 7.85-.14 15.69-1.58 23.43.28 8.37 7.41 10.57 13 13.77 16.54 9.53 34.8 15.35 52 23.43 7.48 5 16.12 7.92 23.21 13.47 3.32 2.59 8.72 4.23 7 10.1-1.49 5.16-6.75 3.64-10.38 5a8.6 8.6 0 01-4.42.19c-22.45-9.08-45.42-16.94-67.25-27.58-9.79-4.77-19.75-9.45-27.11-17.69-4.14-4.64-8.63-3.66-13.35-2.87-8.88 1.48-17.18 5.33-26.15 6.49-20.6 1.54-40 24.36-43.78 50.55-.79 5.55-1.46 11.09-.91 16.73-7.11 16.54-6.37 34.34-8.37 51.69-.71 6.13-2.58 11.78-7.58 15.9h-13.45c2.5-28.57 4.73-57.17 9.37-85.5 3.25-6.44 4-13.76 5.21-20.54 5.37-29.43 40-52.32 70.56-53.39a44.14 44.14 0 006.68-.8c15.6-3 15.61-2.94 15.61-18.4 0-2.63.12-5.27 0-7.89-1.35-26.35 9.88-32.89 27.4-38.73 1.42-.48 2.71-1.29 4.1-1.83 20.18-1.74 22.38-17 9.71-29.34-7.57-7.39-11.61-17.21-15.5-27-5.65-14.16-11.07-28.42-16.66-42.61a22.63 22.63 0 01-2-7.56c-1.89-13.42-6.56-24.82-21.23-28.93z" style="fill:#040404"/> <path d="M208.29 929.57c2-21.59 6.34-42.22 23.49-57.59 7.33-6.57 15.31-12 25.59-12.76 10.11-2.46 20.18-5 30.46-6.78 3.57-.6 6.45-1.26 8.55 2.74 10.07 19.19 28.19 27.82 47.31 34C372 898.25 399.78 908.77 428 918c5.41 1.77 11.05 1.6 16.47 3.28 6.07 1.88 11.16 4.4 13.07 11 3 11.42 2.72 23.27 4.79 34.81-1.17 10.87 3.25 22.3-3.3 32.61H271.35c-7.3-5.55-8.32-13.39-7.58-24.13-1.14 9.91 1.66 18.39-6 24.13H221.6c-4.34-2.08-6.47-5.51-8-10.16-5.62-16.72-5.62-33.86-4.77-51.11.17-3 .8-5.97-.54-8.86zM698.54 854.39a5.46 5.46 0 016.47-3.23c14.65 2.92 29.78 4.5 43.79 9.31 16.89 5.79 29 18.08 35.16 35.45 3.91 10.93 7.07 22 7.49 33.67-1 18.18 1.65 36.51-2.94 54.56-1.53 6-3.36 11.52-8.3 15.55H744c-8.92-7-3.8-17.39-6.16-24.88-2.56 7.61.89 17.88-7.41 24.88H554.05c-4.66-2.25-5.65-6.31-5.64-11v-26.5c.07-6.63-.19-13.27.21-19.9 1.79-5.88 4.16-11.6 5.46-17.63 6.23-6.25 14.75-7.48 22.5-10.37 23.53-8.76 47.5-16.24 71.33-24.09 20.63-6.84 37.86-18.08 50.63-35.82z" class="cls-2"/> <path d="M586.28 852.94l65.55-33.69a28.92 28.92 0 0010.81-9.49c1.61-11.25.46-12.86-11.44-15.94-3.75-1.41-7.67-2.27-11.47-3.5-8.62-2.79-9-5.44-2-12.37 13 2 25.17 6.6 37.1 11.87 15.07 6.66 18.44 14 14.58 30.4-.77 3.25-1.3 6.56-1.93 9.85-2.45 4.86-6.51 7.77-11.15 10.55-14.57 8.73-31.17 13-45.95 21.15a32 32 0 01-7.32 3.51c-8 2.29-15.13 6.58-22.19 10.93 7.2-4.27 14.26-8.84 22.46-11a101.73 101.73 0 0014.52-7.86c9.77-2.71 18.76-7.51 28.3-10.84 4-1.39 8.29-1.47 11.48 2.1 2.29 2.57.93 4.82-1.23 6.75-19.1 12.69-40.75 19.91-61.67 28.68-9.63 4-19.33 7.89-29 11.82-7.8 4.35-15.32 8-25 4.7-6.49-2.21-12.85-.58-12.36 8.91.27 5.13-3.19 7.84-7.23 9.9-6.89 3.5-13.36 7.77-20.41 10.94.92-.5 1.83-1 2.8-1.39 4.47-1.54 8-5.65 13.39-4.67 5.07.86 7.33 4.38 6.5 8.89-4 22-3 44.38-5.16 66.52H474.9a9.83 9.83 0 01-3.22-7c-.16-19.3-2.83-38.4-4.47-57.56.1-2.72 2.54-5.53-.69-8.16-3.44-2.79-4.28-6.72-4.1-11 .2-4.67-.55-9.17-5.74-10.87s-8.27 1.65-10.89 5.53a7.15 7.15 0 01-2.65 2c-10.92 1.27-20.12-4.83-28.08-9.9-12.46-8-25.87-13-39.11-18.86a18.2 18.2 0 01-2.83-1.83c-17-7.71-34.11-15.13-50.9-23.26-7.18-3.49-15.21-7.13-14.84-17.45 5-6.88 10.25-6 17.57-2.69 13.29 6.05 25.88 13.52 36.37 18-11-5.19-24.14-13.13-38.24-19.25-8.82-3.82-12.35-12.55-15.82-20.9-3.07-12.29 2.47-20 13-25.48 11.07-5.77 23.3-8.22 34.73-12.91 3.88-2.33 7.79-1.63 8.9 2.5 1.31 4.89-3.86 4.86-6.89 6.15-3.72 1.6-7.94.61-11.67 2.22-17.4 10.62-17.58 17.09-.91 29.54 25.44 19 54.68 31.11 82.61 45.61 22.78 9.1 42.22 23.1 59.55 40.3 1.86 1.84 3.88 3.43 5.1 5.77 2.16 3.85 5.13 5.19 9.26 2.87 12.92-10 23.12-23.07 36.41-32.63 10.93-7.87 22.16-15.28 33.57-22.45 4.91-3.02 10.33-3.14 15.36-5.01z" class="cls-2"/> <path d="M780.21 999.7q5.63-35.06 11.24-70.11c4.43 19.2 6 38.83 8.83 58.29.57 4 .16 8.21 2.54 11.82z" style="fill:#a8a8a8"/> <path d="M208.29 929.57c3.81 20.1 5.49 40.59 10.93 60.39.89 3.22 1.59 6.5 2.38 9.74H199z" style="fill:#aaa"/> <path d="M730.45 999.7c-1.24-15 2.49-29.39 6.46-44 6.86 14 7.29 29 7.11 44z" style="fill:#121212"/> <path d="M538.22 999.7c-5.29-21.28-.65-42.41 1.22-63.54.46-5.17 1.26-9.09-5.72-8.71-.88-4.58 2.23-6 5.67-6.48s5.77 1.57 6.32 4.93c.51 3.11 2.41 5.34 3.93 7.85a8.43 8.43 0 01.27 4 285.12 285.12 0 00-3.82 48.2c0 4.82.8 9.92-3.35 13.76z" class="cls-6"/> <path d="M257.78 999.7c.53-12 0-24 2.44-35.88.45-2.17.88-5 3.59-5 2.88 0 2.86 3 3.14 5.14 1.5 11.9 2.94 23.81 4.4 35.72z" class="cls-7"/> <path d="M471.1 932.25c0 18.44 4.95 36.52 4.09 55-.19 4.14-.2 8.28-.29 12.42h-2.27c-2.63-11-.15-22.12-1.16-31-.91 8.89 1.57 20-1.1 31h-2.26c-1.88-1.92-3.29-4.16-3.17-6.91.79-17.15-2.48-34.11-2.17-51.23 1.98-3.79.97-10.28 8.33-9.28z" class="cls-8"/> <path d="M466.18 940.66c1.13 19.67 4.6 39.25 1.93 59h-4.52c-2.76-3.13-2.34-7-2.22-10.67.48-14.95-.9-29.79-2.34-44.63.07-3.34-1.5-6.57-.83-10 .46-2.7 1.51-4.94 4.61-5.43 4.35 3.07 3.9 7.36 3.37 11.73z" style="fill:#b7b7b7"/> <path d="M542.74 999.7c-.72-18.74-.6-37.45 2.07-56.07.36-2.49-.39-5.37 2.37-7.06 1.82 1.41 2.29 3.36 2.29 5.52.13 15.93 0 31.87 0 47.8-.09 3.42.37 7-2.25 9.81z" style="fill:#e3e3e3"/> <path d="M460.84 943.42c3.71 18.63 3.94 37.42 2.75 56.28h-4.53c1.8-11.07.34-22.13-.23-33.19-.3-7.78-3.83-15.85 2.01-23.09z" style="fill:#3e3e3e"/> <path d="M547.27 999.7l.34-9.19c1.71-7.72.27-15.56.84-23.32.16-2.22-1.39-5.6 2.93-5.85 1.89 12.72-1.37 25.79 2.67 38.36z" class="cls-6"/> <path d="M470.37 999.7v-28.83h2.26v28.83z" style="fill:#181818"/> <path d="M710.58 493.15c7.09.37 4.26 6 4.36 9.26a211.21 211.21 0 01-7.22 60.37c-11.86 45.49-18.07 92.39-35.86 136.4-16.86 41.72-44.18 74-82.7 97-3 1.81-6.07 6.26-10.72 1.35-2.42-2.55-3.62 1.4-4.66 2.84-14.86 20.54-35.72 29-60.22 30.76a253.52 253.52 0 01-33.87-.18c-24.54-1.51-44-11.73-57.76-32.45-1.57-2.37-2.56-8.83-7.07-1.06-1.72 3-6.78-1.5-9.77-3.4q-54.66-34.68-78.83-94.81c-17-42.25-23.78-87.1-34.22-131-2.6-10.93-5.64-21.88-5.13-33.32-1.18-10.18-1.74-20.35.29-30.48 5.88-1.94 6.5 3.16 7.69 6.38 2.65 7.16 4.95 14.49 7 21.82 7.94 27.79 40.05 49.83 72.05 52.23 14.06 1 27.64 1.13 41.39-2 28.24-6.46 45-24.66 54-51.34 3.89-11.62 8.95-22.85 3.94-35.75-1.79-4.63 2.53-8.78 6.6-11.22 11.07-6.64 22.88-6.35 34.51-2.05 5.69 2.11 9.21 6.62 9.94 13.31 1.15 10.46-.51 21.25 3.51 31.36 2.53 7.42 1.92 15.22 2.33 22.85.26 5 2.1 6.5 6.68 5.56 4.73 1 8 4.23 11.32 7.38 18 17.19 39.87 23.51 64.1 22.75 25.1-.78 48.48-6.4 67.25-24.86 11.63-11.44 16.87-26.19 22.75-40.72 3.54-8.8 5.18-18.13 8.32-26.98zM341.5 432.35c11.73-8 21.73-17.67 29.21-29.82 1.07-1.52 2.5-3.07 4.33-2.06s1.71 2.91.48 4.6c-.26 2.47-3.63 4.95-1.16 7.19 2.79 2.53 5.71 0 8.07-1.68 15-11 20.29-27.47 24.8-44.34 5.5-20.52 6-41.73 8-62.68 2.83-28.74 12.39-34.93 41.66-30.31 16.27 2.57 32.65 5 48.94 7.08 13.71 1.73 27.61-2.69 40.64-7.43 27.33-9.94 27.61-10 30.76 18.52 2.39 21.71 4.06 43.51 13.83 63.68 8.73 18 19.9 32.92 41.47 36 3.95.56 5.65 3.44 7.15 6.53 10.32 21.38 27.82 33.11 50.7 37.19a15 15 0 0110.84 7.18c3.37 5.38-.65 5.41-4.26 5.64-37.93-.51-75.37-11.64-113.61-5.36-15.62 2.56-32 3-45 13.89-4.19 3.18-9.19 4.72-13.9 6.83-20.25 2.69-40.43 4.15-60.22-2.82-7.14-2.83-8.63-12.43-16.81-14.05-28.93-11.35-58.94-9.39-88.93-7.06-4.87.38-9.75 1.33-14.56.38-4.34-.84-7.48-2.77-2.43-7.1z" class="cls-13"/> <path d="M203.31 348.18c11.48-11.15 10.43-24.94 7.93-38.87-2.7-15.07-7.45-29.76-4.66-45.54 5.27-29.86 23.76-49 48.82-63.71 18.06-10.59 37.9-18.29 53.83-32.41 3.35-3 6.46-6.19 9.68-9.3-.61-14.63 8.06-25.21 15.79-36.21 39.65-40.55 114.66-45.37 151.45-15.79 1.06 1.07 0-.54.92.64 4 5.06 11.71 9.58 7.74 16.84-4.7 8.63-11.83 2-17.76.09-17.25-5.66-20.63-6.17-38.45-4.22 7 2.91 10.46 7.62 15.5 10.42 8 7 19.2 9.28 25.63 19 2.41 3.66 5.15 7.37 7.54 11.2 1.2 3.59 2.82 7.31-.77 10.42-3.39 3-7 1.72-10.53 0a62.06 62.06 0 00-18.26-5.6c-3.09.08-7.91-1.38-5.49 4.64 4.13 10.26 3.46 12.52-6.18 16.67-2.77 1.19-5.74 1.7-8.56 2.7-13 4.79-27 7.8-35.07 20.86-7.41 4-11.61 11.17-16.69 17.45 2.16-2.73 4.34-5.42 8.45-4.62a7.41 7.41 0 014.54 2.2c2.35 3.66.47 6.54-1.72 9.35-1.69 2.68-3.89 5-5.73 8 2-.93 2.35-2.79 3.36-4.07a38.66 38.66 0 019.76-11.87c3.68-3.15 4.43-6.56 4.32-10.78 1.14-2.75 1.77-5.7 3.35-8.28a9.26 9.26 0 012.9-2.53c14-3.23 26.19 3.16 38.44 8 6.19 2.44 4.66 6.51-1.1 8.82h.06c-7.69 0-11.32 8.65-18.93 8.82-2.05-.58-3.91-2.25-6.24-1.15-6.69 3.17-13.06 18.93-10.75 26.55.37 8.76-1.8 16.93-4.42 25.3-6.34 20.25-4.95 41.6-7.39 62.43-5 6.42-7.34 1.61-7.62-2.59-1.65-24.27-8.23-48.48-1-73.65-13.44 24.47-18.35 50.47-21.67 76.88-2.4 19.11-11.46 35.56-20.31 52.12-2.55 4.76-6.19 7.93-11.88 5.82s-6-7.37-5.18-12.34a205.41 205.41 0 016.95-29.4c-8.74 18.95-17.66 38.9-30.24 56.78-4 5.73-10.31 9.91-16 14.06-4 2.89-9.47 4.13-10.44-3.87l2.26-2.27c5-22.18 12.81-43.77 14.13-66.73 3.92-5.68 2.81-12.19 2.81-18.44 0-19 .23-37.78 10.12-55.17 3.3-5.82 6.42-11.6 9.69-15.54-7.13 5.78-8.87 16.44-14.15 25.06-17 16.81-15.38 41.63-26.25 61.1-2.46 4.4-4.2 9.15-10.15 9-6.57-.19-8.83-4.73-9.51-12-6.05 11.37-17.92 17.75-18 31.34-9.45 3.47-12.24 1.66-12.23-7.56 0-8.43 2.87-16.31 4.36-24.44 2.71-12.56 3.87-24.53-2.24-37.15-4.43-9.13-1.36-20 .25-30.13-2.67 15.49-4.46 31.12-6.75 46.67-1.92 12.95-12 23.18-24.52 24.83-2.21.29-4.78.94-6.21-1.25-1.97-3.04.51-4.82 2.47-6.58zM777.91 276l6.62 9.19c4.1 5.11 6.44 9.82-2.83 11.66-2.32.47-3.78 1.89-5.35 3.55-8.32 8.77-9.9 8.8-20 1.14-5-8.67-9.91-17.47-22.35-15.22-.77-.14-1.62-.45-1.81-1.14-.38-1.45-1.74-1.57-.76-.51 1.86 2 3.46 4.33 5.42 6.14 15.12 14 18.38 31.85 16.93 51.15-.84 11.22-7.58 13.94-16.89 7.28-2.47-1.77-4.14-4.36-6.44-6.28s-4.13-4.4-9.29-5.42c5.81 13.3 3.07 26.62 4.76 39.62.63 4.89 1.39 10-3.33 13.42-5.42 3.94-10 .46-14.44-2.31-13-8.13-26.9-15.05-35.88-28.3-2.3-3.38-5.82-6.08-4.64-10.88 2.2-6.53 6.51-8.63 13-6.17a2 2 0 00.37-.92 2.86 2.86 0 00-.29-1.15c-.88-1.83-1.48-3.73-3.17-5-3.54-2.2-4.47-5.75-5.09-9.51-1.69-10.08-6.2-19.14-11.08-27.88-4.11-7.35-7.2-14.57-5.94-23.16 1.14-7.8-7.71-10.61-8.86-17.31a51.91 51.91 0 01-1-9.22c2.51-7.2 7-11.89 15.1-12.41 2.22-.15 4.87-.62 6.12-2.28 5.13-6.84 12.87-7.78 20.22-9.69 6.58-.29 12.06 3.6 18.24 4.84 5.33 1.07 10.59 3.67 18.43.66-26.92-21.4-51.21-43.5-72.49-68.68-6.84-11-18.61-13.92-29.77-17.54-2.26-.74-5-.25-7.18-1.83-2.59-3.14-2.4-6.35-.3-9.62 6.9-4.63 13.45.69 18.36 0-8.92-3.81-20.89.19-31.73-3.92-3.39-8.83 1.14-15.39 6.26-21.79 3.57-1.85 7.36-1.18 10.34-1.08-6.67-1.51-13.1.59-18.8 5.46-4.1 4.24-9.28 6.37-14.89 7.64a8.33 8.33 0 01-5-.9c-3.62-4.86-6.55-10.26-12-13.72-3.44-2.2-4.59-5.57-1.74-9.3a6.39 6.39 0 013-.73c12.82 0 25.66-.38 38.45 1 7.74 4.35 16.77 3.85 24.94 6.6 18.39 6.2 31.77 19.35 45.39 32.3 15.85 15.06 27 34.1 42.31 49.55 4.77 8.62 8.16 18.14 16.05 24.74 21.88 11.84 42.43 25.07 51.87 49.86 1.12 5.1 5 12.39-6.16 7.62-2.55-1.09-5.71-1.75-7.09.95-2.16 4.41 3.33 6.09 4.41 9.5z" class="cls-14"/> <path d="M651.28 248.81q0 4.5.07 9c7.74 12.93 6.5 28.8 13.57 41.89 6.24 11.57 8.26 25.3 18 35.05l2.19 4.55c.86 5.63-2 6.61-6.33 4.57-5.12-2.44-7.58-1.57-7.17 4.44 5.84 11.83 15.2 20.27 26.19 27.11 3.81 2.37 7.66 4.69 11.56 6.92 3.11 1.77 5.83 6.15 9.77 3.88 3.71-2.15 2.14-6.84 2.27-10.46.49-14.91-2.24-29.17-9.08-42.54-1.56-3-3.5-6.79-.25-9.27 3.08-2.34 5.24 1.53 7.55 3.16 7 5 14.67 9.12 19.73 16.49 1.48 2.16 3.94 4.43 6.55 3.72 3.85-1.07 2.56-5 2.56-7.76 0-22.85-6.22-42.87-26.11-56.59a21.43 21.43 0 01-4-4c-.67-.79-1-1.88-2-4 7.76.6 13.09 4.45 18.64 7.72 9 4.09 19.56 5.89 24.9 15.82 6.34 4.55 10.87 5.3 11.51-4.73.47-7.43 3.71-9.28 10.16-4.36 2.91 2.23 3.32 1.69 3-4.31 3.61 2.2 4.61 5.79 5.07 9.62 2.31 19.42 4.8 38.81-2.41 57.89-3.14 8.32-2.59 16.91-.94 25.62 1 5.44 1.47 12-7.74 6.92-6.52-3.62-6.92 1.2-7.28 5.53-.64 7.54-.11 16.37-4.65 21.81-11.76 14.07-22.76 29.5-40.61 36.79-5.08 2.06-10.68 3.95-14.17-3.79-3.26-7.25-2.76-12.22 5.12-15.25 1.4-.54 2.82-1.07 4.17-1.74 4.07-2 9.95-4.42 9.23-8.78-.93-5.7-7.66-3-11.54-3.12-8.78-.32-16.3-2.05-21.67-9.67-1.17-1.67-3.36-3.8-5.6-1.43-1.45 1.54-.15 3.52.8 5.15 2.84 4.83 7.45 7.27 12.39 9.35 2 .84 4.93 1.27 4.66 4.11s-3.06 2.77-5.25 3.17c-18.38 3.4-45.19-9-54.49-25.28-3.15-5.54-3-10.87 2.63-14.93 3.75-2.7 5.06-5.33-.57-6.64-24.58-5.75-33.19-24.69-38.77-46.27-.66-2.54-1.15-5.14-2-7.63-.3-.94-1.31-1.65-3.13-1.92-.49 23.26 7.53 42.64 27.78 56.9-12 .55-24.56-6.53-31.82-17.31-1.82-11.73-6.68-22.77-7.46-34.77a85.09 85.09 0 012.41-27.86c1.06-4 2.89-7 7.42-7.1 3.93-.06 5.9 2.53 7.3 5.92 4.83 11.69 10.76 22.87 15.92 34.41 1.46 3.26 3.58 7.77 8 6 3.75-1.46 1.82-5.8 1.76-9.08-.11-7.56-.95-14.89-4.29-21.82-2.37-4.92-2.54-10.12-1.35-15.42 8.88-9.84 5.94-21.33 4.25-32.45-1.93-12.64-1.88-25.69-7.52-37.66a6.69 6.69 0 011.6-7.26c5.81-3.09 8.85.12 11.26 4.91 4.27 8.49 8.65 16.9 8.21 26.78z" class="cls-15"/> <path d="M651.28 248.81c-7.89-9.47-10-22.23-18.1-31.62-7.27 1.18-7.91-5.74-10.49-7.68 4.43 5.07 6.74 13.15 9.69 20.87s3.57 16 4.39 24.25c1.18 11.84 4 23.51 3.22 35.54-.15 2.26-.19 4.51-2.17 6.09 3.07 15.43 3.57 31.36 8.95 46.34.88 2.44 2.83 5 .53 7.32-2.55 2.52-4.76-.37-7-1.34-14.56-6.24-18.65-21-26.25-32.79-3.19-4.94-4.81-10.89-7.91-18.21-5.46 14.71-4.75 28.07-3.7 41.73.64 8.25 6 16.36 1.36 24.9-15.23-26.08-19.9-54.78-20.1-84.34-.18-25.33-1.55-50.32-11.55-74-6.6-10.51-15.88-15.27-28.49-15-7 .14-16.34 3.06-20.21-5.33s6.83-11.15 9.62-17.29c1.19-2.63 3.6-4.73 6.14-6.41 5.16-1.6 10.5-2.87 14.3-6.94-2.31-4.19-6.14-2.07-9.27-2.18-11-.38-13.29-4.17-8.37-14.38 13.74-8.48 26.3-19.55 43.78-19.75a3.81 3.81 0 003.82-3.34c4.66-2.34 9.85-4.06 11.61-9.82 5.65-4.24 10-3 13.3 3.07.61 7.16-.21 13.78-6.8 18.26 2.86 5.57 10.91.76 13.56 6.77v6.72c13.61 3.46 24.07 11.64 32.94 22.15 9.72 7.81 13.28 18.82 15.75 30.37 4.8 10.15 11.83 18.67 19.89 26.37 2.71 2.59 6.21 4.57 4 9.19-6 2.21-12.15 3.74-14.24 11.28-1.38 5-5.9 3.39-9.58 2.93-5.59-.76-10.65-.33-12.62 6.27z" class="cls-14"/> <path d="M542.92 165.21c-2.62 5.81-8.49 8.35-12.66 12.6-1.5 1.52-4 3.16-2.37 5.56.81 1.21 3.18 1.76 4.89 1.88 4.12.28 8.27.12 12.4.17 14.75.18 22.35 5.94 26.94 20.41-15.79-14.16-33.9-9.53-47.47 0-2.59 1.86-2.78 5.56-4.91 6.94 1.69-1.35 4.6-1.4 7.17-2.41 11.08-3.86 22-9.74 33.86-2.32-7.1 6.66-15.82 11.24-22.94 17.9-3.7 3.45-8.08 6.31-8.71 9.8 5-8.88 14.43-15.88 24.74-21 6.27-3.1 12.35.65 16 6.93 1.19 5.51 2.58 11 3.53 16.52 3.05 17.88 2.21 19-15.33 23.3a57.72 57.72 0 00-10.42 4.11c-2.95 1.39-6.21 5-8.92 1.51s2.11-5.73 3.54-8.56c3.09-6.13 9.71-7.68 16.33-10.76-5.54-4.25-9.44-3.14-13.35-.24-5.74 4.27-11.61 8.33-15.83 14.34a29 29 0 01-6.91 7.32c-3.73 2.55-8.64 4.86-12.7 2.71-4.9-2.59-.8-7.39-.56-11.22.18-2.88 2.33-5.69-.54-9.77-7.5 24.86-25.83 19.87-43.65 17-11.06-1.79-22.07-5.21-33.49-1.44-4.83 1.6-6.58-1-4.43-5.35 3.76-7.66 5.42-16.73 13.83-21.39 8.89-3.26 17.8-4.1 25.47-.57 1.57.64 1.06.69.39 0-2.94-3-10.12-4.63-7.92-9.28 2.42-5.11 8.86-2.83 13.75-1.47 5.2 0 8.57 3.69 12.7 5.95 2.48 1.37 6.45 5.78 7.66-1.45-2.36-7.92-8.75-11.52-15.56-14.9-15.65-7.77-32.24-11-49.58-11.07-1.82 0-3.75.41-5.36-.93-1.47-.68 2-4.07-1.92-3.45-4.58.72-8.48 3.14-12.57 5s-7.56 3.1-10.2-1.83c10.24-10.56 23.86-15.63 36.39-22.48 5.43-1 10.62-3.12 16.18-3.42 2.74-.14 5.58 0 5.89-3.62.24-2.67-1.7-3.92-4-4.63a16.09 16.09 0 01-3.11-1.33c-2.93-1.61-6.89-2.91-6-7.09s5.11-3.55 8.41-3.93a6.4 6.4 0 015.27 1.27c7.63-.4 14.76 1 21.31 5.22 7.74 5 6.89 0 5.69-5.12 5.72-2 7.66 1 8.49 6.1 1.16 7.12 5.51 13.28 6.39 20.51.48 3.92 2.69 6.26 6.61 6.16s5.33-3.49 6-6.58c3.26-13.92 15.69-17.9 26-24.11 1.79-1.1 4.33.23 5.58 2.51z" class="cls-15"/> <path d="M702 489a125.88 125.88 0 01-1.8 22c-1.2 8-7.47 17.64-11.29 26.42-11.26 23.9-31.6 35.12-56.29 40.28-15.58-.61-31.2 1.77-46.73-2.16-8.87-2.24-16.69-6.16-24.42-10.65-9.84-4.73-13.93-14.33-19.32-22.81-3.1-7.31-6-14.67-7.39-22.55-5.76-14.53 9.24-6.29 15.14-6.05 12.49.52 23.8 6.1 35.92 8.48 27 5.32 50.66-1.76 72.32-17.42 7.42-5.37 6.84-8.74-.8-14.54-5.19-3.94-11.08-6.11-17.09-8.17-11-4.35-22.92-6.1-33.32-12a5.59 5.59 0 01-1.17-3c.66-4.36 5.45-4.87 7.46-8 10.67-6.12 22.3-1.61 33.41-3C671.25 456.37 698 465 702 489" class="cls-13"/> <path d="M287.16 427.46c12.73.45 18.28-9.76 24.11-17.89 13.58-18.93 22.35-40.57 32.17-61.57a14.92 14.92 0 015.27-5.86c1.38 13.15-1.67 25.66-3.85 38.3-1 5.66-6.46 14.6-1.18 16.41 7 2.4 7.77-8.24 10.64-13.19 12.31-21.22 15.4-45.13 18.95-69 3.31-22.24 12-42.55 25.11-60.93 1.32-1.85 2.51-4.22 5.16-3.34 2.92 1 2.29 3.92 1.46 5.78-11.71 26.53-3.38 54.16-4.55 81.26-.12 2.81-.74 6.52 4.17 6.23C403 358.51 400.05 373 391.3 386c1.82-13.37 3.65-26.74 2.19-40.21-.16-1.49.12-3-.06-4.52-.45-3.54 1.38-9.37-2.93-9.79-5.32-.52-3.25 5.5-3.94 8.78A187.62 187.62 0 01355.2 412c-6.49 9.07-17.34 12.52-26.82 18.7-3-7.91 4.5-12.53 3.72-19.69-8 2.46-10.35 9.62-13.76 14.67C307 442.48 291 445.07 272.84 443c-2.61-.3-5.66-.59-6.07-3.9-.44-3.57 2.63-4.46 5.21-4.58 6.12-.25 10.16-4.63 15.18-7.06z" class="cls-15"/> <path d="M445.8 868c-7.89-7.14-17.62-11.34-26.63-16.68-2.3-1.37-5.05-2.31-4.4-5.64s3.75-3 6.26-3.55c6.33-1.31 13.7 1 18.44-5.94 1.43-2.09 4.15.07 6.15.77 36.17 12.69 72.12 12.38 107.84-1.71 3.73-1.48 6-2.51 8.92 2.39 4.13 6.92 12 3.9 18.52 3.87 5.42 9.43-3.07 11.64-8.2 15.15-18.53 12.65-38.55 23.29-53.68 40.47-5.31 6-11.67 7.88-20 8-10.2.15-17.29-2.74-23.64-10.61-5.82-7.22-14.14-12-21.67-17.35a21.66 21.66 0 01-7.91-9.17z" class="cls-13"/> <path d="M246.47 380c-1.35-8.36 3.83-14.31 7.86-20.55 4.66-7.21 9.79-14.11 15.33-22 2.9 5.43 1.13 10.78 1.88 15.72.4 2.59.33 5.82 3.51 6.37 3.46.59 3.87-2.77 4.94-5.11 8.1-17.8 12.05-37.17 20.74-54.77 1.85-3.74 3.22-7.64 6.78-10.17 4.15 3 3.07 6.82 2.15 11-4.06 18.8-4 37.8-2.13 56.85.11 24.26-2.48 47.8-18.11 67.85-.83-1.85-2.61-3.8-4.2-2.69-9 6.28-18.71 3.18-28.22 2.45-5.4-.42-8.24.83-5.54 6.88 3.21 7.18.13 14-1.61 20.79-.87 3.42-3.56 5.93-7.59 5.13-3.58-.71-4.46-3.81-4.58-6.89-.14-3.73-.36-7.58.36-11.19 1.35-6.73 1.51-12.14-7.56-12.42-2.24-.07-5.09-.92-4.35-3.83 1.28-5.07 3-10.21 9-11.83 2.93-6.2 4.69-12.79 10-18 3.2-3.21 6.7-8.54 1.34-13.59z" class="cls-15"/> <path d="M696.1 510.74c.21-2.12-2.31-20.61-2.1-22.74 5 1.87 12.59 20.52 13 11.7.11-2.24 2.31-4.37 3.55-6.55-6.58 52.16-27.5 82.39-70.5 92.73-37.7 9.07-71.75 2.37-100.49-25.07a43 43 0 00-3.54-2.76c-6.69-.72-5.63-6.4-7.34-10.67-2.37-5.92-2-12.25-4-18.14-3.62-10.75-6.93-21.55-4.63-33.13a7.7 7.7 0 00-2.65-8c-7.42-6.46-29.56-6.42-36.46.24a8.25 8.25 0 00-2.63 7c3.49 53.92-32.34 93.55-86 94.16-33.84.39-64.39-8.26-84.83-38.12-9.7-14.17-13.54-30.78-17.83-47.11-4.2-4.19-2.33-11.06-6.69-15.17-2.38-6 1.85-11.05 2.12-16.66 7.24-1.63 11.09 8.74 18.86 5.28a6.42 6.42 0 013.89 3.14c1.66 8.69.53 16.81-2.65 25.25-5 13.21 2.44 24.87 8.31 35.59 10.31 18.81 27.5 29.33 48.28 34 2.87.41 5.69 1.14 8.58 1.45a237.33 237.33 0 0035 .3 46.56 46.56 0 009.76-2c11.88-2.46 21.5-8.95 30.27-16.95 9.93-8.22 15-19.1 17.22-31.53.35-3.3 3.81-6.43.48-9.91a17.07 17.07 0 01-2.34-1.57c-5.15-3.6-8.51-8.19-8.47-14.73 2.41-3.86 5.58-7.37 5.62-12.34a20.35 20.35 0 015.2-6.46c10.37-2.19 19.2-8.9 29.87-10.31 8.28-1.19 16.12 2.12 24.27 2.15a7.1 7.1 0 012.94 1.41c2.81 3.49 5.91 6.78 10.93 5.88 7.48-1.34 9.59 3.18 10.64 9.14-.3 4.07-1.73 7.87-2.75 11.77-6.78 6.89-5.79 14.51-3.85 23.33 8 36.25 38.93 53.21 70.35 52.59 8.25-.17 16.5 0 24.75-.08 16.14-3.22 31-9.08 43.46-20.29a91.1 91.1 0 0015.57-23.36c2.6-7.74 5.86-15.26 6.83-23.46z" class="cls-16"/> <path d="M538.31 140.28c-2.28 5.95.19 9.05 6.09 8.16 6.1-.92 11.87.37 17.76.91 2.81.26 7-.31 7.1 3.61.16 4.32-4 4.68-7.36 5.13a51.85 51.85 0 01-5.58.2c-8.24-1.16-15.59 1.74-22.45 5.63-2.43 1.38-4.58 3.48-7.17 4.86-13 6.95-16.33 4.95-16.72-10.21-1 8.33 3.25 16.31 1.37 24.81-1 4.39-1.78 8.31-7.07 8.47-5 .15-6.08-3.9-6.74-7.61-2.71-15.17-9.94-27.79-20.77-38.62-6.86-6.88-14.6-11.61-24.48-12.3-7.82-3.41-15-8.46-24-8.95-2.55-.14-5.82-.43-6-3.81-.2-3.93 3.3-4.51 6.24-5.14 17.54-3.76 34.84-4.08 51.74 3.28 3.45 1.5 7.33 6.71 10.87 2.6s-1.87-8-3.46-12a31.47 31.47 0 00-1.58-3c8 1.64 9.19 11.83 17.89 14 2.08-5 .31-9.6-2.24-13.37-4.78-7-1.2-10.48 4.85-12.7a61.16 61.16 0 0114.16-3.39c4.26-.49 8.56.24 3.56 5.93-1.45 1.66-3.53 3.52-1.13 5.67 1.93 1.71 4.27.55 6.32-.4 12.08-5.58 25.07-7.45 38.05-9.38 1.57.83 1.53 1.57-.14 2.21q-1.05 0-2.1.09c-4.75 7-9 14.5-16.94 19.63 5.22-2 9.67-2.87 13.21 1.9 0 10.3-10.32 10.36-15.6 15.4-2.74 2.7-7.48 3.34-7.68 8.39z" class="cls-15"/> <path d="M743.79 504.3c.49-7.68 4.8-12.63 11.41-15.93 5.89-.25 8.26 3.22 10.21 8.33 6.21 16.27 3.37 32.31-.29 48.42-2.8 5.14-3.83 10.81-4.83 16.48-.62 2.79-2.58 5.08-2.9 8-3.8 5.31-7.18 10.92-11.24 16.07-7.67.29-9.17 8.78-15.09 11.41-14.67 2.34-16.44.65-14.19-13.54 7-13.65 8.6-28.49 9.55-43.45.69-10.78 8.76-17.84 13-26.81 5.57-1.27 6.49 2.48 8 6.59 2.14 5.81 2.14 11.72 2.32 16.31 2.61-10.56-6.5-20.34-5.95-31.88zM232.79 477.49c13.56 7.13 16.4 20.76 20.41 33.68 3 8.36-5.23 14.66-3.9 21.53 2.65-14.32 2.91-14.58 10.78-10.28 18.44 16.33 12.56 40.83 20.38 60.73a65.78 65.78 0 012 7.39c2.22 5.7-1 6.49-5.7 7.27s-9.41-.5-14.1-.14a21.48 21.48 0 01-12.13-11c-10.15-21.81-19-44.19-20.32-68.47-.79-13.53 2.32-27.08 2.58-40.71z" class="cls-17"/> <path d="M203.31 348.18c-1.41 5.67.66 7.37 5.68 4.49 9.19-5.29 15.36-13.15 17.06-23.69 2.62-16.26 3.9-32.73 8.83-48.61 1.6-5.14 2.94-9.84 9.81-12.2-1 9.4-1.59 17.81-2.83 26.12-2.17 14.5 6.75 27.64 4.77 42.11-.66 4.78.25 9.79-2.36 14.25-4.86-3.41-1.14-8.4-2.3-11.93.43 11.12-4.81 21.81-5.89 33.25-.56 5.9-.77 11.53 1.91 17 1.91 3.91 2.84 8.44-1.45 11.1a10.1 10.1 0 01-12.5-.91 61.94 61.94 0 00-6.95-5.68c-5.75-9.42-7.4-18.91.3-28.06 4.21-5 2.8-7.29-3.08-7.93-3-.32-6-.05-9-.28s-6.87.73-7.63-3c-.68-3.47 2.96-4.69 5.63-6.03z" class="cls-15"/> <path d="M232.79 477.49c7.74 8.47 7 16.94 4.05 28-4.27 16.07.65 32.85 6.45 48.2 5.06 13.4 8 28.16 19 38.8 4.44 2.37 8.37 5.48 14 5.38 6.67-.11 10.55 3.7 10.58 10.74-.07 4.73 5.18 10.66.89 13.65-4.51 3.14-9.81-1.89-13.92-4.84-20-14.41-35-32.74-41.73-56.91-6-21.43-10.67-43.13-7.29-65.52.93-6.25-.39-14.31 7.97-17.5z" class="cls-13"/> <path d="M454.24 932c-11.71-11-27.7-10.69-41.7-15.22-31-10-62.89-17.67-92.61-31.32-10.85-5-20.8-12.58-24.87-24.76-2.09-6.28-5.63-6.53-11.12-5.95-9 1-17.36 5.17-26.57 4.49 10.19-5.4 21.66-6 32.6-8.5 2.54-.59 5.25-.49 7.35 1.72 20.84 21.92 49.79 28.58 76.05 40.28 6.5 2.9 13.36 5 20.05 7.49 16.69 3.08 33.21 6.75 48.75 13.82 6.89 3.14 15.13 5.12 14.61 15.36a5.33 5.33 0 01-2.54 2.59z" class="cls-18"/> <path d="M637.7 778c-3 4.17-3.05 7.47 2.83 8.62 4.67.91 9.35 1.66 13.16 4.87-2.16 3.33-4.72 2.38-7.37.72 2.66 1.78 6.53 2.21 7.11 6.32.14 2.63.72 5.84-1.54 7.44-15.68 11-29.82 26.17-52 21.19-5.57-1.25-10.91-2.31-16.51 0-2.3 1-5.35 1.62-6.65-1.81-1-2.74 0-5.25 2-7.12a22.63 22.63 0 014.72-3c18.06-9.37 35.09-20.16 49.29-35C634 779 636 778.68 637.7 778z" style="fill:#949494"/> <path d="M373.07 787.27a152.26 152.26 0 0039.11 26.35c3.39 1.62 6.94 3 9.27 6.22 1.37 1.87 2.61 4 1.47 6.24-1.25 2.43-4.09 2.38-6 1.43-6.31-3.22-12.47-1.49-18.73-.18-23.1 4.82-38.65-10-53.75-22.83-7.45-6.33 4.47-9.07 8-13.19 5.68-7.56 13-6.58 20.63-4.04z" style="fill:#959595"/> <path d="M698.54 854.39c-7.45 26.63-29.84 35-52.59 42.52-29.66 9.75-59.52 18.88-89.3 28.27a3.37 3.37 0 01-.61-4.76c3.14-4.81 8.49-5.93 13.34-7.76 29.19-11 58.38-22 87-34.57a261.81 261.81 0 0042.16-23.7z" class="cls-18"/> <path d="M535.94 454.56c5.21-7.48 12.59-11.75 21.27-13.54 47.13-9.73 93.67-6 139.75 6.63-3 .41-5.68 1.13-5.08 5.12-3.79 3.49-8.57 4-13.38 4.36-7.24-2.65-15.1 0-22.35-2.67-27.47-9.71-55-6.34-82.46-.14-5.33 1.2-10.48 3.09-15.87 4a80.59 80.59 0 01-17.46 3.33c-4.45.45-10.36-.16-4.42-7.09z" class="cls-21"/> <path d="M445.8 868c13.26 5.94 23.72 15.62 33.9 25.62 10.4 10.22 26.55 10.62 36.77.18 17.29-17.66 37.92-30.58 58.91-43.15 2.85-1.7 10.59-2 5.52-9.14 4.06.23 7 1.31 4.11 6.1-1.41 2.35-1.66 4.15 1.27 5.34-9.72 6.24-19.43 12.51-29.18 18.73a223 223 0 00-53 46.4c-6.42 2.86-10.5-2.64-15.63-4.36-16.88-21-39.54-34.82-61.45-49.58 6.63-.37 11.47 7.73 18.78 3.86z" class="cls-22"/> <path d="M759.81 545c3.42-19.28 7.15-38.59-4.61-56.65 1.48-2.9 5-4.64 4.67-8.59-.25-3.28.59-6.34 4.49-6.38 3.53 0 4.89 3.25 6.07 5.86 3.92 8.67 5.21 17.86 5.16 27.34-.09 15.42-1.51 30.61-6.63 45.27-6.96 3-9.14-.48-9.15-6.85z" class="cls-13"/> <path d="M217.09 393.53c1.06.37 2.13.71 3.18 1.13 4 1.56 7.29 7.34 11.92 3.9 4.48-3.34.75-8.44-.14-12.57-1.08-5-.12-9.65.43-14.5 1.88-16.57 9.16-32.09 8.93-49.16 4.47 9.28 2 18.95 2.86 28.32-1.49 8.46-3.37 16.88-4.3 25.41-.43 4 .05 9.78 6.5 3.91l3.55-2.69c2.16-1.64 3.75-5.64 7.23-2.61 3 2.65 1.73 5.9.47 9.23-4.47 11.78-13.54 19.69-22.57 27.69-.05-4.38-1.17-8-6.19-9-5.44-1.06-8.96-4.59-11.87-9.06z" class="cls-23"/> <path d="M422.89 205.78c4.08-.33 8.54.29 12.17-1.15 22.09-8.8 37.47 5.38 53.91 15.48 4.23 2.6 6.22 7.41 4 12.79-11.78-10.25-25.68-12.81-40.72-11.17.76-1.24 2-3.55.55-3.79-12.44-2-23-13.05-36.94-7.71.14-5 2.81-5.94 7.03-4.45z" class="cls-14"/> <path d="M307.26 816.5c7.35 10.68 18.35 16.33 29.75 21.27 14.85 6.43 27.41 16.3 40.26 26-12.92-.75-24.81-5.12-35.8-11-7.58-4.06-16.32-5.46-23.19-11.12-3-2.48-7.21-1.36-10.9-.28 2.96-8.31 1.85-16.59-.12-24.87z" class="cls-24"/> <path d="M744.17 583.69c3.22-5.24 3-12.34 8.82-16.18 7 2.79-.8 10.41 4.45 13.78-8.15 16.62-20.39 29.45-36.17 39-3.23 1.94-7.22 4.55-10.43 2.82-4.29-2.31-.4-6.72-.27-10.17.14-3.7 1.38-7.37 2.13-11 1.28-4.61 5.39-4.47 8.59-4.13 4.86.52 8.85-.38 12.29-3.8 4.3-2.68 4.47-9.58 10.59-10.32z" class="cls-13"/> <path d="M454.93 929.27c-1.9-5.08-6.22-6.85-10.89-8.67-16.94-6.6-33.75-13.6-50.62-20.39l12.32.54c-9.31-11-24.55-8.63-32.62-18.68l70.22 27.2c6.93-7.35 10.44-1.61 14.07 3.67 2 4.5 3.72 9 1.92 14.07-1.01 1.64-2.25 2.84-4.4 2.26z" class="cls-21"/> <path d="M676.37 855.4c-.66-7.32-5.29-4.48-8.94-3.31-9.89 3.14-19.71 6.5-29.56 9.78-3.13-.6-6.86 1.08-9.24-2.42 19-10.91 38.4-21.22 58.82-29.38 1.19 10.58 1.18 20.64-11.08 25.33z" class="cls-24"/> <path d="M547.27 934.1c-5.57-.08-3-16.62-13.55-6.65l-11.1 4.55c-3.17 1.44-5.36 1.18-5.26-3 5.64-3.46 11.13-7.22 17-10.32 6.1-3.26 11-6.11 10.87-14.77-.14-7.73 9.1-13.53 13.88-9.15 9.27 8.52 17.68 3.6 26.62 1.18-7.36 9.57-20.23 7.15-29.12 13.37-9.15 4.38-4 11.73-3.73 18.05-.27 3.57-.28 7.35-5.61 6.74z" style="fill:#161616"/> <path d="M275.84 481.65c-1.33 8.36-3.29 16.87-1.15 25.58.47 1.93-.09 4.23-2.41 4.13a6.23 6.23 0 01-4.46-2.82c-6.68-12.89-9.46-26.9-11.14-41.17-.32-2.73 1.09-5.09 3.74-3.58 7.06 4.03 15.15 7.51 15.42 17.86z" class="cls-26"/> <path d="M569.86 221.66c-7.8-6.24-14.43-3.11-21.35 2.07-10.51 7.87-18.18 18.61-28.31 28.75 1.78-22.36 21.37-43 40.57-44.46 1.8 5.37 8.34 7.58 9.09 13.64z" class="cls-21"/> <path d="M472.65 228.4h-11.09c8.59 4.65 13.33 10.16 17.92 15.73 2.28 2.76 2.64 6.4-.58 9-2.07 1.67-4.59.67-5.86-1.3-7.74-12.05-20.82-9.6-32.08-12.09 9.78-5.98 17.19-18.6 31.69-11.34z" class="cls-7"/> <path d="M341.5 432.35c2.13 8 8 3.41 12 3.15 27.83-1.84 55.64-3.57 83.28 1.78 5.44 1.05 11.34 1.57 15.27 6.45-4 4.45-8.52 1.18-12.6.48-27-4.62-54.14-6.14-81.4-2.28-9.26-.39-18.1 3.16-27.34 3-4.42.21-8.77 2.09-13.17 1.38s-8.69-2.2-3.31-7.54z" class="cls-13"/> <path d="M314.24 438.75c-1.45 3-1.27 5.11 2.76 4.68 4.35-.47 8.66-1.23 13-1.87a2.77 2.77 0 01.21 1.09c-.06.27-.46.46-.71.69 4.77.16 9.64.55 14.26-.52 19.25-4.47 38.78-2.95 58.19-2.56 5.22.11 14.67-2.25 13.89 9-3.36 2.82-7.34 1.75-11.13 1.8-17.12-2.53-34.23-3.42-51.33.11-13.52.38-26.62 3.92-40 5.36-4.9.53-10.4 3.22-14.84-1.63 7.67-3.04 6.59-14.57 15.7-16.15z" class="cls-23"/> <path d="M334.7 122.14c-3.85 12.69-7.46 25.48-15.79 36.21-1.41-3.31-3.57-3.41-6.3-1.57-2.22 1.5-4.75 3.26-7 .55s.3-4.82 1.77-6.89c7.62-10.84 17.04-19.99 27.32-28.3z" class="cls-27"/> <path d="M416.43 255.92c-4.09-.87-7.5-2.83-6.08-7.56 3.33-11 9.09-20.5 19.61-26.2 1.87-1 4.62-2.48 6.23-.53 2.2 2.66-1.22 4.53-2.13 6.78-3.53 9.37-11.43 16-15.59 25z" class="cls-28"/> <path d="M735 208.09c-10.39-3.74-16.94-12.2-24.63-19.08 1.54-4.9 8-.54 8.58-5.66a39.66 39.66 0 013.68 2.43c13.44 10.96 13.44 10.97 12.37 22.31z" class="cls-14"/> <path d="M723.71 488.43c-.33-4.42-.89-7.05-.64-9.61.42-4.31 3.5-7 7.47-6.84 5.11.25 3.62 4.54 3.23 7.75-.55 4.43-1 8.89-1.87 13.26-.58 2.86-1.54 6.74-5 6.47-4-.32-2.83-4.5-3.13-7.27a22.74 22.74 0 01-.06-3.76z" class="cls-16"/> <path d="M303.24 479.85c-.58 1.76-1.06 3.56-1.76 5.28-.93 2.28-.09 6-3.26 6.48-4.18.65-4-3.55-5.06-6.06-2-4.81-3.85-9.69-8.1-13.11l1.8-9.25a10.15 10.15 0 013.05.87c5.56 4.6 14.78-2.46 19.13 6 1.16 5.1-2.67 7.23-5.8 9.79z" class="cls-29"/> <path d="M743.79 504.3c10.62 23.25 11.37 30.68 4.17 47.49-2.43-13.63 1.84-27.85-8.52-38.53z" class="cls-28"/> <path d="M287.5 466.3c-.21-1-.43-2.07-.64-3.11 1.82-5.69 7.25-6.31 11.69-8.34a246.11 246.11 0 0154.24-7.13c-1.22 8.62-9.9 6.53-14.58 10.18a53 53 0 01-5.35 0c-7.49-2.2-14.43-.3-21.29 2.67-7.67 3.31-15.39 6.57-24.07 5.73z" class="cls-29"/> <path d="M757.44 581.29c-15.12-.18-1.62-9.62-4.45-13.78.67-2.22 1.33-4.44 2-6.65 2-2.09 2.3-7 7-4.75 5.44 2.57 4.07 6.92 2.42 11.18l-6.97 14z" class="cls-13"/> <path d="M260.08 522.42c-5.56-1.82-6.07 2.1-7 5.93a60 60 0 00-1.67 20.47c-7.56-13-4-25.39 1.76-37.65 2.83 3.44 6.13 6.58 6.91 11.25z" class="cls-28"/> <path d="M418.47 253.42c1.45-10.67 8.3-18 15.59-25 6.62-.81 10.2-9.91 18.29-6.71-14.23 7.43-23.14 20.55-33.88 31.71z" class="cls-14"/> <path d="M526.91 210.34c-4.32 4.65-8.58 9.37-13 13.91-1.51 1.54-3.58 3.46-5.74 1.21-1.81-1.9-1-4.41.47-6.16 4.48-5.48 8.69-11.37 16-13.49z" class="cls-21"/> <path d="M777.91 276c-3.44-2.78-9-5.32-7.29-10.22 2-5.51 7.57-2.81 11.88-2 5.21 1 3.93-3.06 4.34-5.77a65.8 65.8 0 013.35 6.86c.76 2.09.86 4.43-1 6.16s-4 .95-6-.18-4.14-4.56-6.42-2c-1.03 1.15.66 4.66 1.14 7.15z" class="cls-27"/> <path d="M373.07 787.27c-7.4-1.37-13.51 3.81-20.59 4l-7.11-2.27c3.32-3.13 7.58-4.3 11.72-5.76 1.85-.65 5.34-.07 4.59-3.19-.81-3.36-4.35-1.39-6.65-1.92 10.79-6.38 11.56 7.02 18.04 9.14z" style="fill:#2c2c2c"/> <path d="M286.86 608.62c-2.07-4.26-4.64-7.13-10.2-7.08a15.19 15.19 0 01-14.42-9c6.72-.7 14.26 7 20.17-2 3.12 5.63 5.23 11.46 4.45 18.08zM735.46 595.22c-5.83 8.21-14.89 5.39-22.76 6.65 1.1-6.18 1.36-12.55 4.17-18.35 1.4 12.62 2.83 13.41 15.77 8.8 2.2-.27 3.25.6 2.82 2.9z" class="cls-28"/> <path d="M282.94 489.1c1.17-.91 2.42-4.21 3.8-1 2.15 5.05 3.85 10.43 2.89 16.15-4.82 9.85-1 20.46-2.72 30.59-4.17-14.98-1.44-30.59-3.97-45.74zM764.38 567.29c-.58-5.86-1.09-11.8-9.38-6.43q2.4-7.92 4.81-15.83c2.14 3.48 5 6 9.15 6.84-.02 5.59-1.22 10.83-4.58 15.42z" class="cls-13"/> <path d="M737.62 453.41c-1 2.12-1.14 3.4-1.87 4-3.66 2.8-6.34 7.86-12.09 6.28-1.63-.45-1.41-2.62-.58-3.89 3.26-5.06 7.77-7.13 14.54-6.39z" style="fill:#1d1d1d"/> <path d="M653.43 798.48l-14.59-8c5.52-3.24 10 1.81 14.85.91 6.2 4.53 16.14 7.25 8.95 18.32-.74-5.61.98-13.28-9.21-11.23z" class="cls-8"/> <path d="M547.27 934.1c1.9-2.62 2.27-5.62 2.19-8.74.45-2.62.3-5.81 4.56-4.82a17 17 0 012-.12c.2 1.59.41 3.18.61 4.76-1.34 5.33-.27 11.37-4.72 15.77a2.72 2.72 0 01-4.2-.05c-.18-1.44-.36-2.88-.55-4.33z" style="fill:#353535"/> <path d="M749 452c3.58 1.32 3.92 4.27 3.5 7.33-.37 2.73-1.56 5.41-5 4.39-3-.9-3.27-3.82-3-6.51s1.13-5.13 4.5-5.21z" class="cls-33"/> <path d="M567.47 94.92c.06-.74.1-1.47.14-2.21 12.88.81 26-2.26 38.67 2.19-12.93 5.9-25.87-2.5-38.81.02z" class="cls-14"/> <path d="M261.33 452.7c2.45 0 3.75-.41 4.42.07 3.95 2.83 10.23 3 11 9.44.06.51-1.69 1.91-2.18 1.73-5.5-1.94-10.12-4.94-13.24-11.24z" style="fill:#1c1c1c"/> <path d="M375.52 405.07c-.73-2.5-2.4-3.23-4.81-2.54 2.19-6.22 4.69-12.26 10.42-16.77a27.48 27.48 0 01-5.61 19.31z" class="cls-13"/> <path d="M554 920.54l-4.56 4.82c-4.18-7.06.25-13 3.37-18.42 2-3.49 3 .53 3.75 2.33-2.64 3.35-2.51 7.33-2.56 11.27z" style="fill:#9f9f9f"/> <path d="M454.93 929.27l2.07-2.08c5.71.23 2 5.26 3.79 7.47v8.76c-3.22 7.47-1 15.42-2 23.09L454.24 932z" style="fill:#4a4a4a"/> <path d="M547.73 940.9l4.2.05q-.27 10.18-.55 20.39c-4.34 9.33.51 19.84-3.77 29.17z" style="fill:#323232"/> <path d="M454.13 913.8c-3-2.94-5.88-6.13-10.79-4.53 2.1-6.8 6.16-11.89 13.76-10.15 7.25 1.66 10 7.33 8.61 14.76-1.23 6.33 2.71 9.42 7.23 12.66 4 2.85 10.13 3.78 10.9 12.1l-12.75-6.39c-3.35 1.8-3 5.79-4.91 8.41l-2.86-10.92c-6.2-3.51-1.94-13.04-9.19-15.94z" class="cls-26"/> <path d="M624.15 868.51c-9.5 4.21-18.95 8.56-28.54 12.55-2.12.88-5.51 2.24-6.59-1.33-.72-2.37 1.84-4.53 3.78-4.79 11.08-1.51 18-11.91 29.09-13.22 2.04 1.83 2.41 4.22 2.26 6.79z" style="fill:#bdbdbd"/> <path d="M488.52 913.71c6.13-1.88 13.21-7.14 15.63 4.36-1.23 3.09-2.28 7.68-6 7.1-5.77-.9-7.15-6.96-9.63-11.46z" style="fill:#626262"/> <path d="M624.15 868.51c-6.31-.42-4-3.69-2.26-6.79l6.74-2.27c3.28 0 6.47.4 9.24 2.42z" style="fill:#a7a7a7"/> <path d="M517.36 929l5.26 3c-5.08 3.08-9.71 7.24-18 7.7 4.01-5.88 8.3-8.4 12.74-10.7z" style="fill:#414141"/> <path d="M454.13 913.8c1.53-3.28 3.59-2.59 4.53 0 1.88 5.19 3.14 10.61 4.66 15.93l-2.52 4.92-3.8-7.47q-1.42-6.68-2.87-13.38z" style="fill:#999"/> <path d="M504.24 713.15c-32.71-.27-58.78-3.18-84.41-9.91-4.65-1.22-9.63-1.37-14.47-1.7-3.58-.24-6.87-.81-8.33-4.51-1.36-3.45 1-5.75 3.24-7.74 2.67-2.34 5.59-3.45 9.29-1.77 43.8 19.87 89.71 18.69 135.81 12.53 14.93-2 30.62-2.45 43.56-13.09 4.76-3.91 8.92 1.95 11.06 6.29s-.65 7.62-4.93 8.07c-32.42 3.42-63.97 14.1-90.82 11.83z" class="cls-43"/> <path d="M551.72 637.69c-3.75 5.79-9.61 5.79-15.1 4.46-7.29-1.77-12.61-.1-18.32 4.91-15.63 13.7-21.46 13.43-37.91-.19-5.23-4.32-10.64-6.61-17.59-4.88s-13.54 1.06-17.28-6.47c-1.44-2.41-2.39-5.38.71-6.56s2.16 3.2 3.95 4.29c3.3 2.15 6.91 2.86 10.59 1.44 10.44-4 18.78-1 25.73 7.24 8.08 7.47 16.24 5.69 24.43.19 7.36-8.46 16-11.72 27-7.49 2.66 1 5.89.57 8.86.79 1.25-1.31 2.73-3.06 4.51-2.2s1.98 2.78.42 4.47z" class="cls-28"/> <path d="M463.91 732.77c9.34 0 16.22.11 23.09 0 12.75-.25 25.5-.61 38.25-1 2.26-.07 4.76-.6 6 1.79 1.44 2.77-1 4-2.81 5.21-12.76 8.69-49.19 6.38-64.53-6z" class="cls-17"/> <path d="M524.7 529.24q5.67 14.4 11.35 28.81c-4.13 3.26 2 8-3.32 13-7.05-13.73-7.24-27.84-8.03-41.81z" class="cls-28"/> <path d="M510.93 642.12C502 654 496.13 654 486.5 641.93c8.13 1.88 16.28.74 24.43.19z" class="cls-17"/> <path d="M551.72 637.69c-.8-2.56-2.73-2.67-4.89-2.27 3.66-7.12 3.8-14.77 2.86-22.68 7.63 8.03 8.13 16.26 2.03 24.95zM450.18 633.25c-3-2.22-4.53-1.4-4.66 2.27-3.8-7.77-4.39-15.22 3.15-24 .59 8.48 1.05 15.12 1.51 21.73z" class="cls-28"/> <path d="M416.09 447.89c-21-8.41-42.76-4.18-64.23-3.58-10.76.31-21.47 2.18-32.59 2.53 3.58-1.84 7.72-2.54 10.72-5.28 9 .22 17.43-4.23 26.53-3 30.3-2 60.49-2.52 89.91 6.92 6.86 2.21 13.1 5.47 17.76 11.2a133 133 0 0059.56 2.16c5.86-1.54 10.29-1.51 7.36 6.66-3.51 4.75-8.72 3.47-13.48 3.78h-36.51c-9.25 1-17.25-3.69-25.83-5.76-10.83-4-21-9.94-33-10.33-3.29-.08-5.6-1.82-6.2-5.3z" class="cls-21"/> <path d="M464.19 456.7a166.92 166.92 0 00-83.94-18c-7.89.34-15.81-.07-23.73-.14a239 239 0 0195.54 5.15c5.03 3.42 9.45 7.39 12.13 12.99z" class="cls-23"/> <path d="M529.16 463.5c.61-4.35-2.73-4.11-5.4-4.64l12.18-4.3c-.48 4.53 2.33 4 5.07 3.17 5-1.5 10-3.31 15.39-3.09-.48 7.36-7.52 6.89-11.71 9.84-5.18-.33-10.79 6.25-15.53-.98z" class="cls-33"/> <path d="M452.29 133.32c-.33-1.57-1.91-4.54 1.3-3.77 14.35 3.43 27.25 8.38 35.24 22.92 5.3 9.64 9.58 19.11 11.41 29.85.35 2.06.94 4.53 4.9 4.65 3.82-14.21-.93-29.31 3.11-45 6.29 4.74 4.62 10.61 5.12 15.73.36 3.67-.49 8.12 3.73 9.86 4 1.67 7.23-1.28 9.88-3.9 9.81-9.7 22.52-9.75 35-12.71.59 6.17-4.07 5.16-5.62 7.31-4.19 2.85-8.28 5.89-13.41 6.92-13.06 4.94-23.14 13-28.78 26.26-1.58 3.7-3.87 8.26-8.74 7.49s-8.38-4.58-9.92-9.67c-3-9.92-5.24-20.15-11.67-28.68-8.21-11.76-19.84-19.58-31.55-27.26z" class="cls-22"/> <path d="M307.53 357.34c-3.89-2-4.59-5.65-4.44-9.5.73-19.52-2.93-39.37 4.42-58.39 7.44-11.22 14.43-22.79 24.41-32.06 1.85-1.71 4.25-4.49 6.67-2.24 2.78 2.59-.61 4.64-2.17 6.45-18.73 21.84-25.84 47.72-26.73 75.86-.21 6.66 1.36 13.54-2.16 19.88z" class="cls-15"/> <path d="M289.36 251c-15.36 13.58-23.29 32.25-33.13 51.35-8.17-30.84-.12-49.79 21-59 1.25 4.2-4.66 5.94-3 10.87 5 1.71 6.83-4.21 10.61-5.49 2.59-1.39 4.65-1.73 4.52 2.27z" class="cls-28"/> <path d="M341.49 187.73c-3.45 17.14-16.36 24.15-31.24 28.79-3.09 1-7 1.19-9.06-2.41-1.3-2.25-.11-4.74 1.68-6 16.44-11.76 24.72-29.75 35.54-45.83 1.18-1.75 3.45-2.76 5.21-4.11 4.38 2.67 3.39 5.88 1.27 9.56-3.57 6.18-5.69 12.75-3.4 20z" class="cls-15"/> <path d="M402.34 151.32c-2.71-5.66-7.07-3.22-10.64-1.69-6.52 2.81-12.77 6.25-19.36 9.54 10.36-22.72 37.26-29.89 63.84-20.17-9.24 6.78-20.79 7.77-29 14.85-2.82 1.45-4.9 1.49-4.84-2.53z" class="cls-28"/> <path d="M422.89 205.78l-7 4.45c-.69 0-1.38 0-2.06.07-6.29 6-12.48 12.07-20.5 15.8-6.06 4.38-8.2 12.48-15.08 16.46-1.93-10.68 1.83-17.65 19.56-36.82 12.3-2.82 23.78-9.87 38.25-7-3.32 5.26-9.6 3.86-13.17 7.04zM341.49 187.73c-2.53.7-5 1.89-7.58 2-4.06.16-4.56-4.11-2.59-5.13 11.2-5.78 5.35-19 12.3-26.45 5.52-11 10.61-22.3 25.2-25.25-11.16 17.36-21.82 34.85-27.33 54.83z" class="cls-15"/> <path d="M273.49 208c-17 10.4-31 24.42-45.52 37.91 7.57-20 21.41-33.95 41.08-42.41 4.72-1.72 6.44-.5 4.44 4.5zM319.61 324.13c1.72-14.09 6.09-26.1 11.7-37.68 1.46-3 4.18-6.92 7.59-5.34 4.26 2 .61 6-.22 8.85-3.47 11.93-7.21 23.79-12.8 35-1 1.93-1.07 5.15-3.89 4.6-3.58-.75-2.11-4.22-2.38-5.43zM402.34 151.32l4.83 2.53c-8.62 17.89 10.08 1.83 10 10.48-3.6 4.16-10.22 5.89-16.83 7.63a118.29 118.29 0 01-20.38 8.83c4.14-12.32 9.84-23.5 22.38-29.47zM370.9 110.84c11.89-11 24.65-19.22 43.8-14.32l-43.84 23.34c-2.28 1.48-4.52 1.43-5.24-1.41-1.08-4.24 2.7-5.62 5.28-7.61zM393.39 232.9l4.59-6.74c2.55-6 5.72-11 13.58-8.91 1.84-.25 4.23-1.34 5.39-.57 2.35 1.56 0 3.39-1.09 4.52-5.88 6.25-11.95 12.34-18 18.48-3.34 3.47-5.94 11.61-10.91 8.11-4.44-3.12 3.85-7.45 4.7-12 .23-1.05 1.14-1.95 1.74-2.89z" class="cls-28"/> <path d="M456.8 160.51a50.86 50.86 0 00-7.74.73c-1.16.27-2.83 1.79-2.83 2.74s1.47 2.41 2.62 3.08c1.92 1.11 4.2 1.57 6.13 2.66 4 2.25 8.39 5.22 6.77 10.2s-6.39 1.53-9.82 1.76c-5.92.38-11.82 1-17.72 1.58L452 177c-2.23-6-13.69-7.4-8.6-15.67 2.67-4.39 8.6-5.55 13.4-.82z" class="cls-14"/> <path d="M282.61 302.19c-4.87-13 0-21.91 4.49-30.81.82-1.61 2-3.63 4.21-2.53 2 1 1.73 3.09 1.11 4.9-2.98 8.73-6.01 17.45-9.81 28.44z" class="cls-28"/> <path d="M379.92 180.79c6.25-4.2 12.87-7.54 20.38-8.83.71 1.7.93 4.14 2.2 5 8.79 5.73 4.3 8.4-2.23 10.78-1.82-2.25-6.12-.89-6.87-4.71 1.29-3.46 1.43-6.07-3.56-4.52-3.25.99-5.84 4.88-9.92 2.28z" class="cls-14"/> <path d="M393.4 183c3.24.18 9.35-3.81 6.87 4.71-5.09 3.29-10.19 6.57-16.59 10.69.45-8.4 5.16-11.84 9.72-15.4zM393.39 232.9l-5.46 14.1 10-7.35c-2.08 7.25-7.49 11.48-14.28 16.38-1.32-10.67 3.76-17.09 9.74-23.13z" class="cls-28"/> <path d="M411.56 217.25L398 226.16l-4.64-.06c5-7.69 11.29-13.62 20.49-15.8q-1.14 3.47-2.29 6.95z" class="cls-14"/> <path d="M289.36 251l-4.51-2.31c4.78-5.2 10.52-8.58 19.52-10.52-4.49 7.06-8.76 11.07-15.01 12.83zM370.9 110.84c-1.2 3-6.08 6 0 9-2.83 3.22-8.28 6.83-9.86 2.75-2.67-6.76 4.25-9.59 9.86-11.75zM273.49 208a7 7 0 00-4.44-4.5c4.48-3.47 8.66-7.57 16.53-8.53A32.11 32.11 0 01273.49 208z" class="cls-28"/> <path d="M660.36 194.47c-3.83-10.57-8-21-15.86-29.36-1-4.06-4.62-8.93.51-11.87 4.75-2.72 8.27 1.07 10.87 5a621.38 621.38 0 0046 46c5.3 4.81 10.37 9.82 16.51 13.58 1.92 1.18 4.31 2 5.6 3.72 3.78 4.9 10.47 10.63 7.72 16.07-2.58 5.1-9.37-.54-14.27-1.61-4-.88-8-2-12-3 0-2.5-1.18-4.52-3.5-4.87-15.77-2.42-24.08-14-32.46-25.72-2.33-3.27-4.2-7.41-9.12-7.94z" class="cls-15"/> <path d="M678.33 285.22c4.55 6.38 11 8.78 18.56 9.08 3.23.13 7.06-.13 6.47-4.14-1.68-11.45 4-6.07 7.86-3.56 10 6.56 17.6 15.28 21.88 26.6 1.91 5.06-.07 8.25-5.13 5.68-14.73-7.48-32.17-8.84-45.12-20.19-1.64-3.41-4.86-5.6-6.82-8.71-1.5-2.38-2.21-4.98 2.3-4.76z" class="cls-28"/> <path d="M560.84 117.57c-8.26.05-15.87 3-24.15 5.14 8.53-10.53 14.75-23 28.68-27.7 2 4.89 7 6.52 10.89 9.14 4.8 3.25 5.24 6.58 2.67 11.12-5.59 4.21-11.4 6.73-18.09 2.3z" class="cls-14"/> <path d="M660.36 194.47c.23-2.2-.31-4.82 1.79-6.23s3.45.28 4.42 1.95c11.18 19.29 26.65 33.56 49.79 40.36-4.5 3.28-7.87 2-10.89 2.47l-17.73-4.73c-10.83-9.9-22.43-19.17-27.38-33.82z" class="cls-15"/> <path d="M560.84 117.57l18.09-2.3 4.51-.07c3.47.64 7.42-1.06 12.09 3.78-21.87 2.09-40.19 10.12-57.22 21.3-4.4-2.32-3.94-4.6-.12-7.18 7.6-5.1 15.11-10.35 22.65-15.53z" style="fill:#131313"/> <path d="M615.11 133.48c-4.65-.25-9.41-.11-13.71-2.26-2.86-1.42-2.51-3.09.15-4.52 10.83.52 21.86-1.94 32.47 1.81 6.07 2.14 11.16 5.8 17.5 13.73zM720.37 260.1c20-4.56 32.61 2.56 39.84 23.78-14.21-9.74-25.95-18.59-39.84-23.78z" class="cls-28"/> <path d="M655.88 158.29c-9.73-7.64-10.75-.74-11.38 6.82-8.16-10.23-20.28-15.8-29.39-24.91 16.08.42 30.99 3.48 40.77 18.09zM682.93 334.75c-13.34-9.76-16.42-25.49-21.3-39.53-4.21-12.09-9.19-24.32-10.28-37.41 4.36 3.44 7.29 8.53 7.72 13.38 2.07 23.51 15.42 42.58 23.86 63.56z" class="cls-15"/> <path d="M749.48 228.75c13.17 2.53 18.14 11.49 24.88 18.05a4.23 4.23 0 01.7 3.93c-1.25 2-3.28 1-5 .19-8.68-4.42-13.55-12.4-20.58-22.17zM608.35 108.45a17.07 17.07 0 00-13.3-3.06c9.07-7.09 25.67-4.75 38.5 6-9.32 2.23-16.89-4.39-25.2-2.94z" class="cls-28"/> <path d="M671.62 348.31c-3.77-7.81-2.38-11.18 6.67-7.55 2.78 1.12 5 1.3 6.83-1.46.29.23.67.41.84.71 2.15 3.84 11.46 3.89 7.77 9.88s-9.15.53-13.45-1.9c-3.06-1.72-5.9-3.53-8.66.32z" class="cls-15"/> <path d="M759.88 298.53C753 291 741.24 291.18 735 282.71c11.91-.45 20.44 4.47 24.88 15.82z" style="fill:#282828"/> <path d="M678.33 285.22c-2.48 5.83 4.77 8.39 4.52 13.47-5.63-4.34-10.81-9-13.14-16.85 4.56-1.84 6.29 1.47 8.62 3.38z" class="cls-28"/> <path d="M771 338.58c.92 8.16-1.31 15.37-4.68 22.83-4.39 9.73-10.41 19.18-9.38 30.8.29 3.23-1.28 7.09-4.92 8.22-4.53 1.41-5.33-3.14-7.21-5.66-4.74-6.31-9.57-12.58-13.91-19.16-2.27-3.47-4.25-8.48.18-11.1 5.06-3 6.81 2.45 9 5.78 1.75 2.62.9 7.83 5.31 7.6 3.94-.22 3.91-5.1 5.32-8 6.49-13.05 14.83-25.52 13.87-41.14-.13-2.17.22-5.11 3-5.25s3.2 2.74 3.32 4.94c.23 3.42.1 6.81.1 10.14z" class="cls-23"/> <path d="M637.82 296.26c-2.09-33.45-6.2-66.36-25.12-95.41-1.27-1.95-4.36-4.46-1.47-6.78 2.56-2.06 5 .52 6.46 2.6 4.93 7 12.16 12.3 15.49 20.52 7.66 19.9 7.61 41.09 9.93 61.83.63 5.68 2.81 13.51-5.29 17.24z" class="cls-15"/> <path d="M594.81 208.05c1.59 5.26 4.11 6.48 7.22 1.22 2.83-4.78 5.34-4.41 8.45-.41 11.12 14.29 11.14 30.68 9.49 47.49-5.07-7-4.74-16.07-9.59-23.18-6 3.17-4.92 14.5-12 12.22-6-1.95-4.55-11.08-5.93-17.18-.82-3.67-1.54-7.36-2.31-11-1.83-2.61-1.38-5.65-.9-8.34.91-4.82 3.27-3.67 5.57-.82zM645.47 196c-15.84-15.35-33.38-23.28-53.9-27.72 5.16-6.34 10.29-5.09 14.88-5.39 8-.54 8-.45 5.75-8 20.05 5.89 33.63 21.48 33.27 41.11z" class="cls-28"/> <path d="M594.81 208.05c-6.93.31-3.6 5.82-4.62 9.12-3-10.11-8.71-19.35-10.65-31.48a39 39 0 0115.27 22.36zM638.61 337.68c-8.61-4.45-10-11.5-8.21-21.31 6.68 6.63 6.89 14.18 8.21 21.31z" class="cls-28"/> <path d="M642.3 477c9.27 4.2 18.28 8.86 25.63 16.07 2.61 2.56 5.83 5.13.69 8.95-27.09 20.14-56.44 31.46-90.56 22.7-11.89-3.05-26.47-4.83-35.06-7.69-3-1-4-1-7-4 1-4-.64-1.08 2-6 9.59-17.24 19.89-31.8 39.6-37.25 19.46-2.46 38.54.16 57.56 4.07 2.68.52 4.75 2.08 7.14 3.15z" class="cls-46"/> <path d="M576.75 475.19c-16.17 6.42-28.73 17.26-38.52 31.48-3.23 7.33-3.57-2.09-2.6-4.67l.57-13.07c1.2-8.4 3.29-16.37 10.73-21.68 6.79-5.18 14.68-8.25 22.37-11.6a57.41 57.41 0 0112-2.16c6.68.51 13.33-.09 20 0 11.75 0 23.49-.05 35.23 0 2.62.1 5.27.09 7.5 1.81a3.53 3.53 0 011 3.56c-6.64.09-13.38.9-19.9.06s-5.51 3.25-5.93 6.84c-7.5-1.64-15-3-22.7-1.42 3.36-.44 6.91-2.07 9.59 1.68v2.17c-9.27 4.61-20.15 2.26-29.34 7z" class="cls-13"/> <path d="M524 486c.87 1.56 15.13-7.56 16-6-6 8-4.1 31.76-3 40 1.9 8.76 4.4 14.06 7.91 20.61 3 8.59 5.85 17.31 15.79 20.59 22.48 13.57 47 15.8 72.41 12.95a2.79 2.79 0 01.12 3.07c-8.78 1.63-17.64 0-24.53.68 5.95.21 13.84-.42 21.71.28a1.8 1.8 0 01.91 1.75c-.1.68-.25 1-.44 1-16.45.24-33 2.39-49.24-1.94C552.56 571.27 533 548 528 516c-1-9 2-26-4-30z" class="cls-47"/> <path d="M633.19 576.78c0-.87-.05-1.75-.08-2.63 22.76-5.66 41-17.4 51.81-38.93a4.41 4.41 0 012.78 3.6c-.09 8.79-9.57 12.28-11.35 20.13-12.26 13.31-28.17 19.11-45.47 22v-1.87c.12-1.42 1.52-1.56 2.31-2.3zM653 459c-.48-.53-9-1.15-9.45-1.66 1.81-4.33 6.17-4.08 9.67-5.39 10.68 2.66 21.95 3 32 8.22 3.51 1.83 7.19 3.44 6.68 8.43 1.8 6.91 5.35 13.45 4.56 20.94-.91-.64-2.35-1.1-2.66-2C685.31 464.72 675 462 653 459z" class="cls-47"/> <path d="M576.75 475.19c8.8-6.38 19.4-5.23 29.31-7 12.35 1.79 25.46.44 36.24 8.75-21.69-6.62-43.55-6.79-65.55-1.75z" class="cls-46"/> <path d="M685.21 540.54c-.09-1.77-.19-3.54-.29-5.32C688.85 527.16 695 504 694 488c39-76 .38 39.84-1.77 48.19-3.1.22-2.64 6.18-7.02 4.35zM560.7 561.2c-9.46-1.82-15.58-9.79-15.79-20.59 5.35 6.79 8.47 15.3 15.79 20.59z" class="cls-47"/> <path d="M695.9 499.23c.18-3.23.35-6.46.53-9.69-1.83-7.23-7.62-13.33-6.13-21.51 4.73-6.06 10.15-1 15.28-1a28.86 28.86 0 016.84 1.14c-.51 12.92-9.09 29.07-16.52 31.06z" class="cls-29"/> <path d="M454.82 499.05c.64 6.26 5 10.27 8.82 14.64-.87 6.51-6.54 7.36-11.15 8.69a134.91 134.91 0 01-16.1 3.77c-12.69 3.22-25.18 6.47-38.58 6.64-26.67.35-48.7-10.32-68.95-26.08-7.12-5.54-6.77-11.72.59-19 8.39-8.3 19.85-12 29.15-18.91 21.33-5.12 42.28-1.42 63.22 2.68 11.21 1.4 20.49 6.78 28.75 14.16 4 3.58 7.96 7.36 4.25 13.41z" class="cls-43"/> <path d="M454.82 499.05c-7.62-12.12-19.62-18.3-32.16-23.76-2.21-6.88-10.83-3.24-14-8.53a5.93 5.93 0 01-.52-5.09c2.24-4.05 6.24-3.42 9.88-3.67 3.08 0 6.17 0 9.24.21 7.62 1.74 15.35 3.4 21.72 8.15 8.27 6.17 14.92 13.53 14.36 24.91v13.25c-5.06 1.22-5.52-4.1-8.52-5.47z" class="cls-13"/> <path d="M361.75 579.44C327.54 571.66 307.92 550 301 516c-2-8-2-13-2-19 0-5.26 1-8 4-17 1-.8 4.49.85 5.65 1.32 5.69 3.92 4.39 10 4.21 15.37-1.14 33.86 13 57.38 45.5 69a13.07 13.07 0 015.69 3.47 9.66 9.66 0 011.63 6.84 5.33 5.33 0 01-3.93 3.44z" class="cls-47"/> <path d="M364.07 576.76l-2.29-4c2-5.35 6.54-3.83 10.5-3.92 11.59-.27 23.17.71 34.75-1.44 17.39-3.24 30.05-12.72 39.2-27.51 2.49-4 3.91-9.2 9.72-10.08a5.6 5.6 0 014.59 2.14c1.48 12.17-7.53 19.72-12.82 28.91-8.11 10.24-19.16 15.39-31.54 18.25-15.38.17-30.77 0-46.16-.15-2.23-.02-4.48-.07-5.95-2.2z" class="cls-47"/> <path d="M456.66 459.93l22.24 6.19a24.37 24.37 0 013.91 1.82c2 3.28 7.2 3 8.28 7.31-6.74 3.54-14.49 5.05-19.9 11.35-3.09 3.61-3.9-.64-4.95-2.74-4.27-2.31-6.42-6.31-8.37-10.48 2.23-4.71-5.54-8.55-1.21-13.45z" class="cls-29"/> <path d="M491.09 475.25l-6.62.22c-2.73.09-6.38 2.77-7.85-1.08s3.18-4.27 5-6.3c12.3-.87 24.69 1.52 37-1 4.91-.17 9.83.73 8.93 6.85-.87 5.87-5.31 6.39-10.15 3.72-8.84-.26-17.4-3.66-26.31-2.41z" class="cls-29"/> <path d="M517.37 477.64c2.68-1.17 7.31.17 7.29-4.55 0-4.31-4.28-4.06-7.13-5.18-.73-1.09-.39-1.66.88-1.77a15 15 0 0010.75-2.64l15.38-3A4.84 4.84 0 01547 463a6.6 6.6 0 01.13 3.47c-2.13 3.9-5.13 7.23-7.96 10.53-9 10.34-9.13 10.19-21.2 2.24-.22-.54-.42-1.07-.6-1.6z" class="cls-29"/> <path d="M461.45 472.64c.61 4.16 5.61 6.45 4.79 11.22l-2.92 7.41C458.07 473 444.05 465.63 427 462c-1.06-3.41 1.13-4.72 3.71-5.8 12.29 1.61 24.7 3.12 30.74 16.44z" class="cls-48"/> <path d="M518 479.22c8.9 5.29 15.36 2.7 20.39-5.89 1.67-2.85 4.33-5.12 6.53-7.66 2.78.35 3.1 2.83 4.09 4.72C543.31 475.6 537 482 536 489c-3.2.07 0 0-3 0-6-2-6 1-13.09-7.08a29.36 29.36 0 01-1.91-2.7zM307.26 481.71l-1.83.09-2.19-2q2-5 3.94-9.94c1.25-13 12.32-11.42 20.64-13.95 3 .59 6.2.73 7.9 3.91.26 1.08.77 2.61.07 3.21-8.7 7.48-16.13 16.91-28.53 18.68zM447.72 560.87c1.42-10 9.78-17.19 11.31-27.18.89-2.91-.75-7.12 4.12-8A7.28 7.28 0 01467 527c-5 13-8.47 25.12-19.28 33.87zM364.07 576.76c14.95-.27 30 1.62 44.8-1.22 4.24-.82 4.72 2.82 7.31 3.58-3 1.83-6.24 2-9.58 1.87-12.56-.62-25.11-1.43-37.67.08l-7.18-1.63c.77-.89 1.55-1.78 2.32-2.68z" class="cls-47"/> <path d="M463.64 513.69c.66-.19 1.33-.37 2-.53 4.48 5.39.09 9.4-2.14 13.75l-4.5 6.78-2.06-2.2c4-9.49 6-15.49 6-23.49" class="cls-47"/> <path d="M463.5 526.91c.71-4.58-.5-9.91-.5-17.91 0-5-1.41-25.32 3-25s6 24 5 29c-1.5 7.51-2 9-4 14zM685.21 540.54c2.17-1.72 2.44-6.51 7-4.35-3 9.22-8.81 16.41-15.88 22.76-1.93-8.5 8.16-11.2 8.88-18.41zM368.93 581.07a74.66 74.66 0 0137.67-.07c-12.55 2.07-25.11.72-37.67.07z" class="cls-47"/> <path d="M735.46 595.22l-2.82-2.9c3.55-3.27 2.88-12.17 11.53-8.63-2.1 4.45-4.64 8.56-8.71 11.53z" class="cls-28"/> <path d="M545.09 464c-.19-1.16-.37-2.31-.55-3.47l11.86-5.9c25-6.73 50.17-11.81 76.27-9.18 8.48.86 17.17.72 25.05 4.77-3.66 1.85-6.74 5-11.27 4.86-22-.61-44-1.74-65.9 1.94l-9.71 2c-8.71 1.06-16.03 9.3-25.75 4.98z" class="cls-29"/> <path d="M649.21 454.14c1.75-3.66 5.31-3.4 8.51-3.91 6.6 3.26 13.86.91 20.67 2.4 6.83 5.78 16.19 5 23.68 9.16 3.45 1.91 8.4 2.57 5.68 8.51-5.5 1.3-10.6-1.07-15.88-1.7-12.26-6.09-24-13.72-38.4-13.73-1.47.13-.47.13-4.26-.73zM461.45 472.64c-8.09-7.67-18-11.68-28.69-13.9-5.86-1.51-11.82-.52-17.74-.79-6.31-.5-12.45-2.1-18.75-2.66-4.67-2.27-14.06-.2-13.37-6.24.58-5 9.5-1.54 14.66-2.27 2.46-.34 5.17-.62 7.53.89l11 .22a260.66 260.66 0 0140.57 12c-.1 4.91 12.34 5.11 4.79 12.75z" class="cls-29"/> <path d="M405.09 447.67h-17.75l-.17 1.3 10.93 2.94c-1.61 3.19-4.62 3.76-7.66 3.68-15.45-.43-30.77 1.26-46.13 2.35-2.95 0-5.68-.52-7.46-3.22 3.35-6.8 11.31-3.1 15.94-7 17.43-2.72 34.86-4.13 52.3-.05zM327.58 459c-7.75 1.84-14.17 6.2-20.4 10.89-6.5-1.53-14.89 7.24-19.68-3.6 13.47-9.44 28.14-14.35 44.77-11.81-.57 2.52-3.16 2.98-4.69 4.52z" class="cls-29"/> <path d="M334.68 461.44l-7.1-2.43 4.69-4.52 4.58.23 7.24.28c3.58 2.33 10.9-2.7 13.91 2" class="cls-47"/> <path d="M518.41 466.14a10.43 10.43 0 00-.88 1.77c-11.94 3.81-23.91 3-35.89.18l-2.73-2z" class="cls-33"/> <path d="M567.81 488.8c5.73-5.36 13.39-5 20.3-6.94 4.27 3.86 11.55 2.45 14.68 8.34 1.84 3.75-3.2 6.55-1.57 10.38 9-4.56 9.32-7.73 1.92-16a3.35 3.35 0 01.82-2.9c9.35-3.33 18.16-1.81 26.61 3 5 11.77 5.53 22.64-6.31 31-17.34 10.15-34.81 6.28-52.29.42-3.22-8.87-5.49-17.81-4.16-27.3z" class="cls-49"/> <path d="M624.26 515.6c3.76-10 4.74-20.54 6.31-31 8 2.92 16.53 4.45 23.85 9.2 3.58 2.32 5.06 4.8.78 7.56-9.63 6.21-18.65 13.8-30.94 14.24zM567.81 488.8c1.72.39 4.39-.58 4.82 1.8 1.34 7.35 2.39 14.77 3.26 22.19.29 2.45-2.24 2.59-3.92 3.23-4.52-1.33-9.14-2.41-13.55-4-12.49-4.64-12.65-5.65-2.2-14.65 3.63-3.17 7.72-5.74 11.59-8.57z" class="cls-50"/> <path d="M604 481.64c.07.86.13 1.72.2 2.58 1.61 3.18 2.28 6-2.6 6.62-6.47 0-14.11 1.73-13.45-9 5.22-1.76 10.49-2.74 15.85-.2z" style="fill:#d3d3d3"/> <path d="M649.21 454.14l4.26.73-9.92 2.47-5.81-.45a129.59 129.59 0 00-38.48 0c-6.23 1.29-12.45 4.78-18.71.11 9-6.2 19.49-5 29.44-5.28 13.09-.31 26.34-1.39 39.22 2.42z" class="cls-47"/> <path d="M545.09 464c8.81-.45 34.91-15 44.91-5-9.77 2.16-35 5.19-41 11.39a7.27 7.27 0 01-4.09-4.72c.09-.55.09-1.11.18-1.67zM599.26 456.92a69.25 69.25 0 0138.48 0zM633.19 576.78l-2.27 2.3h-33.41v-2.3z" class="cls-47"/> <path d="M712.42 468.14l-4.67 2.16c-5.88-6-14.39-6-21.41-9.43-3.65-1.78-8.88-2-8-8.24l13.49.13c7.34 4.54 19.84 2.11 20.59 15.38z" class="cls-29"/> <path d="M334.68 461.44C348 457 349 459 356 457c14-5.54 26.82-1.7 41.06.46.64 4.09 3.84 6.74 5.84 10.11-13.34 3.07-27.32 1.95-40.48 6.24a5.6 5.6 0 00-2.75 1.6c-9.36 5.42-19.67 9.28-27.6 17.07-4.17 4.1-5.47 6.24.88 10.82 20.31 14.64 41.83 24.68 67.4 24.27 11.81-.19 22.85-3.55 33.83-7.39 3.28-.49 8.57-2.52 11.82-3.18 16.14-3.29 22-13 11 14.49-15.71 37.49-44.78 49.32-95.19 41.28-29.22-7.4-46.09-26.94-54.09-55.12-3.41-11.9-1.72-31.65.28-35.65 2-7 15.44-16.65 26.68-20.56z" class="cls-13"/> <path d="M368.61 484a67.87 67.87 0 0150.16-.34c-1.13 9.84 6.8 18.77 2.91 28.89-.56 1.95-2 3.3-3.29 4.78-16.12 7.11-31.95 5.28-47.64-1.46-5.75-10.26-7.1-20.87-2.14-31.87z" class="cls-49"/> <path d="M368.61 484c3.46 9.45.28 20.14 5.38 29.34.1.19-2.11 1.66-3.24 2.53-8.88-3.91-17.73-7.84-25.6-13.67-4.82-3.57-4.32-6.67.79-8.94C353.4 490 361 487.1 368.61 484zM418.39 517.36v-3.93c4.39-5 3.64-10.82 3.23-16.77-.5-7.31 1.55-12 10.14-7.85 7.78 5.08 15.68 10 20.16 19.51z" class="cls-50"/> <path d="M431.74 488.81c-5.82-.57-5.3 3.3-5.33 7.21-.05 6.94-2.14 13.09-8 17.41l-7.47-4.32c1.53-5.07 5.74.43 7.65-2.93-4.75-7.34-8-15 .21-22.49 4.73.6 9.55 1.06 12.94 5.12z" class="cls-49"/> <path d="M359.67 475.41c8.5-6.29 18.66-6.18 28.47-7.26 4.73-.52 7.38-1.82 11.86-4.15 3-3.49 8.41.11 11.59 1.92 4.53 2.13 14.13-1.72 11.07 9.37-21.01-6.7-42-4.52-62.99.12z" class="cls-13"/> <path d="M398 461.33c-14.25-4.8-29-.64-43.43-2.49.33-.55.67-1.09 1-1.61 1.19-1.92 3.1-2.38 5.15-2.52 12.64-.22 25.27 0 37.9-.1 1.93 0 3.87 0 5.79.18 4.52 2.72 11.77-.75 14.39 6.31l-9.44 2.51c-4.14 1-8.64 3.73-11.36-2.28z" class="cls-13"/> <path d="M418.81 461.1l-14.74-3.75c3-5.2 8.23-.18 11.87-2.5a27.52 27.52 0 0116.82 3.89L427 462z" class="cls-48"/> <path d="M415.94 454.85c-3.64 2.34-7.88 1.78-11.87 2.5l-3.79-.41a144.8 144.8 0 00-40.74 0l-4 .31c-3.86-.6-7.94-.05-11.49-2.23 17.82-4.2 36-2.95 54-3.09z" class="cls-47"/> <path d="M601.56 490.84c2-1.75 2.24-4.21 2.6-6.62 7.33-.75 10 3.64 10.69 9.93s-2 11.09-7.71 13.49c-5.36 2.26-11 2.4-15.58-2.15-5.35-5.33-3.67-10.55 3.79-12.5 2.11-.56 4.14-1.43 6.21-2.15z" class="cls-46"/> <path d="M399.81 488.11c6.82-5.23 10-1.85 11.3 5 1.12 6-1 11.22-6.13 14.53-4.85 3.13-10 2.49-14.59-.95-5.44-4-7.39-9.15-4.36-15.6 4.55-1.19 8.17-6.69 13.78-2.98z" class="cls-43"/> <path d="M399.81 488.11c-3.89 4.23-8 7.63-13.78 3-1.29-4.47-2.82-9.18 4.25-9.9 5.05-.52 10.16-.62 9.53 6.9z" style="fill:#dedede"/> <path d="M359.54 456.92c13.58-3.57 27.16-3.88 40.74 0a297.78 297.78 0 00-40.74 0z" class="cls-47"/> <path d="M604.71 467.59l-22.83 1.81c13.82-7.52 22-7.91 35.94-2.08zM392.88 467.65c4.76-4.59 8.73-3.28 12.25-3.67 2.6 1.77 5.57 1.72 8.53 1.7" class="cls-13"/> </svg>
