<svg xmlns="http://www.w3.org/2000/svg" id="Ebene_1" data-name="Ebene 1" viewBox="0 0 1000 1000">
  <defs>
    <style>
      .cls-1{fill:#030202}.cls-2{fill:#f7cea6}.cls-4{fill:#e9e9e9}.cls-6{fill:#262626}.cls-9{fill:#d6d6d5}.cls-10{fill:#ddd}.cls-14{fill:#c9c9c8}.cls-15{fill:#d4d4d4}.cls-16{fill:#d7d7d6}.cls-33{fill:#4d1d0a}.cls-36{fill:#996e5e}.cls-37{fill:#7f5542}.cls-39{fill:#542614}.cls-40{fill:#522411}.cls-42{fill:#956a59}.cls-54{fill:#1b120c}.cls-60{fill:#e2a386}.cls-67{fill:#0e0907}.cls-76{fill:#f7f7f7}
    </style>
  </defs>
  <path id="bg" d="M717.36 859.07c28 3.28 47.46 20 58.11 44 11.66 26.27 14.33 55.47 17.72 84.07 1.22 10.31-2 14.44-12.37 12.32-6.85-3.51-7-10.4-7.85-16.59-.79-5.55-1.27-11.14-2.57-16.6a249 249 0 00-6.19-39.73c-5.71-23.84-20.29-40.23-44.22-47.63-5.83-1.8-11.65-3.61-17.62-4.91-3.19-.82-6.38-1.79-9.35.61-23.4 19-52.9 24.89-79.6 36.78-13.79 6.14-28 11.27-42.4 16-3.85 1.28-7.48 3.44-11.8 2.49-2.84-1-4-3.08-4-5.94 1-7.26 2.73-14 10.87-16.57 5.82 2.74 11.14 2.15 17.36-.2 28.7-10.82 57.4-21.57 84.92-35.19 14.2-3.9 10.47-16.33 12.37-26.08 5.51-16.81 3.4-21.79-13.11-27.64-17.58-6.22-35-13.42-54.33-11.91-13.88 7-25.59 16.88-38.07 28.21a241.37 241.37 0 0126.49 5.92c19.81 5.62 38.32-1.53 49.34-19.08a6.24 6.24 0 016.25-2.88c9.92 5.94 10.77 9.54 3.92 17.78-7.32 8.82-17.76 13.11-27.61 18-32.31 16-64.58 32-94.88 51.74-10.34 6.71-20.13 13.92-28 23.68s-11.7 9.77-19.37.63c-13.18-15.68-29.7-26.93-47.39-36.62-30.9-16.93-62.44-32.63-93.47-49.32-8.67-4.67-16.07-10.22-14.11-21.82 3-5.46 7.64-8.43 13.67-9.44 2.63.07 4.93.69 5.75 3.63-3.72 7.17-1.34 11.24 5.4 15.8 13.76 9.31 27.44 13.64 43.66 7.08a73.51 73.51 0 0119.51-4.48c-7.32-8-16.49-13.51-24.45-20.39-4.39-4.58-10.57-5.8-16-8.5-12.12-.89-23.45 2.94-34.93 5.79-8.78 4.22-19.26 4.73-26.51 12.22-5.3 6.31-3.89 13.37-2.3 20.44 2.94 7.28-4 15.69 2.62 22.52 11.54 9.49 25.17 15 39 19.92 23 8.2 46.09 16.14 68.94 24.74 6 2.27 11.07 1.4 16-2.1 3.34-.71 7.09-.92 6.87 3.68-.26 5.5 2.83 9.86 3.76 14.9a8.81 8.81 0 01-.39 3.6 5.32 5.32 0 01-4.53 2.69C409.63 920.79 367.08 906 325.76 888c-2.63-1.15-5.81-1.94-7.47-4.15-11.1-14.85-24.69-10.72-38.5-5.4-23.25 6.67-36.29 23.14-43.41 45.29-4.72 19.89-6.1 40.21-8.14 60.44-.58 5.78-.81 11.5-6.36 15.1l-16.07-.16c-2.48-1.1-2.2-3.31-1.71-5.18a353.24 353.24 0 0010-61.06c2.79-34.1 22.41-57.74 52.53-72.88 4.36-2.19 9.61-1.49 14.5-1.93 9.13-.82 15.18-5.67 16.15-15.29 3.06-30.29 15-43 45.66-48.63 5.95-1.1 13.54-1.19 15.9-7.44 2.47-6.56-5.12-9.44-8.79-13.37-8.38-9-16.71-18.16-26.1-26-18.06-15.13-30.13-34.45-38.38-55.79-4.12-10.68-7.82-22.19-8-34.2-.2-16.59-2.34-19.42-18.27-24a55.67 55.67 0 01-10.89-6.8c-16.64-11.68-22.8-21-33.36-34.15-8-11.63-12.93-22.44-18.62-37.52-6.24-24.78-4.87-50.05-4.91-75.22 0-24 6.75-34.33 28.25-43.3l12.42-2.36a78.51 78.51 0 00-.91-31.3c-7.66-32.7-10.42-66.14-7.11-99.41 1.4-14 4.05-28.64 9.94-42.38 6.17-14.42 10.35-29.85 9.1-46-.43-5.46-.52-11.6 4.35-14.61 16.08-9.94 19.69-28.46 30.14-42.21 5.67-7.45 11.29-15.05 15.46-23.45 3.51-7.06 10.74-7.08 16.44-9.47A195 195 0 00366 89.72a123.27 123.27 0 0113.46-10.61c18.51 2.18 33.8-7.16 49.81-13.93 39.18-14 78.86-19.38 120.5-11.59 34.07 6.36 62.32 23.75 91.12 41 27.07 16.24 54.5 31.88 79.39 51.45 9.72 7.64 20.31 14.85 10.89 30.1-3.49 5.64 2.61 10.51 5.25 15.35 11.53 21.13 25.5 41.46 29.27 65.67 5 31.91 12.4 63.42 4.44 96.67-4.23 17.69-2.68 37.05-5.72 55.59-1.31 8-7 17.13-3.69 23.33s14.18 1.45 21.72 4.29c17.18 6.47 23.74 20.54 24.87 36.14 2.39 33 3 66.76-12.23 97.31-13.56 27.26-32.33 51-61.84 63.07-8.83 3.6-13.16 8.58-13.3 18a35 35 0 01-5.15 18.51c-5.71 29.77-21.82 53.51-43 74.34-9.94 9.76-20 19.45-29.49 29.61-9.39 10-8.2 14.66 4.5 19.13 11 3.88 22.53 5.6 33.13 11.44 18.3 10.08 23.52 18.15 21.07 38.62-1.27 10.06 2.87 14.03 16.36 15.86z" class="cls-1"/>
  <path id="Gesicht" d="M685.48 562c24.73-17 31.11-42.73 33.17-70.44a59.83 59.83 0 00.06-6.14c-.1-3.8 1.19-6.52 5.44-6.48 4.44 0 5 3.18 5.1 6.77 1 24.42 3 48.65-3.61 73C715.77 595 708.52 632 701.55 669c-4.36 23.12-15.77 42.85-31.4 60.26-2.71 3-5.08 6.32-7.6 9.49-8.19 10-16.77 19.51-27.43 27-17.47 15.82-37.42 28.26-56.71 41.59-8.18-1.69-10.15 5.86-14.55 9.79-11.8 16.32-29.48 21.16-47.93 23.63-28.58 3.84-55.36-.58-78.82-19-7.29-5.72-8.5-19.4-22-17-34.76-23.39-67.22-49.36-93.48-82.43-13.22-16.66-22.11-35.14-26.05-56.11q-11.12-59.07-25.67-117.4c-5.28-21-2-42.38-3-63.57-.23-5 2.34-6.44 6.83-6.18 5.39.31 5.18 3.94 5.1 7.83-.29 14.76.1 29.43 7.37 42.9 4.51 5.29 8.51 11 12.85 16.39 15.17 19 35.49 28.75 59.22 31.33 18.39 2 36.88 1.45 54.82-3.72 25.74-7.43 42-26.08 54.74-48.23 5.9-10.27 10.18-21.43 17.19-31.13 8.26-11.44 17.29-12.33 25.58-.75 12.47 17.42 22.82 36 22.31 58.6.07 1.57 2.08.43.44.51-.16 0 0-.33-.12-1-.94-7.35 1.71-9.31 8.2-5.52a21.29 21.29 0 013.8 3.1C583.6 586 627 585.17 672.78 566.54c4.22-1.7 8.59-2.67 12.7-4.54z" class="cls-2"/>
  <path id="Hals" d="M500.08 915.4c-6.42 1.34-11.54-1.65-16.38-6.93-12.65-13.76-28.91-22.47-45.35-30.79-5.71-2.89-10.21-5.87-10-13.65s6-8.51 10.58-11.66c7.55-5.15 14.19-3.81 22.49-1.27 28.15 8.6 56.42 8.16 84.14-2.73 5.56-2.18 26.71 8.75 27.85 14.48 1.33 6.62-1.79 10.47-7.65 13.56-18.45 9.73-36.62 20-51.21 35.35-3.87 4.05-8.74 3.92-14.47 3.64z" style="fill:#f7cda4"/>
  <g id="Seatshirt">
    <path d="M234.42 920.65c7.15-22.27 20.07-38.8 44.1-44.27 1.82-1.16 4.12-.42 5.87-1.19 13.32-5.85 21.89-5.42 30.85 9.93 8 13.74 25.87 18.57 41.93 22.76 30.32 7.91 60 18.08 90.47 25.5a14.13 14.13 0 018.13 5.13c4.86 11.74 6.08 24.21 5.8 36.61-.18 8.14 5.82 16.59-.77 24.49l-160.31-.34c-3.12-3.51-3.06-8.31-5.33-13.36-1.81 5-.13 10.32-4 13.67l-57-.42c-4.45-2.57-5.11-6.94-5.6-11.48-2-17.84.53-35.41 3.78-52.81.82-4.74-.34-9.77 2.08-14.22zM702.5 871.33c42.58 6.32 62.59 27.22 68 72.09.88 7.24 4.57 14.16 2.73 21.71s1 15-1.26 22.52c-1.3 4.3-2.1 8.63-5.84 11.61l-57.68-.26c-5.66-5.24-4-12.6-5.5-18.86-.74 6.58-1.33 13.39-5.49 19.2L553.59 999c-4.69-17.29-3.67-34.57.09-51.84 2.09-11.32 9.13-16.62 20.1-20.22 24.52-8 49.63-13.94 74.21-21.72 17.62-5.58 33.93-12.46 43.35-29.67 2.59-4.7 6.11-6.26 11.16-4.22z" class="cls-4"/>
    <path d="M448.55 911c-3.89 7-8.35 7.78-16.27 4.68-27.9-10.93-56.34-20.5-84.47-30.87-9.86-3.64-19.5-8-27.12-15.64 2.1-7.78 7.6-3.86 11.55-2.89 14.27 3.49 27.52 10.29 42.33 13-15.2-7.64-31.1-13.28-45.79-21.61-5.66-3.21-9.09-7.06-11.13-12.78-3.2-8-6-16 2.56-22.64 4-1.76 7.56-4.61 11.83-5.5s8.54-.52 6 6c-.4 9.7 5.84 14.62 13.38 18.62C383.19 858.2 415 875 446.76 892c18.53 9.91 35.67 21.67 48.67 38.61 2.57 3.35 4.82 7 9.23 1.48 24-30.27 59.2-44.32 91.64-62.23 15.75-8.69 32.08-16.34 48.12-24.51 5.48-2.79 10.67-6 15-10.53 5.56-5.92 6.2-10.8-2.08-14.58-9.75-2.4-19.56-4.44-29.66-4.66-6.5-2.8-16.93-.4-16.52-12.39 24.66-.84 47.31 6.93 69.06 17.23 9.22 4.37 9.29 13 2.41 26.8-4.08 11.3-14.33 14.65-24 18.89-25.4 11.11-51.33 20.93-77.12 31.09-1.3 1.12 1.12 2.78.07 1.53-.32-.38-.19-.79.45-1.1 18.09-8.69 37.23-14.53 56.3-20.53 7-2.22 14.2-3.92 21.16-6.44 3.87-1.39 8.8-3.31 10.48 3.37-16.58 11.27-36.06 16.1-54.1 24.11-12.59 5.59-26.09 9.15-38.55 15-6.77 3.16-8.36.07-10.4-4.64-14.85-4.71-16.19-4-18.29 11.45-1.28 9.46-9.5 11.13-15.79 15.09-5.77 2.76-11.76 5-16.87 8.21 7.67-2.84 14.71-8.89 24.12-7.9a9.16 9.16 0 012.09 3.44c-.65 20.34.63 40.82-4.84 60.76l-61.91-.06c-6.09-12.8-1.66-27-5.41-40.16-.76-2.64-.22-5.61-.7-8.38-1.6-8.76.05-14 10.61-10.07-9.57-3.77-16.28-9.07-16.36-21.28-.1-8.04-6.7-11.51-15.02-8.6z" class="cls-4"/>
    <path d="M456 930.7l-.45-2.42c-.61-7.64 2.83-6.37 6.22-2.45 3.16 3.64 4.39 8.49 5.25 13.23 1.07 5.89 2 11.79 3.54 17.6-.41 10.11 3 19.89 2.63 30-.16 4.36.83 8.93-2.23 12.79l-5.68-.33c-5.93-15.92-3-33-6.6-49.29-1.41-6.26-3.56-12.52-2.68-19.13z" style="fill:#dcdcdc"/>
    <path d="M456 930.7c8.19 22.11 8.23 45.33 9.28 68.41l-4.44.5c-2.55-20.49-1.2-41.46-7.65-61.47a4.15 4.15 0 01-.25-4.6z" class="cls-6"/>
    <path d="M234.42 920.65c1.79 9.94-1.09 19.68-3 29-3.58 17.06 0 33.13 2.72 49.51l-12.21.09c2.68-19.55 5.22-39.11 8.12-58.62.95-6.73 2.87-13.32 4.37-19.98z" style="fill:#d1d1d1"/>
    <path d="M537.29 999.49c-1.52-16.52-.29-32.94 2.12-49.28.71-4.81 1.66-9.52.1-14.3 3.62-7.62 5.89-3.58 6.33 1.2s-.41 9.74 1.32 14.47c.52 7.16 2.43 14.49-2.61 20.95a3.6 3.6 0 00-.17 2.29c-3.23 7.95 1.17 16.69-2.57 24.59z" class="cls-6"/>
    <path d="M470.92 999.44q-1.51-21.65-3-43.28c-.11-3.21-3.81-7.72 3.06-8.37 3.59 17 6.22 34.15 4.41 51.64z" style="fill:#1a171c"/>
    <path d="M557.05 945.49c-4.41 17.64-3.27 35.64-3.46 53.55h-.91l-.89-.22c-5-12.88-.54-26.76-4.22-39.76-1.45-7.4-.21-14.59 1.7-21.72 2-4.52 1.43-9.94 4.83-14a3.31 3.31 0 013.48-.21c-.62 2.5-.15 4.54 2.42 5.68 0 5.76-2.51 11.04-2.95 16.68z" class="cls-6"/>
    <path d="M766.18 999.26q3.55-17.07 7.1-34.13c4.71 11 1.54 23.65 7.54 34.33z" class="cls-9"/>
    <path d="M552.1 935.88Q551 946.94 550 958c-.12 5 3.87 10.84-2.88 14.53h-2.53l-.2-22.24c.24-8.07-1.5-16.7 6.45-22.57 3.43 2.28 2.44 5.18 1.26 8.16z" class="cls-10"/>
    <path d="M697.46 999.33c0-8.35.38-16.63 5.21-25.06 6 8.06 4.18 16.81 5.78 24.73z" style="fill:#1a1a1c"/>
    <path d="M291.12 999.58c-.95-7.49-1.81-15 3.85-22.39 4.86 7.18 5.56 14.53 5.52 22.08z" class="cls-1"/>
    <path d="M547.08 972.52L550 958c4.28 13.45 0 27.29 1.83 40.86-4.34 1.43-4.63-1.28-4.63-4.44-.03-7.31-.09-14.6-.12-21.9z" style="fill:#121315"/>
    <path d="M541.81 999.41c1.77-8.1-1.64-16.74 2.57-24.59-.27 8.26 3.37 16.92-2.57 24.59z" class="cls-10"/>
    <path d="M652.2 822.9l-23.48-9.82c10.27-.57 20.3-.2 28.59 7.13-2.03.28-4.01.66-5.11 2.69z" style="fill:#a1a1a0"/>
    <path d="M611.13 803.16c2.48 9.32 12 6.14 17.6 9.92 8.17 2.43 17.77 1.47 23.47 9.82.51 2 1.06 4.39-.82 5.67-15.16 10.36-29 23.87-50.49 15.4-9.46-3.72-19.59-7.83-31.41-6.07 11.52-14.7 26.38-24.96 41.65-34.74zM401.59 813l31.71 24.72c-16.09-.33-28.17 5.4-40.95 8.17-8.48 1.85-39.18-10.92-43.1-18.45-3.12-6 3-7.16 5.74-10.07 13.34-9.99 33.64-11.89 46.6-4.37z" class="cls-14"/>
    <path d="M452.9 933.54c.08 1.53.17 3.07.25 4.6-20.73-5.67-41.72-10.57-62.13-17.23-23.09-7.55-47.8-10.48-68.8-24.34-5.62-3.71-12-7-13.33-13.39-2.31-11.26-8.2-12.11-17.27-8.79-4.17 1.52-8.42 3.4-13.1 2 3.38-1.31 6.78-2.58 10.14-4 10.66-4.37 18.89-3.08 28.15 5.66 14.45 13.65 34.52 17.59 52.8 24.27 25.23 9.21 50.64 17.94 75.93 27 2.62.99 4.92 2.81 7.36 4.22zM557.05 945.49c-1.94-6.06 1.29-11.21 3-16.63q52.9-20.8 105.82-41.59c9.15-3.59 18.18-7.34 25.08-14.78 3.46-3.73 7.28-5.27 11.6-1.16-3.5.59-6.53.58-8.48 5.18-6.9 16.3-21 24.36-37 29.32-27.42 8.51-54.85 17-82.54 24.52-9 2.43-15.82 5.29-17.48 15.14z" class="cls-15"/>
    <path d="M669.92 874c-3.69-3.71-7-1.36-11 0-27.52 9.09-55.19 17.75-83.26 25.44 14-9 29.7-14 44.6-20.88 21.11-9.73 44.91-14.28 62.36-31.32-.49 10.14 4.13 22.26-10.4 26.95a6.41 6.41 0 01-2.3-.19z" class="cls-9"/>
    <path d="M317.65 844.86c8.67 9.34 19.92 14.49 31.34 19.46 11.74 5.11 23.37 10.51 34.53 17.26-13.34 2.08-24.77-4.06-36.82-7.22-8.55-2.24-16.2-9.24-26-5.19-11.32-6.82.67-16.55-3.05-24.31z" class="cls-16"/>
    <path d="M471 947.79c-3.35 1.93-2.37 5.46-3.06 8.36-2.47-9.49-4.64-19.08-7.57-28.43-1.07-3.4-3.91-5.79-4.83.56-5.87-4.33-2.79-12.26-7-17.28 4.07-5.21 9.17-4.63 14-1.76 4 2.41 7.23 7.09 5.64 11.28-3.51 9.25 1.81 12.2 8.36 15.75 4.87 2.65 10.56 4.6 13.55 10.37-5.44 1.21-9.24-2.46-13.48-4.21-6.61-2.73-5.23 2.06-5.61 5.36z" class="cls-6"/>
    <path d="M549.91 928.46q-2.77 10.92-5.56 21.83c-3.6-4.34-1-8.92-.79-13.5.17-4.22-2.09-3.23-4-.88l-.9.25-.91-.2c-3.5 1.18-6.35 1.28-6.09-3.71 7.5-4.46 17.29-6.72 13.33-19.8-1.2-3.94 3.76-8.79 9.11-9.89 5.56-1.15 10.55-.42 12.82 5.88-5.41 3.46-7.29 9.15-9.29 14.75h-1.1c-1.55-1.5-1.48-3.45-1.5-5.38-.65 1.42-.81 3-1.53 4.4-1.14 2.17-1.96 4.44-3.59 6.25z" style="fill:#171717"/>
    <path d="M401.59 813c-11.12-6.69-21.8-.88-32.59 1.2-4.7.9-9.34 2.11-14 3.17l-5-2.37c-.23-4.88 3.76-4.24 6.62-5.09 9.72-4.43 20.91-2.62 30.6-7.21 2.66 6.41 12.53 2.81 14.37 10.3z" style="fill:#999998"/>
    <path d="M387.25 802.69c-8.44 8.65-20.71 4.68-30.39 9.23-2.86-1.62-6.54 1-9.16-1.77 12.65-5.3 25.73-8.35 39.55-7.46z" style="fill:#b8b8b8"/>
    <path d="M347.7 810.15c3 .82 6.6-1.37 9.16 1.77-2.37.81-5.24.53-6.83 3.07l-12 7.73c-.61-5.05-3.3-5.93-7.64-4-3.27 1.47-6.2 4-10.17 3.47 7.33-8.14 18.05-8.61 27.48-12.04z" class="cls-16"/>
    <path d="M531.61 932.25c1.12 2.72 3.65 3.15 6.09 3.71l-27.15 12.26c4.88-8.72 12.89-12.46 21.06-15.97z" style="fill:#9d9d9c"/>
    <path d="M549.91 928.46c-.51-5.43 3-9.28 4-14.7 5.08 3.48 2.59 6.65 2.58 9.48-4 3.34-.61 9.22-4.38 12.64-.56-2.52.49-5.52-2.2-7.42z" style="fill:#cccccb"/>
  </g>
  <g id="Mund">
    <path d="M501.42 715.66c-32.35-.26-60.75-3.55-88.62-10.92a47.85 47.85 0 00-15.8-1.52c-3.93.27-7.56-.8-8.86-5-1.14-3.69 1.37-6.23 3.89-8.36 2.9-2.44 6-4.19 10-2 31.75 17.17 66.81 17 101.26 17.62 25.75.47 51.44-3.42 76.51-10.27 4.37-1.19 8.66-1.69 11.76-5.62 2.88-3.65 6.58-4.83 10.61-1.41 3.17 2.7 6.61 5.61 5.34 10.25-1.35 5-5.85 4.81-10.06 5-20.51.87-39.92 8.31-60.39 10-13.06.98-26.06 1.85-35.64 2.23z" style="fill:#110906"/>
    <path d="M501.54 748.6c-12.84.21-23.14-2.1-33.41-4.65-2.82-.7-6.44-1.68-6.27-4.85.24-4.15 4.37-2.61 6.89-2.63 19.61-.16 39.22-.16 58.83-.12 2.24 0 5.42-.94 6 2.35.54 2.86-2 4.29-4.32 5.12a81.64 81.64 0 01-27.72 4.78z" style="fill:#db8e6a"/>
  </g>
  <g id="Nase">
    <path d="M441.43 635.24c-2.14-6.28-7.35-12.14-2.66-19.36 6.48-.68 1.77 5.77 4.69 7.36-.08 10.3 7.32 12.07 13.61 8.43 11.57-6.71 18.84-1.16 26.52 5.86 8.06 8.11 16.91 9.05 26.55 3 9.06-9.12 18.35-15.71 32.33-8.86 7.56 3.7 9.6-3.35 11-9 1.47-6-1.62-11.67-2.29-18.73 11.08 13.36 11 22.14.74 34.16a5.65 5.65 0 01-4.61 1.13c-13.38-1.85-24.83 2.4-35 10.92-9 6.49-18.17 7.22-27.48.61-8.2-7.5-17-12.77-29-11.32-4.83.56-10.51.4-14.4-4.2z" style="fill:#804932"/>
    <path d="M441.43 635.24c4.85 1.88 9.86 4.94 15 2.86 14.06-5.65 21.94 1.64 28.4 12.58-12.73-3.68-24.83-9.68-38.4-10.6-2.43-.17-4.13-2.39-5-4.84z" style="fill:#e09e7f"/>
    <path d="M512.35 650.07c7.37-10.55 15.68-18.29 30-12 2.65 1.17 6.35 0 9.56-.09z" style="fill:#df9a7a"/>
    <path d="M510.14 640.48c-9.49 11.12-16.7 10.32-26.55-3 8.46 4.52 17.68 2.23 26.55 3z" style="fill:#dc9370"/>
    <path d="M443.46 623.24l-4.69-7.36c.18-4.72 1.87-8.51 7.38-11.41-.99 6.89-1.84 12.83-2.69 18.77z" style="fill:#a75e40"/>
  </g>
  <g id="Haare">
    <path d="M468.07 69.38c21.92-4.27 43.88-7 66.06-1.8-4.43 3.81-9.86 2.91-15.13 3.36 1.4 1 4.54 1 4.43 2.41-.94 12 6.63 4.26 9.91 3.93 9.34-1 18.65-.53 28-.64 2.74 0 5.73 1.26 7.82-1.69 23.87 6.84 43.78 21.39 64.7 33.79 22.66 13.44 44.63 28 66.82 42.26 5.47 3.5 16 5.9 3.57 14.36-4 2.71-.31 5.65 1.42 8.29 9.87 15 20 29.72 28.72 45.45 15.77 28.33 22 58.61 21.92 90.59 0 12.69-.23 25.39-.35 38.09.57 12.4-8.32 20.16-14.75 28.88-5.69 7.71-11.77 4.34-17.06-1.4-4.47-5.59-6.61-12.24-8.1-19a249.28 249.28 0 01-5.8-66.43c2-3.8 5.67-1.48 10.22-2.36-11.14-7.32-8.24-20.84-17.14-29.49-9.39-9.13-21.18-10.29-32-14.36-15.58-5.88-16.66-7.2-7.73-21.55a229.82 229.82 0 00-25.6 9.21c-3.26 1.43-6.91 3.81-10.2.41-3-3.06-2.39-7-.53-10.33 5.06-9 1.78-9.25-7-9.16-33.84.32-65.24 9.65-96.05 22.6a70.79 70.79 0 01-35 5c-3.75-.39-7.73-1.29-8.61-5.59-.83-4 3-5.5 5.7-7 6.76-3.81 13.77-7.2 19.43-14-6.26-.47-11.22 2.39-16.51 3.55-4.47 1-9.37 1.68-12.05-3.18-2.35-4.25.39-7.8 3-11.11 2.75-3.51 6.59-6.06 9.81-11.52-13.67 9.17-25.68 17.93-39.09 24.38-4.71 2.27-9.27 6-14.08-.07-2.87-3.64-5.89-1-8.69.54-18.76 10.11-38.47 18-58.57 25-8.77 3.06-18 .23-26.68 3.24-15.14 2.84-29.71 7.06-41.89 17.12a33.12 33.12 0 00-7.51 6.07c-3.63 4.25-9.3 8.11-1.15 13.85 2.43 1.72 1.42 6.06.91 9.3-3.73 17.79-7.9 35.39-8 53.86-.05 12.25-7.95 23-10.36 35-.57 2.83-3.55 4.34-6.66 4.67-7.45-.6-9.22-7.35-12.84-12-2.93-3.76-4.32-8.79-10.33-9.47-3.28-.38-4.4-3.45-4.31-6.54.59-19.92-1.55-39.89 1.14-59.77q6.24-22.18 12.46-44.38a16.92 16.92 0 003.66-12.26c-.16-1.88-.4-4.41 2.13-4.88 2.73-.5 4.35 1.62 5.51 3.79a11.89 11.89 0 01.36 11.52c-1.88 3.67-1.69 6.83 1.57 9.59 1.41 2.88 1.27 5.79.41 7.28-.83-5.77 8.26-10.51 4.77-18.47 2.81-13.87 15.11-19.34 23.23-27.2-3.58 1-9.05 3.21-12-2-2.46-4.27 1.06-8.69 3.62-12.32 5.39-7.63 11.79-14.49 17.65-22.41-6.26-1-11.71 8.76-16.89 1.09-4.7-6.94 2.11-12 5-17.5 7.34-13.35 19.51-21.51 31.72-29.63 7.64-.52 13.14-6 19.88-8.5 6-2.24 11.14-9 18.8-4.36 2.23 1.36 2.94-.79 3.57-2 3.83-7 9.57-13.14 10.24-21.64 5.39-4.32 4.73.9 4.69 3.35-.09 6.38 2.76 6.33 7.17 3.85 5.93-1.27 10.22-5.15 14.42-9.16 5.2-4.46 10.72-8.34 17.52-9.94 4.92-2.2 6.11 7.58 11.6 3.56 13.28-10.89 28.62-17.63 42.43-22.65.95 0-.56.11-2 .36-2.18.4-4.05.12-5.33-1.84z" style="fill:#763b23"/>
    <path d="M269 382.23c4-15.36 17.62-28.44 10.94-46.34a3.23 3.23 0 01.14-2.35c7.62-14 3.68-30.85 11.05-44.9 3.11-9.61 4.21-19.73 7.6-29.27 12.93-10.28 27.41-16.67 44.08-17.57 23.16-2.76 46.36-2 69.51-.34 26.88 2 53.48 3.84 80.68 1.09 15.13-1.53 31.28 4.21 47.26 3.19 26.87-1.71 53.59-6.78 80.44-6.48 24.61.28 49.7.45 73.22 10.13 3.57 1.47 5.91 4.18 7.91 7.4 4.52 7.3 7.21 15.57 12.35 22.57 2.65 3.61 1.6 6.94-2.31 9.24 3.8 28.92.69 59 14.75 86.19a281.62 281.62 0 0111 57c.33 3.49-1.1 9.32 6.18 7a26.75 26.75 0 010 3.69c-.59 4.52 2.15 11.49-4.55 12.25-7 .8-4.14-7.3-6.29-11.67-6.27 14.56 4.93 16.54 13.22 20.53q-14.68 7.85-29.35 0l5.67-4.88c-5.41.77-11.39-3.08-13.19 4.82-7.35-.67-7.17-6.84-8.65-11.82.17-3.25-.13-6.84 4.8-6.68 5.86 1 10.15 9.68 16.47 5.3C728 446 723.31 438.75 723 433c-.8-13.52-3.5-26.89-6.76-39.94-7.76-31-12.63-62.43-15.84-94.28-3.24-32.23-17.14-43.43-49.64-43.34-38.91.11-77.57 4.83-116.39 6.67-15.16.71-30.25.46-45.41-.17-45.39-1.88-90.65-5.67-135.94-9-24.18-1.77-39.57 9.84-48.41 31.71a94.78 94.78 0 00-7.33 33.35c-.39 17-3.23 33.35-9.91 49-7.75 18.32-9.37 38.23-15.37 57-4 8.64-1.74 19.09-7.92 27.08-13.1 6.42-9-4.12-9.8-9.9 5.56-3.12 4-8.65 3.86-13.19-.54-13.35 4.68-25.61 6.52-38.48.41-2.94 2.34-5.19 4.34-7.28z" style="fill:#140503"/>
    <path d="M293.35 168c.33 2.64-.92 4.67-2.44 6.68-2.42 3.18-3.49 7-.76 10.12 3.91 4.41 6.13-1.6 9.25-2.43 3.51-.94 6.7-7.17 10.31-2.29 3.07 4.15-2.41 6.89-4.73 10-6.9 9.24-16.66 16.59-19.66 28.32 7.43 5.11 12.11-3.74 20.12-3-10.3 12.81-25.81 19-31.58 33.91-.95 4.41-2.78 8.16-7.37 9.84-10.2 2.71-7.48-3.39-4.53-7.57 4-5.62 3.5-10.16-1.24-16.52-3.19 6 .88 13.9-6.3 16.77.78-6 1.57-12 2.32-18 .83-6.66 1.88-13.13 10.43-14.07 6-.66 5.75-5.26 6.94-9.7 4.05-15.06 6.75-30.84 19.24-42.06z" style="fill:#51220f"/>
    <path d="M269 382.23c-2.21 18.62-9.38 36.54-7.58 55.77.58 6.19-3.46 5-7.13 3.15-1.46-20.61-6.86-40.52-10.93-60.65-5.38-26.58-3.94-53.39-3.56-80.18 0-1.38 1.41-2.75 2.17-4.12 0 18.77-.21 37.54.16 56.3.06 2.79-2.79 12.69 6.76 5.07 3.82-3.05 4.44 1.26 5.28 3.86 2.75 8.49 6.89 15.99 14.83 20.8z" style="fill:#4f1f0c"/>
    <path d="M743.75 438.71c-4.13 2.57-.9 8-6.69 13.23-1.85-27.28-9.56-51.62-10.45-77.15 6.3 5.61 11.52 5.73 14.57-3.17 3.11-9.09 14.74-12.87 14.74-23.84.73 21.61-6.06 42.23-8.34 63.45-.98 9.19-2.53 18.32-3.83 27.48z" class="cls-33"/>
    <path d="M421.47 91.72l-17.14 10.08c-2.38.4-3.54-.37-2.83-2.94 16.61-14.34 36.16-22.43 57.41-26.72 3.2-.64 6.34-1 9.16-2.76l13.18.82c-16.89 8.42-33.67 15-47.7 26.46-2.4 2-4.57 1.65-4.85-1.5-.49-5.76-3.65-4.77-7.23-3.44z" style="fill:#9b7162"/>
    <path d="M377.56 101.9c1.67 6.35-7.15 27.16-12.9 30.13a3.8 3.8 0 01-3.2.14c-6.5-4.3-7.45-3.95-16.13.32-6.3 3.1-11.73 10.14-20.25 5.87 17.36-12.36 36.01-22.83 52.48-36.46z" style="fill:#866962"/>
    <path d="M569.12 75c1.88 8.75-5.13 4.36-7.57 4.39-15.84.16-31.74-.69-46.94 7.61.09-6.54 6.1-6.53 8.52-10.07-2-6.5-8.46-1.68-12.75-4.72 7.86-4.67 15.79-4.71 23.75-4.58 11.45 3.37 24.09 1.25 34.99 7.37z" class="cls-36"/>
    <path d="M401.5 98.86l2.83 2.94c-3.9 4.63-6.81 11.26-14.91 7.3 2.87-4.77 7.58-7.43 12.08-10.24z" class="cls-37"/>
    <path d="M711.86 288.6c2.21-3.57 1.37-6.33-.92-9.94-4.5-7.13-8.61-14.62-12.6-22-5.83-10.84-19.56-10.17-30.59-12.07a177.37 177.37 0 00-41.75-2.22c-17.15 1.31-35-1.37-51.86 3.44-21.38 6.09-43.73 6-64.49 2.35-14.81-2.58-27.74.91-41.51.93a425.42 425.42 0 01-46-2.45c-26.39-2.84-52.8-4.63-79.33-4.84 9.19-5.92 20-2 30.35-5.8 20-7.37 39.49-15.12 57.94-25.71 3.56-2 8.87-6.76 8.71 3.53-.09 5.42 4.23 2 6.12.94 12.88-7.54 26.44-14 37.89-23.86 3.66-3.15 7.64-5.8 14-4.73-3.44 8.54-10.51 12.51-15.32 18.3-2.05 2.45-5.51 4.7-3.29 8.35 2.06 3.38 6.36 2.82 8.91 1.45 7.82-4.21 16.44-4 25.65-6.1-7.39 13.09-19.74 18.47-34.26 26.1 18.48 5.5 33.4 1.95 47.71-3.87 26.12-10.61 52.45-19.91 81.08-20.37 5.7-.09 11.39.27 17-1.83 2.92-1.1 6.88-1.81 9.09 1.26s-.58 6.18-2 9c-.88 1.82-2.46 3.3-3.31 5.13-1.05 2.27-1.58 5 .46 6.86s3.56-.4 5.35-1.17c8.56-3.66 17.25-7 25.77-10.75 4.13-1.83 7 .25 10.09 1.77-.14 4.2-3.82 4.24-5.78 6-2.81 2.55-5.54 5.17-4.53 9.39 1 4.42 5 3.11 8 3.78 16.8 3.7 32.54 9.54 44.46 22.8.54.6 1.84 1.33 1.74 1.59-4.95 12.25 9.13 19 9.28 30.14-5.37.15-7.15-6.09-12.06-5.4z" class="cls-33"/>
    <path d="M478.66 131.71C489.94 110 510 107.09 531 105c.75 6-5 5.78-6.42 8.68-1.82 3.58-12.37 4.47-4 11.78 1.12 1-13.41 15.27-15.27 14.56-4.35-1.65-3-5.51-2.23-8.36.79-3.07 2.76-5.86 4.3-8.73.9-1.68 3.09-3.27.94-5.23-1.78-1.61-3.77-.55-5.6.49q-12.02 6.81-24.06 13.52z" style="fill:#9c7363"/>
    <path d="M549.45 138.67c-11.08 2.65-18.85 10.76-27.83 16.88-1.66 1.12-3.57 3.07-5.24 1.14-1.08-1.25-1.64-4.35-.85-5.6 8.29-13 15-27.32 28.35-36.39.78-.54 2.24-.07 4.08-.07-2.83 5.87-5.39 11.19-8 16.57 5.3 4.25 13.84-5.61 16.69 4.71-1.65 2.77-3.87 4.26-7.2 2.76z" class="cls-39"/>
    <path d="M479.33 102.77c-3.57 5.79-12 5-12.24 10.8-.25 5.5 7.41.78 10 5.73-9.75 6.62-22.28 8.16-31.73 15.61-1.9 1.5-3.93.18-5.21-1.55a5.79 5.79 0 01-.56-5.76c3.9-10.75 27.17-25.66 39.74-24.83z" class="cls-40"/>
    <path d="M716.17 224.7c-15.47-9.91-28.36-18.12-44.71-23.4 9.23-6.15 17.53-6.25 25.89-6.06 5.4.12 10.78-1.65 6.38 8.27-3.37 7.59 9.08 10.12 12.44 21.19z" class="cls-39"/>
    <path d="M570.67 165.4c14.81-16.34 44.24-24.78 68.08-19.76z" class="cls-36"/>
    <path d="M399.48 181.68c-9.13 16.3-24.66 23.39-41.51 28.46-2.88.87-6 3.56-8.6-.59 5.27-.91.79-8.19 6.68-9.49 10.68-2.36 20.32-7.84 30.47-11.73 4.72-1.8 8.05-5.18 12.96-6.65z" style="fill:#966b5b"/>
    <path d="M617.12 134.43c-14.46 6.07-29.72 9.9-43.47 18.87 2.63-14.75 25.26-24.8 43.47-18.87z" class="cls-39"/>
    <path d="M448.37 196.37c11.22-13.68 23.29-26.14 40.5-38.29-9.87 20.06-22.95 31.64-40.5 38.29z" class="cls-42"/>
    <path d="M636.13 166.82c6.63-11 18.86-9.94 27.42-15.47 1.41-.91 5.61 0 5 1.5-1.77 4.15.12 12-4.59 12.14-9.03.25-17.96 4.75-27.83 1.83z" class="cls-40"/>
    <path d="M317.6 181.82c10.71-17.32 26-29.27 43.6-38.6-11.2 16.63-30.32 24.37-43.6 38.6z" class="cls-42"/>
    <path d="M418.35 133.32c.22 6.25-19 32.1-24.83 33.83-1.69.51-3.23.37-4.33-1.09s-.54-3.07.7-4.24c9.15-8.69 17.36-18.08 22.77-29.66.67-1.44 2.28-2.55 4-1.39.86.6 1.27 1.89 1.69 2.55z" style="fill:#562816"/>
    <path d="M556.27 209.3c11-21.69 24.91-24.32 45.45-19.31-16.33 4.64-30.37 8.72-45.45 19.31z" class="cls-40"/>
    <path d="M343.54 184.53c.75-8 5.74-13 10-17.89 2.57-3 5.89-8.06 10.24-6.87 5 1.36 1.14 6.34 1 9.51-.24 4.77.36 11.45-8.19 9.59-5.35-1.14-6.59 5.73-13.05 5.66z" class="cls-39"/>
    <path d="M431.33 111.11c9.65-14 27.53-20.86 42.78-16.21-16.7 2.98-29.21 10.76-42.78 16.21z" style="fill:#936756"/>
    <path d="M298.72 259.37c3.53 11.33-2.89 20.08-7.59 29.27.54-6.26.1-11.2-9.17-4.07 1.97-12.57 8.11-19.72 16.76-25.2z" style="fill:#371008"/>
    <path d="M549.45 138.67l7.21-2.75c5.67 1.35 9.74-8.47 17.17-1.81a184.34 184.34 0 00-33.45 20c.21-8.48 7.24-10.41 9.07-15.44z" style="fill:#946857"/>
    <path d="M579.94 111.66c8.72-10.32 31.62-10.26 42.67.14-14.78-2.8-28.18-4.17-42.67-.14z" class="cls-39"/>
    <path d="M454 171.68c-7.36 9.55-18.49 12.4-28.6 17.16 6.18-11.43 18.04-13.22 28.6-17.16z" style="fill:#926554"/>
    <path d="M266.49 259.14c2.1-3.54 3.29-7.78 7.37-9.84 1.52.08 5.35-2 4 .94-3.67 8.27-5.88 17.49-12.71 24.67-2.72-5.98 2.54-10.56 1.34-15.77z" style="fill:#825846"/>
    <path d="M421.47 91.72c7.87-7.74 10-1.51 12.08 4.94-2.78 3.27-5.7 7-7.17-.77-.55-2.89-2.46-3.74-4.91-4.17z" class="cls-37"/>
  </g>
  <path id="Strin" d="M306 438.69c-7.09 2.31-13.56 5.93-18 11.89s-10.29 6.78-16.1 5.11c-7.32-2.1-3.13-9-3.55-13.59-.55-6 .4-12.08.7-18.12 4.1-30.16 16.72-58.07 23.15-87.6 2.88-13.2 1.15-27 4.75-40.22 8.71-32 22.16-49 58.4-46.49 54.35 3.83 108.67 9.8 163.23 8.54 42.18-1 84.31-4.14 126.46-6.23a152.31 152.31 0 0116 .11c22.64 1.23 33.49 9.65 40.31 31.17 1 3.11 2.23 6.34 2.28 9.53.78 49.59 18.58 96.4 23.56 145.28.6 5.83 4.69 13.85-1.08 17.05-7.29 4.05-15 .41-19.89-7.08-.77-1.17-2.74-1.56-4.16-2.31-5.67-.51-10.1-3.89-14.93-6.41-8.31-8.43-19.77-9.29-30.23-12.29a184.79 184.79 0 00-88.45-3.58c-12.11 2.42-23 6.29-26 20.31-29.61 12.72-59.17 13.5-88.67-.35-2-12.61-11-17.1-22.18-19.52a180.33 180.33 0 00-84 1.43c-14.03 3.62-29.04 4.89-41.6 13.37z" class="cls-2"/>
  <g id="Brille">
    <path d="M685.48 562c-24.91 19.5-53.65 22.05-83.68 18.91-26.45-2.76-47.92-15-65-35.63-3.8 5.7 2 10.53-1.3 15.16-3.7-3.26-5-7.93-5.26-12.1-1.2-21.06-12.23-37.86-23-54.74-5.29-8.3-13-7.94-18.42.42a259.74 259.74 0 00-16.17 28.78c-24 50.08-64.71 64.29-115.77 57.84-30.68-3.85-55.88-17.81-69.88-47.36a17.37 17.37 0 01-.84-3.5c1.66.13 3.35 2.71 5 0 2.93-1.05 4.85.56 6.67 2.48 16 26.53 40.34 37.92 70.4 38.61 16.26.37 32.39.54 48.06-6C440 555 454.83 537 465.64 514.76a35.66 35.66 0 005.13-11.4c2.84-9.2 2.43-18.73 1.11-27.9-2.18-15.1-15.05-20.3-27-25.58-4.75-2.11-10.17-2.88-15.33-4.15a210.46 210.46 0 00-28.73-3.62c-4.13-.21-10.6.61-10.77-4.74-.15-4.64 6-3.87 9.89-4.42 4.09.19 8-1 12-1.66 14.82.57 29.18 3.25 42.7 9.6 28.81 12.37 57.61 12.87 86.41 0 11-3.47 21.68-8.55 33.65-8.06 10.31-.3 20.7 1.23 30.91-1.36 4.3-.74 8.57-1.13 12.42 1.57a3.22 3.22 0 01.23 3.92c-6.66 5.71-14.78 5-22.73 5.17-5.16.08-10.37-.5-15.4 1.16-11.08 2.65-22.43 4-33.06 8.66-19.63 8.55-29.14 23.68-23.16 44 8.72 29.77 23.66 56.24 54.68 68.11 29 11.09 58.4 9.38 87.32-1.78 4.42-1.71 8.58-5.14 13.88-3.09 1.28 2.29 3.5 2.53 5.69 2.81z" style="fill:#0d0504"/>
    <path d="M401.81 436.3h-9.37c13.05 2.94 26.53 1.8 39 7.23 8.78 5.69 20.15 6.23 27.93 13.85 4.57 4.48 12.49 7.26 8.93 16.27-2.65.86-5 0-7.38-1.13-17.34-14.82-38-19.16-60.16-20.93-18.38-1.46-36.7-1.94-55.08-2.09a90.91 90.91 0 00-23.05 3.08c-10.73 2.71-17.95 9.28-21.78 19.71-1.5 4.09-1.36 9.11-6 11.59a4.72 4.72 0 01-4.94-2.08c-3-20.88 8.78-34.42 31.3-39.18-11.47 2.69-25.22 7.58-30.89 23.83a3.11 3.11 0 01-4 1.88c-.64-3.84 1.81-9.45-5.3-9.66-4.24-.13-2.59 2.73-2.25 4.86q-14.64 7.79-29.26 0c5.69-5.66 13.21-.6 19.64-3.4-1.36-3.21-5.64-4.86-5-9.06a71.39 71.39 0 015-27.07c4.9 5.62 2.59 12.49 3.2 18.84.92 9.67 4.65 11.69 12.5 5.71 6.88-5.25 13.63-10.46 22.06-13 18.9-7.34 38.83-6.38 58.51-7.5a167.31 167.31 0 0026.34 2.61c3.92.14 9.33-.93 10.05 5.64z" style="fill:#150e0a"/>
    <path d="M679.81 559.26c-33.18 17.58-67.73 21-102.89 7.67-32.44-12.3-47.71-40.12-56.35-71.06-6.15-22 4.23-37.64 25.25-46.79 10.63-4.63 21.71-6.86 33.13-7.92a21.68 21.68 0 0115.92.45c-5.89 6.85-13.41 5.8-19.75 7.05-7.66 1.5-15.24 3.12-22.44 6-21.32 8.6-29.18 25.69-21.68 47.5 2.17 6.31 3.15 13.67 10.35 17.07 3.93 1.87 6.18 5.38 8.3 8.85 14.28 23.33 36.7 30.51 62.31 33.07 29.35 2.94 53.65-7.36 75.67-25.35 1.43-.77 3.07-1.24 4.21-2.42 18.37-19 15-65.11-5.64-81.77-3-2.4-12.55-4.74-1.91-10.19 7.44.34 13.78 2.71 17.6 9.66l7.39 12.3c3.46 16.93 2.66 33.43-1.18 50.5-4.25 18.96-14.72 32.85-28.29 45.38z" class="cls-6"/>
    <path d="M291.07 480.52l2.78 2.59c4.68 6.34 3.84 14.1 4.88 21.2 4.93 33.63 27.7 51.39 59.78 55.81 22.6 3.11 46.17 3.35 66.42-10.94 24.14-17 39.12-39.14 37-70.13-.19-2.84-.9-5.73 1.17-8.24l5.09 2.36c8.38 3.57 5.41 11.32 5.83 17.39.32 4.69-1.51 9.54-1 14.43a12.9 12.9 0 01-4.77 10c-9 10.37-13.69 23.74-24.34 33.13-16.59 14.61-35.55 22.91-57.51 23.23-12.14.17-24.33 1.61-36.52-1.62-22.67-6-40.85-17.94-53.89-37.52l-4.83-2.5c-2.18-9.69-6-19.09-5.06-29.31 2.15-6.5-4.46-15.18 4.97-19.88z" style="fill:#231a15"/>
    <path d="M291.07 480.52c-5.91 5.57 1.07 14.35-4.95 19.89-5.51-10.71-1-21.39.14-32.08 7.61-20.27 23-27.8 43.74-26.22a53.19 53.19 0 00-27.42 11.35c-8.48 6.75-11.33 16.48-11.51 27.06z" class="cls-6"/>
    <path d="M249.45 463.51h29.26c-.13 2.34.57 5.68-2.18 6.27a59.63 59.63 0 01-24.92 0c-2.75-.59-2.03-3.94-2.16-6.27z" style="fill:#969695"/>
    <path d="M716.8 463.47h29.35c-.17 2.33.65 5.74-2.11 6.31a58.39 58.39 0 01-25 0c-2.72-.63-2.04-3.96-2.24-6.31z" style="fill:#979797"/>
    <path d="M689.89 438.43c4.47 1.75 9.19 3.09 12.19 7.3-.13 1.79 2.6 3.68-.19 5.38l-17.11-7.65c-18.08-.29-35.9-4.34-54.07-3.66-4.37.17-9 .14-12.38-3.54v-2.28c7.2-5.89 15.91-6.61 24.38-5.55 15.97 1.98 32.81.36 47.18 10z" class="cls-1"/>
    <path d="M618.33 436.26c18.14-.42 36.25.06 54.24 2.58 4.32.61 8.71 1.59 12.21 4.62-1.4.61-5.49.85-1.45 3 25.74 13.83 25.35 37 22.29 61.15-1.23 9.68-3.44 19.15-10 26.85-1.45 1.71-2.79 5.95-6.34 2-2.34-4.84.94-8.61 2.63-12.54a79 79 0 006.84-31.86c-.11-26-7.59-35.51-33.2-41.47-29.67-1.73-59.29-2.84-88.69 2.77-4.55 1.9-9.4 2.76-14.15 4-27.43 7.4-31.06 17.6-25.1 48.29.89 4.6 5.25 8.6 2.18 13.83-.62 2.29-1.83 6.06-4 1.84-4.89-9.71-10.22-19.48-10.91-30.71-1.41-22.95 14.61-39.78 43.17-44.09 7.58-1.14 14.85-4.37 22.83-5.46H579c12.62-5.2 26.58-.06 39.33-4.8z" class="cls-54"/>
    <path d="M689.89 438.43c-11.57-.49-22.36-4.92-34.19-5.46a250.11 250.11 0 00-37.36 1l-12.38.25c-10.58 2.4-21.52-1-32.07 2-11.33-1-20.95 5.06-31.43 7.57-3.66-11.11 1.69-16.67 11.76-19.86 35.45-11.25 70.88-9.37 106.11.55 10.48 2.91 22.52 3.4 29.56 13.95z" style="fill:#5d3421"/>
    <path d="M306 438.69c20.5-16.12 45.49-18.51 69.82-21.35 23.57-2.74 47.3-1.46 69.91 7.52 8.85 3.52 14.1 8.57 8.08 18.55a155.69 155.69 0 00-42.06-9.41c-12.71-.65-25.12-3.81-37.84-4.48-3.28-.17-6.36-.71-9 1.86-19.75 1.22-39.74.99-58.91 7.31z" style="fill:#5b321f"/>
    <path d="M296 532.23c6.56 1.66 9.11 7.89 13.11 12.17 36.46 39.08 127.28 35.45 153.54-25.5.95-2.22.13-7.86 5.61-3.89-16.18 38.92-45.9 58.21-88.32 59.27-29.6.74-55.75-5.8-76.39-28.37-3.66-4.01-6.85-8.11-7.55-13.68zM473 505c-6.11-8.41 3.69-18.14-2.21-26.62a39.58 39.58 0 01-2.63-5.2c-7.86-18.71-25.68-22.38-42.62-27.4 1.7-2.82 4-1.84 5.82-2.24 12.59.68 23.11 6.71 33.22 13.36 11.5 7.52 15.09 29.52 8.42 48.1z" class="cls-6"/>
    <path d="M514.65 475.09c-1.87 5.32-1.86 13.36-11.19 6.33-2.85-2.15-7.4-1.63-10.55.52-9.14 6.26-9.23-.34-9.77-6.54 10.43-7.35 20.94-6.87 31.51-.31z" style="fill:#929291"/>
    <path d="M517.35 459.8c-12.8 4.61-26 3.65-39.4 0z" class="cls-6"/>
    <path d="M514.65 475.09c-10.52-1.93-21-2.88-31.51.31-1.56-3.4-3.68-7.42 2.55-7.72 8.4-.4 16.84-.19 25.26.11 5.05.21 3.35 4.4 3.7 7.3z" style="fill:#c4b59f"/>
    <path d="M573.89 436.19c10.45-4.65 21.39-1.19 32.08-2-10.46 4.51-21.4 1.12-32.08 2z" class="cls-54"/>
  </g>
  <g id="OhrR">
    <path d="M748.51 485.64c1.43-8.38 5.33-16 6-24.82.86-10.65 16.64-14.52 27-7.38 8.86 6.14 12.31 15.75 13 25.48 3.34 46.61-5.06 89.69-40.25 124a74.52 74.52 0 01-18.92 13.44c-2.11 1.05-4.42 3.06-6.73 1.14s-.48-4.58 0-6.85c1-4.81 2.13-9.57 3.22-14.36 10.88-4.24 21.31-9.09 27-20.22 6.08-18.17 16.4-34.72 19.12-54.19 2-14.39 3.68-28.4-3.08-42a11 11 0 01-.44-7.2c.32-4.63-2.24-2.85-4.25-1.77-5.46 2.94-8.31 8.44-12.46 12.67-2.33 2.31-4.72 7.49-9.21 2.06z" style="fill:#f6c99d"/>
    <path d="M778 470.41c-.69 2.66-2.48 5-.72 8.11 11.52 20 5.33 40.62.23 60.42-3.54 13.78-11 26.56-16.64 39.79-5.56-.26-6.55 5.35-9.91 7.92-3.76 2.88-7.47 5.67-12.17 3.65-5.63-2.44-3.63-7.27-2.57-11.58 5.21-22.61 10.72-45.18 10.4-68.64a8.75 8.75 0 00.89-2.21c1.09-4.65 1.49-10.43 7.49-10.87 6.87-.57 7.46 6 9.57 10.53a22.32 22.32 0 01.78 2.26c1.28 7.27 3.54 14.45 2.9 19.37 0-7.85-.43-18.22-5-28-7.06-15-.86-27.94 14.75-30.75z" class="cls-60"/>
    <path d="M778 470.41c-6.88 3-10.44 9.63-15.17 14.81-5 5.52 2.27 10 3 15.19 1.33 4.06 4.08 8.51-2.88 10.25a8.75 8.75 0 01-1.36-1.92c-1.28-3.63-1-9.13-5.48-9.69-4.7-.59-5.27 5.05-7.3 8.28a28.91 28.91 0 01-2.21 2.75c1-8.12-3-16.63 1.94-24.44 6.2 1.55 7-4.42 9.63-7.34 4.73-5.19 9.22-10.68 15.93-13.14 5.55-2.05 7.09.14 3.9 5.25z" style="fill:#7e4730"/>
    <path d="M736.17 578.72c1.09 3.17-1.73 7.76 3 9.52 4.47 1.66 7.22-1.91 10.7-3.84s4-10.46 11-5.67c-6.77 10.67-15 18.9-29.05 17.52 3.05-5.44.07-12.39 4.35-17.53z" style="fill:#ae6c50"/>
    <path d="M762.92 510.66c4.07-2.54 2.8-6.59 2.88-10.25 6.61 13.48 7.68 27-.32 40.53.91-10.31-1.34-20.25-2.56-30.28z" style="fill:#a65d3e"/>
  </g>
  <g id="OhrL">
    <path d="M249.35 505.08c2.08 30.72 9.85 60.5 15 90.7-10.26 4.66-17.71 2.35-26-7.91-7.34-9.14-9.48-20.73-14.67-30.9a112.88 112.88 0 01-12.53-54.35c.21-11.5 3.93-21.52 7.89-31.78 16-1.12 23.57 13.39 15.83 30.17-4.18 10.66-5.93 21.72-5.38 30.32-1-7.58 1.64-17.41 4.89-27.16 7.62-10.65 9.1-10.56 14.97.91z" class="cls-60"/>
    <path d="M220 470.37c.4 2.34 1.9 5.25 1 6.93-12.62 24.35-5.94 48.07 2.51 71.45 4.24 11.77 9.81 23.13 15.6 34.24 5.15 9.86 13.46 15.12 25.21 12.79 2.57 7 8.93 16.53 3.47 21-4.8 3.92-12.86-4.48-18.39-9-29.85-24.27-42.33-57.25-46.09-94.3-1.58-15.5-2.52-31.07 3-46.14 3.85-10.46 10.42-18 22.46-17.22 8.35.53 15.31 3.53 13.83 14.4a20.48 20.48 0 004.45 16c-5 4-5 4-8.68 1-2.86-2.32-4.31-6.05-7.32-8.09-3.14-2.12-5.76-7.62-11.05-3.06z" style="fill:#f6cba0"/>
    <path d="M220 470.37c-3.32-7.17.57-6.89 5.21-4.68 5.58 2.66 9.61 7.29 13.71 11.87 1.87 2.09 3.37 7.91 8.19 3 4.68 7.81.62 16.41 2.2 24.51-4.22-5.88-8.44-10.11-12.63 0-.89 1.85-2.52 3.68-4.3 2.32-2.37-1.82-2.09-4.61-.2-7 6.46-14.91 4.34-20.15-12.18-30.02z" style="fill:#7d452e"/>
    <path d="M232.22 500.4c.49 2.53-1.72 7.65 4.5 4.71-2.65 12.44-7.25 24.7-3.44 37.81-9.68-13.99-6.94-28.21-1.06-42.52z" style="fill:#a25636"/>
  </g>
  <g id="AugeR">
    <path d="M610.5 473c.21-1.57.42-3.13.64-4.7 12.17 3 14 6.76 9.65 19.69-.63-6.9 2.65-16.5-10.29-14.99z" class="cls-67"/>
    <path d="M667.81 448.39c32 2.88 36.64 27.68 32.76 58.87-1.32 10.59-6 20.09-11.28 29.26-36.29 31.9-81.85 37.48-120.47 15.37-13.46-7.7-20.47-20.54-29-32.31-3.46-9-7.25-17.63-7.88-27.84-1.58-25.7 9.11-32.41 34.22-38.27a32.35 32.35 0 007.67-2.57c5.34-1.2 11.28-3.67 11.74 5.51-1.88 5.86-7.78 6.82-12 9.72-10.93 7.41-21.3 15.39-28.37 26.81-2 3.21-4.13 8 1.75 8.43 24.05 1.69 46.45 13.38 71.31 10.63 21.16-2.37 39.11-11.26 55.88-23.57 5.74-4.21 3.07-7.47-.73-10.7-9.5-8.08-20.84-12.91-32-18-11.09-4.46-22.7-2-34.06-2.74-5.52-.34-11.57 1.11-17.57-6.14 26.8-5.92 52.47-3.34 78.03-2.46z" class="cls-2"/>
    <path d="M667.81 448.39c-24.54 1.16-49.3-1.86-73.66 3.66 17 3.32 35.12-3.55 51.23 6.35-2.49 2.62-5.72 2.82-9 2.48a215.47 215.47 0 00-45.91-.32 7.74 7.74 0 01-6.66-2.22c1.06-8.39-5.6-6.41-10-7.44 31.19-5.56 62.53-6.73 94-2.51z" class="cls-2"/>
    <path d="M583.83 458.34a159.55 159.55 0 0161.55.06c11.9 5.37 24 10.41 33.7 19.56 5 4.68 6.54 6.5-1.13 11.94-23 16.36-47.16 27.47-76 25.71-12.77-.79-24.64-5.47-36.9-8.49a88.63 88.63 0 00-19.29-2.94c-9.52-.19-9.55-4.59-5.41-10.71 10.89-16.08 24.92-28.47 43.48-35.13z" class="cls-67"/>
    <path d="M645.25 500.09c-18.33 11.39-38.12 10.21-58 6.34-6.19-1.21-12.82-1.78-18-6.21 5-4.63 9.81-1.23 14.13.19-10.23-6.26-6.15-18-9.21-27.12 11.86-4 22.43-14.43 36.5-7.19-2.64 2.65-6.67 2.2-9.82 4 1.51 3.83 5.81 2.55 7.72 5 1.26 4.21-2.14 4.62-4.67 5.52-3.13 1.12-6.81 1.89-5.51 6.36 1.15 4 4.68 5.49 8.5 5.88 5.16.53 8.12-3 11-6.47 5.61-8.84-.17-13.15-6.78-17.14a2.74 2.74 0 01-.74-2c0-.73.14-1.1.29-1.1 11.33-2.54 22.1-.72 32.46 4.21-3 8.07-1.36 16.89-4.36 25.13-2.02 5.51 5.72.93 6.49 4.6z" style="fill:#4b5d68"/>
    <path d="M645.25 500.09c-4.47-.85-8.18 3.87-13.81 1.51a32 32 0 006.56-25.07c-.64-4.32 1.2-5.94 5.1-6.19 9.41 3.49 19.57 5.53 26.91 13.55-7.07 7.79-16.4 11.25-24.76 16.2z" style="fill:#f8f8f8"/>
    <path d="M574.13 473.29c2.65.37 4.76 1.24 4.22 4.57-1.43 8.63 1.74 16.09 6.25 23.45-5.53 2.77-10.24-2.66-15.39-1.09-1.48-.61-2.94-1.28-4.45-1.82-4.45-1.58-11.89.81-13.13-3.71-1.62-5.86 5.45-9 9.55-12.55s8.61-5.94 12.95-8.85z" style="fill:#f5f5f5"/>
    <path d="M620.79 488c-4.15 5.89-8.6 10.73-17 7.79-5.93-2.08-10.13-5.29-10-12 .11-8.43 6.93-4.46 10.93-5.59 1.69-.48 3-1.09 3.41-2.87 0-2.22 1.27-3.49 3.13-4.35 10.86 1.43 11.74 3.02 9.53 17.02z" style="fill:#040508"/>
    <path d="M610.5 473l-2.41 2.3c-2 .21-3.94.48-5.92.6-3.89.22-7.79-.63-7.87-5.14-.1-5.22 4.56-4.39 8-4.57 2.78-.16 5.56-.08 8.35-.11a1.53 1.53 0 00.49 2.19c1.15 1.8 1.42 3.43-.64 4.73z" style="fill:#fdfdfd"/>
  </g>
  <g id="AugeL">
    <path d="M463.11 470.81c8 26.05-7.82 64.08-33.95 80.13-27.09 16.63-56.71 18.14-86 9.19-31.48-9.62-47.42-33-48.86-66-.16-3.66-.29-7.33-.44-11 2.28-6.48 3.86-13.31 7-19.35 6.68-12.93 20.1-16 32.36-16.58 33.81-1.48 67.8-2.14 101 6.42 11.23 2.87 21.32 8.02 28.89 17.19z" style="fill:#f7cda5"/>
    <path d="M381.52 454.67c32.46-.43 57.24 11.25 74.83 36.91 6.56 9.56 5.55 11.61-5.64 12.26s-21.69 4-32.16 7.31c-34.07 10.74-64.34 2.23-92.61-17.35-2-1.39-3.62-3.83-5.79-4.43-10.73-3-5.52-7.46-1.1-11.39a89.52 89.52 0 0149.46-22.25c4.86-.61 9.77-.8 13.01-1.06z" style="fill:#0f0b08"/>
    <path d="M428.82 500.27c-25.38 10.88-50.77 13.33-76.14 0 3.41-2.05 9.27-1.68 5.54-9.18-3.06-6.16-.06-14.48-5.56-20.35 6.87-4.4 14.6-4.68 22.39-4.64 3.33 5.54 9.78 6.09 14.68 9.14.62 1.78-.19 2.94-1.49 4.12-2.63 2.39-9.62.41-8 6.74 1.18 4.56 5.46 7.2 10.31 6.93 5.32-.31 9.32-3.28 10-8.81.67-5.16-.17-10-7.08-10.17a5.81 5.81 0 01-2.31-.65c-4.16-5.15-11.41-3.45-16.17-7.29 2.83-4.49 7.57-3.17 11-2.43 12 2.55 24.68 2.66 35.68 9.13.88 8.61 1.22 17.16-3.52 25.15 3.93.65 7.91-1.17 10.67 2.31z" style="fill:#4b5d6d"/>
    <path d="M352.66 470.71c3.6.45 8.52-1.24 7.36 5.81-1.47 8.93.14 17.45 6.07 24.87-5.4 2.88-9-2.46-13.41-1.15l-20.57-12.51c-5.28-3.21-4.35-6 .69-8.3 6.58-2.99 13.2-5.82 19.86-8.72zM428.82 500.27l-16.29 2.07c8.08-9.2 5.31-20.21 9.23-29.56a54.24 54.24 0 0120.85 14.76c1.88 2.08 5.2 3.91 4.29 6.92-1 3.17-4.81 2.34-7.51 3-3.53.9-7.04 1.88-10.57 2.81z" class="cls-76"/>
    <path d="M391.89 473.08c3.95-5 7.71-5.61 10.43.92 2.56 6.12 4.35 12.57-1.6 17.85-4.64 4.13-9.82 7.63-16.33 3.59-4.85-3-10-6.19-9.32-12.93.76-7.33 7-3 10.58-4.41a29.67 29.67 0 003.94-2.32c-.95-2.36.18-2.95 2.3-2.7z" style="fill:#0a0d0f"/>
    <path d="M391.89 473.08l-2.3 2.7c-7 0-15.49 2.21-14.54-9.71 5.56 2.46 15.67-6.07 16.84 7.01z" style="fill:#f2fafb"/>
  </g>
</svg>
