<svg xmlns="http://www.w3.org/2000/svg" width="367.48" height="1025.95" viewBox="0 0 367.48 1025.95"><defs><style>.a{fill:#171412;}.b{fill:#869193;}.c{fill:#f6c394;}.d{fill:#f7c695;}.e{fill:#2f434a;}.f{fill:#623521;}.g{fill:#f3c193;}.h{fill:#421808;}.i{fill:#c6cbce;}.j{fill:#5f6161;}.k{fill:#dfa079;}.l{fill:#242f35;}.m{fill:#e5e5e5;}.n{fill:#926e60;}.o{fill:#281f17;}</style></defs><title>Zeichenfläche 1</title><path class="a" d="M177,703.09c-.94,17.07-1.9,34.14-3.53,51.15-.8,8.32-2.69,16.53-2.93,24.93a63.27,63.27,0,0,0,1.6,17,9.42,9.42,0,0,1,.12,5.06A38.86,38.86,0,0,0,171,812.7c0,18.66.16,37.31-.15,56A87,87,0,0,0,174,894.22a29,29,0,0,1,1.12,9.13,21.61,21.61,0,0,0,2.27,10.41,10.22,10.22,0,0,1,.45,8.88c-1.25,3-1.29,6.16-1.27,9.34.07,10.44,0,20.88.22,31.31a9.27,9.27,0,0,1-5.18,9c-17.81,10-36.63,16.76-57.26,17.19a102.18,102.18,0,0,1-36.95-6.22,21.4,21.4,0,0,1-4.1-2.07c-3.4-2.14-4.55-4.84-3.8-8.74A68.23,68.23,0,0,0,71.07,962a13,13,0,0,1,4.18-8.83,53.15,53.15,0,0,1,15.07-10.92c7-3.26,12.53-8.52,17.74-14.11,2.86-3.06,5.66-6.18,8.59-9.18a4.92,4.92,0,0,0,1.34-5.15,17,17,0,0,1,2-14,10.08,10.08,0,0,0,.45-10.25,14.33,14.33,0,0,1-.81-10.73c2.1-7,.84-13.89-.24-20.83-1.88-12.17-3.92-24.33-3.3-36.71.29-5.8,1.16-11.57,1.46-17.37.53-10.3-1.07-20.47-2.22-30.66a53,53,0,0,1-.38-7.17,3.16,3.16,0,0,0-2-3.22,26,26,0,0,0-7.78-3.14,13.75,13.75,0,0,1-7.64-4.41,15.74,15.74,0,0,0-7.6-4.54,8.74,8.74,0,0,1-4.82-3.2c-19.33-25-24-52.23-12.24-81.89a25.35,25.35,0,0,1,2.58-5c2.36-3.44,2.6-7.14,1.82-11C73.41,630,69.24,610.4,65.6,590.66A213.17,213.17,0,0,1,63,533.46c.66-7.74.55-15.54.73-23.31a67.61,67.61,0,0,0,.17-7.42,10.32,10.32,0,0,0-5.65-8.59c-3.68-2.07-4.61-3.8-3.75-8,4.21-20.34,6.5-41,9.58-61.5.92-6.16.86-12.46,2.15-18.58,2.93-13.84,12.69-22.49,26.7-24,8.52-.92,16.75-3.23,25-5.35,2.06-.53,4.17-.91,6.26-1.31,1.82-.35,3.26-1.11,3.6-3.11A42,42,0,0,1,133,359c1.64-2.94,1.38-3.57-1.44-5.65a163.25,163.25,0,0,1-34.18-33.75c-6.21-8.32-9-18.15-10-28.42-.38-4-1.9-6.6-6-7.89-6.18-1.93-11.12-5.89-15.35-10.74-10.79-12.37-16-26.83-16.23-43.18,0-4.35-.44-8.76.61-13,1.78-7.24,5.8-12.64,13.13-15.12a11.27,11.27,0,0,1,4.32-.35c1.94.11,2.58-.62,2.22-2.61-1.2-6.64-2.75-13.22-3.52-19.93-1.86-16.3-2.89-32.63,2.33-48.52a141.74,141.74,0,0,0,5.5-24.16c.32-2.22,1.11-3.72,3.69-3.55,1.55.1,2.12-.95,2.65-2.26,3.42-8.6,7.51-16.83,13.49-24C96,73.69,98,72.12,101,72.48a3.76,3.76,0,0,0,2.61-.85c8.84-6,18.4-10.91,25.77-18.9,1.41-1.52,3.33-2,5.06-.58,1.42,1.16,2.57.85,4,.16,9.6-4.74,19.48-8.65,30-10.7,19.4-3.76,37.68-.74,55,8.68a492,492,0,0,1,48.95,30.39,38,38,0,0,1,6.5,5.79c1.64,1.84,1.36,2.74-.93,3.46-.33.1-.67.15-1,.25-3,1-3.32,1.8-1.56,4.35,3.35,4.85,6.66,9.72,9.52,14.88,5.17,9.31,6.74,19.59,8.39,29.9,1.61,10.12.17,20.08-.58,30.14a188.67,188.67,0,0,1-4.29,29.37c-.52,2.19.25,3,2.34,3.16a43.74,43.74,0,0,1,4.78.89c7.78,1.58,12.5,6.31,13.45,14.14,2.51,20.62-2,39.41-15.55,55.55a35.17,35.17,0,0,1-16.39,11,6.56,6.56,0,0,0-5,6.25,87.5,87.5,0,0,1-2.25,12.08,54.93,54.93,0,0,1-11.6,22.56c-8.93,10.55-18.57,20.31-29.83,28.4-2.91,2.09-2.9,2.38-.57,5.19a22.55,22.55,0,0,1,5,11.88c.63,5,.7,5,5.57,6.15,10.4,2.37,20.79,4.79,31.28,6.75,14,2.62,23.37,12.64,25.07,26.79,1.38,11.55,3.62,22.94,5.47,34.4,1.5,9.27,1.79,18.71,3.93,27.91,1,4.24,1.74,8.53,2.72,12.77s-.32,7.41-3.82,9.5c-4.28,2.56-5.24,6-4.76,10.81,1.76,17.81,1.68,35.71,1.07,53.58-.37,10.8-3.42,21.22-5.71,31.73-4.39,20.19-9.83,40.13-14.86,60.16a12.93,12.93,0,0,0,1.91,11.2c3.56,5.07,4.18,11.13,5.43,16.94,5.56,25.81-1.25,48.31-18.37,68a12.46,12.46,0,0,1-5.7,3.77,16.31,16.31,0,0,0-6.49,4c-2.36,2.3-5,4.13-8.51,4.22-2.32.06-2.12,1.86-2.19,3.34-.34,7.26-1.12,14.47-2.15,21.67a124.32,124.32,0,0,0-1.07,21.49c.28,9.05.71,18.1.43,27.17-.33,10.87-1.93,21.61-3.35,32.37A32.89,32.89,0,0,0,240,880.57a8.25,8.25,0,0,1-.64,6.92,13.28,13.28,0,0,0,.84,14.51,12.1,12.1,0,0,1,1.3,10.6,6.64,6.64,0,0,0,2,7.38c2.55,2.52,5,5.18,7.35,7.87a67.72,67.72,0,0,0,19,15,53.14,53.14,0,0,1,13.81,10.09c3.07,3.25,4.86,7,4.5,11.57-.19,2.45.72,4.71,1.19,7,1.1,5.41-.39,8.48-5.43,10.69-9.75,4.28-20.07,6-30.6,6.83-20,1.63-38.56-3.62-56.42-12.08-3.16-1.5-6.27-3.11-9.35-4.76-5.08-2.73-7-7-5.89-12.63,1.32-6.52.6-13.13.89-19.7.28-6.29.7-12.63-1.52-18.78a8.07,8.07,0,0,1,.5-6.28c1.94-3.77,2.38-7.76,2.61-11.89.38-6.93,2.36-13.63,3.31-20.47,1.14-8.18.07-16.4-.15-24.58-.41-15.14-.26-30.26.34-45.39.15-3.93.3-7.86-.61-11.74a12,12,0,0,1,.09-5.85c2.69-9.91,1.74-19.83.22-29.76a315.48,315.48,0,0,1-3.51-42.64c-.13-8.23-1.53-16.33-2.17-24.51-.23-3-.29-6-.43-9,0-1,0-2.21-1.34-2.39-1.21-.16-1.83.74-2.34,1.67-1,1.84-.66,3.83-.55,5.77A82,82,0,0,1,177,703.09ZM86.88,743c-.29,1.64.8,2.47,2,3.16.84.5,1.78,1.84,2.76.47s-.29-1.91-1.22-2.5c-.75-2.15-2.74-3.65-3.14-6,.18-1,.15-2.51,1.6-.74a1.51,1.51,0,0,0,1.07.58c1.87,3.93,4.87,7.1,7.25,10.68a13.18,13.18,0,0,0,4.5,4.46,1.69,1.69,0,0,0,2.43,1.66c1.51-.57.25-1.69,0-2.51a2.08,2.08,0,0,0-1.8-1.55l-1.18-3c.24-1,.71-1.48,1.53-.54a16.56,16.56,0,0,1,1.4,2.13c1.83,2.87,3.44,5.91,6.14,8.1.89.72,2,1.76,3.15,1.25,1.34-.58,1.68-2,1.73-3.46a5.76,5.76,0,0,0-1.55-4.43l-.58-4.54c.43-2.13-.69-3.82-1.67-5.5a28.65,28.65,0,0,1-3.93-15.62c0-1,.16-1.9,1.38-2.09.07,3.49,1.77,6.71,1.75,10.21,0,.59,0,1.19,0,1.78a2.38,2.38,0,0,0,1.94,2.62c1,.06.64-1.51,1-2.29a3.49,3.49,0,0,0,.11-1.51q0-14.1,0-28.19a4.44,4.44,0,0,0-.77-2.89c.45-8.72.19-17.45.17-26.17,0-1.68-1.1-3.56-.62-5,1.44-4.25-.46-7.06-3.24-9.74-2.16-2.09-3.69-4.55-3.68-7.64.07-13.34-1.38-26.59-2.05-39.89q-1.19-23.53-2.06-47.08c-.49-12.72-2.5-25.07-7.84-36.74-1.57-3.42-.66-4.81,3-4.76,1.32,0,2.41-.06,2.67-1.65.84-5.12,1.7-10.24,2.52-15.37q.49-3.08-2.69-3a60.46,60.46,0,0,1-9.69-.73,104.71,104.71,0,0,1-15.41-3.51c-3.09-.89-3.95-.25-4,2.84-.16,6-.31,12-.5,17.93-.15,4.53.18,9.05-.29,13.58a160.63,160.63,0,0,0-.54,30.47c1.34,15.45,4.64,30.63,7.34,45.89,2,11.23,4.26,22.41,6.44,33.6.5,2.58.79,5.24,2.44,7.45a4.59,4.59,0,0,1-2.45,4.46,4.18,4.18,0,0,0-2.19,4L79,663.49a1.7,1.7,0,0,0-1.77,1.14c-1.9,3.7-3.84,7.39-3.24,11.78l-.6,2.53c-1.89,1.09-1.88,2.56-.83,4.23-.28,1.68-.18,3.38-.44,5.09-.69,4.62-1.74,9.25-1.13,14A86.51,86.51,0,0,0,84.25,738.5,9.32,9.32,0,0,0,86.88,743Zm6.57,205.39c-.83.16-1.49.51-1.58,1.46a28.23,28.23,0,0,0-12.05,7.68,8.17,8.17,0,0,0-2.2,8.4c-.54,2.16.46,3.46,2.4,4.14a81.62,81.62,0,0,0,22.12,4.67,115.71,115.71,0,0,0,31.44-2.62c3.69-.79,7.51-1.41,10.76-3.6l2-.07a3.87,3.87,0,0,0,1.27.06c7.57-2.33,15-5,21.77-9.19a3.39,3.39,0,0,0,1.64-3c0-7.44,0-14.87,0-22.31a4.85,4.85,0,0,0-4.56-5c-1.86-.23-3.72-.44-5.58-.66a24.41,24.41,0,0,0-7.77-2.72c-.3-1.05-1.31-1.31-2.1-1.67a31.06,31.06,0,0,1-5.68-2.88,11.33,11.33,0,0,0-7.6-2.45,2.75,2.75,0,0,0-2.18-1.18,30,30,0,0,0-13.09,1,4.19,4.19,0,0,0-2.35,1.88,22.19,22.19,0,0,1-6.85,7.47,2.54,2.54,0,0,0-1.25,2.38,3.21,3.21,0,0,1-2.33,3.53c-.61.24-1.3.54-1.27,1.42h0l-.46.55-1.16,1.43c-3.47.75-4.49,1.78-5.08,5.13a21,21,0,0,1-5.61,4.18C94.67,946.37,93.41,946.49,93.45,948.39ZM211.65,258c-8.88-4.09-8.09-3.46-8.9-4.11l0,0a2.17,2.17,0,0,0-.79-2.27,44.5,44.5,0,0,1-13-19.38c-.48-1.41-1.13-2.72-3-2.63l0,0c0-1.89-.08-3.68-2.49-4.07-1.18-1.65-3-2.2-4.82-2.52-.83-.15-1.89-.22-2.29.68-1.38,3.14-4,5.45-5.33,8.66a54.24,54.24,0,0,1-10.19,16.63c-6.3,6.9-12.91,11.6-23.11,12.14-12.89,1.18-16,1-19.41-.06m-.41.23c-9.23-.77-16.06-5.24-21.9-11.47-5.53-5.9-7.56-13.92-8.54-22-.25-2.08.3-4.22,0-6.35-.22-1.39-.62-2.28-2.21-2.13s-2.68.45-2.59,2.37a122.25,122.25,0,0,1-.27,13.83c-.4,6.14,1.4,12,2.64,17.89,1.92,9.12,4.28,18.15,6.31,27.25,1.06,4.73,1.82,9.53,2.71,14.3,1.67,9,4.41,17.55,10.41,24.66,3.75,4.44,7.65,8.76,11.67,13,8.5,8.89,18.42,16,28.66,22.73,1.81,1.19,2.54.43,2.92-1.66.85,1.32,1.55,2.37,2.21,3.44a23.79,23.79,0,0,0,13.53,10.69c7.16,2.27,14.32,3.53,21.88,2.56,10.79-1.38,20.07-4.9,25-15.84,1.07,1.61,2.16,2.67,3.94,1.13a114.64,114.64,0,0,1,11.36-8.32,99.68,99.68,0,0,0,11.61-9.24c3.14-2.86,6.13-6.11,9.17-9.13,8.29-8.26,14.65-17.49,17.42-28.95.84-3.47,1.24-7,2-10.54s1.81-6.65,2.24-10c.32-2.52.84-5,1.35-7.46.76-3.65,1.9-7.23,2.69-10.93a85.23,85.23,0,0,1,2.17-9.11c3.37-10.18,2.48-20.5,1.17-30.85-.15-1.2-.67-2-1.84-2-1.34,0-1.86.93-1.92,2.23a96.9,96.9,0,0,1-1.44,10.88c-2.41,15.18-11.56,24.38-25.9,28.49a42.28,42.28,0,0,1-25.18,0m37.24,332.11.75-10.5M260,514.68c.56,3.49,1.28,7,1.92,10.45.46,2.52,1.18,2.89,3.42,1.58.91-.53,1.77-1.26,2.74-.38s.63,1.9.34,2.88-1.08,2-.7,3.15A12.84,12.84,0,0,1,267,535c-4.16,7.7-5.23,16.53-7.12,23.24m32.3-53.13c-.34-3.72-1.44-4.58-4.91-3.32-7.49,2.71-15.28,3.68-23.12,4.5M253.85,616.51c-.36,4.76.14,9.55-.64,14.3-.55,3.35-2,6.61-1.56,10.07.58,5-2.11,9.57-1.83,14.55a4.91,4.91,0,0,1-2.19,3.9,3.26,3.26,0,0,0-1.21,2.9q.1,24.21.15,48.42c-.44,3.32.57,6.64,0,10a1.7,1.7,0,0,0,.89,1.92,25.8,25.8,0,0,1-.55,8.07,30.85,30.85,0,0,0-.62,11.39c-1.68,1.27-1.07,3.22-1.42,4.88-.8,3.86-.34,4.41,3.66,4.44-.23.77-1,1.65-.16,2.3s1.69-.23,2.4-.72a4.33,4.33,0,0,0,2.09-2.4l1.41-.73c2.78-.83,4.57-2.49,4.61-5.59a.56.56,0,0,1,.35-.36,6.3,6.3,0,0,0,2.53,2c.89.51,1.21,0,1.3-.81,4.13-2.17,6.08-6,7.7-10.08a29.18,29.18,0,0,0,5.2-8.31c3.23-6.87,6.08-14,6.87-21.53a85.8,85.8,0,0,0-1.36-26c-1.76-8.71-3.91-17.19-11.55-22.94-1.05-.79-1-1.68,0-2.55a7.87,7.87,0,0,0,2.67-4.57c.79-4.72,2.37-9.22,3.53-13.84,3-11.87,6-23.74,9.26-35.54,1.58-5.71,1.58-11.8,4.22-17.24M94.53,239.9h0c.1,5.73,3.83,9.17,8.09,11.92A44.08,44.08,0,0,0,131.7,259c4.94-.5,9.84-.87,14.45-2.72,5.44-2.19,10.41-5.11,13.09-10.74l1-1a7,7,0,0,0,2.76-2.95c2.71-6.24,7.29-11.85,6.5-19.28a2.66,2.66,0,0,1,.12-1c1.12-3.78-.15-6.86-2.81-9.5-5.22-5.18-11.79-7.16-18.89-7.85-.75-.85-1.77-.52-2.66-.49-6.63.23-13.21,1.52-19.88,1-1.45-.11-2.91,0-4.36,0-.74,0-1.61-.2-1.87.86a24.8,24.8,0,0,1-5.62,0c-1.59-1.69-3.87-.53-5.66-1.39-1.62,0-3.24,0-4.86,0a12.66,12.66,0,0,0-11.67,9.41c-1.69,7.41-1.17,14.81.43,22.19A6,6,0,0,0,94.53,239.9ZM220.32,205c.08-1-.34-1.68-1.44-1.52-1.67.24-3.47-.68-5,.6-.1.08.18.61.28.92-1.2,1.48-2.65.93-4.08.51,0-2.21-1.71-1.64-2.76-1.5-7.92,1.09-16.6,6.1-18.94,15.18-1,4-.84,7.95,2.68,11-.38,2.71,1.48,4.56,2.58,6.69,0,3.48,2,5.75,4.61,7.68a1.46,1.46,0,0,0,1.56,1.56c.51,2.65,1.63,3.53,4.6,3.6-.22,2.42,1.44,3.52,3.23,4.41a49.12,49.12,0,0,0,33.93,4c10.23-2.39,18.7-7.22,22.9-17.27,4.41-10.55,6.09-21.38.63-32.24a2.92,2.92,0,0,1-.1-1c1.26,1,2.46,2.1,3.81,3a3.37,3.37,0,0,0,4.95-.83c1.58-.06,1.56-1.15,1.63-2.34.28-4.7-.85-9.31-1.48-13.86-.81-5.83-2.5-11.63-3.5-17.49-.68-4-2.88-7.46-3.33-11.43-.78-6.94-1.1-13.94-2.12-20.84-1.83-12.34-6.48-19.07-21.1-19-11.71.09-23.33,1.33-35,2a330.48,330.48,0,0,1-39.18.32c-8-.5-16-.7-24-1.3-9.87-.74-19.72-1.65-29.61-2-7.87-.25-13.86,2.52-17.44,10.08-2.27,4.78-4.12,9.66-4.33,14.85-.26,6.72-.56,13.44-3,19.68-2.88,7.28-4.7,14.81-6.54,22.36-1.12,4.57-.93,9.27-1.17,13.9-.25,4.92.13,5,4.9,4.84a2.86,2.86,0,0,0,2.51-1.42,14.29,14.29,0,0,1,4.28-4c2.35-1.48,5.51-1.7,7-4.53.12-.24.59-.3.91-.42a101.24,101.24,0,0,1,29.5-6,59.21,59.21,0,0,1,11.7.55c5.11.76,10.19,1.68,14.93,3.9,2.14,1,3.08,2.45,2.13,4.86-.57,1.45-.26,2.42,1.5,3.07a44.48,44.48,0,0,0,23.39,2.33c3.9-.69,7.91-1.28,11.38-3.49,3,0,5.28-2.25,8.1-2.88,6.83-1.52,13.82-.2,20.75-1.23,3.31-.49,6.87-.52,10.32-.76s7.16-.8,10.62.39,7,1.2,10.43,1.91l1.48.64c0,1.27,1.63,1.67,1.54,3a5.1,5.1,0,0,0-5.13.53c-1-.89-.76-4.76-3.46-1.33-.37.47-1.06-.32-1.62-.4-2.2-.35-4.48-1-6.23,1.15l-21.56.06C222.17,204.64,221.19,205.1,220.32,205ZM77,975.8c2.19,2.47,5.61,2.12,8.24,3.57a3,3,0,0,0,2,.91c15.1,2.91,30.22,3.82,45.43.6a120.68,120.68,0,0,0,36.4-14.26c1.15-.67,2.67-1.53,1.72-3.17-.87-1.48-2.16-.28-3.16.14-10.28,4.27-20.53,8.58-31.49,10.89-2.44.51-5.14,0-7.3,1.72-5.75.52-11.49,1.22-17.24,1.53a78.37,78.37,0,0,1-32.93-5.15c-.59-1.12-1.45-1.53-2.36-.5C75.09,973.52,75.37,974.83,77,975.8ZM72.42,173.15c-.66,2.55,1.23,4.51,1.67,6.83.53,2.78.21,5.57.72,8.35.81,4.49,3.38,8.61,2.8,13.38A1.32,1.32,0,0,0,79,203.22c1.23,0,1.12-1,1.15-1.87.32-7.67,2.38-15.06,3.58-22.59.75-2.52,1.65-5,2.65-7.41,1.24-3,2.47-6.13,2.54-9.51,2.1-1.17,1.56-2.62.43-4.13l0-3.58c2.19-2.94,1.28-6.53,2-9.77-.39-3.16,1.69-5.74,2.09-8.71,2.28-2.46,4.23-5.08,4.13-8.67a20.42,20.42,0,0,1,6.55-4.26,50.37,50.37,0,0,1,21.16-3.48,2.79,2.79,0,0,0,2.53,1.49c7.91.14,15.72,1.75,23.65,1.57.66.81,1.57.51,2.39.51,7.59,0,15.18,0,22.77,0a9,9,0,0,1,3.23.63,33.56,33.56,0,0,0,12,1.12c4.79-.53,9.48-1.8,14.37-1.77a141.48,141.48,0,0,0,24.81-2H241.9c3.72.35,7.48.45,11.13,1.13s7.71,1.73,9.83,4.94a42.71,42.71,0,0,1,5.77,13c.48,4.61.43,9.3,1.76,13.8a7,7,0,0,1,.15,3.53c-1.32,5.89.85,11.17,2.7,16.52a20.37,20.37,0,0,0,.22,2.53c.84,4,1.81,7.93,2.56,11.92.36,1.9-.29,4.23.59,5.75,1.37,2.38,1.15,4.72,1.22,7.15,0,1.19,0,2.39,0,3.58a1.31,1.31,0,0,0,1.25,1.38c.86.1,1.59-.18,1.72-1.12.25-1.76,1.2-3.34,1.14-5.21-.2-5.56,1.88-10.8,2.51-16.28.51-4.43,1.82-8.78,1.52-13.33.35-1.75,1-3.5,1-5.23-.15-8.35.48-16.71-.39-25.06a79.64,79.64,0,0,0-12.44-35.26c-2.58-4-5.32-7.92-8.16-11.75-1.07-1.44-2.28-3-.32-4.67s1.48-3-.39-4.25c-1.19-.82-2.27-1.8-3.48-2.58-7.81-5-15.57-10.14-23.49-15-8.28-5.07-16.57-10.16-25.63-13.79-1.58-.6-3.15-1.21-4.74-1.8a51.94,51.94,0,0,0-22.54-3.23c-1.42-.12-2.83-.26-4.24-.43-2.73-.34-5.55-.55-8.13.91-1.57-.29-3,.3-4.55.48a62.85,62.85,0,0,0-30.46,12.31,11.26,11.26,0,0,0-4.1,5.15l-3.35-.06a2.72,2.72,0,0,1,0-1A2,2,0,0,0,130,62c-1.18-.82-1.87.18-2.62.81A128.81,128.81,0,0,1,111,74.05c-2.54,1.53-5.16,3-6.8,5.62-4.65,2.65-8.14,6.53-11.28,10.77-2,.43-1.25,2.55-2.25,3.69a16,16,0,0,0-3.56,7c-.54,2.38-2.23,4.74-2,6.89.24,2.83-1,3.89-3,4.39a2.19,2.19,0,0,0-2,2.67c-1.08.16-.91,1-1,1.75a50.53,50.53,0,0,1-1.77,8.69,94.78,94.78,0,0,0-4.9,17.33c-1.21.1-1.47.89-1.53,1.95-.12,2.35-.44,4.7-.47,7-.07,6,0,12,0,18.06C70.35,171.51,71.27,172.36,72.42,173.15Zm152,802.12c-.45-.23-.89-.5-1.35-.7-3.23-1.37-6.78-1.53-10.09-2.63a231.43,231.43,0,0,1-22.1-8.57c-.94-.43-1.88-1.09-2.63.21s.24,1.89,1.05,2.5a20.63,20.63,0,0,0,2.15,1.39c24.05,13.81,49.67,18.67,77,13.3,4.1-.81,8.46-1.1,12-3.88,1.64-.77,2.88-2,1.9-3.8s-2.44-.29-3.59.1c-13,4.41-26.29,5.37-39.86,3.81C234.09,976.45,229.37,975,224.45,975.27ZM76.26,235.8a4.39,4.39,0,0,0,.29-2.49c.11-4.27-1.3-8.34-1.66-12.54-.43-2.35-2.22-4.18-2-6.89.36-5.09-3.22-7.7-8.28-6.54s-7,4.84-8,9.27c-1.67,6.93-1,13.89,0,20.85,1.46,9.91,4.26,19.28,10.55,27.31a58.56,58.56,0,0,0,13.22,12,2.81,2.81,0,0,0,3.34.28c1-.71.56-1.79.25-2.8-.45-1.46-.8-3-1.11-4.46a3.09,3.09,0,0,0-2.65-2.73c1.21-2.6.93-5.15.15-7.85A97.46,97.46,0,0,1,76.26,235.8ZM215.13,966.45l.21-.41.74-.05c.1,2,0,4.36,2.59,4.9,4.45.92,8.87,2.27,13.52,1.67l3,.47a9.54,9.54,0,0,0,3.86,1.16c7.38-.23,14.74,1,22.15,0A62.57,62.57,0,0,0,280,969.1c1.36-.63,2.24-1.54,1.88-3.18a9.37,9.37,0,0,0-2.42-8.26A23.58,23.58,0,0,0,267.57,950c-1.62-3.07-1.68-3.08-4.22-.83l-14.78,0,0-1.18,15.48-.68-6.36-4.4c.42-1.43-.55-2.22-1.44-3-3.07-2.65-6.17-5.26-9.26-7.88,1-2.76.65-3.45-2-4.18a6.51,6.51,0,0,0-3.11-2.54c-1.1-3.12-2.78-5.7-6.2-6.66-4.58-1.76-9.3-1.56-13.95-.65-5.68,1.11-10.48,4.3-15.32,7.28a24.79,24.79,0,0,0-8.2,3.17c-2.35.35-4.72.62-7.06,1.07a3,3,0,0,0-2.63,2.79c-.28,7.58-1.07,15.15-.27,22.77a6.85,6.85,0,0,0,4.76,6.23c6.3,2.59,12.58,5.23,19.09,7.28C214.7,969.46,215.07,969.17,215.13,966.45ZM145.93,364.1c-4.38-4.54-6.73-4.2-9.18,1.41-2.11,4.85-3.21,10-4.65,15.1a8.47,8.47,0,0,0,.23,4.79c3,9.65,4.78,19.65,7.85,29.29.23.73.09,1.56,1.05,1.81s1.58-.27,2.19-1c5.55-6.15,10.8-12.59,17.41-17.7,1.35-1,1.21-2.12,0-3.19a28.43,28.43,0,0,0-5.29-3.59c-6.23-3.48-10.71-8.66-14.35-14.67a13.24,13.24,0,0,1-1.94-7c0-1.57.67-2.51,2.42-1.56.13,1.84,0,4.37,2.32,4.37a9.37,9.37,0,0,0,5.75-2.34c1.11-.94.71-2,0-2.94C148.87,365.49,147.34,364.86,145.93,364.1ZM110,625.33c-.09,1.77-.43,3.59,1,5.19,1.08-1.71,1.08-1.71.95-5.12,1-12.92,2.65-25.79,3-38.76.36-13.66.88-27.33.17-41-.13-2.56.06-5.12-.31-7.68-1.48-10.11-3.51-20.15-4.26-30.37-.07-1,.06-2.13-1.44-2.28s-1.71,1-1.87,2.12c-1,7.26-1.9,14.53-3,21.78-.85,5.81-1,11.58.63,17.26a53.12,53.12,0,0,1,1.86,12.35c.52,13.14.79,26.28,1.64,39.4C109,607.27,109.48,616.3,110,625.33Zm137-15.73c1,1.42-.23,3.52,1.49,5,1-1.7.43-3.39.52-5a17.45,17.45,0,0,0,1.06-4.71c.87-5.4.82-10.88,1.34-16.31.8-8.39,2.8-16.66,2.33-25.2a33.37,33.37,0,0,1,1.41-10.87c2.56-9.05,4.86-18,2.19-27.59-1.57-5.63-2.24-11.52-3.34-17.29-.31-1.6-.86-2.9-2.94-2.85s-2,1.47-2.16,2.82c-.58,4.39-1.12,8.79-1.74,13.18-.88,6.24-2.68,12.33-2.73,18.7-.08,9.91-.41,19.8-.17,29.72.29,11.7,1.06,23.38,1.3,35.08A10.45,10.45,0,0,0,247,609.59Zm30.84-345.08c-1,.76-.36,1.94-.72,2.87-1.34,2.07-1.5,4.48-1.93,6.81-.19,1-1.07,2.18.2,3,1.1.72,2.13,0,3.1-.53,7.29-3.9,12.68-9.74,16.8-16.8,7.86-13.47,9.3-28.12,7.53-43.25a10.76,10.76,0,0,0-7.18-9.21c-4.93-1.91-9.05.59-9.7,5.88a11.1,11.1,0,0,1-1.09,4.17,7.76,7.76,0,0,0-.88,4.95c-2.21,2.77-.81,5.89-.88,8.87a19,19,0,0,0-.66,4.52,54.53,54.53,0,0,1-1.78,16.36C279.71,256.28,277.67,260.15,277.88,264.52ZM176.66,680c1.38,1.27,2.76,1.33,4.13,0A62,62,0,0,0,195,678.52c3.15-.65,6.26-1.6,9.52-1.66,1.53,0,2.79.29,3,2.06s0,3.1-2.2,3.66a142.25,142.25,0,0,1-15.4,3.49c-1.52.22-2.33.86-2.4,2.42-.3,6.24.32,12.46.66,18.67.37,6.77,1.08,13.54,2,20.27.49,3.75.2,7.5.58,11.23q.92,8.86,1.93,17.71c.61,5.49,1.15,11,1.71,16.47a95.61,95.61,0,0,1,0,17.48c-.35,4.44-2.22,8.83-.68,13.38a21.23,21.23,0,0,1,1,8.83c-.44,4.73-1.31,9.44-1.47,14.18a231.6,231.6,0,0,0,.57,27.65c.24,2.81.09,5.63.51,8.41,1,6.31.43,12.6-.38,18.84-.71,5.46-1.86,10.86-2.82,16.29-1.18,6.66-1.24,13.54-4.32,19.84-1.33,2.72.51,5.07,3.64,5.1,6.3.06,11.94-2.4,17.05-5.57,7-4.34,14.33-6.68,22.51-6.2,6.67.39,6.82-1.22,4.29-7.21a1.37,1.37,0,0,0-.11-.23c-3.84-5.76-3.67-11.69-.67-17.68a5.91,5.91,0,0,0,.1-5.13c-1.24-3.32-2.24-6.71-1.48-10.41.46-2.23.34-4.57.59-6.85.57-5.23,1.21-10.45,1.8-15.68s1.77-10.38,1.79-15.68c0-5.89.23-11.8-.58-17.64-.47-3.42-.07-6.84-.55-10.21-1-6.83,0-13.59.46-20.37.28-3.74,1.69-7.25,1.8-11.05.12-4.06.86-8.09,1.3-12.14.58-5.32,1.64-10.64,1.61-16-.18-29.16.75-58.32-.45-87.47-.22-3-.94-3.5-3.64-2.48-1.27.48-2.53,1-3.78,1.56-4.15,1.77-8.22,3.79-12.73,4.49-7.2,1.12-14.4,2.22-21.61,3.2-7.52,1-14.87,3-22.69,2.1-6.47-.74-13-.7-19.52-1.7-11.15-1.73-21.79-5.26-32.28-9.3-1.31-.5-2.35-2.38-4.09-1s-.81,3.16-.8,4.78a7.56,7.56,0,0,0,.55,2c-.2,4-.56,8-.58,12-.07,15.23,0,30.47,0,45.7,0,2.89.7,5.92.32,8.63-.72,5-.23,10-.23,15a53.87,53.87,0,0,0,.55,7.37c.74,5.31,1,10.66,1.37,16q.42,5.73,1.38,11.37c1,5.95,2.25,11.85,2.29,17.92,0,7.59-1,15.11-1.42,22.66a128.34,128.34,0,0,0,.31,21c.86,7.85,2.41,15.59,3.35,23.42.56,4.65,1.5,9.3.26,13.93-1.42,5.29-1.42,10.37.85,15.48a8.31,8.31,0,0,1,.46,4c-.35,4-2.71,7.14-4.13,10.67-1.65,4.07-1,5.11,3.31,4.94,8.3-.32,16.19,1.13,23.25,5.62a41.54,41.54,0,0,0,13.83,5.78c2.38.5,5.13,1.54,6.92-.74s.82-4.87-.17-7.28a32.61,32.61,0,0,1-2.66-13.68,18.46,18.46,0,0,0-1-6.26,68.9,68.9,0,0,1-3-20.86c0-3.64.39-7.31.41-11,0-2.48,0-5,.08-7.44.27-6,1-11.91.78-17.84-.14-3.74-.2-7.49-.36-11.24-.08-2,.24-4-.14-5.89-1.13-5.68-.61-11.29,0-17A36.55,36.55,0,0,0,165,793c-.64-3.62-2.29-7.07-1.27-11a40.15,40.15,0,0,0,1.06-9.09c.15-6.05,1-12,1.73-18,.84-6.92,1.57-13.83,1.91-20.8.28-5.78.89-11.53,1.13-17.33.39-9.27,1.22-18.51,1.44-27.79,0-2.06-.86-3.06-2.93-2.88a28.18,28.18,0,0,1-6.86-.57,4.51,4.51,0,0,1-3.84-2.61,2.92,2.92,0,0,1,.68-3.08c1.06-1.44,2.72-1.13,4-.87A76.25,76.25,0,0,0,176.66,680Zm4-232.72h-1.31c-.1-3.08,1.52-6.08.4-9.2-.07-1,.31-2.1-1-2.56-2-5.87-3.93-11.74-5.94-17.59a4.44,4.44,0,0,0-1.75-2.45c-.12-5.4-3.1-9.75-5.43-14.3-.85-1.65-2.46-1.46-3.93-.32a87.88,87.88,0,0,0-7.79,7.36,63.49,63.49,0,0,0-10.2,12.32c-4.38,1.94-4.56,1.82-5.57-2.93-1.06-5-3-9.7-4-14.71-1.13-5.37-3-10.59-4.41-15.89a32,32,0,0,0-1-4.21,2.33,2.33,0,0,0-3.21-1.57c-2.2.63-4.43,1.19-6.66,1.71-6.93,1.62-13.82,3.38-20.8,4.74s-14.24,1.82-19.68,7.74c-2.44,2.66-4.6,5.16-5.43,8.68-1.84,7.78-1.8,15.84-3.42,23.65a4.32,4.32,0,0,0-.61,1.1c-1.54,7.29-2,14.71-2.57,22.12-.82,3.49,0,7.27-1.89,10.58a2.08,2.08,0,0,0-.21,1c0,7.48-2.39,14.59-3.24,21.93-.44,3.74,0,5,3.46,6.7a84,84,0,0,0,15.28,5.77c8.29,2.17,16.67,3.55,25.29,2.3,2-.29,2.88-1.26,2.55-3.26s-.69-4-1-6c-1.63-9.38-3.35-18.75-4.85-28.16-1.15-7.23-2.08-14.49-3-21.75-.66-5.32-1.17-10.67-1.61-16-.16-2,.7-3.6,2.93-3.79s2.91,1.55,3.13,3.3c1.1,9,2.1,17.93,3.16,26.9q1.53,12.93,3.88,25.74c1.9,10.28,4.09,20.52,5.8,30.83a406.54,406.54,0,0,1,5.2,41.23c.52,8.32,1.91,16.8-1,25a2.38,2.38,0,0,0,0,1c.6,4.94,0,9.88-.21,14.8-.39,9.11-1,18.22-2,27.28-.43,3.93.57,7.84-.39,11.69a54.94,54.94,0,0,0-1.17,9.87c-.47,7.15,1.31,7.77,6.24,10.12a123.64,123.64,0,0,0,30.47,9.79,95.45,95.45,0,0,0,20.5,1.64c9-.26,18.12.66,26.86-2.51a1.79,1.79,0,0,1,1.25-.06c1.57.78,3,.19,4.44-.32a10.84,10.84,0,0,1,4-.8c3.8.16,7.56-.86,11-1.88a86.8,86.8,0,0,0,20-8.31c.84-.5,1.65-1,1.64-2.09,0-5.56.53-11.21-.31-16.65a237.18,237.18,0,0,1-2-25.15c-.3-6.46-1.3-12.84-1.46-19.32-.18-7.38-.69-14.8-1.25-22.2-.69-9.16.92-18.21,2.2-27.24.41-2.91-.38-5.92.55-8.65a51.06,51.06,0,0,0,2.08-12.27c.43-5.15,2-10,2.7-15,.8-5.94,2.44-11.77,3.35-17.7.69-4.51,1.62-9,2.14-13.55.49-4.33,1.18-8.73,1.79-13.09.77-5.53,1.76-11,2.09-16.65.18-3.18,1.45-6.22.61-9.57-.55-2.18,1-4,2.38-5.72.61-.74,1.28-.64,2.06-.25a4.32,4.32,0,0,1,2.3,5.54,9.81,9.81,0,0,0-.69,2.7,121.85,121.85,0,0,1-2.5,22.34c-1,4.63-.62,9.51-2.09,14.11a9.77,9.77,0,0,0-.5,3c.07,6.19-1.73,12.08-2.84,18.09-.6,3.26-1.31,6.5-1.85,9.77-.3,1.8.49,2.92,2.44,3.17a62.48,62.48,0,0,0,20.15-.31,83,83,0,0,0,25.3-9.31c1.45-.84,1.55-1.87,1.34-3.2-.75-4.78-1.93-9.48-2.78-14.25-1.22-6.81-2.35-13.65-3.66-20.45-1.49-7.75-2.13-15.69-3.37-23.49-.94-5.92-1.67-11.9-2.3-17.81-1.09-10.13-7.74-19-17.78-21.14-2.65-.58-5.4-.75-8-1.32-9.13-2-18.24-4.05-27.35-6.12-2.1-.48-3.13.13-3.56,2.38-.63,3.34-.63,6.94-1.72,10-2.86,8-3.61,16.63-7.27,24.39-1.24,2.64-1.8,3.07-4.38,1.89-.62-.28-1.22-.62-1.83-.93-4.69-7.39-10.81-13.48-17.41-19.13-.13-.11-.3-.17-.44-.26a2,2,0,0,0-3.09.52c-2.94,4.56-6.21,9-5.77,14.87A21.83,21.83,0,0,0,187,423C185.12,431.16,183.59,439.4,180.68,447.28Zm.94-14.83c.3-.9.55-1.53.73-2.18,1.72-6.13,3.61-12.23,5.12-18.41A36,36,0,0,1,207,387.26a17.12,17.12,0,0,0,5.13-3.77c2.76-3.09,2.32-4.76-1.56-6-2.49-.81-5.24-1.2-7-3.42-1.29-1.62-2.57-1.82-4.42-1a43,43,0,0,1-31.61,2,23.55,23.55,0,0,0-18.12,1.38c-2.83,1.44-3.07,2.82-.86,5.12a42.17,42.17,0,0,0,9.61,7.61A26.69,26.69,0,0,1,170.6,403.9c1.09,3,2.39,6,3.55,9C176.62,419.34,178.58,426,181.62,432.46Zm37.55-71.91a6.34,6.34,0,0,0-3.71,1.63c-1.13.91-2.18,1.93-3.21,2.95-4.49,4.43-4.31,5.22,1.6,7.25,2.61.9,3.77.36,4.63-2.27a9.3,9.3,0,0,0,.3-2.26c.06-1,.46-1.68,1.55-1.61a1.43,1.43,0,0,1,1.4,1.78c-1.36,6.06-2.52,12.18-7.3,16.83-3.35,3.26-7.24,5.7-11.11,8.2-4.71,3.06-4.8,3.15-.55,6.66,5.44,4.5,9.8,10,14.53,15.17,2,2.13,3.15,1.93,4.23-.78,2.64-6.58,3.91-13.54,5.43-20.42,1.06-4.84,2.54-9.6,1.14-14.78-1.36-5-2.05-10.18-4.27-14.94A5.21,5.21,0,0,0,219.17,360.55ZM179.24,214.24h0c-1.87,0-3.74,0-5.61,0-1.13,0-1.63.71-1.56,1.87s.58,1.76,1.75,1.66a13.71,13.71,0,0,0,1.73-.34c2.68-.58,5.35-.9,7.95.37.76.37,1.59,1,2.29.12a2.47,2.47,0,0,0,.54-2.4,2.06,2.06,0,0,0-2.24-1.31C182.47,214.25,180.85,214.24,179.24,214.24Zm97.4,1.51v0c1.54,0,3.07,0,4.61,0a1.76,1.76,0,0,0,1.53-1.21,1.1,1.1,0,0,0-.78-1.42c-3.37-.94-6.78-1.62-10.19-.19-.77.32-1.29.84-1,1.79s1,1.08,1.79,1.08Zm-194.57-3c-1.36,0-2.73-.05-4.08,0-.92,0-1.75.56-1.73,1.52A1.62,1.62,0,0,0,78,215.72q4,.06,7.91,0a1.31,1.31,0,0,0,1.35-1.52,1.33,1.33,0,0,0-1.4-1.48C84.61,212.67,83.34,212.7,82.06,212.7Zm103.3-1.39H172.65A15.85,15.85,0,0,0,185.36,211.31ZM233,203c3.36.22,6.72.77,10-.33C239.63,202.16,236.23,200.51,233,203Z"/><path class="b" d="M69.55,427.76c1.62-7.82,1.58-15.87,3.42-23.65.83-3.51,3-6,5.43-8.68,5.44-5.92,12.62-6.37,19.68-7.74s13.87-3.13,20.8-4.74c2.23-.52,4.45-1.09,6.66-1.71a2.33,2.33,0,0,1,3.21,1.57,32,32,0,0,1,1,4.21c1.46,5.3,3.29,10.52,4.41,15.89,1,5,3,9.73,4,14.71,1,4.75,1.19,4.87,5.57,2.93,1.32.28,2.27-.42,3.22-1.18q5-4,10-7.92c.81-.64,2.25-1.62,2.67-.93,1.91,3.1,5,2.68,7.84,3.23a4.21,4.21,0,0,1,1.3.79,4.42,4.42,0,0,0,2.32,1,4.44,4.44,0,0,1,1.75,2.45c2,5.86,4,11.73,5.94,17.59a23.25,23.25,0,0,0-3-.51c-3.49-.16-4.91,2.23-3.31,5.43a3.09,3.09,0,0,0,2.88,1.74,2.35,2.35,0,0,0,2.42-1.85c.37-1,.51-2.26,2-2.25,1.12,3.12-.5,6.12-.4,9.2a12.91,12.91,0,0,0-1.56,6.73c2.31-2,3.26-4.07,2.86-6.73,2.91-7.88,4.44-16.13,6.29-24.29a21.83,21.83,0,0,1,3.13-7.45,4.73,4.73,0,0,0,3.16-1.45A48.09,48.09,0,0,1,197,411c2.83-2,4-2,6.9-.15a41.59,41.59,0,0,1,6.75,5.4,10,10,0,0,0,6.17,3.26c.61.31,1.21.64,1.83.93,2.57,1.18,3.13.75,4.38-1.89,3.66-7.76,4.41-16.38,7.27-24.39,1.09-3.07,1.09-6.67,1.72-10,.43-2.24,1.46-2.85,3.56-2.38,9.11,2.07,18.22,4.14,27.35,6.12,2.65.58,5.4.75,8,1.32,10,2.18,16.69,11,17.78,21.14.64,5.91,1.36,11.89,2.3,17.81,1.24,7.8,1.88,15.74,3.37,23.49,1.31,6.8,2.44,13.64,3.66,20.45.85,4.77,2,9.46,2.78,14.25.21,1.33.11,2.37-1.34,3.2a83,83,0,0,1-25.3,9.31,62.48,62.48,0,0,1-20.15.31c-1.94-.25-2.74-1.37-2.44-3.17.54-3.27,1.25-6.51,1.85-9.77,1.11-6,2.91-11.89,2.84-18.09a9.77,9.77,0,0,1,.5-3c1.46-4.6,1.07-9.48,2.09-14.11a121.85,121.85,0,0,0,2.5-22.34,9.81,9.81,0,0,1,.69-2.7,4.32,4.32,0,0,0-2.3-5.54c-.78-.38-1.45-.48-2.06.25-1.39,1.67-2.93,3.54-2.38,5.72.85,3.35-.42,6.39-.61,9.57-.33,5.61-1.32,11.12-2.09,16.65-.61,4.36-1.3,8.76-1.79,13.09-.51,4.57-1.44,9-2.14,13.55-.91,5.93-2.54,11.76-3.35,17.7-.68,5-2.27,9.87-2.7,15a51.06,51.06,0,0,1-2.08,12.27c-.93,2.73-.13,5.74-.55,8.65-1.28,9-2.9,18.08-2.2,27.24.56,7.39,1.08,14.82,1.25,22.2.16,6.49,1.15,12.87,1.46,19.32a237.18,237.18,0,0,0,2,25.15c.84,5.44.27,11.09.31,16.65,0,1.09-.8,1.58-1.64,2.09a86.8,86.8,0,0,1-20,8.31c-3.44,1-7.21,2-11,1.88a10.84,10.84,0,0,0-4,.8c-1.47.51-2.87,1.1-4.44.32a1.79,1.79,0,0,0-1.25.06c-8.74,3.17-17.85,2.24-26.86,2.51a95.45,95.45,0,0,1-20.5-1.64,123.64,123.64,0,0,1-30.47-9.79c-4.93-2.35-6.7-3-6.24-10.12a54.94,54.94,0,0,1,1.17-9.87c1-3.85,0-7.76.39-11.69,1-9.06,1.61-18.17,2-27.28.21-4.92.81-9.86.21-14.8a2.38,2.38,0,0,1,0-1c2.88-8.24,1.49-16.72,1-25A406.54,406.54,0,0,0,116,507c-1.71-10.31-3.9-20.55-5.8-30.83q-2.37-12.8-3.88-25.74c-1.06-9-2.06-17.94-3.16-26.9-.22-1.75-.85-3.5-3.13-3.3S97,422,97.13,424c.44,5.35,1,10.69,1.61,16,.9,7.26,1.83,14.53,3,21.75,1.5,9.41,3.22,18.77,4.85,28.16.35,2,.71,4,1,6s-.52,3-2.55,3.26c-8.62,1.25-17-.13-25.29-2.3a84,84,0,0,1-15.28-5.77c-3.45-1.67-3.89-3-3.46-6.7.85-7.35,3.29-14.46,3.24-21.93a2.08,2.08,0,0,1,.21-1c1.86-3.31,1.07-7.09,1.89-10.58,1.87-.31,2.66.73,3,2.37.26,1.42.5,2.84.78,4.41,1.09-1.09.83-2.25.83-3.33,0-8.27-.87-16.52-.54-24.8C70.42,428.9,70.59,428,69.55,427.76Zm102.54-2.64c0-3-.89-3.9-3.31-4s-2.67,1.71-2.81,3.36c-.19,2.1,1.43,3.34,3.82,3.4S172.2,426.53,172.09,425.12Z"/><path class="c" d="M137.72,261.08c10.21-.58,16.81-5.24,23.11-12.14A54.24,54.24,0,0,0,171,232.32c1.29-3.2,4-5.52,5.33-8.66.4-.91,1.46-.83,2.29-.68,1.86.32,3.64.87,4.82,2.52a4.58,4.58,0,0,0,2.49,4.07l0,0a52.81,52.81,0,0,1,4.39,10.58c1.11,3.93,2.12,7.88,3.17,11.82.19.72.19,1.76,1.2,1.65s.9-1.23,1-2c.08-1.14-.77-2.21-.35-3.48a8.2,8.2,0,0,1,2.7,2.07c1.44,1.41,2.57,3.22,4.74,3.7l1.61.87,6.17,2.69a84.76,84.76,0,0,0,8.53,3.19,42.28,42.28,0,0,0,25.18,0c14.33-4.11,23.49-13.32,25.9-28.49a96.9,96.9,0,0,0,1.44-10.88c.06-1.3.58-2.24,1.92-2.23,1.17,0,1.69.84,1.84,2,1.31,10.35,2.21,20.67-1.17,30.85a85.23,85.23,0,0,0-2.17,9.11c-.79,3.7-1.93,7.27-2.69,10.93-.5,2.42-1,4.95-1.35,7.46-.44,3.38-1.55,6.68-2.24,10s-1.12,7.07-2,10.54c-2.77,11.46-9.13,20.69-17.42,28.95-3,3-6,6.28-9.17,9.13a99.68,99.68,0,0,1-11.61,9.24,114.64,114.64,0,0,0-11.36,8.32c-1.78,1.54-2.87.48-3.94-1.13-4.9,10.94-14.19,14.45-25,15.84-7.56,1-14.72-.29-21.88-2.56a23.79,23.79,0,0,1-13.53-10.69c-.66-1.07-1.36-2.12-2.21-3.44-.38,2.1-1.11,2.85-2.92,1.66-10.24-6.72-20.16-13.84-28.66-22.73-4-4.2-7.92-8.52-11.67-13C98.43,312.54,95.69,304,94,295c-.89-4.77-1.65-9.56-2.71-14.3-2-9.1-4.39-18.13-6.31-27.25-1.24-5.89-3-11.75-2.64-17.89a122.25,122.25,0,0,0,.27-13.83c-.09-1.92,1.11-2.24,2.59-2.37s2,.74,2.21,2.13c.34,2.14-.21,4.27,0,6.35,1,8,3,16.05,8.54,22a36.09,36.09,0,0,0,23.06,11.4c2.35,2.95-.25-.06,0,0,1.81.55,9.63.79,18.66-.1m46.63,25.51h-9.17c-4.18-3.93-8.77-6.16-14.67-4-1.87.68-3.11-.33-3.56-2.27a10.46,10.46,0,0,1,0-4.83c.16-.67.28-1.34.39-2s.5-1.18,0-2c-2.67,3-4.59,6-3,10.07,1.43,3.75,4.69,4.67,8.23,5.08a23.49,23.49,0,0,1,11.15,4.19,9.1,9.1,0,0,0,11.21.2,27.68,27.68,0,0,1,12.71-4.42c3-.3,5.62-1.1,6.68-4.26,1.16-3.44,1-6.75-1.46-9.67-.32-.38-.61-1.08-1.47-.66.36,2.83,1.57,5.64.44,8.56-.75,1.95-1.8,2.88-4.11,2.09C191.93,280.69,188,281.92,184.35,286.59Zm-3.74,31.59A138.93,138.93,0,0,0,203.51,316c6.12-1.13,12.13-3,18.41-3.11,1.36,0,2.62-.18,3-1.75.59-2.36-.58-3.92-2.47-5.12-1.28-.82-2.63-1.13-3.67.21-1.59,2.05-3.81,2.74-6.17,3.3a139.57,139.57,0,0,1-59,1.59c-5.07-1-10.6-.87-14.68-5.14-1.36-1.42-3,.06-4.35,1a3.33,3.33,0,0,0-1.45,4c.49,1.55,1.75,2,3.25,1.91a33.1,33.1,0,0,1,8.61,1.16A156.09,156.09,0,0,0,180.61,318.18Zm-.55,13.06c4,.26,8,.15,11.74-1.48,1.09-.47,2.39-1,2.08-2.46-.36-1.64-1.88-1.23-3-1.08a119.85,119.85,0,0,1-13.69,1,53.66,53.66,0,0,1-11.13-.92c-.8-.16-1.6-.18-2,.67-.48,1,.25,1.64,1,2.07a10.94,10.94,0,0,0,2.35,1A35.5,35.5,0,0,0,180.05,331.24Z"/><path class="d" d="M197.67,204.42c-3.47,2.21-7.48,2.8-11.38,3.49a44.48,44.48,0,0,1-23.39-2.33c-1.77-.65-2.07-1.62-1.5-3.07.94-2.4,0-3.85-2.13-4.86-4.74-2.22-9.81-3.15-14.93-3.9a59.21,59.21,0,0,0-11.7-.55,101.24,101.24,0,0,0-29.5,6c-.32.12-.79.18-.91.42-1.5,2.83-4.66,3-7,4.53a14.29,14.29,0,0,0-4.28,4,2.86,2.86,0,0,1-2.51,1.42c-4.77.14-5.15.08-4.9-4.84.24-4.63.05-9.33,1.17-13.9,1.84-7.55,3.66-15.08,6.54-22.36,2.47-6.24,2.76-13,3-19.68.2-5.2,2.06-10.07,4.33-14.85,3.58-7.55,9.57-10.33,17.44-10.08,9.89.31,19.75,1.22,29.61,2,8,.6,16,.79,24,1.3a330.48,330.48,0,0,0,39.18-.32c11.66-.65,23.29-1.89,35-2,14.62-.11,19.26,6.62,21.1,19,1,6.9,1.34,13.9,2.12,20.84.45,4,2.65,7.45,3.33,11.43,1,5.86,2.68,11.65,3.5,17.49.63,4.54,1.76,9.16,1.48,13.86-.07,1.19-.05,2.28-1.63,2.34a10,10,0,0,1-8-4.13,7.24,7.24,0,0,0-6.35-3.07l-1.48-.64c.16-2.17-1.48-2.65-3-3.21a92.42,92.42,0,0,0-35.7-5.51c-6.34.29-12.61,1-18.44,3.73-3.59,1.71-3.75,2.14-3,6A6.25,6.25,0,0,1,197.67,204.42Z"/><path class="e" d="M239.85,657.36c1.2,29.15.27,58.32.45,87.47,0,5.32-1,10.64-1.61,16-.44,4-1.18,8.08-1.3,12.14-.11,3.8-1.53,7.32-1.8,11.05-.5,6.78-1.43,13.53-.46,20.37.48,3.36.08,6.79.55,10.21.81,5.84.6,11.75.58,17.64,0,5.3-1.2,10.45-1.79,15.68s-1.24,10.45-1.8,15.68c-.25,2.28-.13,4.62-.59,6.85-.76,3.7.24,7.09,1.48,10.41a5.91,5.91,0,0,1-.1,5.13c-3,6-3.18,11.92.67,17.68a1.37,1.37,0,0,1,.11.23c2.52,6,2.38,7.6-4.29,7.21-8.18-.48-15.51,1.87-22.51,6.2-5.11,3.17-10.75,5.63-17.05,5.57-3.13,0-5-2.37-3.64-5.1,3.08-6.29,3.13-13.17,4.32-19.84,1-5.43,2.11-10.83,2.82-16.29.81-6.25,1.34-12.54.38-18.84-.42-2.78-.27-5.6-.51-8.41a231.6,231.6,0,0,1-.57-27.65c.16-4.74,1-9.45,1.47-14.18a21.23,21.23,0,0,0-1-8.83c-1.54-4.54.33-8.94.68-13.38a95.61,95.61,0,0,0,0-17.48c-.56-5.49-1.1-11-1.71-16.47q-1-8.85-1.93-17.71c-.39-3.73-.09-7.48-.58-11.23-.88-6.73-1.59-13.5-2-20.27-.34-6.21-1-12.43-.66-18.67.07-1.55.87-2.2,2.4-2.42a142.25,142.25,0,0,0,15.4-3.49c2.19-.56,2.37-1.95,2.2-3.66s-1.43-2.08-3-2.06c-3.26.05-6.38,1-9.52,1.66A61.93,61.93,0,0,1,180.79,680c-.25-1.7-1.58-4,.35-4.91,3.4-1.54,6.25-4.23,10-4.9,5.59-1,11.24-1.57,16.78-2.93,7.58-1.85,15.14-3.87,22.92-4.86C234.46,661.94,238.32,661.62,239.85,657.36Zm-21,244.54c-3,1.11-5.71,1.9-8.22,3-4,1.83-7.66,4.14-9.85,8.18-.37.68-.84,1.48,0,2.06.67.47,1.27-.17,1.8-.57,1.68-1.3,3.37-2.59,5-4,4.93-4.13,10.13-7.57,17-6.84a15.48,15.48,0,0,0,2.31,0,1.93,1.93,0,0,0,2-1.61c.19-1.24-.93-1.52-1.79-1.81-1.29-.44-2.68-.18-4-.46-5-1-10-2-15.22-.42C211.52,900.16,215.23,899.88,218.88,901.9Zm10.59-99.65c-1.83,1.6-1.93,3.72-3,5.35-3.82,6.06-7.58,12.15-13,17-.48.43-1.19.93-.52,1.7s1.18,0,1.75-.29c2.47-1.3,4.27-3.37,6.23-5.27.43-.42.86-1.37,1.62-.74.59.49.21,1.28-.12,1.89s-.83,1.49-1.25,2.23c-.17.3-.4.66,0,.88a1.16,1.16,0,0,0,.93,0c1.36-.64,3.66-5.66,3-7-1.18-2.24-.37-4,.67-6C227.38,809.11,229.47,806.24,229.47,802.25Zm-2.71,85a5.67,5.67,0,0,0-1.07.11,4.11,4.11,0,0,0-.89.5A14.08,14.08,0,0,1,214.06,891a33.75,33.75,0,0,0-4.11,0c-.81,0-1.91-.24-1.86,1.1,0,1.09,1,1.32,1.85,1.41a16.85,16.85,0,0,0,6.34-.51C220,892,223.81,890.84,226.76,887.22Z"/><path class="e" d="M176.66,680a76.25,76.25,0,0,1-14.51-1c-1.32-.26-3-.57-4,.87a2.92,2.92,0,0,0-.68,3.08,4.51,4.51,0,0,0,3.84,2.61,28.18,28.18,0,0,0,6.86.57c2.07-.18,3,.82,2.93,2.88-.22,9.28-1.05,18.53-1.44,27.79-.24,5.79-.85,11.55-1.13,17.33-.34,7-1.07,13.88-1.91,20.8-.73,6-1.58,12-1.73,18a40.15,40.15,0,0,1-1.06,9.09c-1,3.93.63,7.38,1.27,11a36.55,36.55,0,0,1,.2,10.2c-.6,5.68-1.11,11.29,0,17,.38,1.9.05,3.92.14,5.89.16,3.74.21,7.5.36,11.24.23,5.93-.51,11.89-.78,17.84-.11,2.48-.07,5-.08,7.44,0,3.67-.39,7.34-.41,11a68.9,68.9,0,0,0,3,20.86,18.46,18.46,0,0,1,1,6.26,32.61,32.61,0,0,0,2.66,13.68c1,2.41,1.9,5.09.17,7.28s-4.53,1.24-6.92.74a41.54,41.54,0,0,1-13.83-5.78c-7.06-4.49-14.95-5.94-23.25-5.62-4.33.17-5-.87-3.31-4.94,1.43-3.53,3.78-6.65,4.13-10.67a8.31,8.31,0,0,0-.46-4c-2.27-5.1-2.27-10.19-.85-15.48,1.24-4.63.3-9.28-.26-13.93-.95-7.83-2.49-15.57-3.35-23.42a128.34,128.34,0,0,1-.31-21c.41-7.55,1.47-15.07,1.42-22.66,0-6.07-1.29-12-2.29-17.92q-.95-5.64-1.38-11.37c-.39-5.33-.63-10.68-1.37-16a53.87,53.87,0,0,1-.55-7.37c0-5-.49-9.94.23-15,.39-2.71-.31-5.74-.32-8.63,0-15.23,0-30.47,0-45.7,0-4,.38-8,.58-12,2.23-.36,4.19.59,6.18,1.29,15.55,5.47,31.47,9.1,48,9.43,1.89,0,3.66.07,4.34,2.26S178.8,678.32,176.66,680ZM137.14,823.74l.2.66.19-.13-.38-.54-.82-2.14c-.34-.9-1.38-2,0-2.66,1.13-.59,1.62.66,2,1.45,1.56,3.26,4.28,5.23,7.35,6.82.41.21.93.69,1.37.11s0-1-.33-1.38c-.4-.55-1-1-1.38-1.52-3.5-4.39-7.51-8.36-10.6-13.09a53.31,53.31,0,0,1-3.47-7.12c-.25-.54-.59-1.22-1.31-.82s-.13.9.06,1.34c1.33,3.23,2.41,6.57,4.44,9.48a2.52,2.52,0,0,1,.37,2.87C133.32,819.7,134.31,822.4,137.14,823.74Zm14.22,75.76c-6.87-1.82-13.07-.07-19.3,1-.81.14-1.67.42-1.58,1.62s1,1.49,1.91,1.67a5.25,5.25,0,0,0,1.28,0c6.41-.4,11.72,2.07,16.57,6.07,2.15,1.78,4.11,3.85,6.68,5.08.48.23,1,.88,1.58.22a1.35,1.35,0,0,0-.14-1.66c-2.9-4.34-6.37-7.92-11.68-9.24-2.17-.54-4.52-.79-6.27-2.87C143.87,899.92,147.48,900.16,151.36,899.5Zm-4.08-5.89a15.06,15.06,0,0,0,2.55-.29c.68-.17,1.64-.45,1.44-1.47-.17-.81-1-.84-1.67-.84-2,0-3.93-.05-5.89,0a13.74,13.74,0,0,1-10.56-4.25,12.75,12.75,0,0,0-1.77-1.44c-.32-.22-.77-.56-1.14-.14s-.05.88.37,1.24C135.28,890.44,140.36,893.53,147.28,893.6Z"/><path class="f" d="M125.34,119.24a50.37,50.37,0,0,0-21.16,3.48A20.43,20.43,0,0,0,97.64,127c-3.65.87-5.15,4.08-7.19,6.68-.54.69-1.15,1.75-.57,2.54.8,1.1,1.6,0,2.39-.37a5,5,0,0,1,1.24-.18c-.39,3-2.48,5.55-2.09,8.71a2.59,2.59,0,0,0-2.17,1.9c-.66,1.65-1.31,3.3-1.88,5-.93,2.73-.85,2.8,2,2.9q0,1.79,0,3.58c-2.56,1.23-2.59,1.44-.44,4.13-.07,3.38-1.3,6.46-2.54,9.51-1,2.44-1.9,4.89-2.65,7.41a3.32,3.32,0,0,1-3.51-2.39,42.63,42.63,0,0,1-1.72-4.77c-.58-2.36-2.4-2.76-4.19-1.13-.6.55-.77,1.6-1.83,1.61,0-1.19.06-2.39-.05-3.58a145,145,0,0,1,0-25.68,94.82,94.82,0,0,1,4.9-17.33,50.53,50.53,0,0,0,1.77-8.69c.13-.75,0-1.59,1-1.75,2.22,2.89,1.72,6.15,1.25,9.38-.17,1.18-.75,2.48,1.38,2-.09,1.64-1,3-1.33,4.61s-.66,3.45.85,5.18c1.92-3.93,3.78-7.59,5.48-11.34.54-1.19,0-2.15-1.49-2.27,0-3.21,2.6-4.61,4.57-6.4,2.19-2,4.81-3.47,6.78-5.72l.66-.2-.13-.19-.54.38c-2.31-.34-4,1.12-6,2-.6.26-1.25.89-1.88.38-.81-.66-.12-1.5.18-2.08a50.79,50.79,0,0,1,3.44-5.94c2.15-3,4.48-6,6.76-8.92.45-.58.82-1.26.34-1.85-.61-.75-1.26,0-1.77.31-1.45.89-2.78,2-4.26,2.79-.81.45-1.74,1.56-2.71.65-.74-.7-.12-1.74.12-2.64.42-1.54,1.33-3,1.08-4.68,3.14-4.24,6.62-8.12,11.28-10.77a9.39,9.39,0,0,0,4.43-.9,87.28,87.28,0,0,0,10-5c.8-.42,1.68-1.16,2.48-.09,1.92,2.52,3.19.81,4.3-.72,1.74-2.39,3-5.13,5.15-7.24l3.35.06a4.44,4.44,0,0,0,2.84-1q4.81-2.89,9.65-5.75c1.38-.82,2.53-.73,2.75,1.09.33,2.69,1.61,1.69,2.71.71,5.71-5.06,12.48-8.21,19.51-10.88,1.12-.43,1.8-.89,1.65-2.16,2.58-1.45,5.4-1.25,8.13-.91,1.41.18,2.83.31,4.24.43a4.81,4.81,0,0,1-.68.75c-.8.59-2.23,1-1.78,2.15s2,.71,3,.5c1.19-.26,2.26-.63,3.37.55-1.11.71-2.17,1.37-3.2,2.08-.63.43-1.38,1-.94,1.83a1.45,1.45,0,0,0,2,.44,15.09,15.09,0,0,1,1.93-.65c6.61-2.06,13.24-3.67,20.21-1.64,1.14.33,2.6.53,3.37-1,9.06,3.63,17.35,8.72,25.63,13.79,7.92,4.85,15.68,10,23.49,15,1.21.78,2.29,1.77,3.48,2.58,1.87,1.28,2.35,2.6.39,4.25s-.75,3.23.32,4.67c2.84,3.83,5.58,7.73,8.16,11.75a79.64,79.64,0,0,1,12.44,35.26c.87,8.36.23,16.71.39,25.06,0,1.74-.65,3.49-1,5.23a3.84,3.84,0,0,0-4.19,2.91,11.24,11.24,0,0,1-2.1,3.71c-1.15,1.36-2.28,1.46-3.65.18-1.05-1-1.45-2.52-2.83-3.18-1.84-5.35-4-10.63-2.7-16.52a7,7,0,0,0-.15-3.53c-1.33-4.5-1.28-9.18-1.76-13.8a4.35,4.35,0,0,1,3,1.16.93.93,0,0,0,1.17.12c.45-.36.05-.77,0-1.16-.41-2.36-1.79-4.2-3.19-6-.39-.51-1.28-.95-.73-1.7,1.58-2.17-.12-3.35-1.39-4.49-5.36-4.79-11.09-8.84-18.79-8.48a2,2,0,0,1-2-1.32,2,2,0,0,1,.63-2.3,11.67,11.67,0,0,1,3.45-2.62c.66-.3,1.51-.8,1.12-1.74s-1.19-.54-2-.44c-4.92.61-9.34,2.56-13.65,4.85-.85.45-1.77.88-2.61.07s-.43-1.73,0-2.6c.65-1.3,1.26-2.62,2-3.89,1-1.85.41-2.38-1.54-2.35-3.15,0-6.25.76-9.43.58-6-.34-11.65,1.12-17.29,2.84-7.58,2.31-14.91,5.4-22.56,7.49-3.75,1-7.52,1.52-11.31.3-.69-.22-1.66-.4-1.7-1.33s.89-1,1.49-1.17c2.81-.9,5.16-2.65,7.6-4.19,1.75-1.11,4-2.08,4.37-4.65-.93-.33-1.58.22-2.3.38-3.14.7-6.2,1.87-9.49,1.84-.76,0-1.57.15-2-.75s.37-1.2.72-1.73l5.53-8.17c-2.31-.24-3.72.77-5.1,1.71a168.36,168.36,0,0,1-15.77,9.52c-.65.34-1.27.65-1.89.17s-.36-1.08-.15-1.66.62-1.43-.07-1.86-1.28.27-1.86.57a147.21,147.21,0,0,1-25.41,10.83A3.12,3.12,0,0,0,125.34,119.24ZM114,97.66c1.54-.15,2.16-1.54,3.15-2.41.71-.63,1.46-1.58,2.38-1.13,2.88,1.41,2.89-.64,3.24-2.45.24-1.24.6-2.46.85-3.7.14-.65.37-1.43-.28-1.89s-1.39,0-1.86.41c-3.46,3.06-6.52,6.41-7.51,11.15l-.2.22Zm89.38-22c-.93-1.64-2.23-1-3.58-.71-1.11.21-2.56.69-3.3-.52-.63-1,.61-1.78,1-2.66.7-1.44,2.36-2.35,2.52-4.77-7.06,5.12-12.59,10.66-14.52,19.38a12.58,12.58,0,0,0,4.33-2.65c2.56-2.08,5-4.36,8.44-5-.6,1.87-2.6,3.14-2.44,5.39a2.88,2.88,0,0,0,2-.77,113.19,113.19,0,0,1,11.47-6.71c.56-.28,1.62-.37,1.44-1.15-.22-.95-1.3-1.06-2.13-.93C206.9,74.84,205.17,75.27,203.43,75.63Zm-33.65-1.32c1.52.56,2.7,0,3.93-.67,2.23-1.25,4.5-2.42,6.78-3.57.56-.28,1.17-.9,1.86-.26s.11,1.46-.27,2a17,17,0,0,0-2.24,4.85,1.87,1.87,0,0,0,.94,2.19c.81.53,1.22-.18,1.73-.6,1.89-1.58,3.8-3.15,5.68-4.74.85-.72,2-1.63,1.09-2.76-1.48-1.88-.1-2.49,1.1-3.3.78-.52,1.61-1,2.34-1.55.57-.46,1.45-.89,1.24-1.77-.26-1.1-1.31-.87-2.13-.9a28.47,28.47,0,0,0-17.48,5.42C172.35,70,170.45,71.71,169.78,74.31Zm39.95,14.58c8.3-2.4,16.29-4.7,24.26-7,1.54-.45,4.26-.27,4-2.24-.35-2.8-3-1-4.44-.88-6,.65-12,1.46-17.54,4C213.33,84,210.93,85.52,209.73,88.89ZM173.47,61.69a2.34,2.34,0,0,0-2.53-.36,33.49,33.49,0,0,0-8.86,4.5,20.52,20.52,0,0,0-6.9,8,1.49,1.49,0,0,0,0,1.68,1,1,0,0,0,1.34.34c3.95-2,8.26-3.23,12-5.68.47-.31,1.34-.46,1.14-1.17s-1.1-.62-1.77-.65c-.83,0-2,.23-2.22-.78s.91-1.43,1.64-2C169.22,64.17,171.73,63.6,173.47,61.69ZM137.12,96.24c-.63,0-.91-.08-1.12,0a151.41,151.41,0,0,1-17.54,7c-.82.26-1.13.61-1.07,1.65.14,2.58,1.68,2.87,3.59,2.4a31.29,31.29,0,0,0,11.34-5.12C134.37,100.68,136.3,99.06,137.12,96.24Zm-14-16.72a1.44,1.44,0,0,0-2.24-.6c-6.38,3.45-12.19,7.56-16.09,13.89-.38.62-1.26,1.39-.64,2s1.77.36,2.55-.33q7.72-6.92,15.43-13.85A12.87,12.87,0,0,0,123.1,79.52Zm34.82,22.09c7-.74,15.71-9.11,15.74-14.9A63.4,63.4,0,0,0,157.93,101.61Zm104.19,2.48a13.91,13.91,0,0,0,2.79-.54c.53-.25,1.33.12,1.64-.79-4.07-1.6-8.15-2.19-12.37-.55-.56.22-1.24.3-1.29,1s.6.91,1.19,1.08a34.57,34.57,0,0,1,12.74,6.16c.4.33.91.73,1.36.33.71-.64-.08-1.07-.45-1.42C266,107.73,264.27,106.12,262.12,104.1ZM227.23,75.51c-2.3-1-4.52-.38-6.74.06a17.41,17.41,0,0,0-10.6,6.16c-.44.55-1.09,1.25-.47,2.05a1.14,1.14,0,0,0,1.8.07c4.08-3.4,9-5.08,13.89-6.89C225.85,76.69,226.75,76.52,227.23,75.51ZM168.09,59.19c-4.26-2.91-13.85,1.14-16.7,5a1.26,1.26,0,0,0-.07,1.64,1.17,1.17,0,0,0,1.6.31A134.46,134.46,0,0,1,168.09,59.19Zm83.36,24.94c-4.8-.55-8.89.2-12.57,2.88-.85.62-2.43,1-1.91,2.32s1.89.5,2.94.34c2.51-.37,4.93-1.32,7.5-1.25,1.7,0,3.34.18,2.77-2.4C250.05,85.37,250.86,85.1,251.46,84.13ZM148,97.77c.54,1.13,1.65,1.2,2.7.7,3.53-1.68,7-3.46,10.5-5.25.69-.35,1.31-1,1-1.86s-1.25-1-2.14-.77a37.74,37.74,0,0,0-11.33,5.69A1.52,1.52,0,0,0,148,97.77ZM133.58,90c1.08-.66,2.12-1.24,3.09-1.9A22.52,22.52,0,0,0,145,76.78c.3-.82.72-1.85-.2-2.28s-1,.83-1.42,1.37c-1.28,1.69-2.52,3.41-3.75,5.14a61,61,0,0,1-6.22,6.76c-.39.41-1,.78-.66,1.49C132.92,89.52,133.25,89.68,133.58,90Zm87,8.53c-8.35-1.14-15.2,1.7-15.78,6.26C210,103,215,100.89,220.59,98.49ZM130,106.23a7.47,7.47,0,0,0,3.92-1c3.55-1.54,6.76-3.58,8.92-6.94.28-.44.66-.94.18-1.36s-.89.14-1.27.43c-1.77,1.32-3.62,2.55-5.29,4C134.49,103.05,132,104.08,130,106.23Zm99.63-40.6c-4.74-3.6-11.29-3.67-15-.37C219.69,65.43,224.68,65,229.64,65.63Zm24.22,28.83,6.69-4.79C256.68,89.3,254.9,90.55,253.87,94.46Z"/><path class="g" d="M79,663.49l1.09-1.68c1.69-1.4,3.45-2.73,5.06-4.21,2-1.86,1.9-2.58-.42-4.28-1.65-2.21-1.94-4.88-2.44-7.45-2.18-11.19-4.44-22.37-6.44-33.6-2.71-15.25-6-30.44-7.34-45.89a160.63,160.63,0,0,1,.54-30.47c.47-4.53.15-9.06.29-13.58.19-6,.34-12,.5-17.93.08-3.09.94-3.73,4-2.84a104.71,104.71,0,0,0,15.41,3.51,60.46,60.46,0,0,0,9.69.73q3.18-.1,2.69,3c-.82,5.13-1.68,10.25-2.52,15.37-.26,1.59-1.35,1.67-2.67,1.65-3.7,0-4.61,1.34-3,4.76,5.34,11.67,7.35,24,7.84,36.74q.9,23.55,2.06,47.08c.67,13.3,2.12,26.55,2.05,39.89,0,3.08,1.51,5.55,3.68,7.64,2.78,2.68,4.68,5.49,3.24,9.74-.48,1.42.61,3.31.62,5,0,8.72.28,17.45-.17,26.17-1.26.59-.84,1.75-.85,2.7,0,8.35,0,16.7,0,25.05,0,1.09.47,2.55-1.41,2.73,0-3.51-1.68-6.72-1.75-10.21.91-2.4.48-4.88.42-7.33,0-1.37-.17-2.64-2-2.65s-1.93,1.26-2,2.64a69.83,69.83,0,0,0,2,18.23c1.09,4.49,2.65,8.78,5.79,12.32l.58,4.54c-1,1.07-.36,2.24-.19,3.38.14.91.55,1.91-.55,2.51s-2-.21-2.61-1a37,37,0,0,1-2.45-3.6q-4.26-6.83-8.49-13.69l-.21-1a187.34,187.34,0,0,1-2.39-23.18c-.08-1.33-.12-2.65-2-2.57s-1.76,1.3-1.71,2.55a151.27,151.27,0,0,0,1.22,17.64c.9,5.89,2.54,11.52,7,15.87l1.18,3-.65,2.4a13.18,13.18,0,0,1-4.5-4.46c-2.38-3.58-5.39-6.75-7.25-10.68-.25-2.58-1.77-4.74-2.25-7.28-1.46-7.63-3.14-15.23-4.73-22.84-.28-1.35-.7-2.58-2.47-2.18s-1.54,1.69-1.29,2.87c2,9.43,3.25,19,6.21,28.25a1.91,1.91,0,0,1-1.13,1.69A86.51,86.51,0,0,1,71,702.21c-.61-4.7.44-9.34,1.13-14,.25-1.7.15-3.4.44-5.09,1.08-1.25,2.07-2.52.83-4.23l.6-2.53A103.8,103.8,0,0,0,79,663.49Z"/><path class="g" d="M259.82,552c2.23-7.79,3.35-9.69,7.17-17a12.83,12.83,0,0,0,.73-2.68c-.54-2.26,2.06-4.33.37-6-1.11-1.25-3.78,1.43-4.68,1.12-2,.51-2.35-7.25-3-10.86-.6-3.39-.71-3-.66-5.75.29-4.09.29-4.09,4.38-4.52,7.84-.83,15.64-1.8,23.12-4.5,3.47-1.26,4.57-.4,4.91,3.32.07.76,0,1.53,0,2.3-1,3.94-.5,7.93-.25,11.88a310.35,310.35,0,0,1,.25,41.42c-1.31,14.34,0,0-1.26,14l-.31,2.53c-1,5.16-.26,1.13-1,5.16l-4.22,17.24c-3.27,11.8-6.28,23.66-9.26,35.54-1.16,4.62-2.74,9.12-3.53,13.84a7.87,7.87,0,0,1-2.67,4.57c-1,.87-1.08,1.76,0,2.55,7.64,5.75,9.79,14.23,11.55,22.94a85.8,85.8,0,0,1,1.36,26c-.79,7.5-3.64,14.66-6.87,21.53a29.18,29.18,0,0,1-5.2,8.31c-1.07-.17-1.6,1.08-2.63,1a15.62,15.62,0,0,1,.48-2.24c3.06-8.28,4.13-17,6.22-25.56.31-1.25.62-2.66-1.17-3.12s-2.09,1-2.39,2.24c-.92,3.81-1.83,7.63-2.64,11.46-1.76,8.28-3.55,16.53-8.88,23.46a5.2,5.2,0,0,0-.52,1.67.56.56,0,0,0-.35.36,12,12,0,0,0-4.61,5.59l-1.41.73-1.86-.76a45.92,45.92,0,0,0,8.21-18.3,155.74,155.74,0,0,0,1.92-17.56c.09-1.33.35-2.94-1.66-3.14s-2,1.5-2.09,2.8c-.56,5.26-.88,10.56-1.61,15.79-1,7.08-4.47,13-9,18.94-.41-2.41.15-4.39-.43-6.28a30.85,30.85,0,0,1,.62-11.39,25.8,25.8,0,0,0,.55-8.07c1.11-1.52,1.19-3.35,1.48-5.1.44-2.65.2-5.13-2.34-6.79q-.07-24.21-.15-48.42a3.26,3.26,0,0,1,1.21-2.9,4.91,4.91,0,0,0,2.19-3.9c-.28-5,2.4-9.54,1.83-14.55-.4-3.47,1-6.72,1.56-10.07.78-4.75.29-9.54.64-14.3"/><path class="g" d="M113.54,205.33a24.8,24.8,0,0,0,5.62,0c6.81.56,13.65,0,20.48.67a62.5,62.5,0,0,1,18.73,4.65c6.72,2.94,9.54,9.23,6.56,17.62-2.58,7.26-5.88,14.16-11.43,19.73-8.08,5.39-17.12,7.23-26.66,7.18-4.53,0-8.91-1.09-13.32-1.92-1.54-.7-3.09-1.38-4.62-2.11a22.3,22.3,0,0,1-9-7.38,32.37,32.37,0,0,1-5.25-25.53c1-5.12,3.63-9,8.94-10.85A41.4,41.4,0,0,1,113.54,205.33Zm19.22,29.51a45.34,45.34,0,0,0,13.86-1.92c4.48-1.4,8.91-3,13.66-3.21,3.71-.17,4.32-1.13,2.38-4.25-6.3-10.15-15.65-15.56-27.4-16.35a47.62,47.62,0,0,0-14.42,1,38.72,38.72,0,0,0-17.45,9.22c-1.48,1.36-1.57,2.51.2,3.68,1.42.94,2.78,2,4.17,3C115.6,231.63,124.29,234.77,132.76,234.84Z"/><path class="g" d="M222.9,205.47l21.56-.06a45.42,45.42,0,0,1,6.83.7c5.32,1.34,10.42,3.36,12,9.36a35.36,35.36,0,0,1-2.18,24.61c-1,2.21-2.44,3.67-3.88,5.9l.07,0-.71.57a.18.18,0,0,0-.25.18,59.21,59.21,0,0,1-8.3,5c-9.09,4.05-18.51,4-28.07,2.34-4.92-.85-9.65-2.18-13.59-5.44-1.57-1.3-3-2.75-4.49-4.14a135.23,135.23,0,0,1-7.11-12.13A16.15,16.15,0,0,1,199,211.66c3.25-2.67,7.34-3,11.09-4.1C214.18,206.31,218.67,206.57,222.9,205.47Zm1.48,29.4c12.56.1,22.25-4.72,31-11.9,1.67-1.37,1.58-2.81-.17-4.26A40.7,40.7,0,0,0,238,210.06a44.58,44.58,0,0,0-12.62-.62c-6.26.34-12,1.44-17.47,4.91-4.69,3-8.08,6.95-11.36,11.17a2.64,2.64,0,0,0-.53,3.08c.61,1.1,1.64,1,2.67,1.12,1.83.17,3.6-.17,5.51.51C211,232.66,217.87,235.09,224.38,234.86Z"/><path class="g" d="M181.62,432.46c-3-6.5-5-13.12-7.47-19.53-1.16-3-2.46-6-3.55-9a26.69,26.69,0,0,0-12.46-14.67,42.17,42.17,0,0,1-9.61-7.61c-2.22-2.3-2-3.68.86-5.12a23.55,23.55,0,0,1,18.12-1.38,43,43,0,0,0,31.61-2c1.85-.86,3.14-.66,4.42,1,1.75,2.22,4.51,2.6,7,3.42,3.88,1.27,4.32,2.93,1.56,6a17.12,17.12,0,0,1-5.13,3.77,36,36,0,0,0-19.49,24.61c-1.51,6.19-3.39,12.28-5.12,18.41C182.17,430.93,181.93,431.56,181.62,432.46Z"/><path class="h" d="M125.34,119.24a3.12,3.12,0,0,1,2.13-1.67,147.21,147.21,0,0,0,25.41-10.83c.58-.31,1.24-1,1.86-.57s.3,1.22.07,1.86-.4,1.23.15,1.66,1.24.17,1.89-.17A168.36,168.36,0,0,0,172.62,100c1.39-.93,2.79-1.95,5.1-1.71l-5.53,8.17c-.35.52-1.15.85-.72,1.73s1.25.74,2,.75c3.29,0,6.34-1.14,9.49-1.84.71-.16,1.37-.71,2.3-.38-.4,2.57-2.62,3.54-4.37,4.65-2.43,1.54-4.79,3.29-7.6,4.19-.6.19-1.52.34-1.49,1.17s1,1.1,1.7,1.33c3.8,1.23,7.56.72,11.31-.3,7.66-2.09,15-5.18,22.56-7.49,5.64-1.72,11.33-3.18,17.29-2.84,3.18.18,6.28-.53,9.43-.58,1.95,0,2.58.5,1.54,2.35-.71,1.26-1.33,2.59-2,3.89-.43.87-.84,1.79,0,2.6s1.76.37,2.61-.07c4.31-2.29,8.73-4.24,13.65-4.85.79-.1,1.6-.49,2,.44s-.47,1.44-1.12,1.74a11.67,11.67,0,0,0-3.45,2.62,2,2,0,0,0-.63,2.3,2,2,0,0,0,2,1.32c7.7-.35,13.43,3.69,18.79,8.48,1.27,1.14,3,2.32,1.39,4.49-.55.75.35,1.19.73,1.7,1.4,1.83,2.78,3.68,3.19,6,.07.39.47.8,0,1.16a.93.93,0,0,1-1.17-.12,4.35,4.35,0,0,0-3-1.16,42.7,42.7,0,0,0-5.77-13c-2.12-3.21-6.14-4.26-9.83-4.94s-7.42-.78-11.13-1.13a23.68,23.68,0,0,0-10.78,0,141.48,141.48,0,0,1-24.81,2c-4.89,0-9.58,1.24-14.37,1.77a33.56,33.56,0,0,1-12-1.12,9,9,0,0,0-3.23-.63c-.76-.84-1.76-.49-2.65-.49-7.5,0-15,0-22.51,0-7.93.17-15.74-1.43-23.65-1.57A2.79,2.79,0,0,1,125.34,119.24Z"/><path class="i" d="M267.57,950a23.58,23.58,0,0,1,11.85,7.65,9.37,9.37,0,0,1,2.42,8.26l-5.91,1.63c-12.49,3.41-25.1,5.64-38.12,4.14-1.14-.13-2.28-.14-2.64,1.34l-3-.47c-.15-1.27-1.16-1.61-2.15-1.84-1.31-.3-2.66-.48-4-.68-3.33-.49-6.85-.57-8.79-4.07a14.78,14.78,0,0,1,5.42-7.82A42.57,42.57,0,0,1,240,951c2.85-.55,6.06.42,8.55-1.79l14.78,0C264.53,950.62,265.9,951.08,267.57,950Z"/><path class="i" d="M77.62,965.93a8.17,8.17,0,0,1,2.2-8.4,28.23,28.23,0,0,1,12.05-7.68c1.17,1.13,2.2.73,3.17-.29l15.92,0c1,1,2.28,1,3.56,1.06,8.29.56,15.94,3,22.55,8.12a10.34,10.34,0,0,1,4.18,8.92c0,.86-.21,1.36-1.22,1.57-11.57,2.39-23.17,3.79-35,2.63C95.62,970.9,86.44,969.34,77.62,965.93Z"/><path class="j" d="M77.62,965.93c8.82,3.41,18,5,27.38,5.89,11.87,1.16,23.47-.23,35-2.63,1-.21,1.19-.71,1.22-1.57a10.34,10.34,0,0,0-4.18-8.92c-6.62-5.16-14.27-7.56-22.55-8.12-1.29-.09-2.58,0-3.56-1.06l1.55-1.54c4.05-.24,7.87,1.33,11.86,1.56,1.41.08,2.57-.26,3-1.79.45-1.69-.74-2.22-2-2.76-6.89-3.05-14.1-3.69-21.51-3-.24-1.22.8-1.71,1.4-2.44s1.64-1.21,1.49-2.41l1.16-1.43.46-.55h0c2.78-.06,6.69-2.91,7.77-5.66,1.42-3.64,2.82-4.6,6.73-4.61.51,0,1,0,1.53,0s1.57.13,1.55-.83c0-.74-.85-.7-1.44-.72-.84,0-1.52-.27-1.69-1.21a2,2,0,0,1,1.09-2.13,7.16,7.16,0,0,1,4.06-1.3c3.24.06,6.48,0,9.72-.07a11.33,11.33,0,0,1,7.6,2.45A31.06,31.06,0,0,0,151,924c.79.36,1.8.62,2.1,1.67a4.22,4.22,0,0,0-2.72,4.91c.32,2.11-.82,3-2.77,3.07-.6,0-1.2,0-1.79.13-1.77.26-2.71,1-1.65,2.9.8,1.45,1,2.92-.28,4.23a4,4,0,0,1-4.64,1.17,1.65,1.65,0,0,0-2.49,1.34c-.43,2.94-2.29,3.93-5,4.16a4.73,4.73,0,0,0-2.12.82c-1.7,1.14-1.53,2.46.31,3.34a53.73,53.73,0,0,1,5.23,2.67c5.23,3.27,9.05,7.51,9.11,14.14-3.25,2.19-7.06,2.81-10.76,3.6a115.71,115.71,0,0,1-31.44,2.62A81.62,81.62,0,0,1,80,970.07C78.08,969.39,77.08,968.09,77.62,965.93Z"/><path class="k" d="M284,222.43a7.76,7.76,0,0,1,.88-4.95,11.1,11.1,0,0,0,1.09-4.17c.65-5.29,4.78-7.8,9.7-5.88a10.76,10.76,0,0,1,7.18,9.21c1.77,15.13.33,29.78-7.53,43.25-4.12,7.06-9.5,12.9-16.8,16.8-1,.52-2,1.25-3.1.53-1.27-.84-.39-2-.2-3,.44-2.33.59-4.74,1.93-6.81,5.82.81,10.2-2,10.2-6.83-2.82,2.38-5.09,5.91-9.49,4-.21-4.36,1.83-8.24,2.8-12.33a54.53,54.53,0,0,0,1.78-16.36,19,19,0,0,1,.66-4.52c.86-.33,1.2-1.18,1.77-1.8s.91-1.79,2.12-1.52,1.27,1.29,1.59,2.15a27.69,27.69,0,0,1,2,12c-.09,1.09-.42,2.34.5,3.32.91-.34,1-1.05,1.15-1.7,1.65-5.5.79-10.78-1.24-16-2.15-5.55-2.06-5.75,2.24-9.7.69-.63,1.32-1.33,2-2s1.61-1.3.79-2.34-1.84-.43-2.72.13a26,26,0,0,0-6.6,6.38A5,5,0,0,1,284,222.43Z"/><path class="j" d="M248.57,949.21c-2.5,2.22-5.7,1.24-8.55,1.79a42.57,42.57,0,0,0-17.34,7.14,14.78,14.78,0,0,0-5.42,7.82h-1.17l-.74.05c.07-4.82,3.2-7.71,6.62-10.37a28.19,28.19,0,0,1,6.49-3.57c.89-.37,1.71-.83,1.67-2a2.32,2.32,0,0,0-1.81-2.21,17,17,0,0,0-2-.42c-1.85-.38-3.35-1-3.64-3.27-.22-1.72-1.17-2.56-3.28-2-3.28.83-5.91-1.81-5-4.71,1.07-3.44,1-3.53-2.73-3.84-1.33-.11-2.87-.23-2.61-2,.41-2.71-.82-4.56-2.59-6.28,4.85-3,9.64-6.17,15.32-7.28,4.65-.91,9.37-1.11,13.95.65-.05,1.9.33,3.87-1.53,5.7,3-.23,5.23,1.1,7.73,1a6.5,6.5,0,0,1,3.11,2.54c-1.06,3.53-.86,4,2,4.18,3.09,2.62,6.19,5.23,9.26,7.88.89.77,1.86,1.56,1.44,3a11.44,11.44,0,0,1-1.52-.18c-7.94-2-15.52-.86-22.88,2.51-1,.46-2,.87-1.62,2.18a2.37,2.37,0,0,0,2.49,2.12,13,13,0,0,0,2.78-.3A35.78,35.78,0,0,1,248.6,948Z"/><path class="b" d="M219.17,360.55a5.21,5.21,0,0,1,4.66,3.42c2.22,4.76,2.91,9.94,4.27,14.94,1.41,5.18-.07,9.94-1.14,14.78-1.52,6.88-2.78,13.84-5.43,20.42-1.09,2.7-2.28,2.91-4.23.78-4.73-5.16-9.09-10.67-14.53-15.17-4.25-3.51-4.17-3.6.55-6.66,3.87-2.51,7.76-4.95,11.11-8.2,4.78-4.65,5.94-10.76,7.3-16.83a1.43,1.43,0,0,0-1.4-1.78c-1.08-.07-1.48.61-1.55,1.61a9.3,9.3,0,0,1-.3,2.26c-.86,2.63-2,3.17-4.63,2.27-5.92-2-6.09-2.82-1.6-7.25,1-1,2.08-2,3.21-2.95A6.34,6.34,0,0,1,219.17,360.55Z"/><path class="b" d="M141.71,367.79c-1.75-.94-2.41,0-2.42,1.56a13.24,13.24,0,0,0,1.94,7c3.64,6,8.12,11.19,14.35,14.67a28.43,28.43,0,0,1,5.29,3.59c1.19,1.07,1.33,2.14,0,3.19-6.61,5.11-11.87,11.55-17.41,17.7-.61.68-1.22,1.21-2.19,1s-.82-1.09-1.05-1.81c-3.08-9.64-4.84-19.64-7.85-29.29a8.47,8.47,0,0,1-.23-4.79c1.43-5.07,2.53-10.25,4.65-15.1,2.45-5.61,4.79-5.95,9.18-1.41C145.77,366.75,144.23,367.83,141.71,367.79Z"/><path class="l" d="M176.66,680c2.14-1.68,1.81-3.83,1.13-6s-2.44-2.22-4.34-2.26c-16.56-.32-32.47-4-48-9.43-2-.7-4-1.66-6.18-1.29a7.58,7.58,0,0,1-.55-2c0-1.63-.85-3.46.8-4.78s2.79.47,4.09,1c10.49,4,21.13,7.58,32.28,9.3,6.47,1,13,1,19.52,1.7,7.82.89,15.17-1.07,22.69-2.1,7.22-1,14.42-2.08,21.61-3.2,4.51-.7,8.58-2.73,12.73-4.49,1.25-.53,2.51-1.07,3.78-1.56,2.7-1,3.42-.52,3.64,2.48-1.52,4.26-5.39,4.58-9,5-7.78,1-15.34,3-22.92,4.86-5.54,1.36-11.19,1.94-16.78,2.93-3.8.67-6.65,3.36-10,4.9-1.93.87-.6,3.21-.35,4.91C179.42,681.33,178,681.27,176.66,680Z"/><path class="i" d="M144.34,968.52c-.06-6.63-3.88-10.87-9.11-14.14a53.73,53.73,0,0,0-5.23-2.67c-1.84-.88-2-2.2-.31-3.34a4.73,4.73,0,0,1,2.12-.82c2.67-.23,4.52-1.22,5-4.16a1.65,1.65,0,0,1,2.49-1.34,4,4,0,0,0,4.64-1.17c1.3-1.31,1.09-2.78.28-4.23-1.06-1.91-.13-2.64,1.65-2.9.59-.09,1.19-.1,1.79-.13,1.95-.1,3.09-1,2.77-3.07a4.22,4.22,0,0,1,2.72-4.91,24.41,24.41,0,0,1,7.77,2.72c-.29,2.2.06,4.42-.46,6.62a42.65,42.65,0,0,1-9.65,19.22c-1.11,1.23-2.43,2.72-1.27,4.55,1.65,2.62.61,4.5-1.37,6.23-1.05.92-2,1.89-1.77,3.47Z"/><path class="i" d="M206.47,925.34c1.77,1.71,3,3.56,2.59,6.28-.27,1.78,1.27,1.9,2.61,2,3.74.3,3.8.4,2.73,3.84-.9,2.9,1.72,5.54,5,4.71,2.1-.53,3.06.31,3.28,2,.3,2.29,1.79,2.9,3.64,3.27a17,17,0,0,1,2,.42,2.32,2.32,0,0,1,1.81,2.21c0,1.17-.78,1.63-1.67,2a28.19,28.19,0,0,0-6.49,3.57c-3.42,2.65-6.55,5.55-6.62,10.37l-.21.41a8,8,0,0,1-5.54-2.84,2.25,2.25,0,0,1-.48-3c1.83-3,.59-5.37-1.46-7.59-6.42-6.91-9.13-15.24-9.38-24.51A24.79,24.79,0,0,1,206.47,925.34Z"/><path class="b" d="M198.27,928.51c.24,9.27,3,17.6,9.38,24.51,2.06,2.22,3.3,4.63,1.46,7.59a2.25,2.25,0,0,0,.48,3,8,8,0,0,0,5.54,2.84c-.06,2.72-.43,3-3,2.2-6.5-2.05-12.79-4.69-19.09-7.28a6.85,6.85,0,0,1-4.76-6.23c-.8-7.62,0-15.18.27-22.77a3,3,0,0,1,2.63-2.79C193.54,929.13,195.91,928.86,198.27,928.51Z"/><path class="b" d="M146.35,968.45c-.24-1.58.71-2.54,1.77-3.47,2-1.74,3-3.61,1.37-6.23-1.16-1.84.15-3.32,1.27-4.55A42.65,42.65,0,0,0,160.41,935c.52-2.21.17-4.43.46-6.62,1.86.22,3.72.42,5.58.66a4.85,4.85,0,0,1,4.56,5c.08,7.43,0,14.87,0,22.31a3.39,3.39,0,0,1-1.64,3c-6.79,4.15-14.2,6.87-21.77,9.19A3.87,3.87,0,0,1,146.35,968.45Z"/><path class="g" d="M80.16,267.09a3.09,3.09,0,0,1,2.65,2.73c.31,1.5.66,3,1.11,4.46.31,1,.77,2.09-.25,2.8a2.81,2.81,0,0,1-3.34-.28,58.56,58.56,0,0,1-13.22-12c-6.29-8-9.09-17.41-10.55-27.31-1-7-1.66-13.91,0-20.85,1.07-4.43,3.07-8.13,8-9.27s8.64,1.44,8.28,6.54c-.19,2.71,1.6,4.53,2,6.89-2,.26-2.91-1.21-3.95-2.4a19.81,19.81,0,0,0-5.34-4.72c-1-.53-1.94-.87-2.74.19s.13,1.53.69,2.16c.33.38.61.81.91,1.22a1.53,1.53,0,0,0-.78.94C61.13,224,61,230.19,62,236.36c1.35,8.67,5.16,16.52,8.6,24.47C72.75,265.85,74.74,267.13,80.16,267.09Z"/><path class="k" d="M80.16,267.09c-5.42,0-7.4-1.24-9.58-6.26-3.45-8-7.25-15.8-8.6-24.47-1-6.17-.84-12.31,1.71-18.19a1.53,1.53,0,0,1,.78-.94c5.13,3.36,5.66,4.75,3.66,10.29A34.46,34.46,0,0,0,66,236.18,19.35,19.35,0,0,0,67,244c.2.61.4,1.51,1.31,1.25s.45-1.13.46-1.76a2,2,0,0,0-.07-.51c-1.09-4.66.36-9,1.88-13.24.28-.8.66-1.62,1.67-1.77s1.4.71,2,1.36c1.61,1.89,1.67,4.23,2,6.49a97.46,97.46,0,0,0,4,23.44C81.08,261.94,81.37,264.49,80.16,267.09Z"/><path class="f" d="M197.67,204.42a6.25,6.25,0,0,0,.07-1.52c-.77-3.89-.61-4.32,3-6,5.83-2.77,12.1-3.44,18.44-3.73a92.42,92.42,0,0,1,35.7,5.51c1.55.55,3.18,1,3,3.21-3.46-.72-7-.75-10.43-1.91s-7.06-.64-10.62-.39-7,.27-10.32.76c-6.92,1-13.91-.29-20.75,1.23C202.95,202.17,200.7,204.39,197.67,204.42Z"/><path class="i" d="M128.88,976.21c2.15-1.72,4.86-1.21,7.3-1.72,11-2.31,21.22-6.62,31.49-10.89,1-.42,2.29-1.62,3.16-.14,1,1.64-.57,2.49-1.72,3.17a120.68,120.68,0,0,1-36.4,14.26c-15.21,3.22-30.32,2.31-45.43-.6a3,3,0,0,1-2-.91c.21-1.47,1.37-1.23,2.17-.93,8,2.94,16.27,2.4,24.53,2.45,5.41,0,10.61-1.29,15.88-2.18C129.14,978.49,130.16,977.72,128.88,976.21Z"/><path class="i" d="M280.46,976.88c-3.5,2.78-7.86,3.08-12,3.88-27.34,5.37-53,.51-77-13.3a20.63,20.63,0,0,1-2.15-1.39c-.82-.61-1.78-1.25-1.05-2.5s1.69-.64,2.63-.21a231.43,231.43,0,0,0,22.1,8.57c3.31,1.1,6.86,1.26,10.09,2.63.47.2.9.46,1.35.7.43,1.83,1.8,2.62,3.44,3a85.55,85.55,0,0,0,12,2.22,139.61,139.61,0,0,0,25.5-.36c4.55-.43,8.65-2.5,13-3.49C279.17,976.49,279.89,975.9,280.46,976.88Z"/><path class="l" d="M256.32,246.72a.18.18,0,0,1,.25-.18l.71-.57-.07,0c1.91.28,2.76-1.16,3.61-2.39,4.06-5.87,5.64-12.54,5.68-19.55,0-4.22-.27-8.46-2.86-12.21-2-2.9-4.93-4.33-7.86-5.85a5.1,5.1,0,0,1,5.13-.53l.49,0a1,1,0,0,0,1,.48L264,207a1,1,0,0,0,1,.52h0a2.92,2.92,0,0,0,.1,1c5.46,10.86,3.78,21.69-.63,32.24-4.2,10-12.67,14.88-22.9,17.27a49.12,49.12,0,0,1-33.93-4c-1.79-.88-3.45-2-3.23-4.41h0a40.7,40.7,0,0,1,7.57,3.68,15.5,15.5,0,0,0,4.69,2c5.41,1.34,10.91,1.48,16.45,1.62,7.95.2,14.78-2.71,21.27-6.85A3.44,3.44,0,0,0,256.32,246.72Z"/><path class="h" d="M97.61,110.49c-2,2.25-4.59,3.73-6.78,5.72-2,1.79-4.56,3.2-4.57,6.4l-3.51,3.82c-2.13.49-1.55-.81-1.38-2,.47-3.23,1-6.5-1.25-9.38a2.19,2.19,0,0,1,2-2.67c2-.5,3.24-1.56,3-4.39-.18-2.15,1.51-4.51,2-6.89a16,16,0,0,1,3.56-7c1-1.14.23-3.27,2.25-3.69.26,1.7-.66,3.13-1.08,4.68-.24.9-.86,1.94-.12,2.64,1,.92,1.9-.2,2.71-.65,1.48-.83,2.81-1.9,4.26-2.79.51-.31,1.16-1.06,1.77-.31.47.59.11,1.27-.34,1.85-2.27,3-4.61,5.87-6.76,8.92A50.79,50.79,0,0,0,90,110.73c-.3.59-1,1.43-.18,2.08.63.52,1.28-.11,1.88-.38,1.92-.84,3.64-2.3,6-2Z"/><path class="l" d="M113.52,253.24c4.41.84,8.8,1.9,13.32,1.92,9.54.05,18.58-1.78,26.66-7.18,1.3,1.13,2-.17,2.74-.78.92-.73,1.57-1.87,3-1.67-2.68,5.63-7.64,8.55-13.09,10.74-4.61,1.86-9.51,2.22-14.45,2.72a44.08,44.08,0,0,1-29.09-7.2c-4.26-2.74-8-6.19-8.09-11.92,2.71.74,3,3.52,4.37,5.34,4,5.28,9.47,7.9,16.08,9.81Z"/><path class="h" d="M273.24,173.63c1.38.66,1.78,2.2,2.83,3.18,1.37,1.28,2.5,1.18,3.65-.18a11.24,11.24,0,0,0,2.1-3.71A3.84,3.84,0,0,1,286,170c.3,4.55-1,8.9-1.52,13.33-.63,5.48-2.71,10.72-2.51,16.28.07,1.87-.89,3.44-1.14,5.21-.13.93-.86,1.22-1.72,1.12a1.31,1.31,0,0,1-1.25-1.38c0-1.19,0-2.39,0-3.58-.08-2.43.15-4.77-1.22-7.15-.88-1.52-.23-3.84-.59-5.75-.75-4-1.72-7.94-2.56-11.92A20.37,20.37,0,0,1,273.24,173.63Z"/><path class="h" d="M72.47,172.08c1.06,0,1.23-1.07,1.83-1.61,1.79-1.63,3.61-1.23,4.19,1.13a42.63,42.63,0,0,0,1.72,4.77,3.32,3.32,0,0,0,3.51,2.39c-1.2,7.53-3.25,14.92-3.58,22.59,0,.84.08,1.89-1.15,1.87a1.32,1.32,0,0,1-1.38-1.51c.57-4.78-2-8.89-2.8-13.38-.5-2.77-.18-5.57-.72-8.35-.44-2.32-2.33-4.28-1.67-6.83Z"/><path class="m" d="M280.46,976.88c-.57-1-1.29-.4-2-.24-4.4,1-8.49,3.05-13,3.49a139.61,139.61,0,0,1-25.5.36,85.55,85.55,0,0,1-12-2.22c-1.65-.38-3-1.18-3.44-3,4.91-.23,9.63,1.18,14.46,1.73,13.57,1.55,26.87.6,39.86-3.81,1.15-.39,2.63-1.83,3.59-.1S282.1,976.11,280.46,976.88Z"/><path class="h" d="M246.26,742c.59,1.89,0,3.87.43,6.28,4.57-5.9,8-11.86,9-18.94.74-5.24,1.06-10.53,1.61-15.79.14-1.29,0-3,2.09-2.8s1.76,1.81,1.66,3.14a155.74,155.74,0,0,1-1.92,17.56,45.92,45.92,0,0,1-8.21,18.3c-1.12.06-1.56,1.19-2.47,1.57-4,0-4.46-.58-3.66-4.44C245.19,745.23,244.58,743.28,246.26,742Z"/><path class="j" d="M216.81,419.54a10,10,0,0,1-6.17-3.26,41.59,41.59,0,0,0-6.75-5.4c-2.92-1.9-4.06-1.9-6.9.15a48.09,48.09,0,0,0-3.74,3.06,4.73,4.73,0,0,1-3.16,1.45c-.44-5.87,2.83-10.32,5.77-14.87a2,2,0,0,1,3.09-.52c.14.1.31.15.44.26C206,406.06,212.12,412.16,216.81,419.54Z"/><path class="j" d="M171.06,415.48a4.42,4.42,0,0,1-2.32-1,4.21,4.21,0,0,0-1.3-.79c-2.82-.55-5.93-.13-7.84-3.23-.43-.69-1.86.3-2.67.93q-5,3.95-10,7.92c-1,.76-1.9,1.47-3.22,1.18a63.48,63.48,0,0,1,10.2-12.32,87.88,87.88,0,0,1,7.79-7.36c1.47-1.14,3.08-1.32,3.93.32C168,405.73,170.94,410.08,171.06,415.48Zm-7.73-9.21c-.75,0-1.33.3-1.45,1.11-.07.48,3.45,3,4.06,3s.78-.21.8-.75C166.79,408.23,164.77,406.25,163.34,406.28Z"/><path class="h" d="M101.14,747.77c-4.47-4.34-6.11-10-7-15.87a151.27,151.27,0,0,1-1.22-17.64c0-1.25,0-2.47,1.71-2.55s2,1.24,2,2.57A187.34,187.34,0,0,0,99,737.46a1.53,1.53,0,0,0-1.41,2c.21,1.31.61,2.56,2.2,3,.56-1.58-1.84-2.51-.57-4q4.24,6.85,8.49,13.69a37,37,0,0,0,2.45,3.6c.62.78,1.41,1.64,2.61,1s.69-1.6.55-2.51c-.17-1.14-.84-2.31.19-3.38a5.76,5.76,0,0,1,1.55,4.43c0,1.46-.39,2.88-1.73,3.46-1.18.51-2.26-.53-3.15-1.25-2.7-2.19-4.31-5.23-6.14-8.1a16.56,16.56,0,0,0-1.4-2.13C101.85,746.29,101.38,746.82,101.14,747.77Z"/><path class="n" d="M173.07,47.86c.16,1.26-.53,1.73-1.65,2.16-7,2.67-13.8,5.82-19.51,10.88-1.1,1-2.38,2-2.71-.71-.22-1.81-1.37-1.91-2.75-1.09q-4.83,2.87-9.65,5.75a4.44,4.44,0,0,1-2.84,1,11.26,11.26,0,0,1,4.1-5.15,62.85,62.85,0,0,1,30.46-12.31C170,48.16,171.51,47.57,173.07,47.86Z"/><path class="m" d="M128.88,976.21c1.28,1.51.25,2.28-1,2.5-5.27.88-10.47,2.2-15.88,2.18-8.26,0-16.55.5-24.53-2.45-.8-.3-2-.54-2.17.93-2.63-1.46-6-1.11-8.24-3.57a2.92,2.92,0,0,1,1.67-3.21,78.37,78.37,0,0,0,32.93,5.15C117.4,977.44,123.14,976.73,128.88,976.21Z"/><path class="h" d="M259.2,743.84a5.2,5.2,0,0,1,.52-1.67c5.32-6.93,7.12-15.18,8.88-23.46.82-3.83,1.73-7.65,2.64-11.46.29-1.22.51-2.72,2.39-2.24s1.48,1.87,1.17,3.12c-2.09,8.52-3.16,17.28-6.22,25.56a15.61,15.61,0,0,0-.48,2.24l-4,5.39A4.08,4.08,0,0,0,263,745c-.09.82-.41,1.31-1.3.81A6.3,6.3,0,0,1,259.2,743.84Z"/><path class="a" d="M159.23,245.54c-1.43-.2-2.08.94-3,1.67-.77.61-1.44,1.92-2.74.78,5.55-5.57,8.85-12.47,11.43-19.73,3-8.39.16-14.68-6.56-17.62A62.5,62.5,0,0,0,139.64,206c-6.83-.71-13.67-.11-20.48-.67.27-1.06,1.13-.85,1.87-.86,1.45,0,2.91-.1,4.36,0,6.67.5,13.25-.79,19.88-1,.89,0,1.9-.36,2.66.49.13,2,1.55,2.7,3.24,3,1.33.25,2.71.29,4,.61,7.54,1.87,12.15,6.37,12.69,13.44.52,6.8-1.85,12.9-5.85,18.35a7.21,7.21,0,0,0-1.78,5.17Z"/><path class="i" d="M248.6,948A35.78,35.78,0,0,0,237,949.28a13,13,0,0,1-2.78.3,2.37,2.37,0,0,1-2.49-2.12c-.33-1.31.62-1.72,1.62-2.18,7.35-3.37,14.93-4.53,22.88-2.51a11.44,11.44,0,0,0,1.52.18l6.36,4.4Z"/><path class="i" d="M103.88,942c7.4-.7,14.62-.06,21.51,3,1.22.54,2.42,1.08,2,2.76-.41,1.53-1.57,1.87-3,1.79-4-.23-7.8-1.8-11.86-1.56-4.54-.88-9.13-.73-13.72-.62-1,0-2.06.16-2.71-.9a21,21,0,0,0,5.61-4.18C102.44,942.29,103.22,942.6,103.88,942Z"/><path class="a" d="M222.9,205.47c-4.22,1.11-8.71.85-12.85,2.1-3.75,1.13-7.83,1.43-11.09,4.1a16.15,16.15,0,0,0-4.21,20.69,135.23,135.23,0,0,0,7.11,12.13l0,1.57h-2a1.46,1.46,0,0,1-1.56-1.55c0-3.48-2-5.74-4.61-7.68-1.1-2.14-3-4-2.58-6.69-.06-1.77-.13-3.53-.37-5.31-.81-6,.79-13.09,8.64-14.81a1.91,1.91,0,0,0,1.26-.78c.77-1.86,2.53-2.14,4-2.1a9.77,9.77,0,0,0,5.48-1.64c1.44.42,2.89,1,4.08-.51h6.15C221.19,205.1,222.17,204.64,222.9,205.47Z"/><path class="f" d="M76.26,235.8c-.35-2.26-.42-4.6-2-6.49-.55-.65-.88-1.52-2-1.36s-1.38,1-1.67,1.77c-1.52,4.28-3,8.58-1.88,13.24a2,2,0,0,1,.07.51c0,.63.45,1.5-.46,1.76S67.24,244.59,67,244a19.35,19.35,0,0,1-1.08-7.8,34.46,34.46,0,0,1,2.17-8.67c2-5.54,1.48-6.94-3.66-10.29-.3-.41-.58-.84-.91-1.22-.56-.63-1.4-1.2-.69-2.16s1.77-.72,2.74-.19a19.81,19.81,0,0,1,5.34,4.72c1,1.19,2,2.66,3.95,2.4.36,4.21,1.77,8.28,1.66,12.54A4.39,4.39,0,0,1,76.26,235.8Z"/><path class="b" d="M235.17,973c.36-1.48,1.5-1.47,2.64-1.34,13,1.51,25.64-.73,38.12-4.14l5.91-1.63c.36,1.65-.52,2.55-1.88,3.18a62.57,62.57,0,0,1-18.78,5.12c-7.41.92-14.77-.27-22.15,0A9.54,9.54,0,0,1,235.17,973Z"/><path class="h" d="M85.38,736.8c-3-9.22-4.21-18.82-6.21-28.25-.25-1.19-.35-2.5,1.29-2.87s2.19.83,2.47,2.18c1.59,7.61,3.27,15.2,4.73,22.84.49,2.54,2,4.7,2.25,7.28a1.51,1.51,0,0,1-1.07-.58c-1.45-1.77-1.42-.28-1.6.74Z"/><path class="f" d="M284,222.43a5,5,0,0,0,2.74-2.16,26,26,0,0,1,6.6-6.38c.88-.56,1.85-1.22,2.72-.13s-.11,1.69-.79,2.34-1.31,1.35-2,2c-4.29,3.94-4.39,4.14-2.24,9.7,2,5.23,2.88,10.51,1.24,16-.19.65-.24,1.36-1.15,1.7-.92-1-.59-2.23-.5-3.32a27.69,27.69,0,0,0-2-12c-.32-.86-.5-1.91-1.59-2.15s-1.51.86-2.12,1.52-.91,1.47-1.77,1.8C283.19,228.32,281.79,225.2,284,222.43Z"/><path class="n" d="M130.62,65.75c-2.14,2.11-3.4,4.85-5.15,7.24-1.11,1.53-2.39,3.24-4.3.72-.81-1.06-1.69-.32-2.48.09a87.28,87.28,0,0,1-10,5,9.39,9.39,0,0,1-4.43.9c1.64-2.63,4.26-4.09,6.79-5.62a128.81,128.81,0,0,0,16.37-11.22c.75-.63,1.44-1.63,2.62-.81a2,2,0,0,1,.59,2.72A2.72,2.72,0,0,0,130.62,65.75Z"/><path class="n" d="M212.73,52.42c-.77,1.51-2.24,1.32-3.37,1-7-2-13.6-.42-20.21,1.64a15.09,15.09,0,0,0-1.93.65,1.45,1.45,0,0,1-2-.44c-.44-.81.31-1.4.94-1.83,1-.71,2.09-1.36,3.2-2.08-1.11-1.18-2.18-.81-3.37-.55-1,.21-2.47.74-3-.5s1-1.57,1.78-2.15a4.81,4.81,0,0,0,.68-.75A51.94,51.94,0,0,1,208,50.62C209.57,51.21,211.15,51.82,212.73,52.42Z"/><path class="a" d="M113.52,253.24,115,255c-6.61-1.91-12.07-4.53-16.08-9.81-1.38-1.82-1.67-4.6-4.37-5.34h0a17.5,17.5,0,0,0-.29-2.78c-1.14-6-2.37-11.92-1.32-18.14,1.16-6.91,5.26-13,13-14a2.86,2.86,0,0,0,2-1c1.79.86,4.07-.3,5.66,1.39a41.4,41.4,0,0,0-9.94,2c-5.31,1.82-7.94,5.73-8.94,10.85a32.37,32.37,0,0,0,5.25,25.53,22.3,22.3,0,0,0,9,7.38C110.42,251.86,112,252.54,113.52,253.24Z"/><path class="l" d="M160.26,244.53a7.21,7.21,0,0,1,1.78-5.17c4-5.45,6.37-11.55,5.85-18.35-.54-7.07-5.15-11.57-12.69-13.44-1.31-.32-2.69-.36-4-.61-1.69-.32-3.11-1-3.24-3,7.1.69,13.67,2.67,18.89,7.85,2.66,2.63,3.93,5.72,2.81,9.5a2.66,2.66,0,0,0-.12,1c.8,7.43-3.78,13-6.5,19.28A7,7,0,0,1,160.26,244.53Z"/><path class="a" d="M255.77,206c2.94,1.52,5.86,2.95,7.86,5.85,2.59,3.75,2.88,8,2.86,12.21,0,7-1.61,13.68-5.68,19.55-.85,1.22-1.7,2.67-3.61,2.39,1.27-2.37,2.84-3.69,3.88-5.9a35.36,35.36,0,0,0,2.18-24.61c-1.55-6-6.66-8-12-9.36a45.42,45.42,0,0,0-6.83-.7c1.74-2.17,4-1.49,6.23-1.15.56.09,1.25.88,1.62.4C255,201.24,254.8,205.11,255.77,206Z"/><path class="l" d="M107.88,203.94a2.86,2.86,0,0,1-2,1c-7.71,1.06-11.81,7.11-13,14-1,6.22.18,12.15,1.32,18.14a17.5,17.5,0,0,1,.29,2.78,6,6,0,0,1-2.75-4.35c-1.6-7.38-2.12-14.77-.43-22.19A12.66,12.66,0,0,1,103,204C104.64,203.91,106.26,203.94,107.88,203.94Z"/><path class="l" d="M210.09,205.48a9.77,9.77,0,0,1-5.48,1.64c-1.49,0-3.25.25-4,2.1a1.91,1.91,0,0,1-1.26.78c-7.85,1.72-9.46,8.78-8.64,14.81.24,1.78.31,3.54.37,5.31-3.52-3-3.71-7-2.68-11,2.34-9.09,11-14.09,18.94-15.18C208.38,203.84,210.11,203.27,210.09,205.48Z"/><path class="e" d="M137.72,918.64c-3.24,0-6.48.12-9.72.07a7.16,7.16,0,0,0-4.06,1.3,2,2,0,0,0-1.09,2.13c.17.94.85,1.17,1.69,1.21.59,0,1.42,0,1.44.72,0,1-.91.78-1.55.83s-1,0-1.53,0c-3.91,0-5.3,1-6.73,4.61-1.08,2.75-5,5.6-7.77,5.66,0-.87.66-1.18,1.27-1.42a3.21,3.21,0,0,0,2.33-3.53,2.54,2.54,0,0,1,1.25-2.38,22.19,22.19,0,0,0,6.85-7.47,4.19,4.19,0,0,1,2.35-1.88,30,30,0,0,1,13.09-1A2.75,2.75,0,0,1,137.72,918.64Z"/><path class="j" d="M69.55,427.76c1,.28.87,1.14.85,1.88-.33,8.28.56,16.53.54,24.8,0,1.08.25,2.24-.83,3.33-.28-1.57-.52-3-.78-4.41-.3-1.64-1.09-2.68-3-2.37.61-7.4,1-14.82,2.57-22.12A4.32,4.32,0,0,1,69.55,427.76Z"/><path class="h" d="M113,746.29c-3.14-3.54-4.7-7.84-5.79-12.32a69.83,69.83,0,0,1-2-18.23c0-1.38.14-2.64,2-2.64s1.94,1.28,2,2.65c.06,2.46.49,4.93-.42,7.33-1.23.19-1.36,1.07-1.38,2.09a28.65,28.65,0,0,0,3.93,15.62C112.27,742.46,113.39,744.16,113,746.29Z"/><path class="a" d="M202.77,253.88c-2.17-.48-3.29-2.29-4.74-3.7a8.2,8.2,0,0,0-2.7-2.07c-.42,1.28.42,2.35.35,3.48-.06.82.19,1.92-1,2s-1-.92-1.2-1.65c-1-3.94-2.06-7.9-3.17-11.82A52.81,52.81,0,0,0,186,229.6c1.84-.09,2.5,1.22,3,2.63a44.5,44.5,0,0,0,13,19.38A2.17,2.17,0,0,1,202.77,253.88Z"/><path class="f" d="M110.49,733.3c1.88-.18,1.4-1.64,1.41-2.73,0-8.35,0-16.7,0-25.05,0-1-.41-2.11.85-2.7a4.44,4.44,0,0,1,.77,2.89q0,14.1,0,28.19a3.49,3.49,0,0,1-.11,1.51c-.41.78,0,2.36-1,2.29a2.38,2.38,0,0,1-1.94-2.62C110.44,734.49,110.47,733.89,110.49,733.3Z"/><path class="k" d="M179.24,214.24c1.62,0,3.23,0,4.85,0a2.06,2.06,0,0,1,2.24,1.31,2.47,2.47,0,0,1-.54,2.4c-.7.86-1.54.25-2.29-.12-2.6-1.27-5.27-1-7.95-.37a13.71,13.71,0,0,1-1.73.34c-1.17.1-1.68-.52-1.75-1.66s.43-1.83,1.56-1.87c1.87-.06,3.74,0,5.61,0Z"/><path class="o" d="M72.47,172.08l-.06,1.07c-1.15-.8-2.07-1.64-2-3.27.07-6,0-12,0-18.06,0-2.35.35-4.7.47-7,.06-1.06.32-1.85,1.53-1.95a145,145,0,0,0,0,25.68C72.53,169.69,72.46,170.89,72.47,172.08Z"/><path class="j" d="M179.78,438.09c-1.51,0-1.65,1.27-2,2.25a2.35,2.35,0,0,1-2.42,1.85,3.09,3.09,0,0,1-2.88-1.74c-1.6-3.21-.18-5.59,3.31-5.43a23.25,23.25,0,0,1,3,.51C180.09,436,179.7,437.13,179.78,438.09Z"/><path class="j" d="M141.71,367.79c2.51,0,4.06-1,4.22-3.7,1.41.76,2.93,1.39,3.89,2.78.67,1,1.06,2,0,2.94a9.37,9.37,0,0,1-5.75,2.34C141.67,372.16,141.85,369.63,141.71,367.79Z"/><path class="b" d="M216.08,966h1.17c1.94,3.49,5.46,3.57,8.79,4.07,1.34.2,2.68.37,4,.68,1,.23,2,.57,2.15,1.84-4.65.6-9.07-.74-13.52-1.67C216.05,970.34,216.18,968,216.08,966Z"/><path class="l" d="M276.63,215.74h-4.1c-.81,0-1.54-.14-1.79-1.08s.28-1.47,1-1.79c3.42-1.43,6.82-.75,10.19.19a1.1,1.1,0,0,1,.78,1.42,1.76,1.76,0,0,1-1.53,1.21c-1.53.06-3.07,0-4.61,0Z"/><path class="l" d="M96.08,946.46c.65,1.06,1.67.92,2.71.9,4.59-.11,9.18-.26,13.72.62L111,949.52l-15.92,0c0-1.15-.89-1-1.59-1.18C93.41,946.49,94.67,946.37,96.08,946.46Z"/><path class="h" d="M93.51,135.65a5,5,0,0,0-1.24.18c-.79.33-1.59,1.47-2.39.37-.58-.79,0-1.86.57-2.54,2-2.6,3.55-5.8,7.19-6.68C97.74,130.57,95.79,133.19,93.51,135.65Z"/><path class="a" d="M264,207,262.43,206a1.09,1.09,0,0,0-1-.48l-.49,0c.09-1.3-1.56-1.71-1.54-3a7.24,7.24,0,0,1,6.35,3.07,10,10,0,0,0,8,4.13,3.37,3.37,0,0,1-4.95.83c-1.34-.88-2.54-2-3.81-3h0A1,1,0,0,0,264,207Z"/><path class="l" d="M82.06,212.7c1.28,0,2.55,0,3.83,0a1.33,1.33,0,0,1,1.4,1.48,1.31,1.31,0,0,1-1.35,1.52q-4,.06-7.91,0a1.62,1.62,0,0,1-1.78-1.48c0-1,.81-1.47,1.73-1.52C79.33,212.65,80.7,212.7,82.06,212.7Z"/><path class="f" d="M277.88,264.52c4.4,1.95,6.67-1.58,9.49-4,0,4.82-4.38,7.64-10.2,6.83C277.52,266.46,276.87,265.28,277.88,264.52Z"/><path class="e" d="M241.94,925.37c-2.5.14-4.77-1.19-7.73-1,1.86-1.83,1.48-3.81,1.53-5.7C239.16,919.67,240.83,922.25,241.94,925.37Z"/><path class="k" d="M263,745a4.08,4.08,0,0,1,1.06-3.69l4-5.39c1,.08,1.56-1.17,2.63-1C269.11,739,267.16,742.84,263,745Z"/><path class="h" d="M89.39,154.13c-2.88-.09-3-.16-2-2.9.57-1.68,1.22-3.33,1.88-5a2.59,2.59,0,0,1,2.17-1.9C90.67,147.6,91.59,151.19,89.39,154.13Z"/><path class="h" d="M246.57,710.66c2.53,1.66,2.77,4.14,2.34,6.79-.29,1.75-.36,3.58-1.48,5.1a1.7,1.7,0,0,1-.89-1.92C247.15,717.3,246.14,714,246.57,710.66Z"/><path class="h" d="M79,663.49a103.8,103.8,0,0,1-5,12.92c-.6-4.39,1.34-8.08,3.24-11.78A1.7,1.7,0,0,1,79,663.49Z"/><path class="k" d="M85.38,736.8l1.87,1.34c.4,2.33,2.39,3.84,3.14,6-1.69,1.25-2.29-.91-3.5-1.13a9.32,9.32,0,0,1-2.63-4.5A1.91,1.91,0,0,0,85.38,736.8Z"/><path class="h" d="M84.78,653.32c2.33,1.69,2.45,2.42.42,4.28-1.62,1.48-3.37,2.81-5.06,4.21a4.18,4.18,0,0,1,2.19-4A4.59,4.59,0,0,0,84.78,653.32Z"/><path class="e" d="M185.36,211.31a15.85,15.85,0,0,1-12.72,0Z"/><path class="l" d="M233,203c3.27-2.54,6.67-.88,10-.33C239.69,203.82,236.32,203.27,233,203Z"/><path class="l" d="M193.64,236.82c2.58,1.94,4.61,4.2,4.61,7.68C195.66,242.57,193.64,240.3,193.64,236.82Z"/><path class="f" d="M151.52,122.3c7.5,0,15,0,22.51,0,.89,0,1.9-.35,2.65.49-7.59,0-15.18,0-22.77,0C153.09,122.81,152.17,123.11,151.52,122.3Z"/><path class="e" d="M180.68,447.28c.4,2.66-.55,4.76-2.86,6.73a12.91,12.91,0,0,1,1.56-6.73Z"/><path class="e" d="M103.88,942c-.66.6-1.45.3-2.19.28.6-3.35,1.62-4.38,5.08-5.13.15,1.2-.88,1.68-1.49,2.41S103.64,940.78,103.88,942Z"/><path class="n" d="M248.51,751.33c.91-.38,1.35-1.52,2.47-1.57l1.86.76a4.33,4.33,0,0,1-2.09,2.4c-.71.49-1.46,1.48-2.4.72S248.28,752.1,248.51,751.33Z"/><path class="h" d="M86.88,743c1.22.22,1.81,2.38,3.5,1.13.93.59,2.12,1.25,1.22,2.5s-1.93,0-2.76-.47C87.68,745.47,86.59,744.64,86.88,743Z"/><path class="e" d="M247,932.09c-2.84-.22-3-.65-2-4.18C247.67,928.64,248,929.33,247,932.09Z"/><path class="h" d="M254.24,749.78a12,12,0,0,1,4.61-5.59C258.82,747.3,257,749,254.24,749.78Z"/><path class="l" d="M220.32,205h-6.15c-.1-.32-.37-.84-.28-.92,1.51-1.27,3.32-.36,5-.6C220,203.29,220.4,203.93,220.32,205Z"/><path class="l" d="M199.81,246.05h2l2.57,3.6h0C201.44,249.59,200.32,248.71,199.81,246.05Z"/><path class="n" d="M101.67,753.13l.65-2.4a2.08,2.08,0,0,1,1.8,1.55c.24.81,1.49,1.94,0,2.51A1.69,1.69,0,0,1,101.67,753.13Z"/><path class="h" d="M88.92,161.84c-2.15-2.69-2.13-2.9.44-4.13C90.48,159.22,91,160.67,88.92,161.84Z"/><path class="j" d="M267.57,950c-1.67,1.08-3,.62-4.22-.83C265.89,946.92,266,946.93,267.57,950Z"/><path class="f" d="M73.43,678.94c1.25,1.71.25,3-.83,4.23C71.55,681.5,71.54,680,73.43,678.94Z"/><path class="i" d="M78.7,972.59A2.92,2.92,0,0,0,77,975.8c-1.66-1-1.94-2.28-.69-3.71C77.26,971.06,78.12,971.47,78.7,972.59Z"/><path class="o" d="M185.95,229.58a4.58,4.58,0,0,1-2.49-4.07C185.87,225.9,186,227.68,185.95,229.58Z"/><path class="f" d="M231.12,120.75a23.68,23.68,0,0,1,10.78,0Z"/><path class="j" d="M93.45,948.39c.7.17,1.62,0,1.59,1.18-1,1-2,1.41-3.17.29C92,948.89,92.62,948.54,93.45,948.39Z"/><path class="e" d="M108.39,935.16l-.46.55Z"/><path class="j" d="M172.09,425.12c.11,1.41,0,2.8-2.3,2.75s-4-1.3-3.82-3.4c.15-1.65.3-3.47,2.81-3.36S172.06,422.1,172.09,425.12Z"/><path class="o" d="M180.61,318.18A156.09,156.09,0,0,1,145,314.06a33.1,33.1,0,0,0-8.61-1.16c-1.5,0-2.76-.36-3.25-1.91a3.33,3.33,0,0,1,1.45-4c1.32-.91,3-2.4,4.35-1,4.08,4.27,9.61,4.16,14.68,5.14a139.57,139.57,0,0,0,59-1.59c2.36-.56,4.58-1.24,6.17-3.3,1-1.34,2.39-1,3.67-.21,1.88,1.2,3.06,2.76,2.47,5.12-.39,1.58-1.65,1.72-3,1.75-6.28.16-12.29,2-18.41,3.11A138.93,138.93,0,0,1,180.61,318.18Z"/><path class="f" d="M184.35,286.59c3.69-4.67,7.58-5.9,13.34-3.93,2.31.79,3.36-.14,4.11-2.09,1.13-2.92-.08-5.72-.44-8.56.86-.42,1.15.28,1.47.66,2.42,2.92,2.62,6.23,1.46,9.67-1.06,3.16-3.71,4-6.68,4.26A27.68,27.68,0,0,0,184.9,291a9.1,9.1,0,0,1-11.21-.2,23.49,23.49,0,0,0-11.15-4.19c-3.54-.41-6.8-1.34-8.23-5.08-1.54-4,.38-7.07,3-10.07.47.79.07,1.39,0,2s-.23,1.35-.39,2a10.46,10.46,0,0,0,0,4.83c.45,1.94,1.69,2.94,3.56,2.27,5.89-2.13,10.49.09,14.67,4,.74,1.91,1.86,3.52,4.1,3.57C181.74,290.22,183.2,288.56,184.35,286.59Z"/><path class="k" d="M180.05,331.24A35.5,35.5,0,0,1,167.4,330a10.94,10.94,0,0,1-2.35-1c-.74-.43-1.46-1.06-1-2.07.4-.84,1.2-.82,2-.67a53.66,53.66,0,0,0,11.13.92,119.85,119.85,0,0,0,13.69-1c1.11-.14,2.63-.55,3,1.08.32,1.46-1,2-2.08,2.46C188,331.39,184,331.5,180.05,331.24Z"/><path class="k" d="M184.35,286.59c-1.15,2-2.61,3.62-5.08,3.58-2.24,0-3.36-1.66-4.1-3.57Z"/><path class="l" d="M218.88,901.9c-3.65-2-7.36-1.74-11-2.38,5.22-1.62,10.24-.59,15.22.42,1.36.27,2.75,0,4,.46.86.29,2,.57,1.79,1.81a1.93,1.93,0,0,1-2,1.61,15.48,15.48,0,0,1-2.31,0c-6.89-.73-12.08,2.71-17,6.84-1.63,1.36-3.32,2.65-5,4-.52.41-1.13,1-1.8.57-.82-.58-.35-1.38,0-2.06,2.19-4,5.86-6.36,9.85-8.18C213.17,903.8,215.85,903,218.88,901.9Z"/><path class="l" d="M229.47,802.25c0,4-2.1,6.86-3.67,9.86-1,2-1.85,3.73-.67,6,.69,1.3-1.61,6.32-3,7a1.16,1.16,0,0,1-.93,0c-.38-.22-.15-.58,0-.88.42-.74.85-1.48,1.25-2.23s.71-1.4.12-1.89c-.76-.63-1.19.33-1.62.74-2,1.9-3.76,4-6.23,5.27-.57.3-1.07,1.07-1.75.29s0-1.27.52-1.7c5.37-4.88,9.13-11,13-17C227.54,806,227.64,803.85,229.47,802.25Z"/><path class="l" d="M226.76,887.22c-2.95,3.62-6.71,4.74-10.47,5.79a16.85,16.85,0,0,1-6.34.51c-.85-.09-1.81-.33-1.85-1.41-.05-1.34,1.05-1.08,1.86-1.1a33.75,33.75,0,0,1,4.11,0,14.08,14.08,0,0,0,10.75-3.19,4.11,4.11,0,0,1,.89-.5A5.67,5.67,0,0,1,226.76,887.22Z"/><path class="l" d="M151.36,899.5c-3.89.66-7.5.43-11,1.94,1.74,2.08,4.1,2.33,6.27,2.87,5.31,1.32,8.78,4.9,11.68,9.24a1.35,1.35,0,0,1,.14,1.66c-.54.66-1.1,0-1.58-.22-2.57-1.23-4.53-3.3-6.68-5.08-4.84-4-10.15-6.47-16.57-6.07a5.25,5.25,0,0,1-1.28,0c-.95-.18-1.82-.43-1.91-1.67s.77-1.48,1.58-1.62C138.3,899.43,144.5,897.68,151.36,899.5Z"/><path class="l" d="M137.14,823.74c-2.83-1.33-3.82-4-2.38-6.66a2.52,2.52,0,0,0-.37-2.87c-2-2.91-3.1-6.26-4.44-9.48-.18-.44-.67-1-.06-1.34s1.07.28,1.31.82a53.31,53.31,0,0,0,3.47,7.12c3.09,4.73,7.09,8.7,10.6,13.09.42.53,1,1,1.38,1.52.28.38.7.88.33,1.38s-1,.1-1.37-.11c-3.07-1.59-5.79-3.56-7.35-6.82-.38-.79-.86-2-2-1.45-1.34.7-.3,1.77,0,2.66l.82,2.14Z"/><path class="l" d="M147.28,893.6c-6.91-.08-12-3.16-16.68-7.18-.42-.36-.82-.71-.37-1.24s.82-.09,1.14.14a12.75,12.75,0,0,1,1.77,1.44A13.74,13.74,0,0,0,143.71,891c2-.06,3.93,0,5.89,0,.7,0,1.5,0,1.67.84.21,1-.76,1.3-1.44,1.47A15.06,15.06,0,0,1,147.28,893.6Z"/><path class="l" d="M137.15,823.73l.38.54-.19.13-.2-.66Z"/><path class="n" d="M169.78,74.31c.67-2.6,2.57-4.28,4.55-5.66a28.47,28.47,0,0,1,17.48-5.42c.83,0,1.87-.2,2.13.9.21.89-.67,1.32-1.24,1.77-.73.58-1.56,1-2.34,1.55-1.2.81-2.58,1.43-1.1,3.3.89,1.13-.24,2-1.09,2.76-1.88,1.6-3.78,3.16-5.68,4.74-.5.42-.91,1.13-1.73.6a1.87,1.87,0,0,1-.94-2.19,17,17,0,0,1,2.24-4.85c.38-.56,1.11-1.26.27-2s-1.3,0-1.86.26c-2.28,1.15-4.55,2.33-6.78,3.57C172.48,74.32,171.3,74.87,169.78,74.31Z"/><path class="n" d="M209.73,88.89c1.2-3.37,3.6-4.91,6.29-6.14,5.57-2.55,11.56-3.36,17.54-4,1.44-.16,4.09-1.93,4.44.88.25,2-2.47,1.79-4,2.24C226,84.19,218,86.49,209.73,88.89Z"/><path class="h" d="M198.35,78.74c-3.43.6-5.89,2.88-8.45,5a12.58,12.58,0,0,1-4.33,2.65C187.51,77.63,193,72.09,200.1,67c-.16,2.42-1.81,3.33-2.52,4.77-.43.88-1.67,1.63-1,2.66.74,1.21,2.2.73,3.3.52,1.35-.26,2.66-.93,3.58.71-.39.52-1,.44-1.53.5a2.17,2.17,0,0,0-2.65,2Z"/><path class="h" d="M173.47,61.69c-1.74,1.9-4.26,2.47-6.19,3.93-.73.55-1.94.83-1.64,2s1.39.74,2.22.78c.67,0,1.55-.14,1.77.65s-.67.87-1.14,1.17c-3.74,2.45-8.05,3.68-12,5.68a1,1,0,0,1-1.34-.34,1.49,1.49,0,0,1,0-1.68,20.52,20.52,0,0,1,6.9-8,33.49,33.49,0,0,1,8.86-4.5A2.34,2.34,0,0,1,173.47,61.69Z"/><path class="n" d="M137.12,96.24c-.82,2.82-2.75,4.44-4.8,6A31.29,31.29,0,0,1,121,107.33c-1.91.47-3.45.19-3.59-2.4-.05-1,.25-1.39,1.07-1.65a151.41,151.41,0,0,0,17.54-7C136.21,96.16,136.49,96.24,137.12,96.24Z"/><path class="n" d="M123.1,79.52a12.87,12.87,0,0,1-1,1.1q-7.71,6.93-15.43,13.85c-.78.7-1.84,1-2.55.33s.26-1.37.64-2c3.9-6.33,9.71-10.44,16.09-13.89A1.44,1.44,0,0,1,123.1,79.52Z"/><path class="n" d="M157.93,101.61a63.4,63.4,0,0,1,15.74-14.9C173.64,92.51,164.93,100.87,157.93,101.61Z"/><path class="h" d="M262.12,104.1c2.16,2,3.9,3.63,5.6,5.28.37.36,1.16.78.45,1.42-.44.4-1,0-1.36-.33a34.57,34.57,0,0,0-12.74-6.16c-.59-.17-1.24-.31-1.19-1.08s.73-.81,1.29-1c4.21-1.64,8.3-1,12.37.55-.31.91-1.11.54-1.64.79A13.91,13.91,0,0,1,262.12,104.1Z"/><path class="h" d="M227.23,75.51c-.48,1-1.38,1.18-2.12,1.45-4.87,1.81-9.8,3.49-13.89,6.89a1.14,1.14,0,0,1-1.8-.07c-.62-.8,0-1.51.47-2.05a17.41,17.41,0,0,1,10.6-6.16C222.7,75.14,224.93,74.55,227.23,75.51Z"/><path class="n" d="M168.09,59.19a134.46,134.46,0,0,0-15.18,6.91,1.17,1.17,0,0,1-1.6-.31,1.26,1.26,0,0,1,.07-1.64C154.24,60.33,163.83,56.28,168.09,59.19Z"/><path class="h" d="M251.46,84.13c-.6,1-1.4,1.24-1.26,1.89.57,2.58-1.07,2.45-2.77,2.4-2.57-.07-5,.88-7.5,1.25-1.06.16-2.44.89-2.94-.34s1.06-1.7,1.91-2.32C242.56,84.33,246.65,83.58,251.46,84.13Z"/><path class="n" d="M201.9,76.13c.54-.06,1.13,0,1.53-.5,1.74-.36,3.47-.78,5.22-1.06.83-.13,1.91,0,2.13.93.18.78-.88.87-1.44,1.15a113.19,113.19,0,0,0-11.47,6.71,2.88,2.88,0,0,1-2,.77c-.16-2.26,1.84-3.53,2.44-5.39l.9-.65C200.79,78.32,201.87,77.94,201.9,76.13Z"/><path class="h" d="M114,97.64c1-4.74,4.05-8.09,7.51-11.15.47-.42,1.19-.89,1.86-.41s.41,1.24.28,1.89c-.26,1.24-.62,2.45-.85,3.7-.35,1.81-.37,3.85-3.24,2.45-.93-.45-1.67.51-2.38,1.13-1,.87-1.61,2.26-3.15,2.41Z"/><path class="n" d="M148,97.77a1.52,1.52,0,0,1,.71-1.48A37.74,37.74,0,0,1,160,90.59c.89-.27,1.76-.23,2.14.77s-.29,1.51-1,1.86c-3.48,1.79-7,3.57-10.5,5.25C149.66,99,148.54,98.9,148,97.77Z"/><path class="h" d="M133.58,90c-.33-.28-.66-.44-.79-.7-.36-.71.26-1.08.66-1.49A61,61,0,0,0,139.67,81c1.23-1.73,2.47-3.45,3.75-5.14.41-.54.44-1.82,1.42-1.37s.5,1.47.2,2.28a22.52,22.52,0,0,1-8.36,11.28C135.7,88.72,134.66,89.3,133.58,90Z"/><path class="n" d="M82.75,126.43l3.51-3.82c1.48.11,2,1.08,1.49,2.26-1.7,3.74-3.56,7.41-5.48,11.34-1.51-1.73-1.23-3.47-.85-5.18S82.66,128.07,82.75,126.43Z"/><path class="h" d="M220.59,98.49c-5.61,2.4-10.58,4.53-15.78,6.26C205.39,100.19,212.25,97.35,220.59,98.49Z"/><path class="h" d="M130,106.23c2-2.14,4.47-3.18,6.45-4.86,1.68-1.43,3.52-2.66,5.29-4,.38-.28.75-.9,1.27-.43s.1.93-.18,1.36c-2.16,3.36-5.37,5.41-8.92,6.94A7.47,7.47,0,0,1,130,106.23Z"/><path class="h" d="M229.64,65.63c-5-.66-10-.2-15-.37C218.35,62,224.9,62,229.64,65.63Z"/><path class="h" d="M253.87,94.46c1-3.92,2.82-5.16,6.69-4.79Z"/><path class="h" d="M97.6,110.48l.54-.38.13.19-.66.2Z"/><path class="h" d="M114,97.66l-.22.21.2-.22Z"/><path class="a" d="M99.26,738.44c-1.27,1.5,1.13,2.43.57,4-1.59-.43-2-1.68-2.2-3a1.53,1.53,0,0,1,1.41-2Z"/><path class="o" d="M132.76,234.84c-8.47-.07-17.16-3.21-25-8.84-1.39-1-2.74-2-4.17-3-1.77-1.17-1.68-2.32-.2-3.68a38.72,38.72,0,0,1,17.45-9.22,47.62,47.62,0,0,1,14.42-1c11.75.79,21.1,6.2,27.4,16.35,1.94,3.12,1.32,4.09-2.38,4.25-4.75.21-9.18,1.81-13.66,3.21A45.34,45.34,0,0,1,132.76,234.84Zm-8.46-5.26c4.15,3.54,14.12,3.54,19,0,4.82-.1,9.17-2.34,13.86-3.09,1.36-.22,1.21-1.25.49-2.11-3.16-3.75-6.59-7.14-11.71-8-3.4-1.81-6.69-4-10.87-2.62a12.93,12.93,0,0,0-7.63,0c-2,.1-4.31-.78-5.72,1.55-4.73.21-8.74,2.39-12.72,4.64-1,.57-1.27,1.43-.26,2.23C113.38,225.8,118.11,229.23,124.3,229.58Z"/><path class="o" d="M224.38,234.86c-6.51.23-13.39-2.2-20.22-4.63-1.91-.68-3.68-.34-5.51-.51-1-.09-2.06,0-2.67-1.12a2.64,2.64,0,0,1,.53-3.08c3.28-4.23,6.68-8.2,11.36-11.17,5.46-3.47,11.21-4.57,17.47-4.91a44.58,44.58,0,0,1,12.62.62,40.7,40.7,0,0,1,17.22,8.63c1.75,1.46,1.84,2.9.17,4.26C246.63,230.14,236.94,235,224.38,234.86Zm-4.45-16.63c1,.14,2,.34,3,.42,2.29.18,3.31-1.38,3.46-3.22s-1.59-2.06-3-2.23a6.64,6.64,0,0,0-4.7,1.48c-1.89.4-4.31-1-5.55,1.63-5.06.83-8.4,4.16-11.46,7.88-1.24,1.51-.37,2.36,1.11,2.69,4.29.95,8.61,1.8,12.91,2.68,4.4,3.68,9.54,2.73,14.57,2.26a6,6,0,0,0,4.43-2.16c5.57-.27,9.91-3.36,14.28-6.32,2.68-1.81,2.59-2.53-.29-4.19a26.37,26.37,0,0,0-10.76-3.77c-2.59-2.29-5.73-2.34-8.92-2.18a1.32,1.32,0,0,0-1.26.72c-.26.66.4.81.8,1.1,2.66,1.93,3.45,4.82,2.22,8.09-1,2.69-3.32,3.93-6.63,3.45a6.43,6.43,0,0,1-5.06-4.23C218.47,220.89,218.26,219.31,219.92,218.23Z"/><path class="a" d="M204.41,249.65l-2.57-3.6,0-1.57c1.49,1.38,2.93,2.84,4.49,4.14,3.94,3.26,8.67,4.59,13.59,5.44,9.56,1.64,19,1.72,28.07-2.34a59.21,59.21,0,0,0,8.3-5,3.43,3.43,0,0,1-1.93,3.34c-6.49,4.13-13.32,7-21.27,6.85-5.54-.14-11-.28-16.45-1.62a15.5,15.5,0,0,1-4.69-2A40.7,40.7,0,0,0,204.41,249.65Z"/><path class="o" d="M257.28,246l-.71.57Z"/><path class="a" d="M264,207a1,1,0,0,1,1,.52A1,1,0,0,1,264,207Z"/><path class="a" d="M261.39,205.49a1.09,1.09,0,0,1,1,.48A1,1,0,0,1,261.39,205.49Z"/><path class="e" d="M163.34,406.28c1.43,0,3.46,2,3.4,3.32,0,.54-.33.71-.8.75s-4.13-2.48-4.06-3C162,406.58,162.59,406.3,163.34,406.28Z"/><path class="f" d="M201.9,76.13c0,1.81-1.11,2.19-2.65,2A2.17,2.17,0,0,1,201.9,76.13Z"/><path class="j" d="M121.73,215.3c1.41-2.34,3.7-1.45,5.72-1.55-.47,1.64.89,2.87,1,4.39-.33,2.06-1.23,4.1.45,6.08a6.23,6.23,0,0,0,7.14,2,5.65,5.65,0,0,0,4.2-5.48c0-3.24-1-4.66-4.67-6l-.47-1c4.17-1.41,7.47.81,10.87,2.62a15.37,15.37,0,0,1-.41,8.2c-.59,1.77-2,3.15-2.22,5-4.89,3.55-14.86,3.55-19,0C122.07,225.07,120.8,220.38,121.73,215.3Z"/><path class="m" d="M121.73,215.3c-.93,5.08.33,9.76,2.57,14.27-6.19-.35-10.92-3.78-15.55-7.41-1-.8-.75-1.66.26-2.23C113,217.7,117,215.52,121.73,215.3Z"/><path class="m" d="M143.32,229.57c.26-1.89,1.64-3.27,2.22-5a15.37,15.37,0,0,0,.41-8.2c5.12.91,8.55,4.29,11.71,8,.73.86.87,1.9-.49,2.11C152.49,227.23,148.14,229.47,143.32,229.57Z"/><path class="m" d="M128.43,218.14c-.09-1.52-1.45-2.75-1-4.39a12.93,12.93,0,0,1,7.63,0l.47,1c-.84,2.25-2,4.08-4.85,3.58A17.92,17.92,0,0,0,128.43,218.14Z"/><path class="j" d="M234.7,229.66a6,6,0,0,1-4.43,2.16c-5,.47-10.17,1.42-14.57-2.26-1.91-4.21-4-8.39-2.57-13.26,1.24-2.62,3.66-1.23,5.55-1.63-.12,1.37,1,2.31,1.23,3.55-1.66,1.08-1.45,2.66-.84,4.09a6.43,6.43,0,0,0,5.06,4.23c3.31.48,5.61-.75,6.63-3.45,1.24-3.27.45-6.15-2.22-8.09-.39-.29-1.06-.44-.8-1.1a1.32,1.32,0,0,1,1.26-.72c3.19-.16,6.33-.11,8.92,2.18C237.58,220.3,237.23,225.23,234.7,229.66Z"/><path class="m" d="M234.7,229.66c2.52-4.43,2.87-9.36,3.23-14.28a26.37,26.37,0,0,1,10.76,3.77c2.88,1.66,3,2.38.29,4.19C244.61,226.31,240.28,229.39,234.7,229.66Z"/><path class="m" d="M213.14,216.31c-1.47,4.87.65,9,2.57,13.26-4.31-.89-8.62-1.74-12.91-2.68-1.48-.33-2.36-1.17-1.11-2.69C204.74,220.47,208.08,217.14,213.14,216.31Z"/><path class="m" d="M219.92,218.23c-.25-1.24-1.35-2.18-1.23-3.55a6.64,6.64,0,0,1,4.7-1.48c1.41.17,3.16.38,3,2.23s-1.17,3.4-3.46,3.22C221.92,218.57,220.92,218.38,219.92,218.23Z"/><path class="a" d="M128.43,218.14a17.92,17.92,0,0,1,2.27.12c2.89.5,4-1.33,4.85-3.58,3.62,1.37,4.71,2.78,4.67,6a5.65,5.65,0,0,1-4.2,5.48,6.23,6.23,0,0,1-7.14-2C127.2,222.24,128.1,220.19,128.43,218.14Z"/><path class="f" d="M161.31,204.42a6.27,6.27,0,0,1-.07-1.52c.77-3.89.61-4.32-3-6-5.81-2.77-12.06-3.44-18.38-3.73a91.84,91.84,0,0,0-35.58,5.51c-1.54.55-3.93.71-3.77,2.88,3.45-.72,7.76-.42,11.15-1.59s7-.64,10.58-.39,7,.27,10.28.76c6.9,1,13.87-.29,20.68,1.23C156.05,202.17,158.29,204.39,161.31,204.42Z"/></svg>