<svg id="Ebene_1" data-name="Ebene 1" xmlns="http://www.w3.org/2000/svg" viewBox="0 0 1000 1000"><title>Zeichenfläche 1</title><path d="M220.59,611c-16.92-24.66-33.05-47.86-48.82-71.29-8.35-12.4-13.6-25.52-10.39-41.31,3-14.64,4.23-29.63,6.25-44.46.83-6.07,3.7-8.59,10.42-9.42,28.1-3.44,55.85-3.42,82.89,5.93a31.47,31.47,0,0,1,12.64,8.79c11.58,13.17,22.58,26.86,34,40.64l64.93-59.39c-2.93-2.48-5.51-4.77-8.2-6.93-31.12-25.06-62.36-50-93.23-75.36-3-2.45-5.63-8-5.1-11.6,4.11-27.93,8.9-55.77,13.81-83.58,1.39-7.85,4.36-15.42,5.69-23.27,1.38-8.16,6-11.83,13.67-11.25,22.52,1.69,45,3.71,67.52,5.68,4,.35,7.86,1.2,11.8,1.59,17.65,1.73,33.47,5.72,47.29,19.17,24.28,23.62,50.6,45.15,76.83,68.23l54.23-48.76c11.86-10.66,23.26-21.92,35.83-31.66,4.87-3.77,12.29-4.93,18.75-5.85,25.34-3.61,50.68-7.53,76.16-9.66,29.92-2.5,30.82-1.86,36.85,27.55,6.2,30.26,10.94,60.83,15.61,91.37.54,3.52-2.51,8.94-5.57,11.45-31.14,25.57-62.64,50.71-94,76-2.54,2-5,4.21-8,6.76l65.91,60.3c11.47-13.82,22.51-27.44,34-40.7,2.9-3.36,6.73-6.69,10.8-8.15,28.64-10.24,58.17-9.78,87.77-5.81,2.61.35,6.37,4.26,6.79,7,3.07,19.7,7.2,39.51,7.25,59.29,0,10-6.45,20.83-12.23,29.85-14.86,23.21-31,45.62-47.32,69.41,6.91,5.89,14,11.78,20.92,17.84,27.09,23.65,54.31,47.16,81.09,71.16,6.11,5.48,11.14,12.39,15.79,19.24,11.7,17.21,7.38,36.34-6.2,52.27-14.13,16.57-32.3,16.57-50.82,20.22-25,4.93-40.27-9.72-56.22-23.47-24.41-21.05-48.1-42.94-72.79-65.1-3.42,4.65-8,11-12.7,17.21C692.13,737,680,753.4,660,761.12c-1.51.58-3,1.85-4.49,1.81-21.25-.56-42.54-.75-63.71-2.43-4.11-.33-10.16-6-11.19-10.25-5-20.3-8.95-40.88-12.26-61.52-.8-4.95,1.08-11.26,3.8-15.67,9-14.68,19-28.78,28.58-43.12,1.44-2.16,2.66-4.48,4.34-7.34L502.63,542,400.4,622.48c4.15,5.76,8,10.71,11.42,15.93,8.22,12.46,16.41,24.95,24.23,37.66a14.66,14.66,0,0,1,2.09,9.38c-4,21.89-7.95,43.8-13.05,65.44-.92,3.9-6.83,9.12-10.76,9.41-21.17,1.57-42.63,3.74-63.63,1.8-14.93-1.38-26.39-13.07-35.9-24.93-9.15-11.41-18-23.06-26.28-33.69C265.75,724,243,744.72,220.07,765.15c-8.44,7.5-17.25,14.63-26.32,21.35-3.59,2.66-8.38,5.38-12.56,5.28-16.21-.39-33,.44-48.44-3.59-18.61-4.86-40.9-27.44-36.68-51,2.21-12.33,11-25.25,20.37-34.21,27.15-26,56.08-50.14,84.35-75C207.25,622.33,213.84,616.79,220.59,611ZM710.17,340.08c-1.49.7-3.2,1.11-4.42,2.13Q660.87,379.55,616.13,417c-1,.82-1.49,2.2-2.22,3.32l1.25,1.14,8.72-5.88,6.09,10c5.32-3.42,10.38-6,14.62-9.52,16.56-13.81,32.7-28.12,49.31-41.88,11-9.07,17.43-19.83,16-34.47l17.57,7L715.39,264.2l-5.22.37ZM385.58,592.31,474,520.75l-51.47-39.3-22.67,15.41-1.18-1.59,17.66-20.33-36.74-29c-26.34,23.33-52.46,46.4-78.46,69.63-1.48,1.32-3.08,4.12-2.66,5.71,4.23,15.81,8.88,31.51,13.47,47.44,15-15.21,30.69-29.45,51.49-41.09-6.69,12.26-12.5,21.89-17.32,32-11,23-3.77,42.11,18.18,49.38Zm237,2c4.2,3.69,7.91,8.37,12.76,10.78,4,2,9.41,1.39,14.2,1.93,4.69-4.93,12.42-9.3,13.46-14.91,2.28-12.28,1.81-25.18-5.41-36.74-5-7.92-9.09-16.36-13.59-24.57l2.32-2.23L695,568.52c2.95-12.3,4.77-25.61,9.5-37.78,3.54-9.11,2.7-14.72-5.14-19.86a53.53,53.53,0,0,1-6-5.27l-258.9-232.3c-7.06-6.34-14.11-12.69-23-20.67v45.21c-10.13-15.58-10.21-32.3-6.76-49.23l-92-9.78c92.65,73.1,279.08,235.21,293.41,258.27a67.68,67.68,0,0,1-12.84-8.3c-46.29-39.62-92.28-79.58-138.77-119C407.43,330,360,290.75,312.62,251.3c-3.89-3.25-8.23-6-10.94-7.91l5.53,82.46c24.24-5.66,48.32-6.37,71.6,4.89-23.57-1.12-47-2-71.81,5.3,4.18,3.67,6.55,5.88,9.06,7.94,34.73,28.59,69.39,57.27,104.24,85.7Q521.36,512.12,622.6,594.34ZM274.94,590c-17.38-17.48-32.22-34.09-43.9-53.86-12.12-20.52-8.66-43.94-14.48-65.2H195.3l17.38,22.93-3,2.73-21.52-19.23c-1.11,8-2.34,15.49-3.13,23-.58,5.61,1,9.38,7.91,9.94,4.52.37,8.87,2.89,13.3,4.45l-.43,2.84-16.31,1.52,138.32,190c3-4.88,6.67-10,9.29-15.69,1.19-2.55,1.38-6.73.07-9.08C328.59,669,319.53,654,310.61,638.88c-4.06-6.88-8.17-13.72-12.26-20.59l3.48-3.77,16.74,8.87-1.11,2.48-6,.7,70.78,89.29,6.61-23.31-16-10.69,1.36-2.77,11.42,1.18c-11.13-19.44-53.27-63.63-74.26-78.55-7.37-5.24-15.8-10.26-20.6-17.48-4.53-6.81-4.85-16.39-7.14-24.72-2.54-9.25-3-20.09-8.25-27.38-14.68-20.25-31.4-39-47.44-58.53-6.4,41.53,17.29,69.57,39,98.72l5.51-11.85,2.36.69Zm403.3,119.4L816.63,519.74l-16.92-1.53c4.86-10.13,19.58-2.51,20.79-13.73.92-8.56-1.37-17.47-2.27-26.5l-22.3,19.43-2.79-2.79,18-23.47c-4.78,0-7.81.46-10.65-.08-9.45-1.81-12.76,2.45-13.51,11.44-1,12.52-1.4,25.52-5.19,37.31-9,28-28.07,49.32-50.66,69.94v-28.1l2.37-.67,5.58,11.93c5.83-8,11.52-15.36,16.75-23,20.38-29.91,24.3-42.93,22.61-74.24-6.49,7-12.82,13.75-19.14,20.54-19.44,20.91-36.37,42.87-39.16,73-1,11.31-6.51,20.33-17.75,27.67-30.29,19.76-54.54,46.46-76.54,75.1-2.06,2.68-4.15,5.35-6.83,8.8l13-1.32,1.31,3L617,692.88,623.9,716l70.34-88.8-7.84-1.42c4.31-3.36,7-6.24,10.37-7.84,2.35-1.12,5.52-.51,8.33-.68-.21,2.75.46,6-.79,8.16-3.5,6-8.18,11.34-11.71,17.34-8.39,14.23-16.56,28.6-24.36,43.16-1.09,2-.31,5.82.86,8.17C671.73,699.42,675.15,704.34,678.24,709.41Zm26-466.8c-53.57,36.6-102,81.45-151.53,125.76L604,413.7l95.38-78.51c-25.39-7.41-49.14-7.44-73.25-4.89,23.7-12.29,48.4-11.14,72.72-5.59Zm-11.83-5-91.26,9.94c3.89,17.26,3.54,33.81-6.86,49.1V251.67l-84.74,77.63,35.91,32.4Zm-393,105c-4.4,9.57-3.09,17.37,5.74,25.49,16.55,15.22,33.65,29.84,50.68,44.54,4.25,3.67,9.11,6.63,13.63,10,6.48,4.85,10.27,3.3,11.69-4.64A48.25,48.25,0,0,1,383,412Zm-20.6,4.35c16.92-4.79,16.92-4.79,16.77-20.86,0-2,.07-4,0-6q-1-27.46-2-54.93l-2.91-.22Zm214.43,172,3.53-.49,5.63-8.14-37.47-31.2c3.61,6.67,8.8,12.23,11.65,18.81,3.1,7.15,5,13.49,13.18,7.12Z"/><path d="M622.6,594.34c-3.1-5.73-6.63-11.27-9.2-17.22-4-9.33-8.07-18.77-10.84-28.52-1.47-5.16-.26-11.08-.26-16.65L605,531c6,7,12.43,13.79,18,21.19a234.27,234.27,0,0,1,15.47,23.58c4.82,8.37,9,17.14,13,25.91.56,1.22-1.19,3.51-1.91,5.34-4.83-.51-10.19.11-14.24-1.9C630.51,602.71,626.8,598,622.6,594.34Z"/><path d="M364.33,609c-5.84-2.77-9-5.17-6.17-13.52A94.71,94.71,0,0,1,380,559.16c6.56-6.86,11-15.76,16.48-23.65,1.42-2,3.41-3.65,7.58-4.95,0,5.51,1.16,11.34-.24,16.47-3,11-7.1,21.83-11.22,32.53-1.73,4.48-4.66,8.5-7.06,12.73Z"/></svg>