<svg xmlns="http://www.w3.org/2000/svg" width="1000" height="1000" viewBox="0 0 1000 1000"><defs><style>.a{fill:#171412;}.b{fill:#999;}.c{fill:#e7e7e7;}.d{fill:#e8e8e8;}.e{fill:#333;}.f{fill:#4d4d4d;}.g{fill:#e6e6e6;}.h{fill:#030303;}.i{fill:#ccc;}.j{fill:#666;}.k{fill:#b3b3b3;}.l{fill:#1a1a1a;}.m{fill:#f2f2f2;}.n{fill:gray;}</style></defs><title>Zeichenfläche 1</title><path class="a" d="M425.67,613.75c-9.79,8.77-19.6,17.53-29.74,25.9-5,4.09-10.45,7.53-15.15,12a48.65,48.65,0,0,0-8.41,10.14,7.09,7.09,0,0,1-2.69,2.82,30.08,30.08,0,0,0-6.89,5.52c-10.14,10.16-20.21,20.39-30.53,30.36a66.7,66.7,0,0,0-12.18,15.62,22.43,22.43,0,0,1-4.36,5.58,16.51,16.51,0,0,0-4.43,6.89,7.84,7.84,0,0,1-4.59,5.08,17.74,17.74,0,0,0-5.76,4.39c-5.64,5.72-11.34,11.37-16.92,17.15a7.12,7.12,0,0,1-7.69,2.06c-15.13-4.25-29-10.8-40.5-21.8A78.43,78.43,0,0,1,219.12,712a15.92,15.92,0,0,1-1.1-3.36,5.79,5.79,0,0,1,2.69-6.82,52.26,52.26,0,0,0,6.48-4.81,10,10,0,0,1,7.08-2.53,40.8,40.8,0,0,1,14.14,2.26c5.6,2,11.45,2.18,17.32,2,3.22-.12,6.44-.28,9.66-.32a3.77,3.77,0,0,0,3.53-2.08,13.12,13.12,0,0,1,8.73-6.52,7.76,7.76,0,0,0,5.82-5.32,11,11,0,0,1,5.39-6.28c4.94-2.65,8-7.1,11.2-11.46,5.59-7.64,11.1-15.37,18.17-21.76,3.31-3,6.93-5.66,10.24-8.65,5.9-5.31,10.56-11.72,15.47-17.89a41,41,0,0,1,3.69-4.1,2.43,2.43,0,0,0,.69-2.81,20,20,0,0,0-2.53-5.94A10.55,10.55,0,0,1,354,599a12.1,12.1,0,0,0-1.66-6.6,6.72,6.72,0,0,1-.88-4.37c3.08-24.12,15.37-41.45,37.88-51.2a19.37,19.37,0,0,1,4.12-1.31,10.58,10.58,0,0,0,7-5c8.56-12.85,17-25.8,25.73-38.52a164.1,164.1,0,0,1,29.68-32.54c4.57-3.84,8.75-8.15,13.08-12.28a53,53,0,0,0,4.13-4,7.93,7.93,0,0,0,1.6-7.74c-.88-3.13-.45-4.58,2.29-6.38,13.35-8.77,25.83-18.75,38.66-28.24,3.86-2.85,7.25-6.31,11.28-8.94,9.12-5.94,19.14-5.33,27.58,1.47,5.13,4.14,10.87,7.36,16.52,10.71,1.41.83,2.77,1.77,4.12,2.69,1.18.8,2.38,1.17,3.65.27a32.22,32.22,0,0,1,10-4.42c2.49-.71,2.7-1.19,2.29-3.86a125.72,125.72,0,0,1-.23-36.95c1.14-7.9,5-14.76,10-20.88,1.95-2.37,2.55-4.63,1-7.56-2.31-4.41-2.84-9.25-2.51-14.19a49.82,49.82,0,0,1,14.66-32.31c2.34-2.4,4.53-5,7.43-6.76,4.9-3,10-3.73,15.36-1.09a8.4,8.4,0,0,1,2.54,2.16c1,1.11,1.74,1.06,2.63-.22,3-4.26,5.7-8.68,8.93-12.75,7.86-9.88,16.18-19.32,27.66-25.13A109.33,109.33,0,0,0,694.8,233c1.38-1,2.63-1.42,3.94.07.79.91,1.67.65,2.67.22,6.54-2.82,13.24-5.07,20.39-5.72,2.14-.2,4.08,0,5.5,1.85a2.89,2.89,0,0,0,1.88,1c8.05,1.56,16,4.07,24.3,3.74a2.67,2.67,0,0,1,3.07,2.43c.14,1.41.93,1.87,2.07,2.25a91.73,91.73,0,0,1,22.16,10.52A61.51,61.51,0,0,1,806,283.91a377.4,377.4,0,0,1,10.09,43.16,29.31,29.31,0,0,1,.39,6.68c-.11,1.89-.75,2.23-2.38,1.38-.23-.12-.45-.29-.68-.41-2.13-1.09-2.78-.82-3.21,1.52-.81,4.46-1.66,8.91-2.91,13.28-2.26,7.88-7,14.32-11.71,20.82s-10.83,11-16.71,16.08a143.59,143.59,0,0,1-18.31,13.64c-1.47.92-1.48,1.76-.44,3a35,35,0,0,1,2.12,3.08c3.37,5.09,3.36,10.23-.38,15-9.85,12.58-22.52,20.35-38.67,21.76A27.09,27.09,0,0,1,708.27,440a5,5,0,0,0-6.14.66,67.45,67.45,0,0,1-7.79,5.34,42.2,42.2,0,0,1-18.59,6,129.11,129.11,0,0,1-31.67-.77c-2.72-.45-2.87-.29-3.13,2.51a17.38,17.38,0,0,1-3.77,9.15c-2.38,3.06-2.36,3.12-.32,6.38,4.37,6.94,8.71,13.9,13.35,20.68,6.2,9.05,5.83,19.59-.94,28.21-5.53,7-10.51,14.44-15.73,21.69-4.23,5.85-9.21,11.15-13,17.31-1.76,2.84-3.69,5.59-5.47,8.42s-4.2,3.86-7.24,3.1c-3.72-.94-6.1.4-8.47,3.29a309.51,309.51,0,0,1-28.56,29.72c-6.07,5.67-13.41,9.68-20.36,14.15-13.38,8.6-27.17,16.48-40.81,24.64a10,10,0,0,0-5.06,7.13c-.82,4.69-3.78,8.33-6.26,12.17-11,17.06-27,25.6-47,27a9.67,9.67,0,0,1-5.15-1.05,12.6,12.6,0,0,0-5.69-1.38c-2.53,0-5-.48-6.93-2.33-1.29-1.23-2.16-.15-3,.62-4.14,3.77-8.48,7.26-13,10.62a95.07,95.07,0,0,0-12.28,11.11c-4.77,5.07-9.46,10.23-14.54,15-6.09,5.73-12.81,10.7-19.43,15.78a25.42,25.42,0,0,0-7.93,9.41,6.3,6.3,0,0,1-4.11,3.42,10.21,10.21,0,0,0-7.43,8.35,9.32,9.32,0,0,1-5.06,6.48,5.09,5.09,0,0,0-2.95,5.08c0,2.76-.11,5.52-.28,8.28a51.78,51.78,0,0,0,2.19,18.51,40.89,40.89,0,0,1,2,13,11.31,11.31,0,0,1-3.85,8.74c-1.44,1.23-2.17,3-3.18,4.48-2.35,3.54-4.83,4.4-8.77,2.86-7.63-3-14.17-7.66-20.36-12.92-11.78-10-19-22.95-24.12-37.26-.9-2.53-1.72-5.1-2.49-7.67-1.28-4.25,0-7.63,3.67-10.08,4.26-2.82,7.47-6.81,11.19-10.23,3.58-3.27,7.25-6.48,9.39-11a6.21,6.21,0,0,1,3.69-3.14,22,22,0,0,0,7.89-5c4-3.56,8.69-6.13,12.93-9.33,5.08-3.83,9-8.88,13.3-13.45,8-8.46,16.32-16.6,24.87-24.51a33.37,33.37,0,0,0,6-6.72,9.22,9.22,0,0,1,3.23-3.13c6.85-3.93,11.73-9.84,16.3-16.06A243.92,243.92,0,0,1,418.78,628c4.41-4.54,8.05-9.71,12.15-14.51,1.5-1.74,3.1-3.41,4.64-5.11.54-.58,1.23-1.17.58-2s-1.4-.59-2.19-.37c-1.55.45-2.44,1.73-3.44,2.84A60.72,60.72,0,0,1,425.67,613.75Zm-70.74-27.33c-1.05.74-.91,1.78-.65,2.79.19.72,0,2,1.25,1.76s.88-1.2.69-2c.76-1.58.5-3.48,1.55-5,.65-.46,1.45-1.28,1.28.47a1.15,1.15,0,0,0,.26.9c-1.12,3.15-1.21,6.5-1.86,9.75a10.07,10.07,0,0,0,0,4.88,1.29,1.29,0,0,0,.42,2.22c1.13.51,1.06-.78,1.37-1.35a1.61,1.61,0,0,0-.13-1.82l1-2.25c.65-.39,1.19-.42,1.13.54a12.72,12.72,0,0,1-.4,1.91c-.56,2.56-1.34,5.09-1.06,7.75.09.88.1,2,1,2.39s2-.17,2.81-.94a4.4,4.4,0,0,0,1.57-3.25l2.16-2.78c1.39-.93,1.7-2.46,2.08-3.9a22.13,22.13,0,0,1,6.35-10.64c.57-.53,1.12-1,1.89-.38-1.86,1.94-2.68,4.61-4.6,6.51-.34.31-.68.62-1,.94a1.82,1.82,0,0,0-.37,2.48c.52.59,1.17-.48,1.81-.68.34-.11.6-.49.88-.76q7.68-7.66,15.35-15.33a3.38,3.38,0,0,0,1.15-2c5-4.5,9.59-9.39,14.33-14.14.91-.92,1.34-2.54,2.37-3,3.1-1.53,3.59-4.09,3.54-7.06a8,8,0,0,1,2.16-6.15C420.56,541,427,533,433.85,525.43Q446,512,458.34,498.7c6.65-7.18,12.27-15,15.72-24.25,1-2.71,2.26-3,4.24-.93.71.73,1.35,1.28,2.35.55,3.25-2.33,6.5-4.64,9.74-7,1.29-.94,1.35-2,.16-3.09a47,47,0,0,1-4.87-5.67A79,79,0,0,1,479.21,448c-1.2-2.16-2-2.28-3.74-.65-3.34,3.17-6.67,6.34-10,9.48-2.54,2.39-4.82,5-7.54,7.23A123.18,123.18,0,0,0,441,480.39c-7.67,9.13-14.14,19.18-21,28.95-5,7.19-9.88,14.5-14.78,21.78-1.13,1.67-2.42,3.28-2.73,5.38a3.52,3.52,0,0,1-3.76,1.09,3.23,3.23,0,0,0-3.38,1l-1.51.32a1.3,1.3,0,0,0-1.58-.34c-3.05,1-6.11,1.93-8.17,4.64l-1.7,1c-1.62-.43-2.42.37-2.75,1.85-1.07.76-1.94,1.74-3,2.53-2.89,2.13-6,4.09-8.2,7A66.44,66.44,0,0,0,356,582.54,7.25,7.25,0,0,0,354.93,586.42ZM246.79,701.71a1.26,1.26,0,0,0-1.66-.06,21.76,21.76,0,0,0-10.73-2.38,6.29,6.29,0,0,0-5.76,3.37,2.45,2.45,0,0,0-.95,3.56,63,63,0,0,0,9.49,14.57,88.88,88.88,0,0,0,18.53,15.68c2.44,1.58,4.84,3.32,7.81,3.89l1.13,1.06c.22.24.39.58.66.72A72.69,72.69,0,0,0,282.15,749a2.63,2.63,0,0,0,2.54-.74c4-4.06,8.11-8.07,12.11-12.15a3.74,3.74,0,0,0,.23-5.19c-.88-1.14-1.79-2.26-2.68-3.39a18.84,18.84,0,0,0-2.75-5.71c.41-.73,0-1.42-.23-2a24.08,24.08,0,0,1-1.52-4.65,8.75,8.75,0,0,0-2.8-5.47,2.12,2.12,0,0,0-.55-1.83,23.1,23.1,0,0,0-7.68-6.56,3.29,3.29,0,0,0-2.3-.25,17,17,0,0,1-7.79.33,2,2,0,0,0-2,.62,2.48,2.48,0,0,1-3.19.65c-.46-.2-1-.41-1.46.08h0l-.55.05-1.41.14c-2.29-1.47-3.41-1.47-5.56,0a15.74,15.74,0,0,1-5.32-.78C248.55,701.28,247.8,700.66,246.79,701.71ZM686.62,390.47c-2.6-7.06-2.52-6.28-2.61-7.08v0a1.66,1.66,0,0,0,.8-1.66,34.25,34.25,0,0,1,3.45-17.63c.51-1,.86-2.1-.19-3.05v0c1.06-1,2-2,.87-3.57a5.35,5.35,0,0,0-1.25-4c-.38-.53-.91-1.15-1.62-.87-2.46.95-5.17.77-7.61,1.81a41.93,41.93,0,0,1-14.58,3.5c-7.18.33-13.34-.71-19.18-6-7.64-6.37-9.24-8.17-10.52-10.59m-.35-.1c-4.61-5.43-5.89-11.58-5.67-18.15.2-6.21,3.45-11.68,7.29-16.58,1-1.27,2.46-2.13,3.43-3.48.64-.87.91-1.57,0-2.36s-1.7-1.21-2.7-.12a93.76,93.76,0,0,1-7.67,7.38c-3.56,3.12-5.76,7.29-8.29,11.17-3.92,6-7.55,12.2-11.39,18.25-2,3.15-4.19,6.17-6.3,9.25-4,5.8-7.15,11.94-7.75,19.08-.38,4.46-.6,8.93-.7,13.4-.21,9.45,1.31,18.73,3.22,27.95.34,1.63,1.15,1.61,2.49.68-.25,1.18-.44,2.13-.67,3.07A18.32,18.32,0,0,0,600.64,424c2.66,5.12,5.87,9.71,10.51,13.29,6.62,5.12,13.58,8.25,22.2,5-.29,1.46-.28,2.63,1.53,2.76a87.8,87.8,0,0,1,10.7,1.66A76.77,76.77,0,0,0,656.92,448c3.26.15,6.65,0,10,0,9,0,17.49-1.54,25.23-6.26,2.34-1.43,4.5-3.16,6.8-4.67s4.6-2.63,6.67-4.23c1.55-1.2,3.2-2.29,4.79-3.33,2.4-1.58,5-2.9,7.41-4.48a64.72,64.72,0,0,1,6.14-3.78c7.37-3.7,12.5-9.8,17.41-16.14.57-.74.74-1.47.11-2.12s-1.52-.5-2.25.18a75.65,75.65,0,0,1-6.7,5.13c-9.57,6.95-19.56,7-29.59,1.42A32.62,32.62,0,0,1,689.21,396M528.83,596.86m6.11-5.3,38.35-35.16c-1.6,2.21-3.1,4.48-4.64,6.73-1.12,1.62-.93,2.21,1,2.71.78.21,1.65.28,1.7,1.29s-.7,1.38-1.39,1.74-1.65.48-2.09,1.34a9.83,9.83,0,0,1-1.86,1c-6.45,1.93-11.83,6.15-16.51,8.77M596,568.7c1.84-2.21,1.71-3.27-.86-4.48-5.55-2.6-10.32-6.31-15-10.13m-65.53,54.35c-2.78,2.39-5.12,5.27-8.13,7.43-2.12,1.52-4.65,2.53-6.32,4.63-2.41,3-6.35,4.06-8.91,6.92a3.77,3.77,0,0,1-3.31.94,2.5,2.5,0,0,0-2.24.92q-13.11,13.22-26.26,26.41c-2,1.57-3.3,3.93-5.44,5.4a1.33,1.33,0,0,0-.56,1.54,20,20,0,0,1-4.69,4.09,23.55,23.55,0,0,0-6.53,5.86c-1.61-.23-2.33,1.16-3.42,1.88-2.54,1.67-2.59,2.22-.43,4.41-.54.29-1.42.38-1.34,1.17s1,.79,1.7.91a3.33,3.33,0,0,0,2.44-.17l1.16.37c2,1.06,3.84,1.13,5.55-.53a.39.39,0,0,1,.38,0,4.88,4.88,0,0,0,.3,2.45c.21.76.65.67,1.15.27,3.42,1.07,6.57,0,9.67-1.29a22.38,22.38,0,0,0,7.35-1.7c5.5-2,10.94-4.32,15.45-8a66.34,66.34,0,0,0,13.41-14.88c3.78-5.7,7.22-11.48,6.19-18.77-.14-1,.39-1.43,1.41-1.37a6,6,0,0,0,3.93-1c3-2.14,6.31-3.73,9.45-5.61,8.08-4.83,16.17-9.65,24.37-14.29,4-2.25,7.28-5.56,11.67-7.08m80.19-292.41h0c-3.06,3.17-2.9,7.07-2.08,10.88a33.92,33.92,0,0,0,11.91,19.74c2.95,2.41,5.82,4.88,9.34,6.38,4.15,1.77,8.44,2.88,13,1.27H666a5.39,5.39,0,0,0,3.11-.1c4.86-1.92,10.41-2.48,14-7a2,2,0,0,1,.62-.49c2.66-1.44,3.65-3.81,3.64-6.69,0-5.66-2.52-10.31-6-14.54.06-.88-.67-1.25-1.17-1.72-3.73-3.48-8-6.36-11.37-10.26-.73-.84-1.56-1.6-2.36-2.38-.41-.39-.77-1-1.49-.55a18.84,18.84,0,0,1-3.07-3c.06-1.78-1.81-2.39-2.32-3.83-.88-.88-1.74-1.79-2.65-2.64a9.74,9.74,0,0,0-11.46-1.24,38.89,38.89,0,0,0-11.84,12.31A4.61,4.61,0,0,0,632.74,316.93Zm87.42,49.42c.61-.52.73-1.09.05-1.61-1-.77-1.52-2.25-3-2.38-.1,0-.23.42-.35.65-1.46.16-2-.93-2.5-1.94,1.21-1.19,0-1.83-.69-2.32-4.9-3.72-12.35-5.71-18.56-2-2.73,1.61-4.78,3.86-4.5,7.41-1.68,1.27-1.68,3.28-2.24,5-1.9,1.9-2,4.23-1.67,6.69a1.11,1.11,0,0,0,0,1.69c-1.17,1.72-1,2.81.54,4.46-1.44,1.2-1.13,2.7-.64,4.16a37.77,37.77,0,0,0,16.28,20.63c6.86,4.27,14.09,6.24,21.84,3.06,8.15-3.34,15-8.31,17.88-17.19.08-.23.33-.4.5-.6.14,1.23.19,2.48.45,3.69a2.6,2.6,0,0,0,3.14,2.24c.89.82,1.47.22,2.16-.39,2.71-2.4,4.6-5.53,6.73-8.34,2.73-3.62,5-7.68,7.61-11.41,1.79-2.54,2.49-5.63,4.41-8,3.34-4.2,7-8.18,10.18-12.49,5.71-7.7,6.84-13.89-1.17-21.78-6.42-6.32-13.42-12-20.11-18A252.17,252.17,0,0,1,735,296.45c-4.08-4.63-8.34-9.1-12.36-13.77-5-5.77-9.83-11.63-15-17.18-4.15-4.41-8.91-6.16-15-4a29.57,29.57,0,0,0-10.43,5.72c-3.8,3.51-7.61,7-12.35,9.06a130.16,130.16,0,0,0-15.73,8.61c-3.09,1.88-5.55,4.53-8.2,6.92-2.81,2.54-2.63,2.78,0,5.3a2.23,2.23,0,0,0,2.14.6,11,11,0,0,1,4.5.15c2.08.47,3.92,2.07,6.27,1.35.2-.06.49.16.73.27a77.56,77.56,0,0,1,19.3,12.78,45.51,45.51,0,0,1,6.06,6.66,40.42,40.42,0,0,1,6,10.25c.62,1.71.34,3-1.48,3.8-1.1.48-1.46,1.17-.85,2.48a34.14,34.14,0,0,0,11.45,14c2.5,1.75,5,3.61,8.09,4.3,1.66,1.62,4.1,1.64,6,2.83,4.55,2.89,7.63,7.42,12,10.62,2.06,1.53,4,3.46,6,5.2s4.33,3.46,5.56,6,3.14,4.45,4.64,6.72l.45,1.15c-.7.68,0,1.79-.78,2.46a3.94,3.94,0,0,0-3.08-2.51c0-1,2.18-3-1.15-2.6-.46.05-.41-.75-.66-1.1-1-1.39-1.88-3-4-2.77L721.29,368C721.35,367.18,720.56,366.9,720.16,366.35ZM223,707.69c-.15,2.54,1.9,4.2,2.53,6.43a2.29,2.29,0,0,0,.61,1.59c6.63,9.8,14.35,18.52,24.38,25a92.89,92.89,0,0,0,27.55,12c1,.26,2.29.62,2.66-.79s-1-1.32-1.79-1.64c-7.91-3.27-15.84-6.5-23.06-11.21-1.6-1-2.8-2.79-4.9-3-3.41-2.84-6.92-5.58-10.22-8.55a60.28,60.28,0,0,1-15.11-20.71c.29-.93.05-1.62-1-1.56C223.13,705.39,222.57,706.26,223,707.69ZM657,268.6c-1.75,1-1.79,3.12-2.81,4.62-1.22,1.81-2.91,3.15-4.15,4.93-2,2.89-2.84,6.52-5.75,8.81a1,1,0,0,0-.07,1.57c.66.68,1.17.05,1.65-.39,4.34-4,9.48-6.9,14.23-10.34,1.78-1,3.6-1.81,5.47-2.59a20.63,20.63,0,0,0,6.56-3.79c1.77.51,2.27-.57,2.48-2l2-1.92c2.79-.41,4.25-2.86,6.42-4.21,1.51-1.94,4-2.2,5.87-3.61,2.58-.09,5.06-.46,7-2.47a15.68,15.68,0,0,1,5.89,1.25,38.78,38.78,0,0,1,13.39,9.61,2.16,2.16,0,0,0,.57,2.19c4.22,4.38,7.6,9.5,12,13.72-.08.79.58,1.13,1,1.57q6.18,6.21,12.39,12.38a7,7,0,0,1,1.42,2.1,25.71,25.71,0,0,0,5.94,7.15c2.9,2.32,6.13,4.19,8.78,6.85a108.55,108.55,0,0,0,14.59,12.4l5.87,5.86c1.83,2.22,3.82,4.32,5.44,6.68s3.25,5.13,2.66,8a32.89,32.89,0,0,1-3.91,10.19c-2.25,2.77-4.83,5.29-6.55,8.46a5.49,5.49,0,0,1-1.84,2c-3.92,2.48-5.61,6.53-7.52,10.45a14.72,14.72,0,0,0-1.25,1.49c-1.71,2.62-3.33,5.3-5.09,7.88-.84,1.23-2.46,2.14-2.81,3.45-.55,2-1.94,3.19-3.22,4.55-.63.67-1.3,1.3-1.93,2a1,1,0,0,0-.07,1.43,1,1,0,0,0,1.54.33c1.1-.83,2.47-1.16,3.45-2.22,2.92-3.13,6.9-4.85,10.23-7.48,2.68-2.13,5.76-3.79,8.07-6.43a18.78,18.78,0,0,0,3.4-2.3c4.46-4.62,9.35-8.82,13.42-13.84A61.13,61.13,0,0,0,804.14,341c.79-3.59,1.42-7.19,2-10.82.21-1.37.4-2.89,2.37-2.72s2.42-.81,2.1-2.52c-.2-1.1-.25-2.22-.49-3.3-1.51-7-3-14-4.62-20.93-1.75-7.26-3.49-14.54-6.44-21.44-.54-1.19-1.06-2.37-1.6-3.56a40.12,40.12,0,0,0-10.5-14c-.71-.83-1.4-1.68-2.07-2.54-1.31-1.67-2.73-3.32-4.92-3.93a11.42,11.42,0,0,0-2.74-2.21,48.23,48.23,0,0,0-23.26-9.87,8.7,8.7,0,0,0-5,.57l-1.79-1.85c.17-.2.32-.47.53-.56.81-.35,1.33-.87,1.16-1.8-.2-1.09-1.11-.92-1.86-1a98,98,0,0,1-15-2.81c-2.21-.54-4.43-1.17-6.76-.63a28.63,28.63,0,0,0-12-.28c-1.33-.87-2.07.7-3.24.78a12.37,12.37,0,0,0-5.72,1.86c-1.59,1-3.79,1.37-4.87,2.63-1.41,1.67-2.64,1.6-4,.76a1.69,1.69,0,0,0-2.52.38c-.67-.5-1,.05-1.52.39a37.35,37.35,0,0,1-5.69,3.76,73.14,73.14,0,0,0-12.09,6.77c-.71-.61-1.28-.32-1.89.22-1.34,1.22-2.79,2.32-4.09,3.58-3.31,3.24-6.54,6.56-9.85,9.8A2.88,2.88,0,0,0,657,268.6Zm-353.6,519c-.12-.37-.21-.76-.36-1.12-1-2.5-2.85-4.51-4.05-6.91a179.29,179.29,0,0,1-7.36-16.68c-.28-.75-.43-1.62-1.55-1.32s-.9,1.15-.79,1.93a17.74,17.74,0,0,0,.42,1.92c5.57,20.6,16.86,37.18,34.66,49.13,2.67,1.79,5.2,4,8.62,4.39,1.31.47,2.66.48,3.1-1s-1.17-1.48-2-1.9a69.37,69.37,0,0,1-23.76-19.61C308,793.47,306.22,790.14,303.42,787.59ZM625,304.77c.7-.15,1.05-.75,1.52-1.2,2.38-2.26,3.82-5.24,5.92-7.72,1-1.52,1.06-3.48,2.64-4.85,3-2.58,2.43-5.94-1-8.06s-6.42-1.16-9.41.67c-4.68,2.86-8.12,7-11.35,11.33-4.59,6.19-8.17,12.81-9.11,20.6a44.89,44.89,0,0,0,.65,13.73,2.16,2.16,0,0,0,1.67,2c.94.17,1.27-.67,1.66-1.39.55-1,1.17-2,1.82-3a2.37,2.37,0,0,0,0-2.92,8.24,8.24,0,0,0,4.35-4.19A75,75,0,0,1,625,304.77Zm-321.88,473,.34-.11.43.38c-1.06,1.16-2.39,2.35-1.26,4.07,1.92,2.92,3.59,6.06,6.44,8.26.46.63.92,1.25,1.37,1.88a7.4,7.4,0,0,0,1.47,2.73c4.14,3.89,7.5,8.54,12,12.07a47.85,47.85,0,0,0,13,7.43,2,2,0,0,0,2.75-.71,7.19,7.19,0,0,0,3.18-5.81,18.16,18.16,0,0,0-2.28-10.61c.79-2.55.76-2.59-1.85-2.74q-4-4-8.06-8l.66-.63,8.79,8.05c-.42-2.29-.74-4.07-1.07-5.85,1-.55.92-1.5.85-2.41-.23-3.11-.5-6.21-.75-9.32,2-1,2.23-1.52,1.19-3.35a4.91,4.91,0,0,0-.31-3.07c1.1-2.3,1.6-4.61.26-7a19.24,19.24,0,0,0-7.24-8c-3.69-2.48-8-3.35-12.29-4.37a19.1,19.1,0,0,0-6.19-2.74c-1.47-1.09-2.91-2.23-4.42-3.25a2.32,2.32,0,0,0-2.95.08c-4.27,4-8.82,7.66-12.53,12.24a5.25,5.25,0,0,0-.8,6c2,4.83,4,9.68,6.42,14.34C301.28,779.12,301.64,779.17,303.15,777.72Zm290-365.27c.08-4.85-1.38-5.95-5.76-4.23-3.79,1.49-7.21,3.71-10.74,5.69a6.55,6.55,0,0,0-2.49,2.73c-3.61,6.89-8.08,13.29-11.66,20.21-.26.52-.8.9-.41,1.55s1,.71,1.71.68c6.36-.33,12.72-1,19.1-.16,1.3.17,1.81-.49,1.75-1.72a22.06,22.06,0,0,0-.93-4.83,30.38,30.38,0,0,1,.18-15.78,10.09,10.09,0,0,1,2.78-4.89c.85-.85,1.72-1,2.16.46-.93,1.08-2.4,2.35-1.12,3.64a7.2,7.2,0,0,0,4.4,1.85c1.12.09,1.46-.68,1.63-1.58A7.63,7.63,0,0,0,593.15,412.45ZM431.53,535c-1,.91-2.19,1.72-2.31,3.34,1.51-.34,1.51-.34,3.3-2.27,7.55-6.51,15.47-12.58,22.71-19.45,7.62-7.24,15.34-14.39,22.39-22.21,1.32-1.46,2.82-2.75,4-4.34,4.69-6.31,9.05-12.87,14.2-18.84.5-.58,1.19-1.13.46-2s-1.47-.4-2.17.14c-4.48,3.42-8.94,6.87-13.46,10.24a31.38,31.38,0,0,0-9.05,9.73,40.93,40.93,0,0,1-5.7,7.73c-6.87,7.42-13.87,14.72-20.55,22.32C440.77,524.61,436.14,529.8,431.53,535Zm83.08,66c-.21,1.32-2,1.79-1.88,3.5,1.46-.39,2.07-1.61,3-2.44a13.2,13.2,0,0,0,3.14-2c3.41-2.47,6.36-5.47,9.6-8.14,5-4.13,10.59-7.55,15-12.44a25.88,25.88,0,0,1,6.68-5.15c6.32-3.53,12.45-7.16,16.2-13.81,2.21-3.92,5.05-7.49,7.59-11.23.7-1,1.1-2,0-3.15s-1.88-.28-2.71.36c-2.71,2.07-5.39,4.17-8.11,6.22-3.88,2.91-8.17,5.25-11.66,8.68-5.43,5.35-11,10.55-16.26,16.08-6.21,6.52-12.14,13.3-18.38,19.79A8,8,0,0,0,514.61,601ZM719.08,430.05c-1-.13-1.25.86-2,1.18-1.86.39-3.25,1.62-4.75,2.65-.67.45-1.77.6-1.54,1.74s1.17,1.16,2,1.4a32.9,32.9,0,0,0,18.27,0c11.6-3,20.35-10.24,27.62-19.43a8.28,8.28,0,0,0,1.1-8.91c-1.64-3.72-5.25-4.61-8.48-2.08a8.5,8.5,0,0,1-2.86,1.68,6,6,0,0,0-3.17,2.21c-2.7.3-3.64,2.76-5.3,4.35a14.07,14.07,0,0,0-2.82,2.1,42.11,42.11,0,0,1-9.87,7.93C724.56,426.57,721.34,427.56,719.08,430.05ZM438,601a2,2,0,0,0,2.25,2.24,47.56,47.56,0,0,0,8.51,6.91,39.62,39.62,0,0,1,6.08,4.28c.85.82,1.36,1.67.5,2.73s-1.7,1.68-3.19.8a108.17,108.17,0,0,1-10.27-6.48,1.8,1.8,0,0,0-2.62,0,141,141,0,0,0-9.8,10.51c-3.48,3.89-6.77,8-9.95,12.1-1.78,2.31-4,4.19-5.79,6.43q-4.32,5.31-8.59,10.68c-2.65,3.32-5.35,6.6-8,9.89a73,73,0,0,1-9.51,9.5c-2.61,2.22-6,3.6-7.65,6.91a16.29,16.29,0,0,1-4.25,5.36c-2.81,2.33-5.85,4.42-8.51,6.91a179.39,179.39,0,0,0-14.73,15.35c-1.39,1.66-3,3.11-4.29,4.85a51.62,51.62,0,0,1-10.46,10c-3.36,2.58-6.92,4.9-10.39,7.33-4.27,3-8,6.69-13.14,8.44-2.21.76-2.48,3-.79,4.75,3.39,3.46,7.8,5.19,12.3,6.25a28.92,28.92,0,0,1,15.62,8.87c3.42,3.84,4.37,3,6.26-1.59a1.06,1.06,0,0,0,.06-.19c1-5.22,4.36-8.35,9.26-10a4.52,4.52,0,0,0,2.84-2.73c1.13-2.49,2.44-4.87,4.86-6.47,1.46-1,2.67-2.3,4.05-3.41,3.15-2.53,6.34-5,9.5-7.55s6.62-4.68,9.51-7.55a96.41,96.41,0,0,0,9.27-9.91c1.6-2.11,3.69-3.76,5.25-5.85,3.19-4.25,7.37-7.42,11.33-10.83,2.18-1.88,4.86-3,7-5,2.28-2.14,4.87-3.94,7.32-5.9,3.2-2.57,6.67-4.89,9.55-7.8,15.76-16,32.13-31.32,47.33-47.83,1.51-1.75,1.4-2.42-.63-3.33-.95-.43-1.93-.82-2.9-1.21-3.22-1.29-6.53-2.41-9.37-4.48-4.52-3.3-9-6.62-13.5-10-4.64-3.53-9.71-6.46-13.48-11.2-3.11-3.92-6.72-7.48-9.69-11.54-5.13-7-9-14.71-12.5-22.62-.44-1,0-2.57-1.69-2.76s-2.16,1.28-3,2.17a5.64,5.64,0,0,0-.77,1.36c-2.28,2.07-4.66,4.05-6.84,6.22Q397.82,578,385.43,590.48c-1.57,1.58-2.84,3.6-4.52,4.87-3.13,2.35-5.57,5.32-8.28,8a42.4,42.4,0,0,0-3.71,4.3c-2.48,3.29-5.26,6.33-7.95,9.45q-2.88,3.35-5.43,6.93c-2.69,3.78-5.22,7.67-8.5,11-4.11,4.16-8.78,7.67-13.1,11.55a98.6,98.6,0,0,0-11.25,11.59c-3.8,4.74-7.17,9.79-10.92,14.56-2.22,2.84-4.24,5.88-7.43,7.72a17.25,17.25,0,0,0-7.95,8.88,6.49,6.49,0,0,1-1.9,2.4c-2.38,2-5.36,2.41-8.06,3.56-3.11,1.32-3.33,2.22-.88,4.48,4.69,4.34,8.19,9.42,9.58,15.71a32.17,32.17,0,0,0,4.38,10.66c1,1.57,1.95,3.63,4.17,3.36s3.09-2.2,3.87-4a25.13,25.13,0,0,1,6-8.89,13.8,13.8,0,0,0,2.88-3.93,53.09,53.09,0,0,1,9.7-13c2-2,4.19-3.76,6.19-5.75,1.36-1.34,2.69-2.72,4.09-4,3.39-3.1,7-5.94,10.13-9.29,2-2.11,4-4.18,5.92-6.3a31.14,31.14,0,0,0,3.13-3.28c2.47-3.7,5.81-6.47,9.22-9.24a28.32,28.32,0,0,0,5.44-5.65c1.62-2.32,2.6-5.1,5.3-6.68a31.15,31.15,0,0,0,5.52-4.36c3.37-3.21,7.08-6,10.73-8.86,4.22-3.3,8.38-6.67,12.35-10.27,3.3-3,6.76-5.79,10-8.81,5.26-4.83,10.74-9.4,15.91-14.33,1.14-1.1,1.19-2.13,0-3.16a21.6,21.6,0,0,1-3.42-4,3.48,3.48,0,0,1-.67-3.51,2.24,2.24,0,0,1,2-1.3c1.36-.21,2.09.87,2.67,1.72A58.54,58.54,0,0,0,438,601ZM566.8,476.6l-.71-.71c1.62-1.73,4.13-2.48,5.22-4.79.48-.56,1.31-1,.84-1.94,2.11-4.27,4.24-8.53,6.33-12.81a3.34,3.34,0,0,0,.38-2.28c2.88-3,3.62-7,4.83-10.74.43-1.35-.54-2.13-2-2.31a68.67,68.67,0,0,0-8.24-.23,48.54,48.54,0,0,0-12.25,1.15c-3.43-1.33-3.47-1.49-1.43-4.63s3.66-6.89,5.81-10.18c2.31-3.53,4.16-7.37,6.24-11.05a23,23,0,0,0,1.77-2.81,1.79,1.79,0,0,0-.9-2.6c-1.54-.85-3.05-1.75-4.55-2.69-4.65-2.88-9.36-5.67-13.89-8.73s-8.74-6.76-14.92-6.49c-2.77.12-5.31.3-7.67,1.76-5.24,3.23-9.6,7.64-14.73,11a3.45,3.45,0,0,0-.93.26,134.89,134.89,0,0,0-13.43,10.64c-2.34,1.45-4,3.94-6.78,4.72a1.68,1.68,0,0,0-.66.43c-4,4.09-9.23,6.64-13.69,10.17-2.27,1.8-2.73,2.74-1.76,5.52a64.76,64.76,0,0,0,5.17,11.45c3.33,5.68,7.14,11,12.51,15,1.27.95,2.25.89,3.16-.38s1.81-2.56,2.72-3.85c4.22-6,8.37-12,12.68-17.95,3.3-4.56,6.74-9,10.21-13.45,2.53-3.26,5.16-6.44,7.83-9.59,1-1.17,2.34-1.58,3.65-.47s.74,2.43-.09,3.5c-4.28,5.47-8.61,10.89-12.91,16.35q-6.21,7.86-11.89,16.11c-4.56,6.63-8.94,13.39-13.62,19.93a314.76,314.76,0,0,1-19.59,25.25c-4.25,4.81-8.11,10.18-14.16,13.1a1.7,1.7,0,0,0-.55.55c-2.36,3-5.37,5.38-8.16,7.93-5.17,4.74-10.46,9.37-15.93,13.76-2.37,1.9-4,4.57-6.58,6.14a42.75,42.75,0,0,0-6,4.73c-4.14,3.64-3.51,4.94-2.11,8.9a95,95,0,0,0,11.25,21.89,73.17,73.17,0,0,0,10.26,12.05c5,4.76,9.5,10.21,16,13.25a1.4,1.4,0,0,1,.71.64c.43,1.28,1.51,1.72,2.59,2.24a8.3,8.3,0,0,1,2.6,1.74,26.17,26.17,0,0,0,7,5,66.9,66.9,0,0,0,15.41,6.38c.74.18,1.44.35,2-.24,3-3.05,6.39-5.82,8.89-9.23a183.67,183.67,0,0,1,12.57-14.79c3.35-3.67,6.28-7.69,9.72-11.3,3.92-4.11,7.68-8.43,11.4-12.76,4.6-5.36,10.4-9.4,16-13.61,1.81-1.36,3-3.43,5-4.41a39.46,39.46,0,0,0,7.81-5.54c3-2.57,6.52-4.33,9.64-6.71,3.66-2.79,7.72-5.07,11.44-7.8,2.83-2.08,5.77-4,8.54-6.21s5.39-4.11,8.09-6.15c3.43-2.59,7-5,10.2-7.92,1.83-1.63,4.17-2.59,5.53-4.88.89-1.48,2.74-1.66,4.41-1.81.73-.07,1,.34,1.25,1a3.32,3.32,0,0,1-1.76,4.26,7.61,7.61,0,0,0-1.85,1.1,93.67,93.67,0,0,1-13.5,10.79c-3.07,2-5.51,4.83-8.81,6.54a7.42,7.42,0,0,0-1.91,1.37c-3.33,3.4-7.51,5.63-11.38,8.29-2.1,1.45-4.25,2.82-6.32,4.31a1.9,1.9,0,0,0-.4,3,48.08,48.08,0,0,0,11.13,10.79,63.94,63.94,0,0,0,18.83,8.7,2,2,0,0,0,2.47-1c2.19-3,4.11-6.2,6.23-9.26,3-4.37,6.15-8.71,9.14-13.12,3.4-5,7.37-9.69,10.94-14.6,2.71-3.73,5.57-7.38,8.44-10.94,4.91-6.1,6.1-14.53,1.82-21.17-1.13-1.76-2.53-3.35-3.66-5.1-3.88-6.05-7.71-12.13-11.54-18.21-.88-1.4-1.77-1.63-3.23-.64-2.16,1.47-4.11,3.44-6.37,4.51-5.92,2.8-11,7.08-17.22,9.31-2.12.76-2.65.69-3.41-1.35-.18-.49-.33-1-.49-1.5a67,67,0,0,0,.94-19.88c0-.12-.07-.25-.09-.38a1.52,1.52,0,0,0-2-1.39c-4.08.88-8.27,1.51-11.23,4.95a16.88,16.88,0,0,0-5.76,2.35C578,470.24,572.67,473.89,566.8,476.6Zm8.58-7.56c.65-.32,1.13-.53,1.58-.78,4.27-2.4,8.61-4.69,12.8-7.23a27.67,27.67,0,0,1,24-2.79,13.23,13.23,0,0,0,4.84.75c3.18-.19,3.85-1.33,2.43-4.13-.91-1.8-2.2-3.51-1.95-5.66a2.41,2.41,0,0,0-1.88-2.93,33.08,33.08,0,0,1-18.3-16.09,18.14,18.14,0,0,0-10.61-9.11c-2.32-.76-3.2-.14-3.25,2.32a32.56,32.56,0,0,0,1.08,9.37,20.49,20.49,0,0,1-1.2,14.76c-1.06,2.24-2,4.56-3,6.83C579.79,459.19,577.26,463.85,575.38,469Zm59.53-18.68a4.86,4.86,0,0,0-2.9-1.13,31.17,31.17,0,0,0-3.35-.14c-4.85,0-5.18.49-3.07,4.81.93,1.91,1.86,2.24,3.75,1.28a7.07,7.07,0,0,0,1.39-1.07c.58-.5,1.17-.66,1.72,0a1.09,1.09,0,0,1-.21,1.73c-4,2.56-8,5.26-13.12,5.19a54.57,54.57,0,0,1-10.51-1.59c-4.22-.9-4.32-.9-3.92,3.33.52,5.41-.11,10.77-.34,16.15-.1,2.22.66,2.76,2.72,1.88,5-2.14,9.5-5.24,14.06-8.15,3.21-2.05,6.61-3.84,8.66-7.42s4.42-6.65,5.8-10.45A4,4,0,0,0,634.91,450.36Zm57.87-101.31h0c-1-1-2-2.06-3.06-3a1.17,1.17,0,0,0-1.87.16c-.58.66-.64,1.28,0,1.86a11.15,11.15,0,0,0,1.13.76c1.77,1.14,3.4,2.42,4.12,4.52.21.61.34,1.4,1.19,1.31a1.88,1.88,0,0,0,1.59-1,1.58,1.58,0,0,0-.5-1.93C694.53,350.82,693.65,349.93,692.78,349.05Zm52.15,53.8,0,0c.83.83,1.65,1.69,2.52,2.49a1.35,1.35,0,0,0,1.49.18.85.85,0,0,0,.34-1.2c-1.32-2.35-2.8-4.57-5.44-5.65a1.1,1.1,0,0,0-1.54.41c-.38.64-.06,1.11.38,1.56C743.45,401.36,744.19,402.1,744.93,402.85ZM640.75,295.36c-.74-.74-1.45-1.51-2.23-2.22a1.17,1.17,0,1,0-1.6,1.66q2.12,2.19,4.31,4.3a1,1,0,0,0,1.56-.09,1,1,0,0,0,0-1.56C642.16,296.73,641.45,296.05,640.75,295.36Zm57,55.43-6.92-6.92A12.18,12.18,0,0,0,697.7,350.79Zm30.38,21.4c1.71,1.95,3.24,4.07,5.65,5.28C732.19,375.34,731.24,372.59,728.08,372.19Z"/><path class="b" d="M517,405.53c5.13-3.37,9.49-7.78,14.73-11,2.36-1.46,4.9-1.64,7.67-1.76,6.18-.27,10.33,3.4,14.92,6.49s9.24,5.85,13.89,8.73c1.5.94,3,1.84,4.55,2.69a1.79,1.79,0,0,1,.9,2.6,23,23,0,0,1-1.77,2.81c-2.08,3.68-3.93,7.52-6.24,11.05-2.15,3.29-3.68,6.9-5.81,10.18s-2,3.3,1.43,4.63a2.93,2.93,0,0,0,2.4,1.11c3.25.36,6.49.74,9.74,1.12.79.1,2.1.34,2,.95-.65,2.72,1.27,4.19,2.51,6a3.13,3.13,0,0,1,.28,1.14,3.46,3.46,0,0,0,.73,1.79,3.34,3.34,0,0,1-.38,2.28c-2.09,4.28-4.22,8.54-6.33,12.81a18.71,18.71,0,0,0-1.35-1.91c-1.82-2-3.88-1.46-4.76,1.16a2.38,2.38,0,0,0,.62,2.51,1.82,1.82,0,0,0,2.33.31c.73-.33,1.5-1,2.32-.13-1.09,2.31-3.6,3.06-5.22,4.79a9.91,9.91,0,0,0-4.51,2.81,5.37,5.37,0,0,0,5.22-2.1c5.87-2.71,11.19-6.36,16.63-9.79a16.88,16.88,0,0,1,5.76-2.35,3.65,3.65,0,0,0,2.51.93,35.65,35.65,0,0,1,3.7.37c2.65.42,3.27,1.05,3.83,3.67A31.78,31.78,0,0,1,600,476a7.72,7.72,0,0,0,1.58,5.13c.16.5.31,1,.49,1.5.76,2,1.29,2.11,3.41,1.35,6.21-2.23,11.3-6.51,17.22-9.31,2.26-1.07,4.21-3,6.37-4.51,1.46-1,2.35-.76,3.23.64,3.83,6.08,7.66,12.16,11.54,18.21,1.13,1.75,2.53,3.34,3.66,5.1,4.28,6.64,3.09,15.07-1.82,21.17-2.87,3.56-5.73,7.21-8.44,10.94-3.57,4.91-7.54,9.58-10.94,14.6-3,4.41-6.09,8.75-9.14,13.12-2.12,3.06-4,6.25-6.23,9.26a2,2,0,0,1-2.47,1,63.94,63.94,0,0,1-18.83-8.7,48.08,48.08,0,0,1-11.13-10.79,1.9,1.9,0,0,1,.4-3c2.07-1.49,4.22-2.86,6.32-4.31,3.87-2.66,8.05-4.89,11.38-8.29a7.42,7.42,0,0,1,1.91-1.37c3.3-1.71,5.74-4.57,8.81-6.54a93.67,93.67,0,0,0,13.5-10.79,7.61,7.61,0,0,1,1.85-1.1,3.32,3.32,0,0,0,1.76-4.26c-.21-.64-.52-1.05-1.25-1-1.67.15-3.52.33-4.41,1.81-1.36,2.29-3.7,3.25-5.53,4.88-3.23,2.87-6.77,5.33-10.2,7.92-2.7,2-5.47,4.06-8.09,6.15S589.2,529,586.37,531c-3.72,2.73-7.78,5-11.44,7.8-3.12,2.38-6.61,4.14-9.64,6.71a39.46,39.46,0,0,1-7.81,5.54c-2,1-3.19,3-5,4.41-5.61,4.21-11.41,8.25-16,13.61-3.72,4.33-7.48,8.65-11.4,12.76-3.44,3.61-6.37,7.63-9.72,11.3A183.67,183.67,0,0,0,502.78,608c-2.5,3.41-5.88,6.18-8.89,9.23-.59.59-1.29.42-2,.24a66.9,66.9,0,0,1-15.41-6.38,26.17,26.17,0,0,1-7-5,8.3,8.3,0,0,0-2.6-1.74c-1.08-.52-2.16-1-2.59-2.24a1.4,1.4,0,0,0-.71-.64c-6.47-3-10.93-8.49-16-13.25a73.17,73.17,0,0,1-10.26-12.05,95,95,0,0,1-11.25-21.89c-1.4-4-2-5.26,2.11-8.9a42.75,42.75,0,0,1,6-4.73c2.62-1.57,4.21-4.24,6.58-6.14,5.47-4.39,10.76-9,15.93-13.76,2.79-2.55,5.8-4.92,8.16-7.93a1.7,1.7,0,0,1,.55-.55c6.05-2.92,9.91-8.29,14.16-13.1a314.76,314.76,0,0,0,19.59-25.25c4.68-6.54,9.06-13.3,13.62-19.93q5.67-8.25,11.89-16.11c4.3-5.46,8.63-10.88,12.91-16.35.83-1.07,1.44-2.37.09-3.5s-2.66-.7-3.65.47c-2.67,3.15-5.3,6.33-7.83,9.59-3.47,4.44-6.91,8.89-10.21,13.45-4.31,5.93-8.46,12-12.68,17.95-.91,1.29-1.8,2.57-2.72,3.85s-1.89,1.33-3.16.38c-5.37-4-9.18-9.32-12.51-15a64.76,64.76,0,0,1-5.17-11.45c-1-2.78-.51-3.72,1.76-5.52,4.46-3.53,9.65-6.08,13.69-10.17a1.68,1.68,0,0,1,.66-.43c2.81-.78,4.44-3.27,6.78-4.72,1.19.84,1.05,1.84.32,2.9s-1.27,1.81-2,2.82c1.18,0,1.68-.77,2.26-1.36,4.51-4.48,8.52-9.45,13.2-13.78C516.83,406.62,517.38,406.25,517,405.53Zm57.21,54.34c1.63-1.66,1.63-2.61.38-4s-2.38-.52-3.35.3c-1.25,1-1.05,2.59.22,3.93S573.47,460.7,574.18,459.87Z"/><path class="c" d="M644.71,352c5.87,5.24,12,6.3,19.18,6a41.93,41.93,0,0,0,14.58-3.5c2.44-1,5.15-.86,7.61-1.81.71-.28,1.24.34,1.62.87a5.35,5.35,0,0,1,1.25,4,3.53,3.53,0,0,0-.87,3.57v0a40.7,40.7,0,0,1-3.36,8.14c-1.53,2.74-3.13,5.44-4.71,8.15-.29.5-.85,1.06-.24,1.55s1.16-.18,1.63-.6c.66-.57.79-1.61,1.71-2.08a6.27,6.27,0,0,1,.34,2.59c0,1.56-.35,3.15.57,4.59l.4,1.36,1.89,4.82a65.92,65.92,0,0,0,2.9,6.37,32.62,32.62,0,0,0,13.68,13.72c10,5.56,20,5.53,29.59-1.42a75.65,75.65,0,0,0,6.7-5.13c.73-.68,1.53-.91,2.25-.18s.46,1.38-.11,2.12c-4.91,6.34-10,12.44-17.41,16.14a64.72,64.72,0,0,0-6.14,3.78c-2.44,1.58-5,2.9-7.41,4.48-1.59,1-3.24,2.13-4.79,3.33-2.07,1.6-4.47,2.78-6.67,4.23s-4.46,3.24-6.8,4.67c-7.74,4.72-16.23,6.28-25.23,6.26-3.3,0-6.69.14-10,0a76.77,76.77,0,0,1-11.34-1.29,87.8,87.8,0,0,0-10.7-1.66c-1.81-.13-1.82-1.3-1.53-2.76-8.62,3.28-15.58.15-22.2-5-4.64-3.58-7.85-8.17-10.51-13.29a18.32,18.32,0,0,1-1.55-13.18c.23-.94.42-1.89.67-3.07-1.34.93-2.15.95-2.49-.68-1.91-9.22-3.43-18.5-3.22-27.95.1-4.47.32-8.94.7-13.4.6-7.14,3.77-13.28,7.75-19.08,2.11-3.08,4.3-6.1,6.3-9.25,3.84-6.05,7.47-12.25,11.39-18.25,2.53-3.88,4.73-8.05,8.29-11.17a93.76,93.76,0,0,0,7.67-7.38c1-1.09,1.82-.61,2.7.12s.68,1.49,0,2.36c-1,1.35-2.43,2.21-3.43,3.48-3.84,4.9-7.09,10.37-7.29,16.58a27.75,27.75,0,0,0,6.34,18.75c-.32,2.88-.11-.17,0,0,.69,1.28,4.81,5.67,10.2,10.09m11.49,39.24-5-5c-.13-4.41-1.42-8.12-5.79-10.16-1.38-.65-1.51-1.87-.7-3.17a8.06,8.06,0,0,1,2.62-2.64c.44-.27.88-.57,1.3-.88s.92-.37,1.09-1.06c-3.08.18-5.78.79-7.13,3.82-1.26,2.82,0,5.09,1.71,7.24a18.09,18.09,0,0,1,3.79,8.35,7,7,0,0,0,6,6.2,21.34,21.34,0,0,1,9.32,4.51c1.78,1.45,3.66,2.46,6,1.32a7.31,7.31,0,0,0,4.47-6.06c0-.38.25-.92-.44-1.16-1.35,1.74-2.22,3.92-4.42,4.9-1.47.65-2.54.58-3.37-1.1C663.53,392.1,660.75,390.65,656.2,391.19ZM637,406.33a106.45,106.45,0,0,0,13.64,11.28c4,2.71,8.2,5,11.7,8.32.76.73,1.53,1.34,2.6.69,1.6-1,1.81-2.45,1.44-4.12-.25-1.14-.81-2.05-2.11-1.88-2,.25-3.56-.58-5.15-1.57a107.32,107.32,0,0,1-32.93-31.2c-2.23-3.29-5.3-6.24-5.19-10.78,0-1.52-1.69-1.62-2.9-1.84a2.57,2.57,0,0,0-3,1.4,2.2,2.2,0,0,0,.73,2.8,25.28,25.28,0,0,1,4,5.32A120.25,120.25,0,0,0,637,406.33Zm-7.4,6.8a19,19,0,0,0,7.19,5.58c.85.34,1.85.76,2.46-.2s-.35-1.69-1-2.22a91.89,91.89,0,0,1-8-6.91,40.42,40.42,0,0,1-5.55-6.56c-.35-.52-.78-1-1.45-.72s-.75,1-.59,1.66a8.6,8.6,0,0,0,.76,1.8A27.15,27.15,0,0,0,629.58,413.13Z"/><path class="d" d="M708.14,353.74c-3.09-.69-5.59-2.55-8.09-4.3a34.14,34.14,0,0,1-11.45-14c-.61-1.31-.25-2,.85-2.48,1.82-.8,2.1-2.09,1.48-3.8a40.42,40.42,0,0,0-6-10.25,45.51,45.51,0,0,0-6.06-6.66,77.56,77.56,0,0,0-19.3-12.78c-.24-.11-.53-.33-.73-.27-2.35.72-4.19-.88-6.27-1.35a11,11,0,0,0-4.5-.15,2.23,2.23,0,0,1-2.14-.6c-2.67-2.52-2.85-2.76,0-5.3,2.65-2.39,5.11-5,8.2-6.92a130.16,130.16,0,0,1,15.73-8.61c4.74-2,8.55-5.55,12.35-9.06a29.57,29.57,0,0,1,10.43-5.72c6.06-2.16,10.82-.41,15,4,5.21,5.55,10.07,11.41,15,17.18,4,4.67,8.28,9.14,12.36,13.77a252.17,252.17,0,0,0,21.49,21.14c6.69,6,13.69,11.64,20.11,18,8,7.89,6.88,14.08,1.17,21.78-3.2,4.31-6.84,8.29-10.18,12.49-1.92,2.4-2.62,5.49-4.41,8-2.64,3.73-4.88,7.79-7.61,11.41-2.13,2.81-4,5.94-6.73,8.34-.69.61-1.27,1.21-2.16.39a7.74,7.74,0,0,1-2.13-6.63,5.57,5.57,0,0,0-1.78-5.12l-.45-1.15c1.26-1.09.63-2.25.09-3.39A70.94,70.94,0,0,0,726,359.29c-3.6-3.29-7.38-6.34-12.06-8-2.88-1-3.2-.88-4.9,1.66A5,5,0,0,1,708.14,353.74Z"/><path class="e" d="M484.71,623c-15.2,16.51-31.57,31.87-47.33,47.83-2.88,2.91-6.35,5.23-9.55,7.8-2.45,2-5,3.76-7.32,5.9-2.13,2-4.81,3.15-7,5-4,3.41-8.14,6.58-11.33,10.83-1.56,2.09-3.65,3.74-5.25,5.85a96.41,96.41,0,0,1-9.27,9.91c-2.89,2.87-6.34,5-9.51,7.55s-6.35,5-9.5,7.55c-1.38,1.11-2.59,2.44-4.05,3.41-2.42,1.6-3.73,4-4.86,6.47a4.52,4.52,0,0,1-2.84,2.73c-4.9,1.63-8.22,4.76-9.26,10a1.06,1.06,0,0,1-.06.19c-1.89,4.63-2.84,5.43-6.26,1.59a28.92,28.92,0,0,0-15.62-8.87c-4.5-1.06-8.91-2.79-12.3-6.25-1.69-1.72-1.42-4,.79-4.75,5.1-1.75,8.87-5.46,13.14-8.44,3.47-2.43,7-4.75,10.39-7.33a51.62,51.62,0,0,0,10.46-10c1.28-1.74,2.9-3.19,4.29-4.85a179.39,179.39,0,0,1,14.73-15.35c2.66-2.49,5.7-4.58,8.51-6.91A16.29,16.29,0,0,0,380,677.5c1.64-3.31,5-4.69,7.65-6.91a73,73,0,0,0,9.51-9.5c2.68-3.29,5.38-6.57,8-9.89q4.27-5.36,8.59-10.68c1.81-2.24,4-4.12,5.79-6.43,3.18-4.14,6.47-8.21,9.95-12.1a141,141,0,0,1,9.8-10.51,1.8,1.8,0,0,1,2.62,0A108.17,108.17,0,0,0,452.18,618c1.49.88,2.35.23,3.19-.8s.35-1.91-.5-2.73a39.62,39.62,0,0,0-6.08-4.28,47.56,47.56,0,0,1-8.51-6.91c.79-1.06,1.34-3.05,2.86-2.48,2.69,1,5.7,1.1,8.13,2.8,3.58,2.51,7,5.26,10.72,7.54a157.48,157.48,0,0,1,15.11,9.82C479.29,622.61,481.57,624.53,484.71,623ZM340.3,744.65c-2.26-1-4.14-2.07-6.13-2.81-3.17-1.18-6.42-1.92-9.81-.91-.57.17-1.27.35-1.13,1.11s.78.61,1.29.67c1.62.2,3.24.43,4.87.57,4.93.44,9.62,1.39,13,5.53a13.62,13.62,0,0,0,1.26,1.26,1.49,1.49,0,0,0,2,.22c.78-.57.32-1.33,0-2a26,26,0,0,0-1.95-2.44c-2.16-3.26-4.33-6.55-8.06-8.51C337.24,739.71,339.41,741.57,340.3,744.65Zm60-48.44c-1.87-.12-3.07,1-4.52,1.3-5.37,1.22-10.73,2.48-16.3,2.21-.5,0-1.16-.14-1.21.64s.63.65,1.1.8a22,22,0,0,0,6.26.52c.46,0,1.21-.28,1.28.47.06.59-.58.81-1.09,1s-1.26.35-1.89.53c-.26.07-.58.14-.49.47a.85.85,0,0,0,.49.51c1.09.4,5.07-1.08,5.4-2.16.58-1.87,2-2.37,3.61-2.89C395.39,698.8,398.09,698.38,400.26,696.21ZM352.57,741c-.45-.38-.53-.49-.64-.53a3.27,3.27,0,0,0-.76-.2,10.87,10.87,0,0,1-7.58-4.12,26.06,26.06,0,0,0-2.22-2.24c-.45-.42-.91-1.16-1.61-.41s-.18,1.27.24,1.78a13.15,13.15,0,0,0,3.72,3.17C346.34,739.88,349,741.32,352.57,741Z"/><path class="e" d="M438,601a58.54,58.54,0,0,1-7.35-8.44c-.58-.85-1.31-1.93-2.67-1.72a2.24,2.24,0,0,0-2,1.3,3.48,3.48,0,0,0,.67,3.51,21.6,21.6,0,0,0,3.42,4c1.22,1,1.17,2.06,0,3.16-5.17,4.93-10.65,9.5-15.91,14.33-3.28,3-6.74,5.82-10,8.81-4,3.6-8.13,7-12.35,10.27-3.65,2.86-7.36,5.65-10.73,8.86a31.15,31.15,0,0,1-5.52,4.36c-2.7,1.58-3.68,4.36-5.3,6.68a28.32,28.32,0,0,1-5.44,5.65c-3.41,2.77-6.75,5.54-9.22,9.24a31.14,31.14,0,0,1-3.13,3.28c-1.95,2.12-4,4.19-5.92,6.3-3.1,3.35-6.74,6.19-10.13,9.29-1.4,1.28-2.73,2.66-4.09,4-2,2-4.2,3.78-6.19,5.75a53.09,53.09,0,0,0-9.7,13,13.8,13.8,0,0,1-2.88,3.93,25.13,25.13,0,0,0-6,8.89c-.78,1.85-1.74,3.8-3.87,4s-3.14-1.79-4.17-3.36a32.17,32.17,0,0,1-4.38-10.66c-1.39-6.29-4.89-11.37-9.58-15.71-2.45-2.26-2.23-3.16.88-4.48,2.7-1.15,5.68-1.56,8.06-3.56a6.49,6.49,0,0,0,1.9-2.4,17.25,17.25,0,0,1,7.95-8.88c3.19-1.84,5.21-4.88,7.43-7.72,3.75-4.77,7.12-9.82,10.92-14.56a98.6,98.6,0,0,1,11.25-11.59c4.32-3.88,9-7.39,13.1-11.55,3.28-3.32,5.81-7.21,8.5-11q2.55-3.59,5.43-6.93c2.69-3.12,5.47-6.16,7.95-9.45a42.4,42.4,0,0,1,3.71-4.3c2.71-2.71,5.15-5.68,8.28-8,1.68-1.27,2.95-3.29,4.52-4.87Q397.85,578,410.3,565.64c2.18-2.17,4.56-4.15,6.84-6.22,1.41,1,2,2.6,2.66,4.07,5.48,11.44,12.16,22.07,21,31.25,1,1,1.95,2,1.13,3.58S440.11,601.24,438,601Zm-99.68,56.69-.25.46.17,0,.09-.5.72-1.61c.3-.67.32-1.82,1.42-1.47.94.29.52,1.24.3,1.87a11.72,11.72,0,0,0,.29,7.71c.11.33.13.88.68.8s.51-.57.57-.93,0-1,.07-1.57c.49-4.29.47-8.63,1.36-12.89a41.69,41.69,0,0,1,2-5.76c.16-.43.34-1-.27-1.16s-.56.42-.7.76A37.66,37.66,0,0,0,342,651a1.93,1.93,0,0,1-1.36,1.76A3.53,3.53,0,0,0,338.35,657.68Zm-33.47,48.94c-2.74-4.72-7.07-7.14-11.05-10-.52-.36-1.13-.68-1.74,0s-.29,1.34.13,1.95a4.21,4.21,0,0,0,.68.72c3.7,3.27,5.25,7.5,5.71,12.31.2,2.13.14,4.33.86,6.39.14.39.09,1.05.74,1s.73-.49.83-1c.78-3.93.84-7.77-1.33-11.38-.88-1.47-2-2.88-1.85-5C300.57,702.77,302.41,704.87,304.88,706.62Zm1-5.43a12.37,12.37,0,0,0,1.55,1.24c.46.27,1.14.64,1.58,0s-.07-1-.45-1.36c-1.07-1.07-2.11-2.17-3.21-3.2a10.58,10.58,0,0,1-3.43-8.06,10.39,10.39,0,0,0-.18-1.75c-.06-.29-.12-.72-.55-.69s-.51.45-.48.88C301.05,693,302.15,697.39,305.86,701.19Z"/><path class="f" d="M715.13,268.06a38.78,38.78,0,0,0-13.39-9.61,15.68,15.68,0,0,0-5.89-1.25c-2.45-1.51-5-.58-7.54-.28-.66.08-1.57.33-1.69,1.07-.16,1,.89.85,1.5,1.1a3.54,3.54,0,0,1,.77.58c-1.83,1.41-4.36,1.67-5.87,3.61a2,2,0,0,0-2.21-.15c-1.26.53-2.51,1.08-3.74,1.68-2,1-2,1.06-.47,2.68l-2,1.92c-2.07-.72-2.19-.62-2.48,2a20.63,20.63,0,0,1-6.56,3.79c-1.87.78-3.69,1.63-5.47,2.59a2.55,2.55,0,0,1-.61-3.21,34.31,34.31,0,0,1,1.66-3.53c1-1.6.2-2.8-1.66-2.89-.63,0-1.29.45-1.88-.12.64-.66,1.33-1.27,1.92-2a110.32,110.32,0,0,1,14-14,73.14,73.14,0,0,1,12.09-6.77,37.35,37.35,0,0,0,5.69-3.76c.48-.34.85-.89,1.52-.39-.36,2.78-2.41,4.28-4.43,5.79-.73.54-1.75.93-.33,1.83-.94.84-2.19,1.12-3.23,1.78s-2.23,1.52-2.35,3.28c3.18-1.1,6.19-2.08,9.15-3.19.94-.35,1.16-1.17.42-2,1.75-1.74,3.92-1.09,6-1,2.27.11,4.5.72,6.8.57l.47.26,0-.18-.5-.09c-1.08-1.44-2.8-1.58-4.31-2.17-.46-.18-1.16-.19-1.22-.82-.08-.79.75-.88,1.23-1a38,38,0,0,1,5.1-1.37c2.83-.49,5.68-.8,8.53-1.17.56-.08,1.13-.24,1.19-.82.08-.74-.68-.69-1.13-.8-1.27-.3-2.58-.45-3.83-.8-.69-.19-1.8-.1-1.83-1.12,0-.79.88-1,1.51-1.37,1.06-.62,2.34-.9,3.12-2a28.68,28.68,0,0,1,12,.28,7.34,7.34,0,0,0,2.91,1.92,66.82,66.82,0,0,0,8.16,2.74c.66.21,1.54.29,1.4,1.3-.33,2.42,1.3,2.18,2.73,1.95,2.25-.35,4.42-1.15,6.74-1.13l1.79,1.85a3.36,3.36,0,0,0,2.06,1l8.38,2.12c1.2.31,1.77,1,.91,2.09-1.29,1.65,0,1.8,1.08,1.86,5.86.36,11.26,2.33,16.53,4.7.84.37,1.47.49,2.07-.28,2.19.61,3.61,2.26,4.92,3.93.67.86,1.36,1.71,2.07,2.54a4.14,4.14,0,0,1-.78.05c-.75-.12-1.76-.67-2.14.2s.69,1.46,1.34,1.88,1.57.88,1.53,2.13c-1-.21-1.92-.44-2.87-.61-.57-.1-1.3-.19-1.5.49s.19,1.1.86,1.34a12.19,12.19,0,0,1,1.4.7c4.72,2.47,9.2,5.21,11.88,10.1.44.8,1.13,1.7,2.38,1.3,3,6.9,4.69,14.18,6.44,21.44,1.67,6.94,3.11,13.95,4.62,20.93.24,1.08.29,2.2.49,3.3.32,1.71-.13,2.69-2.1,2.52s-2.16,1.35-2.37,2.72c-.53,3.63-1.16,7.23-2,10.82a61.13,61.13,0,0,1-12.41,25.95c-4.07,5-9,9.22-13.42,13.84a18.78,18.78,0,0,1-3.4,2.3,3,3,0,0,0-3.86-.69,8.72,8.72,0,0,1-3.16.88c-1.37.11-2-.45-2.09-1.89,0-1.11.59-2.16.19-3.27,1.91-3.92,3.6-8,7.52-10.45a5.49,5.49,0,0,0,1.84-2c1.72-3.17,4.3-5.69,6.55-8.46a3.32,3.32,0,0,1,1,2.28c.06.33.19.66.57.7s.45-.39.63-.64a10.73,10.73,0,0,0,1.54-5c.07-.48-.18-1.21.53-1.32,2-.32,1.76-1.89,1.69-3.2-.31-5.52-1.23-10.84-5.61-14.83a1.57,1.57,0,0,1-.37-1.82,1.49,1.49,0,0,1,1.59-.91,8.85,8.85,0,0,1,3.3.45c.52.19,1.26.38,1.55-.34s-.35-.94-.84-1.31a30.2,30.2,0,0,0-10.06-4.79c-.7-.22-1.44-.49-1.46-1.38s.71-1.18,1.42-1.41c1.06-.36,2.11-.74,3.19-1,1.57-.44,1.52-1.07.44-2.12-1.74-1.69-3.81-3-5.44-4.81-3.06-3.43-7-5.73-11-7.86-5.38-2.87-11-5.17-16.35-8.2a14.94,14.94,0,0,1-6.31-6c-.26-.5-.69-1.12-.2-1.65s1-.05,1.44.17a25.9,25.9,0,0,0,6.42,1.85c1.55.35,3.28,1,4.9-.15-.32-.69-1-.74-1.45-1-2.1-1.33-4.39-2.36-6.16-4.16-.41-.41-.94-.77-.69-1.5s.86-.45,1.34-.54l7.45-1.44a5.41,5.41,0,0,0-3.7-1.84,132.21,132.21,0,0,1-13.76-3.4c-.54-.17-1-.34-1.12-.93s.4-.79.82-1,1.12-.45,1-1.05-.84-.55-1.33-.7a113.61,113.61,0,0,1-19.71-7.94A2.41,2.41,0,0,0,715.13,268.06Zm5.6-17.88c.92.76,2,.33,3,.4.73,0,1.66-.07,1.92.68.8,2.33,1.92,1.23,3.09.44.8-.55,1.66-1,2.47-1.55.43-.28,1-.58.88-1.18s-.75-.75-1.23-.78c-3.55-.22-7-.06-10.15,2h0Zm60.6,36.64c.39-1.4-.69-1.74-1.56-2.34s-1.77-1-1.52-2.08c.22-.91,1.3-.64,2-.88,1.17-.4,2.56,0,4-1.23-6.63-1.06-12.65-1.05-18.44,2.64a9.63,9.63,0,0,0,3.79.92c2.53.26,5.1.35,7.29,1.89-1.34.69-3.12.29-4.26,1.61a2.27,2.27,0,0,0,1.49.65,84.42,84.42,0,0,1,9.88,2.59c.46.15,1.09.67,1.42.15s-.13-1.28-.66-1.66C783.64,288.27,782.47,287.56,781.33,286.82Zm-17.59-19a3.4,3.4,0,0,0,2.5,1.77c1.89.53,3.77,1.13,5.64,1.74.45.15,1.12.15,1.15.87s-.73.85-1.25.95a13.11,13.11,0,0,0-3.85,1.42,1.44,1.44,0,0,0-.68,1.7c.15.73.76.57,1.27.62,1.89.16,3.77.35,5.66.5.86.07,2,.19,2.1-.9.21-1.83,1.3-1.42,2.39-1.2.71.13,1.4.35,2.12.43.56.06,1.27.3,1.63-.3s-.23-1.18-.67-1.65a21.91,21.91,0,0,0-12.45-6.56A7.88,7.88,0,0,0,763.74,267.8Zm13.8,29.65c5.82,3.22,11.42,6.31,17,9.38,1.09.59,2.46,2.17,3.4,1,1.33-1.72-1.07-2.19-1.94-2.89-3.61-2.91-7.3-5.72-11.72-7.37C782.17,296.74,780,296.28,777.54,297.45Zm-4.93-34.51a1.79,1.79,0,0,0-1.18-1.57,25.86,25.86,0,0,0-7.26-2.37,15.84,15.84,0,0,0-8.13.62c-.44.16-.84.34-.92.9a.75.75,0,0,0,.54.91c3.24,1.06,6.26,2.73,9.62,3.43.42.09,1,.49,1.26,0s-.27-.94-.61-1.32-1.19-.94-.78-1.64,1.27-.28,2-.18C769,262,770.63,263,772.61,262.94Zm-38.56-1c-.34-.34-.45-.54-.62-.6a116.42,116.42,0,0,1-13.36-5.72,1,1,0,0,0-1.48.32c-1.33,1.47-.65,2.47.65,3.25a24,24,0,0,0,9,3.38A8.71,8.71,0,0,0,734.05,262Zm1.47-16.72c.28-.94-.23-1.34-.9-1.54-5.34-1.59-10.74-2.52-16.3-1.2-.54.13-1.44.08-1.43.73s.77,1.17,1.57,1.21l15.93.86A10.55,10.55,0,0,0,735.52,245.24Zm6.92,31c4.22,3.41,13.5,3.59,16.66.46A48.62,48.62,0,0,0,742.44,276.2Zm55.32,58a10.3,10.3,0,0,0,1.81,1.22c.43.15.66.79,1.32.46-1.34-3.08-3.24-5.62-6.42-7-.42-.18-.84-.51-1.26-.14s-.17.82.06,1.24a26.52,26.52,0,0,1,3.58,10.28c0,.39.1.89.56.91.73,0,.53-.62.53-1C797.91,338.32,797.83,336.5,797.76,334.22Zm-3.43-34.52c-.72-1.78-2.25-2.67-3.7-3.64a13.4,13.4,0,0,0-9.11-2.41c-.54.06-1.28.08-1.38.86s.34,1,.94,1c4.08.37,7.67,2.14,11.31,3.8A2.35,2.35,0,0,0,794.33,299.7Zm-23.28-41.05c-.74-3.9-8.16-6.91-11.79-6.38a1,1,0,0,0-.93.85.9.9,0,0,0,.7,1A103.93,103.93,0,0,1,771.05,258.65Zm31.77,58.91a13,13,0,0,0-8.4-5.26c-.8-.13-1.88-.76-2.3.22s.76,1.3,1.42,1.79c1.56,1.16,3.4,2,4.76,3.4.9,1,1.71,1.91,2.81.2C801.39,317.47,802,317.76,802.82,317.56Zm-63.68-48.85c-.32.91.24,1.55,1.08,1.85,2.84,1,5.7,1.94,8.57,2.86.57.18,1.24.18,1.54-.48s-.11-1.25-.74-1.58a28.87,28.87,0,0,0-9.26-3.07A1.18,1.18,0,0,0,739.14,268.71Zm-3.6-12.09c.94.23,1.82.48,2.71.65a17.32,17.32,0,0,0,10.69-1.59c.61-.28,1.4-.61,1.13-1.35s-1-.1-1.51,0c-1.62.23-3.23.48-4.84.76a46.23,46.23,0,0,1-7.06.29c-.44,0-1-.13-1.17.45A2.41,2.41,0,0,0,735.54,256.62Zm42.69,52c-3.92-5.16-9.2-7.35-12-5.18C770,305.3,773.87,306.84,778.23,308.59Zm-53.48-45.06a5.76,5.76,0,0,0,2.65,1.61,14.62,14.62,0,0,0,8.63,1.08c.39-.09.87-.16.84-.65s-.56-.4-.92-.46c-1.68-.25-3.36-.58-5.05-.71C728.91,264.23,727,263.45,724.75,263.53ZM801,295.64c-.61-4.54-4.15-8.14-7.95-8.36C795.72,290.11,798.69,292.57,801,295.64Zm-2.5,28.86,6.24,1C802.86,323.22,801.21,322.92,798.52,324.5Z"/><path class="g" d="M393.91,538.91l1.51-.32c1.68.16,3.36.39,5.05.47,2.11.09,2.44-.37,2.09-2.56.31-2.1,1.6-3.71,2.73-5.38,4.9-7.28,9.75-14.59,14.78-21.78,6.82-9.77,13.29-19.82,21-28.95A123.18,123.18,0,0,1,457.9,464.1c2.72-2.21,5-4.84,7.54-7.23,3.36-3.14,6.69-6.31,10-9.48,1.72-1.63,2.54-1.51,3.74.65a79,79,0,0,0,6.47,10.29,47,47,0,0,0,4.87,5.67c1.19,1.11,1.13,2.15-.16,3.09-3.24,2.34-6.49,4.65-9.74,7-1,.73-1.64.18-2.35-.55-2-2-3.23-1.78-4.24.93-3.45,9.26-9.07,17.07-15.72,24.25Q446,512,433.85,525.43C427,533,420.56,541,413.27,548.25a8,8,0,0,0-2.16,6.15c.05,3-.44,5.53-3.54,7.06-1,.51-1.46,2.13-2.37,3-4.74,4.75-9.34,9.64-14.33,14.14-1-.36-1.41.49-1.93,1-4.56,4.53-9.09,9.08-13.64,13.61-.6.59-1.14,1.64-2.25.72,1.92-1.9,2.74-4.57,4.6-6.51,1.8-.81,2.92-2.39,4.22-3.76.73-.76,1.34-1.53.36-2.52s-1.73-.36-2.49.37a53.54,53.54,0,0,0-8.86,11,21.48,21.48,0,0,0-3.55,9.85l-2.16,2.78c-1.14,0-1.41,1-1.94,1.73s-.74,1.35-1.66,1.07-1-1.19-.88-2a28.45,28.45,0,0,1,.62-3.29c.93-4,1.89-8,2.83-12.06l.42-.65a143.65,143.65,0,0,1,11.31-13.91c.68-.76,1.37-1.51.29-2.5s-1.66-.25-2.32.45a117.58,117.58,0,0,0-8.93,10.26C362.2,588,360,592,360.09,596.78l-1,2.25-1.66,1a10.07,10.07,0,0,1,0-4.88c.65-3.25.74-6.6,1.86-9.75,1.27-1.54,1.62-3.55,2.74-5.19,3.35-4.95,6.57-10,9.84-15,.58-.89,1-1.78-.15-2.53s-1.76.08-2.27.86c-4,6.22-8.58,12.12-12,18.75a1.48,1.48,0,0,1-1.53.3,66.44,66.44,0,0,1,12.55-26.92c2.23-2.89,5.31-4.85,8.2-7,1.07-.79,1.94-1.77,3-2.53,1.27-.09,2.5-.24,2.75-1.85l1.7-1A79.07,79.07,0,0,0,393.91,538.91Z"/><path class="g" d="M552.87,576.61c5.45-3,7.09-3.45,13.14-5.35a9.83,9.83,0,0,0,1.86-1c.93-1.53,3.48-1.24,3.48-3.08.07-1.28-2.84-1.28-3.16-1.94-1.39-.84,2.66-5.22,4.28-7.53a15,15,0,0,1,2.77-3.49c2.38-2.07,2.38-2.07,4.84-.08,4.71,3.82,9.48,7.53,15,10.13,2.57,1.21,2.7,2.27.86,4.48-.37.45-.82.85-1.23,1.27-2.7,1.58-4.58,4-6.59,6.33A239.56,239.56,0,0,1,565.75,599l-8.29,6.91-1.54,1.21c-3.37,2.26-.76.48-3.37,2.26l-11.67,7.08c-8.2,4.64-16.29,9.46-24.37,14.29-3.14,1.88-6.45,3.47-9.45,5.61a6,6,0,0,1-3.93,1c-1-.06-1.55.37-1.41,1.37,1,7.29-2.41,13.07-6.19,18.77a66.34,66.34,0,0,1-13.41,14.88c-4.51,3.65-9.95,6-15.45,8a22.38,22.38,0,0,1-7.35,1.7c-.48-.68-1.45-.29-2-.89a10.68,10.68,0,0,1,1.48-1c6.17-2.84,11.52-7,17.29-10.52.85-.51,1.78-1.11,1.06-2.33s-1.7-.59-2.52-.08c-2.58,1.57-5.15,3.15-7.68,4.79-5.46,3.55-10.92,7.06-17.58,7.94a3.82,3.82,0,0,0-1.2.62.39.39,0,0,0-.38,0,9.19,9.19,0,0,0-5.55.53l-1.16-.37-.6-1.42a35.43,35.43,0,0,0,14.42-5.49,118.89,118.89,0,0,0,10.6-8.51c.78-.67,1.79-1.41.8-2.61s-1.88-.25-2.66.38c-3.16,2.56-6.21,5.27-9.46,7.71-4.39,3.31-9.53,4.66-15.23,5.39,1.09-1.54,2.47-2.31,3.18-3.65a23.55,23.55,0,0,1,6.53-5.86,20,20,0,0,0,4.69-4.09,8.58,8.58,0,0,0,3.58-2c1.68-1.21,2.9-2.69,2.42-5q13.14-13.2,26.26-26.41a2.5,2.5,0,0,1,2.24-.92,3.77,3.77,0,0,0,3.31-.94c2.56-2.86,6.5-3.88,8.91-6.92,1.67-2.1,4.2-3.11,6.32-4.63,3-2.16,5.35-5,8.13-7.43"/><path class="g" d="M661.88,308.47a18.84,18.84,0,0,0,3.07,3c3.4,4,7.45,7.41,10.77,11.51a47.9,47.9,0,0,1,7.66,12.71c2.06,5.26.17,10.21-6,13.16-5.36,2.54-10.9,4.5-17,4.51C653.09,352,647.17,348,642,342.81a57.73,57.73,0,0,1-6.2-8.29c-.45-1.22-.93-2.43-1.36-3.66a17.14,17.14,0,0,1-.88-8.91,24.89,24.89,0,0,1,11-16.74c3.33-2.24,6.89-2.94,10.77-1A31.66,31.66,0,0,1,661.88,308.47ZM656.29,335a35.25,35.25,0,0,0,8.58,6.49c3.19,1.67,6.47,3.21,9.17,5.68,2.11,1.93,3,1.74,3.62-1a25.69,25.69,0,0,0-6-23.8,36.38,36.38,0,0,0-8.39-7.3,29.8,29.8,0,0,0-14.5-4.48c-1.55-.06-2.22.52-1.9,2.12.27,1.28.44,2.59.65,3.88C648.7,323.9,651.72,330.33,656.29,335Z"/><path class="g" d="M721.29,368l11.76,11.69a34.81,34.81,0,0,1,3.34,4.1c2.16,3.62,3.84,7.5,1.42,11.61a27.23,27.23,0,0,1-14.57,12.2,39.34,39.34,0,0,1-5.32,1.1l.05,0-.7-.08a.14.14,0,0,0-.23,0,45.07,45.07,0,0,1-7.24-1.8c-7.15-2.74-12.23-7.9-16.54-14-2.22-3.14-4.06-6.44-4.43-10.35-.15-1.56-.14-3.13-.2-4.69a105.24,105.24,0,0,1,2.73-10.47,12.41,12.41,0,0,1,13.54-9c3.22.32,5.61,2.37,8.26,3.8C716.09,363.75,718.39,366.33,721.29,368Zm-15.18,16.79c6.78,6.89,14.67,9.53,23.33,10.38,1.65.17,2.39-.67,2.23-2.41A31.33,31.33,0,0,0,727,378.73a34.18,34.18,0,0,0-6.53-7.2c-3.59-3.22-7.32-5.75-12.18-6.84a34.84,34.84,0,0,0-12.26-.1,2,2,0,0,0-2,1.38c-.27.93.33,1.45.84,2.06.9,1.09,2.05,1.87,2.72,3.28C700,376.34,702.44,381.41,706.11,384.82Z"/><path class="g" d="M575.38,469c1.88-5.19,4.41-9.85,6.56-14.69,1-2.27,1.91-4.59,3-6.83a20.49,20.49,0,0,0,1.2-14.76,32.56,32.56,0,0,1-1.08-9.37c.05-2.46.93-3.08,3.25-2.32a18.14,18.14,0,0,1,10.61,9.11,33.08,33.08,0,0,0,18.3,16.09,2.41,2.41,0,0,1,1.88,2.93c-.25,2.15,1,3.86,1.95,5.66,1.42,2.8.75,3.94-2.43,4.13a13.23,13.23,0,0,1-4.84-.75,27.67,27.67,0,0,0-24,2.79c-4.19,2.54-8.53,4.83-12.8,7.23C576.51,468.51,576,468.72,575.38,469Z"/><path class="h" d="M715.13,268.06a2.41,2.41,0,0,1,2.07.25,113.61,113.61,0,0,0,19.71,7.94c.49.15,1.2.14,1.33.7s-.5.82-1,1.05-.88.45-.82,1,.58.76,1.12.93a132.21,132.21,0,0,0,13.76,3.4,5.41,5.41,0,0,1,3.7,1.84l-7.45,1.44c-.48.09-1.1-.17-1.34.54s.28,1.09.69,1.5c1.77,1.8,4.06,2.83,6.16,4.16.47.3,1.13.35,1.45,1-1.62,1.18-3.35.5-4.9.15a25.9,25.9,0,0,1-6.42-1.85c-.42-.22-1-.63-1.44-.17s-.06,1.15.2,1.65a14.94,14.94,0,0,0,6.31,6c5.3,3,11,5.33,16.35,8.2,4,2.13,7.89,4.43,11,7.86,1.63,1.83,3.7,3.12,5.44,4.81,1.08,1,1.13,1.68-.44,2.12-1.08.3-2.13.68-3.19,1-.71.23-1.43.51-1.42,1.41s.76,1.16,1.46,1.38a30.2,30.2,0,0,1,10.06,4.79c.49.37,1.14.6.84,1.31s-1,.53-1.55.34a8.85,8.85,0,0,0-3.3-.45,1.49,1.49,0,0,0-1.59.91,1.57,1.57,0,0,0,.37,1.82c4.38,4,5.3,9.31,5.61,14.83.07,1.31.35,2.88-1.69,3.2-.71.11-.46.84-.53,1.32a10.73,10.73,0,0,1-1.54,5c-.18.25-.19.7-.63.64s-.51-.37-.57-.7a3.32,3.32,0,0,0-1-2.28A32.89,32.89,0,0,0,785.81,347c.59-2.9-1-5.66-2.66-8s-3.61-4.46-5.44-6.68a18.26,18.26,0,0,0-5.87-5.86A108.55,108.55,0,0,1,757.25,314c-2.65-2.66-5.88-4.53-8.78-6.85a25.71,25.71,0,0,1-5.94-7.15,7,7,0,0,0-1.42-2.1c0-.87-.69-1.22-1.17-1.71q-6.11-6.13-12.24-12.24c-4.4-4.22-7.78-9.34-12-13.72A2.16,2.16,0,0,1,715.13,268.06Z"/><path class="i" d="M340.62,797.3a18.16,18.16,0,0,1,2.28,10.61,7.19,7.19,0,0,1-3.18,5.81l-4.1-2.33c-8.64-4.94-16.72-10.58-23-18.48-.55-.7-1.17-1.32-2.17-.71-.45-.63-.91-1.25-1.37-1.88.62-.77.25-1.51-.17-2.17-.55-.88-1.18-1.71-1.8-2.54-1.54-2.08-3.41-4-2.57-7a11.38,11.38,0,0,1,7.21-1.3,32.78,32.78,0,0,1,13.31,5.55c1.85,1.25,3.07,3.52,5.63,3.68q4,4,8.06,8A2.22,2.22,0,0,0,340.62,797.3Z"/><path class="i" d="M228.64,702.64a6.29,6.29,0,0,1,5.76-3.37,21.76,21.76,0,0,1,10.73,2.38c0,1.25.8,1.59,1.88,1.57l8.69,8.63c0,1.11.7,1.77,1.36,2.52a30.81,30.81,0,0,1,7.85,16.68,8,8,0,0,1-2.58,7.13,1,1,0,0,1-1.52.19c-7.59-5-14.66-10.54-20.48-17.63A78.83,78.83,0,0,1,228.64,702.64Z"/><path class="j" d="M228.64,702.64a78.83,78.83,0,0,0,11.69,18.1c5.82,7.09,12.89,12.64,20.48,17.63a1,1,0,0,0,1.52-.19,8,8,0,0,0,2.58-7.13,30.81,30.81,0,0,0-7.85-16.68c-.66-.75-1.39-1.41-1.36-2.52h1.68c2.33,2.08,3.55,5,5.6,7.3.72.81,1.54,1.26,2.59.65s.81-1.61.44-2.57a32.58,32.58,0,0,0-10.07-13.33c.53-.79,1.36-.5,2.09-.56s1.55.23,2.12-.51l1.41-.14.55-.05h0c1.54,1.48,5.22,2.05,7.3,1.14,2.76-1.21,4-1,6.17,1.16.28.27.54.57.83.83s.78.93,1.3.39-.09-.84-.39-1.17-.69-1-.27-1.58a1.54,1.54,0,0,1,1.76-.57,5.51,5.51,0,0,1,2.91,1.51c1.73,1.79,3.55,3.5,5.33,5.25a8.75,8.75,0,0,1,2.8,5.47,24.08,24.08,0,0,0,1.52,4.65c.23.63.64,1.32.23,2a3.25,3.25,0,0,0-4.15,1.19c-1,1.33-2.06,1.17-3.18.16a12.65,12.65,0,0,0-1-.9c-1.1-.82-2-.94-2.47.68a2.49,2.49,0,0,1-2.45,2.15,3.08,3.08,0,0,1-3.16-1.89,1.27,1.27,0,0,0-2.09-.62c-1.83,1.36-3.38.89-5-.43a3.52,3.52,0,0,0-1.6-.71c-1.54-.3-2.17.5-1.65,2a42.26,42.26,0,0,1,1.4,4.3c1.07,4.63.84,9-2.73,12.65-3-.57-5.37-2.31-7.81-3.89a88.88,88.88,0,0,1-18.53-15.68,63,63,0,0,1-9.49-14.57A2.45,2.45,0,0,1,228.64,702.64Z"/><path class="k" d="M745.3,410.49a6,6,0,0,1,3.17-2.21,8.5,8.5,0,0,0,2.86-1.68c3.23-2.53,6.84-1.64,8.48,2.08a8.28,8.28,0,0,1-1.1,8.91c-7.27,9.19-16,16.38-27.62,19.43a32.9,32.9,0,0,1-18.27,0c-.81-.24-1.78-.41-2-1.4s.87-1.29,1.54-1.74c1.5-1,2.89-2.26,4.75-2.65,2.73,3.6,6.64,4.45,9.27,1.83-2.83-.24-6,.45-7.32-3,2.26-2.49,5.48-3.48,8.23-5.18a42.11,42.11,0,0,0,9.87-7.93,14.07,14.07,0,0,1,2.82-2.1c.65.29,1.29,0,1.94,0s1.47-.48,2,.32,0,1.4-.3,2a21.24,21.24,0,0,1-5.46,7.63c-.63.55-1.5,1.05-1.53,2.08.68.31,1.09-.05,1.55-.3,3.89-2.09,6.29-5.43,8-9.38,1.85-4.19,2-4.25,6.49-4,.72,0,1.44,0,2.17,0s1.58.17,1.7-.84-.77-1.23-1.55-1.41a19.94,19.94,0,0,0-7.06-.11A3.91,3.91,0,0,1,745.3,410.49Z"/><path class="j" d="M330.71,786.54c-2.56-.16-3.78-2.43-5.63-3.68a32.78,32.78,0,0,0-13.31-5.55,11.38,11.38,0,0,0-7.21,1.3l-.64-.62-.43-.38c2.65-2.58,5.93-2.45,9.23-2a21.51,21.51,0,0,1,5.48,1.59c.68.28,1.38.48,2-.18a1.77,1.77,0,0,0,.22-2.19,12.08,12.08,0,0,0-.85-1.3c-.8-1.22-1.29-2.36-.2-3.77.81-1.05.75-2-.68-2.88-2.24-1.34-2.23-4.2-.16-5.29,2.45-1.28,2.47-1.37.6-3.57-.67-.78-1.44-1.69-.33-2.51,1.7-1.25,2-2.92,2-4.82,4.26,1,8.6,1.89,12.29,4.37a19.24,19.24,0,0,1,7.24,8c-1.06,1-1.93,2.28-3.94,2.26,1.74,1.49,2.25,3.45,3.68,4.73a4.91,4.91,0,0,1,.31,3.07c-2.49,1.35-2.61,1.69-1.19,3.35.25,3.11.52,6.21.75,9.32.07.91.16,1.86-.85,2.41a8,8,0,0,1-.72-.93,25.91,25.91,0,0,0-13.81-11.07c-.8-.3-1.54-.59-2.07.3a1.83,1.83,0,0,0,.2,2.51,10.73,10.73,0,0,0,1.67,1.35,27.52,27.52,0,0,1,7,5.64Z"/><path class="b" d="M634.91,450.36a4,4,0,0,1,.68,4.39c-1.38,3.8-3.82,7-5.8,10.45s-5.45,5.37-8.66,7.42c-4.56,2.91-9,6-14.06,8.15-2.06.88-2.82.34-2.72-1.88.23-5.38.86-10.74.34-16.15-.4-4.23-.3-4.23,3.92-3.33A54.57,54.57,0,0,0,619.12,461c5.13.07,9.09-2.63,13.12-5.19a1.09,1.09,0,0,0,.21-1.73c-.55-.63-1.14-.47-1.72,0a7.07,7.07,0,0,1-1.39,1.07c-1.89,1-2.82.63-3.75-1.28-2.11-4.32-1.78-4.85,3.07-4.81a31.17,31.17,0,0,1,3.35.14A4.86,4.86,0,0,1,634.91,450.36Z"/><path class="b" d="M588.84,412.16c-.44-1.46-1.31-1.31-2.16-.46a10.09,10.09,0,0,0-2.78,4.89,30.38,30.38,0,0,0-.18,15.78,22.06,22.06,0,0,1,.93,4.83c.06,1.23-.45,1.89-1.75,1.72-6.38-.82-12.74-.17-19.1.16-.7,0-1.32,0-1.71-.68s.15-1,.41-1.55c3.58-6.92,8-13.32,11.66-20.21a6.55,6.55,0,0,1,2.49-2.73c3.53-2,7-4.2,10.74-5.69,4.38-1.72,5.84-.62,5.76,4.23C591.62,413.8,590.19,413.55,588.84,412.16Z"/><path class="l" d="M438,601c2.08.25,3.07-1.1,3.89-2.67s-.12-2.53-1.13-3.58c-8.83-9.18-15.51-19.81-21-31.25-.7-1.47-1.25-3-2.66-4.07a5.64,5.64,0,0,1,.77-1.36c.88-.89,1.41-2.34,3-2.17s1.25,1.78,1.69,2.76c3.51,7.91,7.37,15.62,12.5,22.62,3,4.06,6.58,7.62,9.69,11.54,3.77,4.74,8.84,7.67,13.48,11.2,4.46,3.39,9,6.71,13.5,10,2.84,2.07,6.15,3.19,9.37,4.48,1,.39,1.95.78,2.9,1.21,2,.91,2.14,1.58.63,3.33-3.14,1.49-5.42-.43-7.61-2.13A157.48,157.48,0,0,0,462,611.09c-3.75-2.28-7.14-5-10.72-7.54-2.43-1.7-5.44-1.78-8.13-2.8-1.52-.57-2.07,1.42-2.86,2.48A2,2,0,0,1,438,601Z"/><path class="i" d="M263.52,740.34c3.57-3.64,3.8-8,2.73-12.65a42.26,42.26,0,0,0-1.4-4.3c-.52-1.48.11-2.28,1.65-2a3.52,3.52,0,0,1,1.6.71c1.58,1.32,3.13,1.79,5,.43a1.27,1.27,0,0,1,2.09.62,3.08,3.08,0,0,0,3.16,1.89,2.49,2.49,0,0,0,2.45-2.15c.46-1.62,1.37-1.5,2.47-.68a12.65,12.65,0,0,1,1,.9c1.12,1,2.2,1.17,3.18-.16a3.25,3.25,0,0,1,4.15-1.19,18.84,18.84,0,0,1,2.75,5.71c-1.35,1-2.37,2.44-3.85,3.35a32.71,32.71,0,0,1-15.7,5.2c-1.28.07-2.8.16-3.17,1.79-.52,2.32-2.12,2.78-4.14,2.64a2.88,2.88,0,0,0-2.84.93Z"/><path class="i" d="M320.8,750.65c0,1.9-.31,3.57-2,4.82-1.11.82-.34,1.73.33,2.51,1.87,2.2,1.85,2.29-.6,3.57-2.07,1.09-2.08,4,.16,5.29,1.43.85,1.49,1.83.68,2.88-1.09,1.41-.6,2.55.2,3.77a12.08,12.08,0,0,1,.85,1.3,1.77,1.77,0,0,1-.22,2.19c-.61.66-1.31.46-2,.18a21.51,21.51,0,0,0-5.48-1.59c-3.3-.41-6.58-.54-9.23,2l-.34.11a6.12,6.12,0,0,1-1.47-4.56,1.73,1.73,0,0,1,1.37-1.89c2.61-.61,3.25-2.6,3.33-4.92.27-7.26,3.32-13.26,8.23-18.44A19.1,19.1,0,0,1,320.8,750.65Z"/><path class="b" d="M314.61,747.91c-4.91,5.18-8,11.18-8.23,18.44-.08,2.32-.72,4.31-3.33,4.92a1.73,1.73,0,0,0-1.37,1.89,6.12,6.12,0,0,0,1.47,4.56c-1.51,1.45-1.87,1.4-2.82-.42-2.42-4.66-4.4-9.51-6.42-14.34a5.25,5.25,0,0,1,.8-6c3.71-4.58,8.26-8.27,12.53-12.24a2.32,2.32,0,0,1,2.95-.08C311.7,745.68,313.14,746.82,314.61,747.91Z"/><path class="b" d="M264.65,741.4a2.88,2.88,0,0,1,2.84-.93c2,.14,3.62-.32,4.14-2.64.37-1.63,1.89-1.72,3.17-1.79a32.71,32.71,0,0,0,15.7-5.2c1.48-.91,2.5-2.32,3.85-3.35.89,1.13,1.8,2.25,2.68,3.39a3.74,3.74,0,0,1-.23,5.19c-4,4.08-8.08,8.09-12.11,12.15a2.63,2.63,0,0,1-2.54.74,72.69,72.69,0,0,1-16.84-6.84C265,742,264.87,741.64,264.65,741.4Z"/><path class="g" d="M610.13,323.91a2.37,2.37,0,0,1,0,2.92c-.65,1-1.27,2-1.82,3-.39.72-.72,1.56-1.66,1.39a2.16,2.16,0,0,1-1.67-2,44.89,44.89,0,0,1-.65-13.73c.94-7.79,4.52-14.41,9.11-20.6,3.23-4.34,6.67-8.47,11.35-11.33,3-1.83,6.09-2.75,9.41-.67s3.92,5.48,1,8.06c-1.58,1.37-1.6,3.33-2.64,4.85-1.21-.93-.93-2.25-.84-3.46a15.5,15.5,0,0,0-.34-5.47c-.24-.81-.59-1.53-1.59-1.38s-.77.9-.81,1.55a11.58,11.58,0,0,1-.17,1.16,1.13,1.13,0,0,0-.93.09c-4.59,1.8-8,5.08-10.83,9-4,5.45-6.18,11.79-8.63,18C606.78,319.21,607.16,321,610.13,323.91Z"/><path class="k" d="M610.13,323.91c-3-2.93-3.35-4.7-1.8-8.62,2.45-6.2,4.65-12.54,8.63-18,2.83-3.88,6.24-7.16,10.83-9a1.13,1.13,0,0,1,.93-.09c1,4.62.5,5.66-3.6,7.59a26.51,26.51,0,0,0-5.9,3.53,14.91,14.91,0,0,0-3.65,4.83c-.23.44-.6,1,0,1.39s.86-.37,1.21-.71a1.83,1.83,0,0,0,.24-.31c1.94-3.13,5.06-4.68,8.22-6.18a1.71,1.71,0,0,1,1.87-.06c.67.5.37,1.15.32,1.81-.15,1.9-1.39,3.21-2.43,4.63a75,75,0,0,0-10.55,15A8.24,8.24,0,0,1,610.13,323.91Z"/><path class="f" d="M708.14,353.74A5,5,0,0,0,709,353c1.7-2.54,2-2.69,4.9-1.66,4.68,1.66,8.46,4.71,12.06,8a70.94,70.94,0,0,1,16.42,22.41c.54,1.14,1.17,2.3-.09,3.39-1.5-2.27-3.42-4.23-4.64-6.72s-3.49-4.18-5.56-6-4-3.67-6-5.2c-4.33-3.2-7.41-7.73-12-10.62C712.24,355.38,709.8,355.36,708.14,353.74Z"/><path class="i" d="M250.93,736.12c2.1.24,3.3,2,4.9,3,7.22,4.71,15.15,7.94,23.06,11.21.77.32,2.12.36,1.79,1.64s-1.67,1-2.66.79a92.89,92.89,0,0,1-27.55-12c-10-6.52-17.75-15.24-24.38-25a2.29,2.29,0,0,1-.61-1.59c.92-.69,1.42.07,1.69.67,2.74,5.93,7.54,10.15,12,14.67,2.92,2.95,6.47,5.07,9.82,7.45C249.82,737.5,250.8,737.64,250.93,736.12Z"/><path class="i" d="M333,818.93c-3.42-.39-5.95-2.6-8.62-4.39-17.8-11.95-29.09-28.53-34.66-49.13a17.74,17.74,0,0,1-.42-1.92c-.11-.78-.28-1.64.79-1.93s1.27.57,1.55,1.32A179.29,179.29,0,0,0,299,779.56c1.2,2.4,3,4.41,4.05,6.91.15.36.24.75.36,1.12a3.11,3.11,0,0,0,.24,3.51,65.64,65.64,0,0,0,5.33,7.74,106.85,106.85,0,0,0,14.06,13.67c2.71,2.24,6.06,3.34,9,5.2C332.52,818,333.23,818.09,333,818.93Z"/><path class="l" d="M717,408.65a.14.14,0,0,1,.23,0l.7.08-.05,0c.88,1.19,2.13.87,3.26.66a26,26,0,0,0,13.72-7.54c2.3-2.29,4.45-4.75,5.08-8.2.49-2.66-.32-5-1.1-7.46A3.94,3.94,0,0,1,742,388.7l.26.27a.8.8,0,0,0,.3.83l.29,1.44a.72.72,0,0,0,.25.82h0c-.17.2-.42.37-.5.6-2.93,8.88-9.73,13.85-17.88,17.19-7.75,3.18-15,1.21-21.84-3.06a37.77,37.77,0,0,1-16.28-20.63c-.49-1.46-.8-3,.64-4.16h0a31.67,31.67,0,0,1,2.12,6.12,11.84,11.84,0,0,0,1.49,3.62,58,58,0,0,0,8.07,9.83c4.22,4.43,9.51,6.56,15.29,7.84A2.65,2.65,0,0,0,717,408.65Z"/><path class="h" d="M704.81,248.22c-2.3.15-4.53-.46-6.8-.57-2-.1-4.22-.75-6,1l-4,.17c-1.42-.9-.4-1.29.33-1.83,2-1.51,4.07-3,4.43-5.79a1.69,1.69,0,0,1,2.52-.38c1.38.84,2.61.91,4-.76,1.08-1.26,3.28-1.63,4.87-2.63a12.37,12.37,0,0,1,5.72-1.86c1.17-.08,1.91-1.65,3.23-.78-.78,1.06-2.06,1.34-3.12,2-.63.36-1.53.58-1.51,1.37,0,1,1.14.93,1.83,1.12,1.25.35,2.56.5,3.83.8.45.11,1.21.06,1.13.8-.06.58-.63.74-1.19.82-2.85.37-5.7.68-8.53,1.17a38,38,0,0,0-5.1,1.37c-.48.15-1.31.24-1.23,1,.06.63.76.64,1.22.82,1.51.59,3.23.73,4.31,2.17Z"/><path class="l" d="M635.81,334.52a57.73,57.73,0,0,0,6.2,8.29c5.16,5.22,11.08,9.14,18.41,10.6.09,1.32,1.16,1,1.91,1.06s1.87-.16,2.54.72c-4.52,1.61-8.81.5-13-1.27-3.52-1.5-6.39-4-9.34-6.38a33.92,33.92,0,0,1-11.91-19.74c-.82-3.81-1-7.71,2.08-10.88,1.07,1.88-.28,3.54-.52,5.29-.7,5.05.85,9.45,3.4,14.08Z"/><path class="h" d="M766,378.1c.4,1.11-.22,2.16-.19,3.27.05,1.44.72,2,2.09,1.89a8.72,8.72,0,0,0,3.16-.88,3,3,0,0,1,3.86.69c-2.31,2.64-5.39,4.3-8.07,6.43-3.33,2.63-7.31,4.35-10.23,7.48-1,1.06-2.35,1.39-3.45,2.22a1,1,0,0,1-1.54-.33,1,1,0,0,1,.07-1.43c.63-.67,1.3-1.3,1.93-2,1.28-1.36,2.67-2.51,3.22-4.55.35-1.31,2-2.22,2.81-3.45,1.76-2.58,3.38-5.26,5.09-7.88A14.72,14.72,0,0,1,766,378.1Z"/><path class="h" d="M657.63,268.05c.59.57,1.25.09,1.88.12,1.86.09,2.63,1.29,1.66,2.89a34.31,34.31,0,0,0-1.66,3.53,2.55,2.55,0,0,0,.61,3.21c-4.75,3.44-9.89,6.35-14.23,10.34-.48.44-1,1.07-1.65.39a1,1,0,0,1,.07-1.57c2.91-2.29,3.75-5.92,5.75-8.81,1.24-1.78,2.93-3.12,4.15-4.93,1-1.5,1.06-3.59,2.81-4.62Z"/><path class="m" d="M333,818.93c.22-.84-.49-.92-1-1.22-2.93-1.86-6.28-3-9-5.2A106.85,106.85,0,0,1,309,798.84a65.64,65.64,0,0,1-5.33-7.74,3.11,3.11,0,0,1-.24-3.51c2.8,2.55,4.6,5.88,6.92,8.8A69.37,69.37,0,0,0,334.1,816c.84.42,2.43.44,2,1.9S334.32,819.4,333,818.93Z"/><path class="h" d="M442.16,672.58c-.71,1.34-2.09,2.11-3.18,3.65,5.7-.73,10.84-2.08,15.23-5.39,3.25-2.44,6.3-5.15,9.46-7.71.78-.63,1.63-1.64,2.66-.38s0,1.94-.8,2.61a118.89,118.89,0,0,1-10.6,8.51,35.43,35.43,0,0,1-14.42,5.49c-.64-.58-1.49-.2-2.2-.49-2.16-2.19-2.11-2.74.43-4.41C439.83,673.74,440.55,672.35,442.16,672.58Z"/><path class="j" d="M601.54,481.16A7.72,7.72,0,0,1,600,476a31.78,31.78,0,0,0-.73-6.6c-.56-2.62-1.18-3.25-3.83-3.67a35.65,35.65,0,0,0-3.7-.37,3.65,3.65,0,0,1-2.51-.93c3-3.44,7.15-4.07,11.23-4.95a1.52,1.52,0,0,1,2,1.39c0,.13.08.26.09.38A67,67,0,0,1,601.54,481.16Z"/><path class="j" d="M578.86,454.07a3.46,3.46,0,0,1-.73-1.79,3.13,3.13,0,0,0-.28-1.14c-1.24-1.83-3.16-3.3-2.51-6,.14-.61-1.17-.85-2-.95-3.25-.38-6.49-.76-9.74-1.12a2.93,2.93,0,0,1-2.4-1.11,48.54,48.54,0,0,1,12.25-1.15,68.67,68.67,0,0,1,8.24.23c1.42.18,2.39,1,2,2.31C582.48,447.08,581.74,451.06,578.86,454.07Zm.81-9.21a1,1,0,0,0-1.4-.19c-.3.22.24,3.52.6,3.82a.57.57,0,0,0,.85,0A3.16,3.16,0,0,0,579.67,444.86Z"/><path class="h" d="M360.09,596.78c-.07-4.8,2.11-8.76,4.82-12.45a117.58,117.58,0,0,1,8.93-10.26c.66-.7,1.32-1.37,2.32-.45s.39,1.74-.29,2.5A143.65,143.65,0,0,0,364.56,590a1.17,1.17,0,0,0-1.85.32,2.39,2.39,0,0,0-.43,2.82c1.16-.55.36-2.36,1.86-2.49-.94,4-1.9,8-2.83,12.06a28.45,28.45,0,0,0-.62,3.29c-.09.76-.13,1.66.88,2s1.24-.49,1.66-1.07.8-1.71,1.94-1.73a4.4,4.4,0,0,1-1.57,3.25c-.82.77-1.77,1.36-2.81.94s-.94-1.51-1-2.39c-.28-2.66.5-5.19,1.06-7.75a12.72,12.72,0,0,0,.4-1.91C361.28,596.36,360.74,596.39,360.09,596.78Z"/><path class="n" d="M779.92,255.2c-.6.77-1.23.65-2.07.28-5.27-2.37-10.67-4.34-16.53-4.7-1.13-.06-2.37-.21-1.08-1.86.86-1.11.29-1.78-.91-2.09L751,244.71a3.36,3.36,0,0,1-2.06-1,8.7,8.7,0,0,1,5-.57A48.23,48.23,0,0,1,777.18,253,11.42,11.42,0,0,1,779.92,255.2Z"/><path class="m" d="M250.93,736.12c-.13,1.52-1.11,1.38-1.93.79-3.35-2.38-6.9-4.5-9.82-7.45-4.47-4.52-9.27-8.74-12-14.67-.27-.6-.77-1.36-1.69-.67-.63-2.23-2.68-3.89-2.53-6.43a2.23,2.23,0,0,1,2.65-.83,60.28,60.28,0,0,0,15.11,20.71C244,730.54,247.52,733.28,250.93,736.12Z"/><path class="h" d="M448.2,680.61a3.82,3.82,0,0,1,1.2-.62c6.66-.88,12.12-4.39,17.58-7.94,2.53-1.64,5.1-3.22,7.68-4.79.82-.51,1.75-1.21,2.52.08s-.21,1.82-1.06,2.33c-5.77,3.49-11.12,7.68-17.29,10.52a10.68,10.68,0,0,0-1.48,1l-5.12.75a3.13,3.13,0,0,0-2.58,1.43c-.5.4-.94.49-1.15-.27A4.88,4.88,0,0,1,448.2,680.61Z"/><path class="a" d="M664.87,355.19c-.67-.88-1.64-.62-2.54-.72s-1.82.26-1.91-1.06c6.05,0,11.59-2,17-4.51,6.18-2.95,8.07-7.9,6-13.16A47.9,47.9,0,0,0,675.72,323c-3.32-4.1-7.37-7.5-10.77-11.51.72-.43,1.08.16,1.49.55.8.78,1.63,1.54,2.36,2.38,3.36,3.9,7.64,6.78,11.37,10.26.5.47,1.23.84,1.17,1.72-1,1.17-.62,2.31.13,3.4.58.86,1.32,1.63,1.85,2.52,3.09,5.12,3.15,10.07-.4,14.21-3.42,4-8,6-13.17,6.8A5.54,5.54,0,0,0,666,355.2Z"/><path class="i" d="M331.37,785.91a27.52,27.52,0,0,0-7-5.64,10.73,10.73,0,0,1-1.67-1.35,1.83,1.83,0,0,1-.2-2.51c.53-.89,1.27-.6,2.07-.3a25.91,25.91,0,0,1,13.81,11.07,8,8,0,0,0,.72.93c.33,1.78.65,3.56,1.07,5.85Z"/><path class="i" d="M255.94,703.91A32.58,32.58,0,0,1,266,717.24c.37,1,.73,1.9-.44,2.57s-1.87.16-2.59-.65c-2.05-2.29-3.27-5.22-5.6-7.3a48.82,48.82,0,0,0-7.13-7.8c-.57-.55-1.2-1-1-2a15.74,15.74,0,0,0,5.32.78C255,703.29,255.25,703.88,255.94,703.91Z"/><path class="a" d="M721.29,368c-2.9-1.7-5.2-4.28-8.13-5.85-2.65-1.43-5-3.48-8.26-3.8a12.41,12.41,0,0,0-13.54,9,105.24,105.24,0,0,0-2.73,10.47l-.86.84-1.11-1.11a1.11,1.11,0,0,1,0-1.69c1.89-1.89,2-4.23,1.67-6.69.56-1.76.56-3.77,2.24-5,.93-1,1.84-2,2.68-3.09,2.84-3.73,7.55-6.69,12.76-3.36a1.46,1.46,0,0,0,1.11.26,2.91,2.91,0,0,1,3.33,1.05,7.53,7.53,0,0,0,3.87,2.09c.55,1,1,2.1,2.5,1.94l3.34,3.34C720.56,366.9,721.35,367.18,721.29,368Z"/><path class="f" d="M625,304.77c1-1.42,2.28-2.73,2.43-4.63,0-.66.35-1.31-.32-1.81a1.71,1.71,0,0,0-1.87.06c-3.16,1.5-6.28,3.05-8.22,6.18a1.83,1.83,0,0,1-.24.31c-.35.34-.57,1.07-1.21.71s-.26-.95,0-1.39a14.91,14.91,0,0,1,3.65-4.83,26.51,26.51,0,0,1,5.9-3.53c4.1-1.93,4.57-3,3.6-7.59a11.58,11.58,0,0,0,.17-1.16c0-.65-.11-1.42.81-1.55s1.35.57,1.59,1.38a15.5,15.5,0,0,1,.34,5.47c-.09,1.21-.37,2.53.84,3.46-2.1,2.48-3.54,5.46-5.92,7.72C626.08,304,625.73,304.62,625,304.77Z"/><path class="b" d="M310.47,792.2c1-.61,1.62,0,2.17.71,6.26,7.9,14.34,13.54,23,18.48l4.1,2.33a2,2,0,0,1-2.75.71A47.85,47.85,0,0,1,324,807c-4.53-3.53-7.89-8.18-12-12.07A7.4,7.4,0,0,1,310.47,792.2Z"/><path class="h" d="M357.48,582.24c3.41-6.63,7.95-12.53,12-18.75.51-.78,1.18-1.55,2.27-.86s.73,1.64.15,2.53c-3.27,5-6.49,10.05-9.84,15-1.12,1.64-1.47,3.65-2.74,5.19a1.15,1.15,0,0,1-.26-.9c.17-1.75-.63-.93-1.28-.47C357.68,583.4,357.58,582.82,357.48,582.24Z"/><path class="f" d="M745.3,410.49a3.91,3.91,0,0,0,2.67.32,19.94,19.94,0,0,1,7.06.11c.78.18,1.67.35,1.55,1.41s-1,.86-1.7.84-1.45,0-2.17,0c-4.48-.2-4.64-.14-6.49,4-1.75,4-4.15,7.29-8,9.38-.46.25-.87.61-1.55.3,0-1,.9-1.53,1.53-2.08a21.24,21.24,0,0,0,5.46-7.63c.29-.64.76-1.31.3-2s-1.29-.35-2-.32-1.29.31-1.94,0C741.66,413.25,742.6,410.79,745.3,410.49Z"/><path class="n" d="M747.1,241.84c-2.32,0-4.49.78-6.74,1.13-1.43.23-3.06.47-2.73-1.95.14-1-.74-1.09-1.4-1.3a66.82,66.82,0,0,1-8.16-2.74,7.34,7.34,0,0,1-2.91-1.92c2.33-.54,4.55.09,6.76.63a98,98,0,0,0,15,2.81c.75.06,1.66-.11,1.86,1,.17.93-.35,1.45-1.16,1.8C747.42,241.37,747.27,241.64,747.1,241.84Z"/><path class="n" d="M799,279.25c-1.25.4-1.94-.5-2.38-1.3-2.68-4.89-7.16-7.63-11.88-10.1a12.19,12.19,0,0,0-1.4-.7c-.67-.24-1-.75-.86-1.34s.93-.59,1.5-.49c1,.17,1.88.4,2.87.61,0-1.25-.74-1.63-1.53-2.13s-1.75-.94-1.34-1.88,1.39-.32,2.14-.2a4.14,4.14,0,0,0,.78-.05,40.12,40.12,0,0,1,10.5,14C798,276.88,798.47,278.06,799,279.25Z"/><path class="a" d="M635.81,334.52l-.19,1.77c-2.55-4.63-4.1-9-3.4-14.08.24-1.75,1.59-3.41.52-5.29h0a13.94,13.94,0,0,0,1.36-1.67c2.63-3.87,5.19-7.77,9.14-10.58,4.39-3.13,9.92-4.19,14.68-.57a2.22,2.22,0,0,0,1.64.53c.51,1.44,2.38,2.05,2.32,3.83a31.66,31.66,0,0,0-6.51-4.3c-3.88-1.9-7.44-1.2-10.77,1a24.89,24.89,0,0,0-11,16.74,17.14,17.14,0,0,0,.88,8.91C634.88,332.09,635.36,333.3,635.81,334.52Z"/><path class="l" d="M666,355.2a5.54,5.54,0,0,1,3.78-1.84c5.14-.79,9.75-2.82,13.17-6.8,3.55-4.14,3.49-9.09.4-14.21-.53-.89-1.27-1.66-1.85-2.52-.75-1.09-1.15-2.23-.13-3.4,3.49,4.23,6,8.88,6,14.54,0,2.88-1,5.25-3.64,6.69a2,2,0,0,0-.62.49c-3.6,4.47-9.15,5-14,7A5.39,5.39,0,0,1,666,355.2Z"/><path class="a" d="M738.88,386.19c.78,2.43,1.59,4.8,1.1,7.46-.63,3.45-2.78,5.91-5.08,8.2a26,26,0,0,1-13.72,7.54c-1.13.21-2.38.53-3.26-.66,2-.6,3.55-.46,5.32-1.1a27.23,27.23,0,0,0,14.57-12.2c2.42-4.11.74-8-1.42-11.61a34.81,34.81,0,0,0-3.34-4.1c2.14-.23,3,1.38,4,2.77.25.35.2,1.15.66,1.1C741.06,383.2,738.84,385.18,738.88,386.19Z"/><path class="l" d="M659.56,304.64a2.22,2.22,0,0,1-1.64-.53c-4.76-3.62-10.29-2.56-14.68.57-4,2.81-6.51,6.71-9.14,10.58a13.94,13.94,0,0,1-1.36,1.67,4.61,4.61,0,0,1,.87-3.86,38.89,38.89,0,0,1,11.84-12.31A9.74,9.74,0,0,1,656.91,302C657.82,302.85,658.68,303.76,659.56,304.64Z"/><path class="l" d="M714.32,361.07a7.53,7.53,0,0,1-3.87-2.09,2.91,2.91,0,0,0-3.33-1.05,1.46,1.46,0,0,1-1.11-.26c-5.21-3.33-9.92-.37-12.76,3.36-.84,1.1-1.75,2.09-2.68,3.09-.28-3.55,1.77-5.8,4.5-7.41,6.21-3.67,13.66-1.68,18.56,2C714.28,359.24,715.53,359.88,714.32,361.07Z"/><path class="e" d="M287.05,709.61c-1.78-1.75-3.6-3.46-5.33-5.25a5.51,5.51,0,0,0-2.91-1.51,1.54,1.54,0,0,0-1.76.57c-.42.61-.17,1.1.27,1.58s.78.76.39,1.17-.92-.07-1.3-.39-.55-.56-.83-.83c-2.13-2.13-3.41-2.37-6.17-1.16-2.08.91-5.76.34-7.3-1.14.46-.49,1-.28,1.46-.08a2.48,2.48,0,0,0,3.19-.65,2,2,0,0,1,2-.62,17,17,0,0,0,7.79-.33,3.29,3.29,0,0,1,2.3.25,23.1,23.1,0,0,1,7.68,6.56A2.12,2.12,0,0,1,287.05,709.61Z"/><path class="j" d="M517,405.53c.41.72-.14,1.09-.56,1.48-4.68,4.33-8.69,9.3-13.2,13.78-.58.59-1.08,1.36-2.26,1.36.71-1,1.35-1.91,2-2.82s.87-2.06-.32-2.9A134.89,134.89,0,0,1,516,405.79,3.45,3.45,0,0,1,517,405.53Z"/><path class="h" d="M367.33,602.4a21.48,21.48,0,0,1,3.55-9.85,53.54,53.54,0,0,1,8.86-11c.76-.73,1.51-1.36,2.49-.37s.37,1.76-.36,2.52c-1.3,1.37-2.42,2.95-4.22,3.76-.77-.57-1.32-.15-1.89.38a22.13,22.13,0,0,0-6.35,10.64C369,599.94,368.72,601.47,367.33,602.4Z"/><path class="a" d="M684,383.41c-.92-1.44-.55-3-.57-4.59a6.27,6.27,0,0,0-.34-2.59c-.92.47-1.05,1.51-1.71,2.08-.47.42-.94,1.16-1.63.6s0-1.05.24-1.55c1.58-2.71,3.18-5.41,4.71-8.15a40.7,40.7,0,0,0,3.36-8.14c1,.95.7,2,.19,3.05a34.25,34.25,0,0,0-3.45,17.63A1.66,1.66,0,0,1,684,383.41Z"/><path class="f" d="M373.05,594c1.11.92,1.65-.13,2.25-.72,4.55-4.53,9.08-9.08,13.64-13.61.52-.52.93-1.37,1.93-1a3.38,3.38,0,0,1-1.15,2Q382,588.29,374.37,596c-.28.27-.54.65-.88.76-.64.2-1.29,1.27-1.81.68a1.82,1.82,0,0,1,.37-2.48C372.37,594.61,372.71,594.3,373.05,594Z"/><path class="k" d="M692.78,349.05c.87.88,1.75,1.77,2.64,2.63a1.58,1.58,0,0,1,.5,1.93,1.88,1.88,0,0,1-1.59,1c-.85.09-1-.7-1.19-1.31-.72-2.1-2.35-3.38-4.12-4.52a11.15,11.15,0,0,1-1.13-.76c-.69-.58-.63-1.2,0-1.86a1.17,1.17,0,0,1,1.87-.16c1,1,2,2,3.06,3Z"/><path d="M657.63,268.05l-.61.55a2.88,2.88,0,0,1,.66-2.89c3.31-3.24,6.54-6.56,9.85-9.8,1.3-1.26,2.75-2.36,4.09-3.58.61-.54,1.18-.83,1.89-.22a110.32,110.32,0,0,0-14,14C659,266.78,658.27,267.39,657.63,268.05Z"/><path class="j" d="M571.31,471.1c-.82-.82-1.59-.2-2.32.13a1.82,1.82,0,0,1-2.33-.31,2.38,2.38,0,0,1-.62-2.51c.88-2.62,2.94-3.14,4.76-1.16a18.71,18.71,0,0,1,1.35,1.91C572.62,470.13,571.79,470.54,571.31,471.1Z"/><path class="j" d="M588.84,412.16c1.35,1.39,2.78,1.64,4.31.29a7.63,7.63,0,0,1,.6,3.62c-.17.9-.51,1.67-1.63,1.58a7.2,7.2,0,0,1-4.4-1.85C586.44,414.51,587.91,413.24,588.84,412.16Z"/><path class="b" d="M303.92,778l.64.62c-.84,3,1,4.92,2.57,7,.62.83,1.25,1.66,1.8,2.54.42.66.79,1.4.17,2.17-2.85-2.2-4.52-5.34-6.44-8.26C301.53,780.34,302.86,779.15,303.92,778Z"/><path class="l" d="M744.93,402.85c-.74-.75-1.48-1.49-2.23-2.23-.44-.45-.76-.92-.38-1.56a1.1,1.1,0,0,1,1.54-.41c2.64,1.08,4.12,3.3,5.44,5.65a.85.85,0,0,1-.34,1.2,1.35,1.35,0,0,1-1.49-.18c-.87-.8-1.69-1.66-2.52-2.49Z"/><path class="l" d="M249.27,702.09c-.22.94.41,1.42,1,2a48.82,48.82,0,0,1,7.13,7.8H255.7L247,703.22c.64-.61.07-1-.22-1.51C247.8,700.66,248.55,701.28,249.27,702.09Z"/><path class="h" d="M688.89,259.67a3.54,3.54,0,0,0-.77-.58c-.61-.25-1.66-.06-1.5-1.1.12-.74,1-1,1.69-1.07,2.52-.3,5.09-1.23,7.54.28C694,259.21,691.47,259.58,688.89,259.67Z"/><path class="a" d="M742.81,391.24c-.1-.48-.19-1-.29-1.44a.83.83,0,0,0-.3-.83l-.26-.27c.76-.67.08-1.78.78-2.46a5.57,5.57,0,0,1,1.78,5.12,7.74,7.74,0,0,0,2.13,6.63,2.6,2.6,0,0,1-3.14-2.24c-.26-1.21-.31-2.46-.45-3.69h0A.76.76,0,0,0,742.81,391.24Z"/><path class="l" d="M640.75,295.36c.7.69,1.41,1.37,2.08,2.09a1,1,0,0,1,0,1.56,1,1,0,0,1-1.56.09q-2.19-2.12-4.31-4.3a1.17,1.17,0,1,1,1.6-1.66C639.3,293.85,640,294.62,640.75,295.36Z"/><path class="f" d="M719.08,430.05c1.34,3.46,4.49,2.77,7.32,3-2.63,2.62-6.54,1.77-9.27-1.83C717.83,430.91,718.12,429.92,719.08,430.05Z"/><path class="e" d="M340.07,770c-1.43-1.28-1.94-3.24-3.68-4.73,2,0,2.88-1.26,3.94-2.26C341.67,765.35,341.17,767.66,340.07,770Z"/><path class="k" d="M449.65,683.33a3.13,3.13,0,0,1,2.58-1.43l5.12-.75c.52.6,1.49.21,2,.89C456.22,683.38,453.07,684.4,449.65,683.33Z"/><path class="h" d="M676.6,267.49c-1.52-1.62-1.52-1.7.47-2.68,1.23-.6,2.48-1.15,3.74-1.68a2,2,0,0,1,2.21.15C680.85,264.63,679.39,267.08,676.6,267.49Z"/><path class="h" d="M459.38,655.69c.48,2.28-.74,3.76-2.42,5a8.58,8.58,0,0,1-3.58,2,1.33,1.33,0,0,1,.56-1.54C456.08,659.62,457.34,657.26,459.38,655.69Z"/><path class="h" d="M393.91,538.91a79.07,79.07,0,0,1-9.75,4.3c2.06-2.71,5.12-3.67,8.17-4.64A1.3,1.3,0,0,1,393.91,538.91Z"/><path class="k" d="M357.48,582.24c.1.58.2,1.16.29,1.74-1,1.49-.79,3.39-1.55,5-1.6-.24-.74-1.74-1.29-2.53a7.25,7.25,0,0,1,1-3.88A1.48,1.48,0,0,0,357.48,582.24Z"/><path class="h" d="M402.56,536.5c.35,2.19,0,2.65-2.09,2.56-1.69-.08-3.37-.31-5.05-.47a3.23,3.23,0,0,1,3.38-1A3.52,3.52,0,0,0,402.56,536.5Z"/><path class="e" d="M697.7,350.79a12.18,12.18,0,0,1-6.92-6.92Z"/><path class="l" d="M728.08,372.19c3.16.4,4.11,3.15,5.65,5.28C731.32,376.26,729.79,374.14,728.08,372.19Z"/><path class="l" d="M688.33,369.16c.34,2.46.22,4.8-1.67,6.69C686.3,373.39,686.43,371.06,688.33,369.16Z"/><path class="f" d="M727.7,284q6.12,6.11,12.24,12.24c.48.49,1.22.84,1.17,1.71q-6.2-6.18-12.39-12.38C728.28,285.1,727.62,284.76,727.7,284Z"/><path class="e" d="M566.8,476.6a5.37,5.37,0,0,1-5.22,2.1,9.91,9.91,0,0,1,4.51-2.81Z"/><path class="e" d="M255.94,703.91c-.69,0-.95-.62-1.35-1,2.15-1.5,3.27-1.5,5.56,0-.57.74-1.39.44-2.12.51S256.47,703.12,255.94,703.91Z"/><path class="n" d="M438.31,678.87c.71.29,1.56-.09,2.2.49l.6,1.42a3.33,3.33,0,0,1-2.44.17c-.65-.12-1.6,0-1.7-.91S437.77,679.16,438.31,678.87Z"/><path class="h" d="M354.93,586.42c.55.79-.31,2.29,1.29,2.53.19.82.48,1.83-.69,2s-1.06-1-1.25-1.76C354,588.2,353.88,587.16,354.93,586.42Z"/><path class="e" d="M339.19,776.38c-1.42-1.66-1.3-2,1.19-3.35C341.42,774.86,341.22,775.41,339.19,776.38Z"/><path class="h" d="M442.27,681.15a9.19,9.19,0,0,1,5.55-.53C446.11,682.28,444.24,682.21,442.27,681.15Z"/><path class="l" d="M720.16,366.35,716.82,363c.12-.23.25-.66.35-.65,1.52.13,2,1.61,3,2.38C720.89,365.26,720.77,365.83,720.16,366.35Z"/><path class="l" d="M686.66,377.54l1.11,1.11L687.2,382h0C685.62,380.35,685.49,379.26,686.66,377.54Z"/><path class="n" d="M357.47,600l1.66-1a1.61,1.61,0,0,1,.13,1.82c-.31.57-.24,1.86-1.37,1.35A1.29,1.29,0,0,1,357.47,600Z"/><path class="h" d="M672.15,271.42c.29-2.63.41-2.73,2.48-2C674.42,270.85,673.92,271.93,672.15,271.42Z"/><path class="j" d="M340.62,797.3a2.22,2.22,0,0,1-1.85-2.74C341.38,794.71,341.41,794.75,340.62,797.3Z"/><path class="f" d="M382.46,544.26c-.25,1.61-1.48,1.76-2.75,1.85C380,544.63,380.84,543.83,382.46,544.26Z"/><path class="i" d="M225.6,706.86a2.23,2.23,0,0,0-2.65.83c-.38-1.43.18-2.3,1.64-2.39C225.65,705.24,225.89,705.93,225.6,706.86Z"/><path d="M688.08,361a3.53,3.53,0,0,1,.87-3.57C690,359,689.14,360,688.08,361Z"/><path class="f" d="M771.84,326.42a18.26,18.26,0,0,1,5.87,5.86Z"/><path class="j" d="M246.79,701.71c.29.47.86.9.22,1.51-1.08,0-1.86-.32-1.88-1.57A1.26,1.26,0,0,1,246.79,701.71Z"/><path class="e" d="M262.11,702.65l-.55.05Z"/><path class="j" d="M574.18,459.87c-.71.83-1.54,1.5-2.75.24s-1.47-2.89-.22-3.93c1-.82,2-1.72,3.35-.3S575.81,458.21,574.18,459.87Z"/><path d="M637,406.33a120.25,120.25,0,0,1-17.1-21.58,25.28,25.28,0,0,0-4-5.32,2.2,2.2,0,0,1-.73-2.8,2.57,2.57,0,0,1,3-1.4c1.21.22,2.93.32,2.9,1.84-.11,4.54,3,7.49,5.19,10.78a107.32,107.32,0,0,0,32.93,31.2c1.59,1,3.17,1.82,5.15,1.57,1.3-.17,1.86.74,2.11,1.88.37,1.67.16,3.16-1.44,4.12-1.07.65-1.84,0-2.6-.69-3.5-3.33-7.75-5.61-11.7-8.32A106.45,106.45,0,0,1,637,406.33Z"/><path class="f" d="M656.2,391.19c4.55-.54,7.33.91,9.39,5.12.83,1.68,1.9,1.75,3.37,1.1,2.2-1,3.07-3.16,4.42-4.9.69.24.47.78.44,1.16a7.31,7.31,0,0,1-4.47,6.06c-2.29,1.14-4.17.13-6-1.32a21.34,21.34,0,0,0-9.32-4.51,7,7,0,0,1-6-6.2,18.09,18.09,0,0,0-3.79-8.35c-1.7-2.15-3-4.42-1.71-7.24,1.35-3,4-3.64,7.13-3.82-.17.69-.72.79-1.09,1.06s-.86.61-1.3.88a8.06,8.06,0,0,0-2.62,2.64c-.81,1.3-.68,2.52.7,3.17,4.37,2,5.66,5.75,5.79,10.16-.63,1.45-.9,2.93.29,4.17S654.5,391.63,656.2,391.19Z"/><path class="k" d="M629.58,413.13a27.15,27.15,0,0,1-6.19-7.57,8.6,8.6,0,0,1-.76-1.8c-.16-.64-.22-1.37.59-1.66s1.1.2,1.45.72a40.42,40.42,0,0,0,5.55,6.56,91.89,91.89,0,0,0,8,6.91c.68.53,1.73,1.13,1,2.22s-1.61.54-2.46.2A19,19,0,0,1,629.58,413.13Z"/><path class="k" d="M656.2,391.19c-1.7.44-3.39.55-4.71-.82s-.92-2.72-.29-4.17Z"/><path class="l" d="M340.3,744.65c-.89-3.08-3.06-4.94-4.69-7.27,3.73,2,5.9,5.25,8.06,8.51a26,26,0,0,1,1.95,2.44c.3.63.76,1.39,0,2a1.49,1.49,0,0,1-2-.22,13.62,13.62,0,0,1-1.26-1.26c-3.35-4.14-8-5.09-13-5.53-1.63-.14-3.25-.37-4.87-.57-.51-.06-1.19-.05-1.29-.67s.56-.94,1.13-1.11c3.39-1,6.64-.27,9.81.91C336.16,742.58,338,743.61,340.3,744.65Z"/><path class="l" d="M400.26,696.21c-2.17,2.17-4.87,2.59-7.36,3.37-1.64.52-3,1-3.61,2.89-.33,1.08-4.31,2.56-5.4,2.16a.85.85,0,0,1-.49-.51c-.09-.33.23-.4.49-.47.63-.18,1.26-.34,1.89-.53s1.15-.38,1.09-1c-.07-.75-.82-.46-1.28-.47a22,22,0,0,1-6.26-.52c-.47-.15-1.16,0-1.1-.8s.71-.66,1.21-.64c5.57.27,10.93-1,16.3-2.21C397.19,697.18,398.39,696.09,400.26,696.21Z"/><path class="l" d="M352.57,741c-3.57.36-6.23-1.08-8.85-2.55a13.15,13.15,0,0,1-3.72-3.17c-.42-.51-.81-1.16-.24-1.78s1.16,0,1.61.41a26.06,26.06,0,0,1,2.22,2.24,10.87,10.87,0,0,0,7.58,4.12,3.27,3.27,0,0,1,.76.2C352,740.47,352.12,740.58,352.57,741Z"/><path class="l" d="M304.88,706.62c-2.47-1.75-4.31-3.85-7-4.91-.18,2.09,1,3.5,1.85,5,2.17,3.61,2.11,7.45,1.33,11.38-.1.49-.33.93-.83,1s-.6-.59-.74-1c-.72-2.06-.66-4.26-.86-6.39-.46-4.81-2-9-5.71-12.31a4.21,4.21,0,0,1-.68-.72c-.42-.61-.76-1.22-.13-1.95s1.22-.38,1.74,0C297.81,699.48,302.14,701.9,304.88,706.62Z"/><path class="l" d="M338.35,657.68a3.53,3.53,0,0,1,2.33-4.92A1.93,1.93,0,0,0,342,651a37.66,37.66,0,0,1,2.75-7.57c.14-.34.18-.91.7-.76s.43.73.27,1.16a41.69,41.69,0,0,0-2,5.76c-.89,4.26-.87,8.6-1.36,12.89-.05.52,0,1.06-.07,1.57s-.1.86-.57.93-.57-.47-.68-.8a11.72,11.72,0,0,1-.29-7.71c.22-.63.64-1.58-.3-1.87-1.1-.35-1.12.8-1.42,1.47l-.72,1.61Z"/><path class="l" d="M305.86,701.19c-3.71-3.8-4.81-8.24-5.17-13,0-.43-.06-.84.48-.88s.49.4.55.69a10.39,10.39,0,0,1,.18,1.75,10.58,10.58,0,0,0,3.43,8.06c1.1,1,2.14,2.13,3.21,3.2.38.38.8.83.45,1.36s-1.12.3-1.58,0A12.37,12.37,0,0,1,305.86,701.19Z"/><path class="l" d="M338.36,657.68l-.09.5-.17,0,.25-.46Z"/><path class="n" d="M763.74,267.8a7.88,7.88,0,0,1,5.56-.61,21.91,21.91,0,0,1,12.45,6.56c.44.47,1.13.91.67,1.65s-1.07.36-1.63.3c-.72-.08-1.41-.3-2.12-.43-1.09-.22-2.18-.63-2.39,1.2-.13,1.09-1.24,1-2.1.9-1.89-.15-3.77-.34-5.66-.5-.51-.05-1.12.11-1.27-.62a1.44,1.44,0,0,1,.68-1.7,13.11,13.11,0,0,1,3.85-1.42c.52-.1,1.29-.08,1.25-.95s-.7-.72-1.15-.87c-1.87-.61-3.75-1.21-5.64-1.74A3.4,3.4,0,0,1,763.74,267.8Z"/><path class="n" d="M777.54,297.45c2.49-1.17,4.63-.71,6.76.08,4.42,1.65,8.11,4.46,11.72,7.37.87.7,3.27,1.17,1.94,2.89-.94,1.21-2.31-.37-3.4-1C789,303.76,783.36,300.67,777.54,297.45Z"/><path class="h" d="M776.87,285.74c-2.19-1.54-4.76-1.63-7.29-1.89a9.63,9.63,0,0,1-3.79-.92c5.79-3.69,11.81-3.7,18.44-2.64-1.41,1.23-2.8.83-4,1.23-.71.24-1.79,0-2,.88-.25,1.06.8,1.59,1.52,2.08s2,.94,1.56,2.34c-.5.06-.78-.3-1.1-.56a1.68,1.68,0,0,0-2.51-.38Z"/><path class="h" d="M772.61,262.94c-2,.09-3.66-1-5.5-1.23-.69-.1-1.5-.6-2,.18s.35,1.16.78,1.64.92.76.61,1.32-.84.1-1.26,0c-3.36-.7-6.38-2.37-9.62-3.43a.75.75,0,0,1-.54-.91c.08-.56.48-.74.92-.9a15.84,15.84,0,0,1,8.13-.62,25.86,25.86,0,0,1,7.26,2.37A1.79,1.79,0,0,1,772.61,262.94Z"/><path class="n" d="M734.05,262a8.71,8.71,0,0,1-5.86.63,24,24,0,0,1-9-3.38c-1.3-.78-2-1.78-.65-3.25a1,1,0,0,1,1.48-.32,116.42,116.42,0,0,0,13.36,5.72C733.6,261.42,733.71,261.62,734.05,262Z"/><path class="n" d="M735.52,245.24a10.55,10.55,0,0,1-1.13.06l-15.93-.86c-.8,0-1.55-.45-1.57-1.21s.89-.6,1.43-.73c5.56-1.32,11-.39,16.3,1.2C735.29,243.9,735.8,244.3,735.52,245.24Z"/><path class="n" d="M742.44,276.2a48.62,48.62,0,0,1,16.66.46C755.94,279.79,746.66,279.61,742.44,276.2Z"/><path class="h" d="M797.76,334.22c.07,2.28.15,4.1.18,5.92,0,.4.2,1.06-.53,1-.46,0-.52-.52-.56-.91A26.52,26.52,0,0,0,793.27,330c-.23-.42-.5-.85-.06-1.24s.84,0,1.26.14c3.18,1.41,5.08,3.95,6.42,7-.66.33-.89-.31-1.32-.46A10.3,10.3,0,0,1,797.76,334.22Z"/><path class="h" d="M794.33,299.7a2.35,2.35,0,0,1-1.94-.37c-3.64-1.66-7.23-3.43-11.31-3.8-.6-.06-1-.38-.94-1s.84-.8,1.38-.86a13.4,13.4,0,0,1,9.11,2.41C792.08,297,793.61,297.92,794.33,299.7Z"/><path class="n" d="M771.05,258.65a103.93,103.93,0,0,0-12-4.49.9.9,0,0,1-.7-1,1,1,0,0,1,.93-.85C762.89,251.74,770.31,254.75,771.05,258.65Z"/><path class="h" d="M802.82,317.56c-.85.2-1.43-.09-1.71.35-1.1,1.71-1.91.75-2.81-.2-1.36-1.44-3.2-2.24-4.76-3.4-.66-.49-1.81-.85-1.42-1.79s1.5-.35,2.3-.22A13,13,0,0,1,802.82,317.56Z"/><path class="n" d="M780.23,286.26c.32.26.6.62,1.1.56,1.14.74,2.31,1.45,3.41,2.26.53.38,1,1,.66,1.66s-1,0-1.42-.15A84.42,84.42,0,0,0,774.1,288a2.27,2.27,0,0,1-1.49-.65c1.14-1.32,2.92-.92,4.26-1.61l.85.14C778.43,286.85,779.23,287.23,780.23,286.26Z"/><path class="h" d="M720.73,250.16c3.11-2,6.6-2.19,10.15-2,.48,0,1.13.16,1.23.78s-.45.9-.88,1.18c-.81.54-1.67,1-2.47,1.55-1.17.79-2.29,1.89-3.09-.44-.26-.75-1.19-.63-1.92-.68-1-.07-2.1.36-3-.4Z"/><path class="n" d="M739.14,268.71a1.18,1.18,0,0,1,1.19-.42,28.87,28.87,0,0,1,9.26,3.07c.63.33,1.08.83.74,1.58s-1,.66-1.54.48c-2.87-.92-5.73-1.85-8.57-2.86C739.38,270.26,738.82,269.62,739.14,268.71Z"/><path class="h" d="M735.54,256.62a2.41,2.41,0,0,1,0-.82c.19-.58.73-.44,1.17-.45a46.23,46.23,0,0,0,7.06-.29c1.61-.28,3.22-.53,4.84-.76.51-.07,1.23-.75,1.51,0s-.52,1.07-1.13,1.35a17.32,17.32,0,0,1-10.69,1.59C737.36,257.1,736.48,256.85,735.54,256.62Z"/><path class="n" d="M688.05,248.81l4-.17c.74.87.52,1.69-.42,2-3,1.11-6,2.09-9.15,3.19.12-1.76,1.22-2.56,2.35-3.28S687.11,249.65,688.05,248.81Z"/><path class="h" d="M778.23,308.59c-4.36-1.75-8.22-3.29-12-5.18C769,301.24,774.31,303.43,778.23,308.59Z"/><path class="h" d="M724.75,263.53c2.25-.08,4.16.7,6.15.87,1.69.13,3.37.46,5.05.71.36.06.89-.08.92.46s-.45.56-.84.65a14.62,14.62,0,0,1-8.63-1.08A5.76,5.76,0,0,1,724.75,263.53Z"/><path class="h" d="M801,295.64c-2.33-3.07-5.3-5.53-7.95-8.36C796.87,287.5,800.41,291.1,801,295.64Z"/><path class="h" d="M798.52,324.5c2.69-1.58,4.34-1.28,6.24,1Z"/><path class="h" d="M704.81,248.21l.5.09,0,.18-.47-.26Z"/><path class="h" d="M720.73,250.18h0Z"/><path class="a" d="M364.14,590.68c-1.5.13-.7,1.94-1.86,2.49a2.39,2.39,0,0,1,.43-2.82,1.17,1.17,0,0,1,1.85-.32Z"/><path d="M656.29,335c-4.57-4.65-7.59-11.08-8.79-18.42-.21-1.29-.38-2.6-.65-3.88-.32-1.6.35-2.18,1.9-2.12a29.8,29.8,0,0,1,14.5,4.48,36.38,36.38,0,0,1,8.39,7.3,25.69,25.69,0,0,1,6,23.8c-.65,2.75-1.51,2.94-3.62,1-2.7-2.47-6-4-9.17-5.68A35.25,35.25,0,0,1,656.29,335Zm-1.74-7.47c.33,4.19,5.76,9.61,10.35,10.34,2.67,2.57,6.26,3.72,9.21,5.86.86.62,1.34,0,1.42-.88.32-3.76.3-7.47-2-10.75-.86-2.83-1.44-5.83-4.48-7.33a9.91,9.91,0,0,0-4.18-4.13c-1.15-1.05-1.91-2.77-4-2.27-2.69-2.45-6.06-3.45-9.45-4.39-.85-.24-1.47.08-1.35,1.07C650.67,319.52,651.38,324,654.55,327.51Z"/><path d="M706.11,384.82c-3.67-3.41-6.09-8.48-8.48-13.51-.67-1.41-1.82-2.19-2.72-3.28-.51-.61-1.11-1.13-.84-2.06a2,2,0,0,1,2-1.38,34.84,34.84,0,0,1,12.26.1c4.86,1.09,8.59,3.62,12.18,6.84a34.18,34.18,0,0,1,6.53,7.2,31.33,31.33,0,0,1,4.67,14.06c.16,1.74-.58,2.58-2.23,2.41C720.78,394.35,712.89,391.71,706.11,384.82Zm6.62-11.47c.47.63.9,1.27,1.4,1.87a2.39,2.39,0,0,0,3.64.13c1.09-.93.26-2-.42-2.85a5.11,5.11,0,0,0-3.36-1.75c-1.24-.81-1.8-2.88-3.9-2.13-3.2-2.31-6.83-2.31-10.52-1.95-1.5.15-1.49,1.09-.86,2.07,1.82,2.85,3.7,5.66,5.56,8.48.39,4.39,3.71,6.68,6.7,9.15a4.55,4.55,0,0,0,3.58,1.24c3.18,2.88,7.22,3.56,11.21,4.33,2.44.47,2.78,0,2.12-2.44a20.33,20.33,0,0,0-3.8-7.9c-.16-2.66-1.84-4.39-3.66-6a1,1,0,0,0-1.08-.29c-.5.22-.22.66-.16,1a5,5,0,0,1-3.2,5.61c-2,.91-3.94.33-5.48-1.73a4.94,4.94,0,0,1-.45-5.06C710.5,374,711.24,373,712.73,373.35Z"/><path class="a" d="M687.2,382l.57-3.35.86-.84c.06,1.56,0,3.13.2,4.69.37,3.91,2.21,7.21,4.43,10.35,4.31,6.1,9.39,11.26,16.54,14a45.07,45.07,0,0,0,7.24,1.8,2.65,2.65,0,0,1-2.87.76c-5.78-1.28-11.07-3.41-15.29-7.84a58,58,0,0,1-8.07-9.83,11.84,11.84,0,0,1-1.49-3.62A31.67,31.67,0,0,0,687.2,382Z"/><path d="M718,408.76l-.7-.08Z"/><path class="a" d="M742.81,391.24a.76.76,0,0,1,.25.82A.72.72,0,0,1,742.81,391.24Z"/><path class="a" d="M742.22,389a.83.83,0,0,1,.3.83A.8.8,0,0,1,742.22,389Z"/><path class="e" d="M579.67,444.86a3.16,3.16,0,0,1,.05,3.66.57.57,0,0,1-.85,0c-.36-.3-.9-3.6-.6-3.82A1,1,0,0,1,579.67,444.86Z"/><path class="f" d="M780.23,286.26c-1,1-1.8.59-2.51-.38A1.68,1.68,0,0,1,780.23,286.26Z"/><path class="j" d="M660.92,318.35c2-.5,2.8,1.22,4,2.27-1.14.64-1.07,2-1.85,2.92-1.3.93-2.9,1.56-3.06,3.55a4.79,4.79,0,0,0,2.81,5,4.36,4.36,0,0,0,5.27-.7c1.79-1.74,2-3.1.74-5.81l.27-.78c3,1.5,3.62,4.5,4.48,7.33a11.82,11.82,0,0,1-4.68,4.24c-1.28.64-2.79.64-4,1.53-4.59-.73-10-6.15-10.35-10.34C655.79,323.84,657.64,320.61,660.92,318.35Z"/><path class="m" d="M660.92,318.35c-3.28,2.26-5.13,5.49-6.37,9.16-3.17-3.55-3.88-8-4.43-12.48-.12-1,.5-1.31,1.35-1.07C654.86,314.9,658.23,315.9,660.92,318.35Z"/><path class="m" d="M664.9,337.85c1.16-.89,2.67-.89,4-1.53a11.82,11.82,0,0,0,4.68-4.24c2.3,3.28,2.32,7,2,10.75-.08.86-.56,1.5-1.42.88C671.16,341.57,667.57,340.42,664.9,337.85Z"/><path class="m" d="M663,323.54c.78-.88.71-2.28,1.85-2.92a9.91,9.91,0,0,1,4.18,4.13l-.27.78c-1.68.76-3.29,1.15-4.59-.7A14.19,14.19,0,0,0,663,323.54Z"/><path class="j" d="M714.55,387.61a4.55,4.55,0,0,1-3.58-1.24c-3-2.47-6.31-4.76-6.7-9.15,1.25-3.33,2.37-6.75,5.82-8.6,2.1-.75,2.66,1.32,3.9,2.13-.81.68-.72,1.79-1.26,2.6-1.49-.31-2.23.66-2.68,1.77a4.94,4.94,0,0,0,.45,5.06c1.54,2.06,3.46,2.64,5.48,1.73a5,5,0,0,0,3.2-5.61c-.06-.37-.34-.81.16-1a1,1,0,0,1,1.08.29c1.82,1.65,3.5,3.38,3.66,6C721.21,384.08,718.34,386.57,714.55,387.61Z"/><path class="m" d="M714.55,387.61c3.79-1,6.66-3.53,9.53-6a20.33,20.33,0,0,1,3.8,7.9c.66,2.47.32,2.91-2.12,2.44C721.77,391.17,717.73,390.49,714.55,387.61Z"/><path class="m" d="M710.09,368.62c-3.45,1.85-4.57,5.27-5.82,8.6-1.86-2.82-3.74-5.63-5.56-8.48-.63-1-.64-1.92.86-2.07C703.26,366.31,706.89,366.31,710.09,368.62Z"/><path class="m" d="M712.73,373.35c.54-.81.45-1.92,1.26-2.6a5.11,5.11,0,0,1,3.36,1.75c.68.86,1.51,1.92.42,2.85a2.39,2.39,0,0,1-3.64-.13C713.63,374.62,713.2,374,712.73,373.35Z"/><path class="a" d="M663,323.54a14.19,14.19,0,0,1,1.17,1.29c1.3,1.85,2.91,1.46,4.59.7,1.22,2.71,1.05,4.07-.74,5.81a4.36,4.36,0,0,1-5.27.7,4.79,4.79,0,0,1-2.81-5C660.12,325.1,661.72,324.47,663,323.54Z"/><path class="f" d="M688.36,334a5,5,0,0,1,.79-.86c2.54-1.7,2.69-2,1.67-4.9-1.65-4.67-4.69-8.43-8-12a70.52,70.52,0,0,0-22.35-16.36c-1.14-.54-2.52-1.76-3.61-.49,2.26,1.49,4.45,4,6.92,5.2s4.18,3.49,6,5.55,3.65,3.94,5.18,6c3.19,4.31,7.7,7.38,10.58,11.91C686.73,329.87,686.74,332.3,688.36,334Z"/></svg>