<svg xmlns="http://www.w3.org/2000/svg" width="1000" height="1000" viewBox="0 0 1000 1000"><defs><style>.a{fill:#171412;}.b{fill:#999;}.c{fill:#e7e7e7;}.d{fill:#e8e8e8;}.e{fill:#333;}.f{fill:#4d4d4d;}.g{fill:#e6e6e6;}.h{fill:#030303;}.i{fill:#ccc;}.j{fill:#666;}.k{fill:#b3b3b3;}.l{fill:#1a1a1a;}.m{fill:#f2f2f2;}.n{fill:gray;}</style></defs><title>Zeichenfläche 1</title><path class="a" d="M591.46,587.75c9.79,8.77,19.6,17.53,29.74,25.9,5,4.09,10.45,7.53,15.15,12a48.75,48.75,0,0,1,8.41,10.14,7,7,0,0,0,2.69,2.82,30,30,0,0,1,6.88,5.52c10.14,10.16,20.21,20.39,30.53,30.36A66.61,66.61,0,0,1,697,690.11a22.48,22.48,0,0,0,4.36,5.58,16.51,16.51,0,0,1,4.43,6.89,7.82,7.82,0,0,0,4.59,5.08,17.81,17.81,0,0,1,5.76,4.39c5.64,5.72,11.34,11.37,16.92,17.15a7.13,7.13,0,0,0,7.69,2.06c15.13-4.25,29-10.8,40.5-21.8A78.58,78.58,0,0,0,798,686a16.52,16.52,0,0,0,1.1-3.36,5.8,5.8,0,0,0-2.69-6.82,50.8,50.8,0,0,1-6.48-4.81,10,10,0,0,0-7.08-2.53,40.72,40.72,0,0,0-14.14,2.26c-5.6,2-11.45,2.18-17.32,2-3.22-.12-6.44-.28-9.66-.32a3.77,3.77,0,0,1-3.53-2.08,13.12,13.12,0,0,0-8.73-6.52,7.77,7.77,0,0,1-5.82-5.32,11,11,0,0,0-5.39-6.28c-4.94-2.65-8-7.1-11.2-11.46-5.59-7.64-11.1-15.37-18.17-21.76-3.31-3-6.93-5.66-10.24-8.65-5.9-5.31-10.56-11.72-15.47-17.89a39.83,39.83,0,0,0-3.69-4.1,2.44,2.44,0,0,1-.69-2.81,20.13,20.13,0,0,1,2.53-5.94,10.48,10.48,0,0,0,1.79-6.61,12.14,12.14,0,0,1,1.66-6.6,6.63,6.63,0,0,0,.88-4.37c-3.08-24.12-15.37-41.45-37.87-51.2a19.37,19.37,0,0,0-4.12-1.31,10.58,10.58,0,0,1-7-5c-8.56-12.85-17-25.8-25.73-38.52a164.16,164.16,0,0,0-29.68-32.54c-4.57-3.84-8.75-8.15-13.08-12.28a53.75,53.75,0,0,1-4.13-4,7.94,7.94,0,0,1-1.6-7.74c.88-3.13.45-4.58-2.29-6.38-13.35-8.77-25.83-18.75-38.66-28.24-3.86-2.85-7.24-6.31-11.27-8.94-9.12-5.94-19.14-5.33-27.58,1.47-5.13,4.14-10.87,7.36-16.52,10.71-1.41.83-2.77,1.77-4.12,2.69-1.18.8-2.38,1.17-3.65.27a32.24,32.24,0,0,0-10-4.42c-2.49-.71-2.7-1.19-2.29-3.86a125.71,125.71,0,0,0,.23-36.95c-1.14-7.9-5-14.76-10-20.88-1.95-2.37-2.55-4.63-1-7.56,2.31-4.41,2.84-9.25,2.51-14.19a49.84,49.84,0,0,0-14.66-32.31c-2.34-2.4-4.53-5-7.43-6.76-4.9-3-10-3.73-15.36-1.09a8.5,8.5,0,0,0-2.54,2.16c-1,1.11-1.74,1.06-2.63-.22-3-4.26-5.7-8.68-8.93-12.75-7.86-9.88-16.18-19.32-27.65-25.13A108.67,108.67,0,0,1,322.35,207c-1.38-1-2.63-1.42-3.94.07-.79.91-1.67.65-2.67.22-6.54-2.82-13.24-5.07-20.39-5.72-2.14-.2-4.08,0-5.5,1.85a2.89,2.89,0,0,1-1.88,1c-8.05,1.56-16,4.07-24.3,3.74a2.67,2.67,0,0,0-3.05,2.23c0,.07,0,.13,0,.2-.14,1.41-.93,1.87-2.07,2.25a91.92,91.92,0,0,0-22.16,10.52,61.56,61.56,0,0,0-25.22,34.55,380,380,0,0,0-10.09,43.16,29.89,29.89,0,0,0-.39,6.68c.11,1.89.75,2.23,2.38,1.38.23-.12.45-.29.68-.41,2.13-1.09,2.78-.82,3.21,1.52.81,4.46,1.66,8.91,2.91,13.28,2.26,7.88,7,14.32,11.71,20.82s10.83,11,16.71,16.08a143.13,143.13,0,0,0,18.31,13.64c1.47.92,1.48,1.76.44,3a35.79,35.79,0,0,0-2.12,3.08c-3.37,5.09-3.36,10.23.38,15,9.85,12.58,22.52,20.35,38.67,21.76a27.11,27.11,0,0,0,14.93-2.9,5,5,0,0,1,6.14.66,67.92,67.92,0,0,0,7.79,5.34,42.13,42.13,0,0,0,18.59,6,129,129,0,0,0,31.66-.77c2.72-.45,2.87-.29,3.13,2.51a17.49,17.49,0,0,0,3.77,9.15c2.38,3.06,2.36,3.12.32,6.38-4.37,6.94-8.71,13.9-13.35,20.68-6.2,9.05-5.83,19.59.94,28.21,5.53,7,10.51,14.44,15.73,21.69,4.23,5.85,9.21,11.15,13,17.31,1.76,2.84,3.69,5.59,5.47,8.42s4.2,3.86,7.24,3.1c3.72-.94,6.1.4,8.47,3.29a309.51,309.51,0,0,0,28.56,29.72c6.07,5.67,13.41,9.68,20.36,14.15,13.38,8.6,27.17,16.48,40.8,24.64a10,10,0,0,1,5.06,7.13c.82,4.69,3.78,8.33,6.26,12.17,11,17.06,27,25.6,47,27a9.69,9.69,0,0,0,5.15-1,12.64,12.64,0,0,1,5.69-1.38,9.53,9.53,0,0,0,6.93-2.33c1.29-1.23,2.16-.15,3,.62,4.14,3.77,8.48,7.26,13,10.62a95.14,95.14,0,0,1,12.28,11.11c4.77,5.07,9.46,10.23,14.54,15,6.09,5.73,12.81,10.7,19.43,15.78a25.4,25.4,0,0,1,7.92,9.41,6.31,6.31,0,0,0,4.11,3.42,10.19,10.19,0,0,1,7.43,8.35,9.34,9.34,0,0,0,5.06,6.48,5.09,5.09,0,0,1,2.95,5.08c0,2.76.11,5.52.28,8.28a51.55,51.55,0,0,1-2.19,18.51,41,41,0,0,0-2,13,11.31,11.31,0,0,0,3.85,8.74c1.44,1.23,2.17,3,3.18,4.48,2.35,3.54,4.83,4.4,8.77,2.86,7.63-3,14.17-7.66,20.36-12.92,11.78-10,19-23,24.12-37.26.9-2.53,1.72-5.1,2.49-7.67,1.28-4.25,0-7.63-3.67-10.08C724.24,727,721,723,717.31,719.6s-7.25-6.48-9.39-11a6.18,6.18,0,0,0-3.69-3.14,22,22,0,0,1-7.89-5c-4-3.56-8.69-6.13-12.93-9.33-5.08-3.83-9-8.88-13.3-13.45-8-8.46-16.32-16.6-24.86-24.51a33.06,33.06,0,0,1-6-6.72,9.39,9.39,0,0,0-3.23-3.13c-6.85-3.93-11.73-9.84-16.3-16.06A246.39,246.39,0,0,0,598.35,602c-4.41-4.54-8.05-9.71-12.15-14.51-1.5-1.74-3.1-3.41-4.64-5.11-.54-.58-1.23-1.17-.58-2s1.4-.59,2.19-.37c1.55.45,2.44,1.73,3.44,2.84A60.6,60.6,0,0,0,591.46,587.75Zm70.73-27.33c1,.74.91,1.78.65,2.79-.19.72,0,2-1.25,1.76s-.88-1.2-.69-2c-.76-1.58-.5-3.48-1.55-5-.65-.46-1.45-1.28-1.28.47a1.14,1.14,0,0,1-.26.9c1.12,3.15,1.21,6.5,1.86,9.75a10.07,10.07,0,0,1,0,4.88,1.3,1.3,0,0,1,.18,1.82,1.38,1.38,0,0,1-.6.4c-1.13.51-1.06-.78-1.37-1.35A1.64,1.64,0,0,1,658,573l-1-2.25c-.65-.39-1.19-.42-1.13.54a13.79,13.79,0,0,0,.4,1.91c.56,2.56,1.34,5.09,1.06,7.75-.09.88-.1,2-1,2.39a2.79,2.79,0,0,1-2.81-.94,4.43,4.43,0,0,1-1.57-3.25l-2.16-2.78c-1.38-.93-1.69-2.46-2.07-3.9a22.25,22.25,0,0,0-6.35-10.64c-.57-.53-1.12-1-1.89-.38,1.86,1.94,2.68,4.61,4.6,6.51.34.31.68.62,1,.94a1.83,1.83,0,0,1,.37,2.48c-.52.59-1.17-.48-1.81-.68-.34-.11-.6-.49-.88-.76l-15.35-15.33a3.32,3.32,0,0,1-1.15-2c-5-4.5-9.59-9.39-14.33-14.14-.91-.92-1.34-2.54-2.37-3-3.1-1.53-3.59-4.09-3.54-7.06a8,8,0,0,0-2.16-6.15c-7.3-7.28-13.74-15.28-20.59-22.85Q571.13,486,558.79,472.7c-6.65-7.18-12.27-15-15.72-24.25-1-2.71-2.26-3-4.24-.93-.71.73-1.35,1.28-2.35.55-3.25-2.33-6.5-4.64-9.74-7-1.29-.94-1.35-2-.16-3.09a47,47,0,0,0,4.87-5.67A79.22,79.22,0,0,0,537.92,422c1.2-2.16,2-2.28,3.74-.65q5,4.75,10,9.48c2.54,2.39,4.82,5,7.54,7.23a123.29,123.29,0,0,1,16.93,16.33c7.67,9.13,14.14,19.18,21,28.95,5,7.19,9.88,14.5,14.78,21.78,1.13,1.67,2.42,3.28,2.73,5.38a3.52,3.52,0,0,0,3.76,1.09,3.25,3.25,0,0,1,3.38,1l1.51.32a1.29,1.29,0,0,1,1.58-.34c3,1,6.11,1.93,8.17,4.64l1.7,1c1.62-.43,2.42.37,2.75,1.85,1.07.76,1.94,1.74,3,2.53,2.89,2.13,6,4.09,8.2,7a66.46,66.46,0,0,1,12.43,26.95,7.19,7.19,0,0,1,1.07,3.88ZM770.33,675.71a1.26,1.26,0,0,1,1.66-.06,21.71,21.71,0,0,1,10.73-2.38,6.31,6.31,0,0,1,5.76,3.37,2.45,2.45,0,0,1,1.11,3.28,2.54,2.54,0,0,1-.16.28,63.17,63.17,0,0,1-9.49,14.57,88.83,88.83,0,0,1-18.53,15.68c-2.44,1.58-4.84,3.32-7.81,3.89l-1.13,1.06c-.22.24-.39.58-.66.72A72.64,72.64,0,0,1,735,723a2.61,2.61,0,0,1-2.54-.74c-4-4.06-8.11-8.07-12.11-12.15a3.75,3.75,0,0,1-.23-5.19c.88-1.14,1.79-2.26,2.68-3.39a19,19,0,0,1,2.75-5.71c-.41-.73,0-1.42.23-2a24.32,24.32,0,0,0,1.52-4.65,8.76,8.76,0,0,1,2.8-5.47,2.13,2.13,0,0,1,.55-1.83,23,23,0,0,1,7.68-6.56,3.27,3.27,0,0,1,2.3-.25,17,17,0,0,0,7.79.33,2,2,0,0,1,2,.62,2.48,2.48,0,0,0,3.19.65c.46-.2,1-.41,1.46.08h0l.55,0,1.41.14c2.29-1.47,3.41-1.47,5.56,0a15.78,15.78,0,0,0,5.32-.78C768.57,675.28,769.32,674.66,770.33,675.71ZM330.53,364.47c2.6-7.06,2.52-6.28,2.61-7.08h0a1.65,1.65,0,0,1-.8-1.66,34.41,34.41,0,0,0-3.45-17.63c-.51-1-.86-2.1.19-3.05h0c-1.06-1-2-2-.87-3.57a5.3,5.3,0,0,1,1.25-4c.38-.53.91-1.15,1.62-.87,2.46.95,5.17.77,7.61,1.81a41.93,41.93,0,0,0,14.57,3.5c7.18.33,13.34-.71,19.18-6,7.64-6.37,9.24-8.17,10.52-10.59m.35-.1c4.61-5.43,5.89-11.58,5.67-18.15-.2-6.21-3.45-11.68-7.29-16.58-1-1.27-2.46-2.13-3.43-3.48-.64-.87-.91-1.57,0-2.36s1.7-1.21,2.7-.12a95.4,95.4,0,0,0,7.67,7.38c3.56,3.12,5.76,7.29,8.29,11.17,3.92,6,7.55,12.2,11.39,18.25,2,3.15,4.19,6.17,6.3,9.25,4,5.8,7.15,11.94,7.75,19.08.38,4.46.6,8.93.7,13.4.21,9.45-1.31,18.73-3.22,27.95-.34,1.63-1.15,1.61-2.49.68.25,1.18.44,2.13.67,3.07A18.32,18.32,0,0,1,416.5,398c-2.66,5.12-5.87,9.71-10.51,13.29-6.62,5.12-13.58,8.25-22.2,5,.29,1.46.28,2.63-1.53,2.76a88.11,88.11,0,0,0-10.7,1.66A77,77,0,0,1,360.22,422c-3.26.15-6.65,0-10,0-9,0-17.48-1.54-25.22-6.26-2.34-1.43-4.5-3.16-6.8-4.67s-4.6-2.63-6.67-4.23c-1.55-1.2-3.2-2.29-4.79-3.33-2.4-1.58-5-2.9-7.41-4.48a65.69,65.69,0,0,0-6.14-3.78c-7.37-3.7-12.5-9.8-17.41-16.14-.57-.74-.74-1.47-.11-2.12a1.53,1.53,0,0,1,2.25.18,75.65,75.65,0,0,0,6.7,5.13c9.57,6.95,19.56,7,29.59,1.42A32.62,32.62,0,0,0,327.94,370M482.2,565.56,443.85,530.4c1.6,2.21,3.1,4.48,4.64,6.73,1.12,1.62.93,2.21-1,2.71-.78.21-1.65.28-1.7,1.29s.7,1.38,1.39,1.74,1.65.48,2.09,1.34a9.78,9.78,0,0,0,1.86,1c6.45,1.93,11.83,6.15,16.51,8.77m-46.5-11.28c-1.84-2.21-1.71-3.27.86-4.48,5.55-2.6,10.32-6.31,15-10.13m65.52,54.35c2.78,2.39,5.12,5.27,8.13,7.43,2.12,1.52,4.65,2.53,6.32,4.63,2.41,3,6.35,4.06,8.91,6.92a3.76,3.76,0,0,0,3.31.94,2.5,2.5,0,0,1,2.24.92q13.11,13.22,26.26,26.41c2,1.57,3.3,3.93,5.44,5.4a1.33,1.33,0,0,1,.56,1.54,19.92,19.92,0,0,0,4.69,4.09,23.58,23.58,0,0,1,6.53,5.86c1.61-.23,2.33,1.16,3.42,1.88,2.54,1.67,2.59,2.22.43,4.41.54.29,1.42.38,1.34,1.17s-1,.79-1.7.91a3.37,3.37,0,0,1-2.44-.17l-1.16.37c-2,1.06-3.84,1.13-5.55-.53a.37.37,0,0,0-.38,0,4.88,4.88,0,0,1-.3,2.45c-.21.76-.65.67-1.15.27-3.42,1.07-6.57,0-9.67-1.29a22.44,22.44,0,0,1-7.35-1.7c-5.5-2-10.94-4.32-15.45-8a66.44,66.44,0,0,1-13.41-14.88c-3.78-5.7-7.22-11.48-6.19-18.77.14-1-.39-1.43-1.41-1.37a6,6,0,0,1-3.93-1c-3-2.14-6.31-3.73-9.45-5.61-8.07-4.83-16.16-9.65-24.36-14.29-4-2.25-7.28-5.56-11.67-7.08M384.34,290.94h0c3.06,3.17,2.9,7.07,2.08,10.88a33.87,33.87,0,0,1-11.91,19.74c-2.95,2.41-5.82,4.88-9.34,6.38-4.15,1.77-8.44,2.88-13,1.27h-1a5.41,5.41,0,0,1-3.11-.1c-4.85-1.92-10.4-2.48-14-7a2.24,2.24,0,0,0-.62-.49c-2.66-1.44-3.65-3.81-3.64-6.69,0-5.66,2.52-10.31,6-14.54-.06-.88.67-1.25,1.17-1.72,3.73-3.48,8-6.36,11.36-10.26.73-.84,1.56-1.6,2.36-2.38.41-.39.77-1,1.49-.55a18.55,18.55,0,0,0,3.07-3c-.06-1.78,1.81-2.39,2.32-3.83.88-.88,1.74-1.79,2.65-2.64a9.75,9.75,0,0,1,11.46-1.24,38.88,38.88,0,0,1,11.84,12.31,4.56,4.56,0,0,1,.9,3.85Zm-87.41,49.42c-.61-.52-.73-1.09-.05-1.61,1-.77,1.52-2.25,3-2.38.1,0,.23.42.35.65,1.46.16,2-.93,2.5-1.94-1.21-1.19,0-1.83.69-2.32,4.9-3.72,12.35-5.71,18.56-2,2.73,1.61,4.78,3.86,4.5,7.41,1.68,1.27,1.68,3.28,2.24,5,1.9,1.9,2,4.23,1.67,6.69a1.11,1.11,0,0,1,.12,1.56l-.12.13c1.17,1.72,1,2.81-.54,4.46,1.44,1.2,1.13,2.7.64,4.16a37.84,37.84,0,0,1-16.28,20.63c-6.86,4.27-14.09,6.24-21.84,3.06-8.15-3.34-15-8.31-17.88-17.19-.08-.23-.33-.4-.5-.6-.14,1.23-.19,2.48-.45,3.69a2.6,2.6,0,0,1-2.88,2.28l-.26,0c-.89.82-1.47.22-2.16-.39-2.71-2.4-4.6-5.53-6.73-8.34-2.73-3.62-5-7.68-7.61-11.41-1.79-2.54-2.49-5.63-4.41-8-3.34-4.2-7-8.18-10.18-12.49-5.71-7.7-6.84-13.89,1.17-21.78,6.42-6.32,13.42-12,20.11-18a253,253,0,0,0,21.56-21.14c4.08-4.63,8.34-9.1,12.36-13.77,5-5.77,9.83-11.63,15-17.18,4.15-4.41,8.91-6.16,15-4a29.75,29.75,0,0,1,10.43,5.72c3.8,3.51,7.61,7,12.34,9.06A128.93,128.93,0,0,1,363,258.89c3.09,1.88,5.55,4.53,8.2,6.92,2.81,2.54,2.63,2.78,0,5.3a2.23,2.23,0,0,1-2.14.6,11,11,0,0,0-4.5.15c-2.08.47-3.92,2.07-6.27,1.35-.2-.06-.49.16-.73.27a77.5,77.5,0,0,0-19.29,12.78,45,45,0,0,0-6.06,6.66,40.13,40.13,0,0,0-6,10.25c-.62,1.71-.34,3,1.48,3.8,1.1.48,1.46,1.17.85,2.48a34.19,34.19,0,0,1-11.45,14c-2.5,1.75-5,3.61-8.09,4.3-1.66,1.62-4.1,1.64-6,2.83-4.55,2.89-7.63,7.42-12,10.62-2.06,1.53-4,3.46-6,5.2s-4.33,3.46-5.56,6-3.14,4.45-4.64,6.72l-.45,1.15c.7.68,0,1.79.78,2.46a4,4,0,0,1,3.08-2.51c0-1-2.18-3,1.15-2.6.46.05.41-.75.66-1.1,1-1.39,1.88-3,4-2.77L295.86,342c-.06-.82.73-1.1,1.13-1.65ZM794.12,681.69c.15,2.54-1.9,4.2-2.53,6.43a2.32,2.32,0,0,1-.61,1.59c-6.63,9.8-14.35,18.52-24.38,25a92.93,92.93,0,0,1-27.55,12c-1,.26-2.29.62-2.66-.79s1-1.32,1.79-1.64c7.91-3.27,15.84-6.5,23.06-11.21,1.6-1,2.8-2.79,4.9-3,3.41-2.84,6.92-5.58,10.22-8.55a60.38,60.38,0,0,0,15.11-20.71c-.29-.93-.05-1.62,1-1.56C794,679.39,794.55,680.26,794.12,681.69Zm-434-439.09c1.75,1,1.79,3.12,2.81,4.62,1.22,1.81,2.91,3.15,4.15,4.93,2,2.89,2.84,6.52,5.75,8.81a1,1,0,0,1,.23,1.4.85.85,0,0,1-.16.17c-.66.68-1.17.05-1.65-.39-4.34-4-9.48-6.9-14.23-10.34a51.49,51.49,0,0,0-5.47-2.59,20.56,20.56,0,0,1-6.55-3.79c-1.77.51-2.27-.57-2.48-2l-2-1.92c-2.79-.41-4.25-2.86-6.42-4.21-1.51-1.94-4-2.2-5.87-3.61-2.58-.09-5.06-.46-7-2.47a15.66,15.66,0,0,0-5.89,1.25A38.74,38.74,0,0,0,302,242.07a2.15,2.15,0,0,1-.57,2.19c-4.22,4.38-7.6,9.5-12,13.72.08.79-.58,1.13-1,1.57q-6.18,6.21-12.39,12.38a7,7,0,0,0-1.42,2.1,25.72,25.72,0,0,1-5.94,7.15c-2.9,2.32-6.13,4.19-8.78,6.85a109.28,109.28,0,0,1-14.59,12.4l-5.87,5.86c-1.83,2.22-3.82,4.32-5.44,6.68s-3.25,5.13-2.66,8a33.07,33.07,0,0,0,3.91,10.19c2.25,2.77,4.83,5.29,6.55,8.46a5.52,5.52,0,0,0,1.84,2c3.92,2.48,5.61,6.53,7.52,10.45a14.72,14.72,0,0,1,1.25,1.49c1.71,2.62,3.33,5.3,5.09,7.88.84,1.23,2.46,2.14,2.81,3.45.55,2,1.94,3.19,3.22,4.55.63.67,1.3,1.3,1.93,2a1,1,0,0,1,.09,1.41l0,0a1,1,0,0,1-1.34.46.86.86,0,0,1-.2-.13c-1.1-.83-2.47-1.16-3.45-2.22-2.92-3.13-6.9-4.85-10.23-7.48-2.68-2.13-5.76-3.79-8.07-6.43a19,19,0,0,1-3.4-2.3c-4.46-4.62-9.35-8.82-13.42-13.84A61.18,61.18,0,0,1,213,315c-.79-3.59-1.42-7.19-2-10.82-.21-1.37-.4-2.89-2.37-2.72s-2.42-.81-2.1-2.52c.2-1.1.25-2.22.49-3.3,1.51-7,3-14,4.62-20.93,1.75-7.26,3.49-14.54,6.44-21.44.54-1.19,1.06-2.37,1.6-3.56a40.29,40.29,0,0,1,10.5-14c.71-.83,1.4-1.68,2.07-2.54,1.31-1.67,2.73-3.32,4.92-3.93a11.67,11.67,0,0,1,2.74-2.21,48.19,48.19,0,0,1,23.26-9.87,8.65,8.65,0,0,1,5,.57l1.79-1.85c-.17-.2-.32-.47-.53-.56-.81-.35-1.33-.87-1.16-1.8.2-1.09,1.11-.92,1.86-1a98.11,98.11,0,0,0,15-2.81c2.21-.54,4.43-1.17,6.76-.63a28.56,28.56,0,0,1,12-.28c1.33-.87,2.07.7,3.24.78a12.41,12.41,0,0,1,5.72,1.86c1.59,1,3.79,1.37,4.87,2.63,1.41,1.67,2.64,1.6,4,.76a1.69,1.69,0,0,1,2.38.19l.14.19c.67-.5,1,0,1.52.39a37.35,37.35,0,0,0,5.69,3.76,73.87,73.87,0,0,1,12.09,6.77c.71-.61,1.27-.32,1.88.22,1.34,1.22,2.79,2.32,4.09,3.58,3.31,3.24,6.54,6.56,9.85,9.8A2.86,2.86,0,0,1,360.14,242.6Zm353.58,519c.12-.37.21-.76.36-1.12,1-2.5,2.85-4.51,4-6.91a180.78,180.78,0,0,0,7.36-16.68c.28-.75.43-1.62,1.55-1.32s.9,1.15.79,1.93a15.64,15.64,0,0,1-.42,1.92c-5.57,20.6-16.86,37.18-34.66,49.13-2.67,1.79-5.2,4-8.62,4.39-1.31.47-2.66.48-3.1-1s1.17-1.48,2-1.9a69.27,69.27,0,0,0,23.76-19.61c2.33-3,4.11-6.29,6.91-8.84ZM392.14,278.77c-.7-.15-1.05-.75-1.52-1.2-2.38-2.26-3.82-5.24-5.92-7.72-1-1.52-1.06-3.48-2.64-4.85-3-2.58-2.43-5.94,1-8.06s6.42-1.16,9.41.67c4.68,2.86,8.12,7,11.35,11.33,4.59,6.19,8.17,12.81,9.11,20.6a44.89,44.89,0,0,1-.65,13.73,2.16,2.16,0,0,1-1.67,2c-.94.17-1.27-.67-1.66-1.39-.55-1-1.17-2-1.82-3a2.37,2.37,0,0,1,0-2.92,8.25,8.25,0,0,1-4.35-4.19A74.83,74.83,0,0,0,392.14,278.77ZM714,751.77l-.34-.11-.43.38c1.06,1.16,2.39,2.35,1.26,4.07-1.92,2.92-3.59,6.06-6.44,8.26-.46.63-.92,1.25-1.37,1.88a7.4,7.4,0,0,1-1.47,2.73c-4.14,3.89-7.5,8.54-12,12.07a47.81,47.81,0,0,1-13,7.43,2,2,0,0,1-2.74-.7h0a7.21,7.21,0,0,1-3.18-5.81,18.17,18.17,0,0,1,2.28-10.61c-.79-2.55-.76-2.59,1.85-2.74q4-4,8.06-8l-.66-.63L677,768c.42-2.29.74-4.07,1.07-5.85-1-.55-.92-1.5-.85-2.41.23-3.11.5-6.21.75-9.32-2-1-2.23-1.52-1.19-3.35a4.91,4.91,0,0,1,.31-3.07c-1.1-2.3-1.6-4.61-.26-7a19.29,19.29,0,0,1,7.24-8c3.69-2.48,8-3.35,12.29-4.37a19.31,19.31,0,0,1,6.19-2.74c1.47-1.09,2.91-2.23,4.42-3.25a2.32,2.32,0,0,1,3,.08c4.27,4,8.82,7.66,12.53,12.24a5.25,5.25,0,0,1,.8,6c-2,4.83-4,9.68-6.42,14.34-1,1.79-1.37,1.84-2.88.39ZM424,386.5c-.08-4.85,1.38-5.95,5.76-4.23,3.79,1.49,7.21,3.71,10.74,5.69a6.56,6.56,0,0,1,2.49,2.73c3.61,6.89,8.08,13.29,11.66,20.21.26.52.8.9.41,1.55a1.65,1.65,0,0,1-1.71.68c-6.36-.33-12.72-1-19.1-.16-1.3.17-1.81-.49-1.75-1.72a22.06,22.06,0,0,1,.93-4.83,30.38,30.38,0,0,0-.18-15.78,10.13,10.13,0,0,0-2.78-4.89c-.85-.85-1.72-1-2.16.46.93,1.08,2.4,2.35,1.12,3.64a7.21,7.21,0,0,1-4.4,1.85c-1.12.09-1.46-.68-1.63-1.58a7.57,7.57,0,0,1,.57-3.67ZM585.6,509c1,.91,2.19,1.72,2.31,3.34-1.51-.34-1.51-.34-3.3-2.27-7.55-6.51-15.47-12.58-22.71-19.45-7.62-7.24-15.34-14.39-22.39-22.21-1.32-1.46-2.82-2.75-4-4.34-4.69-6.31-9-12.87-14.2-18.84-.5-.58-1.19-1.13-.46-2s1.47-.4,2.17.14c4.48,3.42,8.94,6.87,13.46,10.24a31.39,31.39,0,0,1,9,9.73,40.71,40.71,0,0,0,5.7,7.73c6.87,7.42,13.87,14.72,20.55,22.32C576.36,498.61,581,503.8,585.6,509Zm-83.08,66c.21,1.32,2,1.79,1.88,3.5-1.46-.39-2.07-1.61-3-2.44a13.28,13.28,0,0,1-3.14-2c-3.4-2.47-6.35-5.47-9.59-8.14-5-4.13-10.59-7.55-15-12.44a26,26,0,0,0-6.68-5.15c-6.32-3.53-12.45-7.16-16.2-13.81-2.21-3.92-5.05-7.49-7.59-11.23-.7-1-1.1-2,0-3.15s1.88-.28,2.71.36c2.71,2.07,5.39,4.17,8.11,6.22,3.88,2.91,8.17,5.25,11.66,8.68,5.43,5.35,11,10.55,16.26,16.08,6.21,6.52,12.14,13.3,18.37,19.79A7.92,7.92,0,0,1,502.52,575ZM298.07,404.05c1-.13,1.25.86,2,1.18,1.86.39,3.25,1.62,4.75,2.65.67.45,1.77.6,1.54,1.74s-1.17,1.16-2,1.4a33,33,0,0,1-18.27,0c-11.6-3-20.35-10.24-27.62-19.43a8.3,8.3,0,0,1-1.1-8.91c1.64-3.72,5.25-4.61,8.48-2.08a8.6,8.6,0,0,0,2.86,1.68,6,6,0,0,1,3.17,2.21c2.7.3,3.64,2.76,5.3,4.35a14.07,14.07,0,0,1,2.82,2.1,42,42,0,0,0,9.87,7.93C292.59,400.57,295.81,401.56,298.07,404.05ZM579.13,575a2,2,0,0,1-1.73,2.24,2.26,2.26,0,0,1-.52,0,47.92,47.92,0,0,1-8.51,6.91,39.62,39.62,0,0,0-6.08,4.28c-.85.82-1.36,1.67-.5,2.73s1.7,1.68,3.19.8a109.45,109.45,0,0,0,10.27-6.48,1.8,1.8,0,0,1,2.54-.08l.08.08a141.19,141.19,0,0,1,9.8,10.51c3.48,3.89,6.77,8,10,12.1,1.78,2.31,4,4.19,5.79,6.43q4.32,5.31,8.59,10.68c2.65,3.32,5.35,6.6,8,9.89a73,73,0,0,0,9.51,9.5c2.61,2.22,6,3.6,7.65,6.91a16.29,16.29,0,0,0,4.25,5.36c2.81,2.33,5.85,4.42,8.51,6.91a180.82,180.82,0,0,1,14.72,15.35c1.39,1.66,3,3.11,4.29,4.85a51.66,51.66,0,0,0,10.46,10c3.36,2.58,6.92,4.9,10.39,7.33,4.27,3,8,6.69,13.14,8.44,2.21.76,2.48,3,.79,4.75-3.39,3.46-7.8,5.19-12.3,6.25a28.94,28.94,0,0,0-15.62,8.87c-3.42,3.84-4.37,3-6.26-1.59l-.06-.19c-1-5.22-4.36-8.35-9.26-10a4.53,4.53,0,0,1-2.84-2.73c-1.13-2.49-2.44-4.87-4.86-6.47-1.45-1-2.66-2.3-4-3.41-3.15-2.53-6.34-5-9.5-7.55s-6.62-4.68-9.51-7.55a95.46,95.46,0,0,1-9.27-9.91c-1.6-2.11-3.69-3.76-5.25-5.85-3.19-4.25-7.37-7.42-11.33-10.83-2.18-1.88-4.86-3-7-5s-4.87-3.94-7.32-5.9c-3.2-2.57-6.67-4.89-9.55-7.8-15.76-16-32.13-31.32-47.33-47.83-1.51-1.75-1.4-2.42.63-3.33,1-.43,1.93-.82,2.9-1.21,3.22-1.29,6.53-2.41,9.37-4.48,4.52-3.3,9-6.62,13.5-10s9.71-6.46,13.48-11.2c3.11-3.92,6.72-7.48,9.69-11.54a119.61,119.61,0,0,0,12.5-22.62c.44-1,0-2.57,1.69-2.76s2.16,1.28,3,2.17a5.54,5.54,0,0,1,.77,1.36c2.28,2.07,4.66,4.05,6.84,6.22Q619.31,552,631.7,564.48c1.57,1.58,2.84,3.6,4.52,4.87,3.13,2.35,5.57,5.32,8.28,8a43.33,43.33,0,0,1,3.71,4.3c2.47,3.29,5.25,6.33,7.94,9.45q2.88,3.35,5.43,6.93c2.69,3.78,5.22,7.67,8.5,11,4.11,4.16,8.78,7.67,13.1,11.55a98.53,98.53,0,0,1,11.25,11.59c3.8,4.74,7.17,9.79,10.92,14.56,2.22,2.84,4.24,5.88,7.43,7.72a17.25,17.25,0,0,1,8,8.88,6.44,6.44,0,0,0,1.9,2.4c2.38,2,5.36,2.41,8.06,3.56,3.11,1.32,3.33,2.22.88,4.48-4.69,4.34-8.19,9.42-9.58,15.71a32.22,32.22,0,0,1-4.38,10.66c-1,1.57-2,3.63-4.17,3.36s-3.09-2.2-3.87-4a25.15,25.15,0,0,0-6-8.89,13.94,13.94,0,0,1-2.88-3.93,53.2,53.2,0,0,0-9.7-13c-2-2-4.19-3.76-6.19-5.75-1.36-1.34-2.69-2.72-4.09-4-3.39-3.1-7-5.94-10.13-9.29-2-2.11-4-4.18-5.92-6.3a32.35,32.35,0,0,1-3.13-3.28c-2.47-3.7-5.81-6.47-9.22-9.24a28.24,28.24,0,0,1-5.43-5.65c-1.62-2.32-2.6-5.1-5.3-6.68a31,31,0,0,1-5.52-4.36c-3.37-3.21-7.08-6-10.73-8.86C621.11,607,617,603.6,613,600c-3.3-3-6.76-5.79-10-8.81-5.26-4.83-10.74-9.4-15.91-14.33-1.14-1.1-1.19-2.13,0-3.16a21.41,21.41,0,0,0,3.42-4,3.49,3.49,0,0,0,.67-3.51,2.24,2.24,0,0,0-2-1.3c-1.36-.21-2.09.87-2.67,1.72A59.3,59.3,0,0,1,579.13,575ZM450.34,450.6l.71-.71c-1.62-1.73-4.13-2.48-5.22-4.79-.48-.56-1.31-1-.84-1.94-2.11-4.27-4.24-8.53-6.33-12.81a3.3,3.3,0,0,1-.38-2.28c-2.88-3-3.62-7-4.83-10.74-.43-1.35.54-2.13,2-2.31a68.67,68.67,0,0,1,8.24-.23,48.54,48.54,0,0,1,12.25,1.15c3.43-1.33,3.47-1.49,1.43-4.63s-3.66-6.89-5.81-10.18c-2.31-3.53-4.16-7.37-6.24-11.05a22.12,22.12,0,0,1-1.77-2.81,1.79,1.79,0,0,1,.61-2.46l.29-.14c1.54-.85,3.05-1.75,4.55-2.69,4.65-2.88,9.36-5.67,13.89-8.73s8.74-6.76,14.92-6.49c2.77.12,5.31.3,7.67,1.76,5.24,3.23,9.6,7.64,14.72,11a3.21,3.21,0,0,1,.93.26,133.74,133.74,0,0,1,13.43,10.64c2.34,1.45,4,3.94,6.78,4.72a1.72,1.72,0,0,1,.66.43c4,4.09,9.23,6.64,13.69,10.17,2.27,1.8,2.73,2.74,1.76,5.52a64.76,64.76,0,0,1-5.17,11.45c-3.33,5.68-7.14,11-12.51,15-1.27,1-2.25.89-3.16-.38s-1.81-2.56-2.72-3.85c-4.22-6-8.37-12-12.68-18-3.3-4.56-6.73-9-10.2-13.45-2.53-3.26-5.16-6.44-7.83-9.59-1-1.17-2.34-1.58-3.65-.47s-.74,2.43.09,3.5c4.28,5.47,8.61,10.89,12.91,16.35q6.2,7.86,11.88,16.11c4.56,6.63,8.94,13.39,13.62,19.93a316.55,316.55,0,0,0,19.59,25.25c4.25,4.81,8.11,10.18,14.16,13.1a1.8,1.8,0,0,1,.55.55c2.36,3,5.37,5.38,8.16,7.93,5.17,4.74,10.46,9.37,15.93,13.76,2.37,1.9,4,4.57,6.58,6.14a42.75,42.75,0,0,1,6,4.73c4.14,3.64,3.51,4.94,2.11,8.9a95.44,95.44,0,0,1-11.25,21.89,72.42,72.42,0,0,1-10.26,12.05c-5,4.76-9.5,10.21-16,13.25a1.43,1.43,0,0,0-.71.64c-.43,1.28-1.51,1.72-2.59,2.24a8.3,8.3,0,0,0-2.6,1.74,26.25,26.25,0,0,1-7,5,67,67,0,0,1-15.41,6.38c-.74.18-1.44.35-2-.24-3-3.05-6.39-5.82-8.89-9.23a182.45,182.45,0,0,0-12.57-14.79c-3.35-3.67-6.28-7.69-9.71-11.3-3.92-4.11-7.68-8.43-11.4-12.76-4.6-5.36-10.4-9.4-16-13.61-1.81-1.36-3-3.43-5-4.41a39.21,39.21,0,0,1-7.81-5.54c-3-2.57-6.52-4.33-9.64-6.71-3.66-2.79-7.72-5.07-11.44-7.8-2.83-2.08-5.77-4-8.54-6.21s-5.39-4.11-8.09-6.15c-3.43-2.59-7-5-10.2-7.92-1.83-1.63-4.17-2.59-5.53-4.88-.89-1.48-2.74-1.66-4.41-1.81-.73-.07-1,.34-1.25,1a3.32,3.32,0,0,0,1.76,4.26,7.67,7.67,0,0,1,1.85,1.1,93.4,93.4,0,0,0,13.5,10.79c3.07,2,5.51,4.83,8.81,6.54a7.18,7.18,0,0,1,1.91,1.37c3.33,3.4,7.51,5.63,11.38,8.29,2.1,1.45,4.25,2.82,6.32,4.31a1.9,1.9,0,0,1,.71,2.59,1.77,1.77,0,0,1-.31.41,47.91,47.91,0,0,1-11.13,10.79,63.9,63.9,0,0,1-18.83,8.7,2,2,0,0,1-2.47-1c-2.19-3-4.11-6.2-6.23-9.26-3-4.37-6.15-8.71-9.14-13.12-3.4-5-7.37-9.69-10.94-14.6-2.71-3.73-5.57-7.38-8.44-10.94-4.91-6.1-6.1-14.53-1.82-21.17,1.13-1.76,2.53-3.35,3.66-5.1,3.88-6.05,7.71-12.13,11.54-18.21.88-1.4,1.77-1.63,3.23-.64,2.16,1.47,4.11,3.44,6.37,4.51,5.92,2.8,11,7.08,17.22,9.31,2.12.76,2.65.69,3.41-1.35.18-.49.33-1,.49-1.5a67,67,0,0,1-.94-19.88,3,3,0,0,1,.09-.38,1.52,1.52,0,0,1,1.57-1.47,1.56,1.56,0,0,1,.43.08c4.08.88,8.27,1.51,11.23,5a17,17,0,0,1,5.76,2.35C439.14,444.24,444.47,447.89,450.34,450.6ZM441.76,443c-.65-.32-1.13-.53-1.58-.78-4.27-2.4-8.61-4.69-12.8-7.23a27.65,27.65,0,0,0-24-2.79,13.26,13.26,0,0,1-4.84.75c-3.18-.19-3.85-1.33-2.43-4.13.91-1.8,2.2-3.51,1.95-5.66a2.42,2.42,0,0,1,1.78-2.91l.1,0a33.05,33.05,0,0,0,18.3-16.09,18.18,18.18,0,0,1,10.61-9.11c2.32-.76,3.2-.14,3.25,2.32a32.52,32.52,0,0,1-1.08,9.37,20.49,20.49,0,0,0,1.2,14.76c1.06,2.24,2,4.56,3,6.83,2.13,4.84,4.66,9.5,6.54,14.65Zm-59.53-18.68a4.92,4.92,0,0,1,2.9-1.13,31.28,31.28,0,0,1,3.35-.14c4.85,0,5.18.49,3.07,4.81-.93,1.91-1.86,2.24-3.75,1.28a7.57,7.57,0,0,1-1.39-1.07c-.58-.5-1.17-.66-1.72,0a1.09,1.09,0,0,0,0,1.54.88.88,0,0,0,.24.19c4,2.56,8,5.26,13.12,5.19a54.81,54.81,0,0,0,10.51-1.59c4.22-.9,4.32-.9,3.92,3.33-.52,5.41.11,10.77.34,16.15.1,2.22-.66,2.76-2.72,1.88-5-2.14-9.5-5.24-14.06-8.15-3.21-2-6.61-3.84-8.66-7.42s-4.42-6.65-5.8-10.45a4,4,0,0,1,.68-4.42ZM324.37,323.05h0c1-1,2-2.06,3.06-3a1.17,1.17,0,0,1,1.65-.1,1.38,1.38,0,0,1,.22.26c.58.66.64,1.28,0,1.86a10.63,10.63,0,0,1-1.13.76c-1.77,1.14-3.4,2.42-4.12,4.52-.21.61-.34,1.4-1.19,1.31a1.89,1.89,0,0,1-1.59-1,1.56,1.56,0,0,1,.5-1.93c.85-.91,1.73-1.8,2.6-2.68Zm-52.15,53.8h0c-.83.83-1.65,1.69-2.52,2.49a1.34,1.34,0,0,1-1.49.18.85.85,0,0,1-.37-1.14l0-.06c1.32-2.35,2.8-4.57,5.44-5.65a1.09,1.09,0,0,1,1.51.36l0,.05c.38.64.06,1.11-.38,1.56-.77.72-1.51,1.46-2.25,2.21ZM376.39,269.36c.74-.74,1.45-1.51,2.23-2.22a1.18,1.18,0,0,1,1.64-.25,1.17,1.17,0,0,1,.25,1.63,1.28,1.28,0,0,1-.29.28q-2.12,2.19-4.31,4.3a1,1,0,0,1-1.41.08l-.15-.17a1,1,0,0,1-.15-1.41l.15-.15C375,270.73,375.69,270.05,376.39,269.36Zm-57,55.43,6.92-6.92a12.21,12.21,0,0,1-6.87,6.92ZM289,346.19c-1.71,1.95-3.24,4.07-5.65,5.28,1.59-2.13,2.54-4.88,5.7-5.28Z"/><path class="b" d="M500.13,379.53c-5.12-3.37-9.48-7.78-14.72-11-2.36-1.46-4.9-1.64-7.67-1.76-6.18-.27-10.33,3.4-14.92,6.49s-9.24,5.85-13.89,8.73c-1.5.94-3,1.84-4.55,2.69a1.79,1.79,0,0,0-1,2.31,1.11,1.11,0,0,0,.14.29,22.12,22.12,0,0,0,1.77,2.81c2.08,3.68,3.93,7.52,6.24,11.05,2.15,3.29,3.68,6.9,5.81,10.18s2,3.3-1.43,4.63a2.94,2.94,0,0,1-2.4,1.11c-3.25.36-6.49.74-9.74,1.12-.79.1-2.1.34-2,.95.65,2.72-1.27,4.19-2.51,6a3,3,0,0,0-.28,1.14,3.49,3.49,0,0,1-.73,1.79,3.3,3.3,0,0,0,.38,2.28c2.09,4.28,4.22,8.54,6.33,12.81a19.38,19.38,0,0,1,1.35-1.91c1.82-2,3.88-1.46,4.76,1.16a2.39,2.39,0,0,1-.62,2.51,1.82,1.82,0,0,1-2.33.31c-.73-.33-1.5-1-2.32-.13,1.09,2.31,3.6,3.06,5.22,4.79a9.93,9.93,0,0,1,4.51,2.81,5.36,5.36,0,0,1-5.22-2.1c-5.87-2.71-11.19-6.36-16.63-9.79a17,17,0,0,0-5.76-2.35,3.64,3.64,0,0,1-2.51.93,35.38,35.38,0,0,0-3.7.37c-2.65.42-3.27,1.05-3.83,3.67a31.63,31.63,0,0,0-.7,6.58,7.77,7.77,0,0,1-1.58,5.13c-.16.5-.31,1-.49,1.5-.76,2-1.29,2.11-3.41,1.35-6.21-2.23-11.3-6.51-17.22-9.31-2.26-1.07-4.21-3-6.37-4.51-1.46-1-2.35-.76-3.23.64C381,450.88,377.18,457,373.3,463c-1.13,1.75-2.53,3.34-3.66,5.1-4.28,6.64-3.09,15.07,1.82,21.17,2.87,3.56,5.73,7.21,8.44,10.94,3.57,4.91,7.54,9.58,10.94,14.6,3,4.41,6.09,8.75,9.14,13.12,2.12,3.06,4,6.25,6.23,9.26a2,2,0,0,0,2.47,1,63.9,63.9,0,0,0,18.83-8.7,47.91,47.91,0,0,0,11.13-10.79,1.91,1.91,0,0,0,0-2.69,2.1,2.1,0,0,0-.41-.31c-2.07-1.49-4.22-2.86-6.32-4.31-3.87-2.66-8.05-4.89-11.38-8.29a7.18,7.18,0,0,0-1.91-1.37c-3.3-1.71-5.74-4.57-8.81-6.54a93.4,93.4,0,0,1-13.5-10.79,7.67,7.67,0,0,0-1.85-1.1,3.32,3.32,0,0,1-1.76-4.26c.21-.64.52-1.05,1.25-1,1.67.15,3.52.33,4.41,1.81,1.36,2.29,3.7,3.25,5.53,4.88,3.23,2.87,6.77,5.33,10.2,7.92,2.7,2,5.47,4.06,8.09,6.15s5.75,4.19,8.58,6.19c3.72,2.73,7.78,5,11.44,7.8,3.12,2.38,6.61,4.14,9.64,6.71a39.21,39.21,0,0,0,7.81,5.54c2,1,3.19,3,5,4.41,5.61,4.21,11.41,8.25,16,13.61,3.72,4.33,7.48,8.65,11.4,12.76,3.44,3.61,6.36,7.63,9.71,11.3A180,180,0,0,1,514.35,582c2.5,3.41,5.88,6.18,8.89,9.23.59.59,1.29.42,2,.24a67,67,0,0,0,15.41-6.38,26.09,26.09,0,0,0,7-5,8.3,8.3,0,0,1,2.6-1.74c1.08-.52,2.16-1,2.59-2.24a1.43,1.43,0,0,1,.71-.64c6.47-3,10.93-8.49,16-13.25a72.42,72.42,0,0,0,10.26-12.05,95.44,95.44,0,0,0,11.25-21.89c1.4-4,2-5.26-2.11-8.9a42.75,42.75,0,0,0-6-4.73c-2.62-1.57-4.21-4.24-6.58-6.14-5.47-4.39-10.76-9-15.93-13.76-2.79-2.55-5.8-4.92-8.16-7.93a1.8,1.8,0,0,0-.55-.55c-6.05-2.92-9.91-8.29-14.16-13.1A316.55,316.55,0,0,1,518,447.92c-4.68-6.54-9.06-13.3-13.62-19.93q-5.67-8.25-11.88-16.11c-4.3-5.46-8.63-10.88-12.91-16.35-.83-1.07-1.44-2.37-.09-3.5s2.66-.7,3.65.47c2.67,3.15,5.3,6.33,7.83,9.59,3.47,4.44,6.91,8.89,10.2,13.45,4.31,5.93,8.46,12,12.68,17.95.91,1.29,1.8,2.57,2.72,3.85s1.89,1.33,3.16.38c5.37-4,9.18-9.32,12.51-15a64.76,64.76,0,0,0,5.17-11.45c1-2.78.51-3.72-1.76-5.52-4.46-3.53-9.65-6.08-13.69-10.17a1.72,1.72,0,0,0-.66-.43c-2.81-.78-4.44-3.27-6.78-4.72-1.19.84-1,1.84-.32,2.9s1.27,1.81,2,2.82c-1.18,0-1.68-.77-2.26-1.36-4.51-4.48-8.52-9.45-13.2-13.78C500.3,380.62,499.75,380.25,500.13,379.53Zm-57.2,54.34c-1.63-1.66-1.63-2.61-.38-4s2.38-.52,3.35.3c1.25,1,1.05,2.59-.22,3.93s-2,.6-2.72-.23Z"/><path class="c" d="M372.43,326c-5.87,5.24-12,6.3-19.18,6a41.93,41.93,0,0,1-14.57-3.5c-2.44-1-5.15-.86-7.61-1.81-.71-.28-1.24.34-1.62.87a5.3,5.3,0,0,0-1.25,4,3.54,3.54,0,0,1,.87,3.57h0a39.89,39.89,0,0,0,3.36,8.14c1.53,2.74,3.13,5.44,4.71,8.15.29.5.85,1.06.24,1.55s-1.16-.18-1.63-.6c-.66-.57-.79-1.61-1.71-2.08a6.16,6.16,0,0,0-.34,2.59c0,1.56.35,3.15-.57,4.59l-.4,1.36-1.89,4.82c-.86,2.17-1.83,4.3-2.9,6.37a32.68,32.68,0,0,1-13.68,13.72c-10,5.56-20,5.53-29.59-1.42a75.65,75.65,0,0,1-6.7-5.13c-.73-.68-1.53-.91-2.25-.18s-.46,1.38.11,2.12c4.91,6.34,10,12.44,17.41,16.14a65.69,65.69,0,0,1,6.14,3.78c2.44,1.58,5,2.9,7.41,4.48,1.59,1,3.24,2.13,4.79,3.33,2.07,1.6,4.47,2.78,6.67,4.23s4.46,3.24,6.8,4.67c7.74,4.72,16.22,6.28,25.22,6.26,3.3,0,6.69.14,10,0a77,77,0,0,0,11.34-1.29,88.11,88.11,0,0,1,10.7-1.66c1.81-.13,1.82-1.3,1.53-2.76,8.62,3.28,15.58.15,22.2-5,4.64-3.58,7.85-8.17,10.51-13.29a18.3,18.3,0,0,0,1.55-13.18c-.23-.94-.42-1.89-.67-3.07,1.34.93,2.15,1,2.49-.68,1.91-9.22,3.43-18.5,3.22-27.95-.1-4.47-.32-8.94-.7-13.4-.6-7.14-3.77-13.28-7.75-19.08-2.11-3.08-4.3-6.1-6.3-9.25-3.84-6.05-7.47-12.25-11.39-18.25-2.53-3.88-4.73-8.05-8.29-11.17a95.4,95.4,0,0,1-7.67-7.38c-1-1.09-1.82-.61-2.7.12s-.68,1.49,0,2.36c1,1.35,2.43,2.21,3.43,3.48,3.84,4.9,7.09,10.37,7.29,16.58a27.69,27.69,0,0,1-6.34,18.75c.32,2.88.11-.17,0,0-.69,1.28-4.81,5.67-10.2,10.09M361,365.23l5-5c.13-4.41,1.42-8.12,5.79-10.16,1.38-.65,1.51-1.87.7-3.17a8,8,0,0,0-2.62-2.64c-.44-.27-.88-.57-1.3-.88s-.92-.37-1.09-1.06c3.08.18,5.78.79,7.13,3.82,1.26,2.82,0,5.09-1.71,7.24a18.14,18.14,0,0,0-3.79,8.35,7,7,0,0,1-6,6.2,21.34,21.34,0,0,0-9.32,4.51c-1.78,1.45-3.66,2.46-6,1.32a7.33,7.33,0,0,1-4.47-6.06c0-.38-.25-.92.44-1.16,1.35,1.74,2.22,3.92,4.42,4.9,1.47.65,2.54.58,3.37-1.1,2-4.24,4.81-5.69,9.36-5.15Zm19.11,15.1a105.29,105.29,0,0,1-13.64,11.28c-4,2.71-8.2,5-11.7,8.32-.76.73-1.53,1.34-2.6.69-1.6-1-1.81-2.45-1.44-4.12.25-1.14.81-2.05,2.11-1.88,2,.25,3.56-.58,5.15-1.57A107.19,107.19,0,0,0,391,361.85c2.23-3.29,5.3-6.24,5.19-10.78,0-1.52,1.69-1.62,2.9-1.84a2.57,2.57,0,0,1,3,1.4,2.2,2.2,0,0,1-.73,2.8,25.31,25.31,0,0,0-4,5.32A119.93,119.93,0,0,1,380.14,380.33Zm7.4,6.8a19,19,0,0,1-7.19,5.58c-.85.34-1.85.76-2.46-.2s.35-1.69,1-2.22a92.39,92.39,0,0,0,8-6.91,40,40,0,0,0,5.55-6.56c.35-.52.78-1,1.45-.72a1.31,1.31,0,0,1,.59,1.66,8.38,8.38,0,0,1-.76,1.8,27.11,27.11,0,0,1-6.16,7.57Z"/><path class="d" d="M309,327.74c3.09-.69,5.59-2.55,8.09-4.3a34.19,34.19,0,0,0,11.45-14c.61-1.31.25-2-.85-2.48-1.82-.8-2.1-2.09-1.48-3.8a40.13,40.13,0,0,1,6-10.25,45,45,0,0,1,6.06-6.66,77.5,77.5,0,0,1,19.29-12.78c.24-.11.53-.33.73-.27,2.35.72,4.19-.88,6.27-1.35a11,11,0,0,1,4.5-.15,2.23,2.23,0,0,0,2.14-.6c2.67-2.52,2.85-2.76,0-5.3-2.65-2.39-5.11-5-8.2-6.92a128.19,128.19,0,0,0-15.73-8.61c-4.73-2-8.54-5.55-12.34-9.06a29.75,29.75,0,0,0-10.43-5.72c-6.06-2.16-10.82-.41-15,4-5.21,5.55-10.07,11.41-15,17.18-4,4.67-8.28,9.14-12.36,13.77a252.19,252.19,0,0,1-21.49,21.14c-6.69,6-13.69,11.64-20.11,18-8,7.89-6.88,14.08-1.17,21.78,3.2,4.31,6.84,8.29,10.18,12.49,1.92,2.4,2.62,5.49,4.41,8,2.64,3.73,4.88,7.79,7.61,11.41,2.13,2.81,4,5.94,6.73,8.34.69.61,1.27,1.21,2.16.39a7.75,7.75,0,0,0,2.13-6.63,5.57,5.57,0,0,1,1.78-5.12l.45-1.15c-1.26-1.09-.63-2.25-.09-3.39a71,71,0,0,1,16.41-22.41c3.6-3.29,7.38-6.34,12.06-8,2.88-1,3.2-.88,4.9,1.66A4.86,4.86,0,0,0,309,327.74Z"/><path class="e" d="M532.42,597c15.2,16.51,31.57,31.87,47.33,47.83,2.88,2.91,6.35,5.23,9.55,7.8,2.45,2,5,3.76,7.32,5.9,2.13,2,4.81,3.15,7,5,4,3.41,8.14,6.58,11.33,10.83,1.56,2.09,3.65,3.74,5.25,5.85a95.46,95.46,0,0,0,9.27,9.91c2.89,2.87,6.34,5,9.51,7.55s6.35,5,9.5,7.55c1.37,1.11,2.58,2.44,4,3.41,2.42,1.6,3.73,4,4.86,6.47a4.53,4.53,0,0,0,2.84,2.73c4.9,1.63,8.22,4.76,9.26,10l.06.19c1.89,4.63,2.84,5.43,6.26,1.59a28.94,28.94,0,0,1,15.62-8.87c4.5-1.06,8.91-2.79,12.3-6.25,1.69-1.72,1.42-4-.79-4.75-5.1-1.75-8.87-5.46-13.14-8.44-3.47-2.43-7-4.75-10.39-7.33a51.66,51.66,0,0,1-10.46-10c-1.28-1.74-2.9-3.19-4.29-4.85a179.39,179.39,0,0,0-14.73-15.35c-2.65-2.49-5.69-4.58-8.5-6.91a16.18,16.18,0,0,1-4.29-5.36c-1.64-3.31-5-4.69-7.65-6.91a73,73,0,0,1-9.51-9.5c-2.68-3.29-5.38-6.57-8-9.89q-4.28-5.36-8.59-10.68c-1.81-2.24-4-4.12-5.79-6.43-3.18-4.14-6.47-8.21-10-12.1a141.19,141.19,0,0,0-9.8-10.51,1.8,1.8,0,0,0-2.54-.08l-.08.08A109.84,109.84,0,0,1,565,592c-1.49.88-2.35.23-3.19-.8s-.35-1.91.5-2.73a39.62,39.62,0,0,1,6.08-4.28,47.92,47.92,0,0,0,8.51-6.91c-.79-1.06-1.34-3-2.86-2.48-2.69,1-5.7,1.1-8.13,2.8-3.58,2.51-7,5.26-10.72,7.54A157.48,157.48,0,0,0,540,595C537.84,596.61,535.56,598.53,532.42,597Zm144.4,121.65c2.26-1,4.14-2.07,6.13-2.81,3.17-1.18,6.42-1.92,9.81-.91.57.17,1.27.35,1.13,1.11s-.78.61-1.29.67c-1.62.2-3.24.43-4.87.57-4.93.44-9.62,1.39-13,5.53a12.49,12.49,0,0,1-1.26,1.26,1.49,1.49,0,0,1-2,.22c-.78-.57-.32-1.33,0-2a27.07,27.07,0,0,1,1.95-2.44c2.16-3.26,4.33-6.55,8.06-8.51C679.88,713.71,677.71,715.57,676.82,718.65Zm-60-48.44c1.87-.12,3.07,1,4.52,1.3,5.37,1.22,10.73,2.48,16.3,2.21.5,0,1.16-.14,1.21.64s-.63.65-1.1.8a22,22,0,0,1-6.26.52c-.46,0-1.21-.28-1.28.47-.06.59.58.81,1.09,1s1.26.35,1.89.53c.26.07.58.14.49.47a.88.88,0,0,1-.49.51c-1.09.4-5.07-1.08-5.4-2.16-.58-1.87-2-2.37-3.61-2.89-2.45-.81-5.15-1.23-7.32-3.4ZM664.55,715c.45-.38.53-.49.64-.53a3.41,3.41,0,0,1,.76-.2,10.87,10.87,0,0,0,7.58-4.12,27.61,27.61,0,0,1,2.22-2.24c.45-.42.91-1.16,1.61-.41s.18,1.27-.24,1.78a13,13,0,0,1-3.72,3.17C670.78,713.88,668.12,715.32,664.55,715Z"/><path class="e" d="M579.13,575a59.08,59.08,0,0,0,7.35-8.44c.58-.85,1.31-1.93,2.67-1.72a2.24,2.24,0,0,1,2,1.3,3.49,3.49,0,0,1-.67,3.51,21.41,21.41,0,0,1-3.42,4c-1.22,1-1.17,2.06,0,3.16,5.17,4.93,10.65,9.5,15.91,14.33,3.28,3,6.74,5.82,10,8.81,4,3.6,8.13,7,12.35,10.27,3.65,2.86,7.36,5.65,10.73,8.86a31,31,0,0,0,5.52,4.36c2.7,1.58,3.68,4.36,5.3,6.68a28.24,28.24,0,0,0,5.43,5.65c3.41,2.77,6.75,5.54,9.22,9.24a32.35,32.35,0,0,0,3.13,3.28c2,2.12,4,4.19,5.92,6.3,3.1,3.35,6.74,6.19,10.13,9.29,1.4,1.28,2.73,2.66,4.09,4,2,2,4.2,3.78,6.19,5.75a53.2,53.2,0,0,1,9.7,13,13.94,13.94,0,0,0,2.88,3.93,25.15,25.15,0,0,1,6,8.89c.78,1.85,1.74,3.8,3.87,4s3.14-1.79,4.17-3.36A32.22,32.22,0,0,0,722,689.43c1.39-6.29,4.89-11.37,9.58-15.71,2.45-2.26,2.23-3.16-.88-4.48-2.7-1.15-5.68-1.56-8.06-3.56a6.44,6.44,0,0,1-1.9-2.4,17.25,17.25,0,0,0-8-8.88c-3.19-1.84-5.21-4.88-7.43-7.72-3.75-4.77-7.12-9.82-10.92-14.56a98.53,98.53,0,0,0-11.25-11.59c-4.32-3.88-9-7.39-13.1-11.55-3.28-3.32-5.81-7.21-8.5-11q-2.55-3.59-5.43-6.93c-2.69-3.12-5.47-6.16-7.94-9.45a43.33,43.33,0,0,0-3.71-4.3c-2.71-2.71-5.15-5.68-8.28-8-1.68-1.27-3-3.29-4.52-4.87Q619.27,552,606.83,539.64c-2.18-2.17-4.56-4.15-6.84-6.22-1.41,1-2,2.6-2.66,4.07-5.48,11.44-12.16,22.07-21,31.25-1,1-2,2-1.13,3.58S577,575.24,579.13,575Zm99.67,56.69.25.46h-.17l-.09-.5-.72-1.61c-.3-.67-.32-1.82-1.42-1.47-.94.29-.52,1.24-.3,1.87a11.66,11.66,0,0,1-.29,7.71c-.11.33-.13.88-.68.8s-.51-.57-.57-.93,0-1-.07-1.57c-.49-4.29-.47-8.63-1.36-12.89a40.46,40.46,0,0,0-2-5.76c-.16-.43-.34-1,.27-1.16s.56.42.7.76a36.79,36.79,0,0,1,2.77,7.6,1.93,1.93,0,0,0,1.36,1.76,3.53,3.53,0,0,1,2.51,4.32,3.33,3.33,0,0,1-.22.6Zm33.47,48.94c2.74-4.72,7.07-7.14,11.05-10,.52-.36,1.13-.68,1.74,0s.29,1.34-.13,2a4.23,4.23,0,0,1-.68.72c-3.7,3.27-5.25,7.5-5.71,12.31-.2,2.13-.14,4.33-.86,6.39-.14.39-.09,1-.74,1s-.73-.49-.83-1c-.78-3.93-.84-7.77,1.33-11.38.88-1.47,2-2.88,1.85-5-2.74,1.15-4.58,3.25-7,5Zm-1-5.43a12.39,12.39,0,0,1-1.55,1.24c-.46.27-1.14.64-1.58,0s.07-1,.45-1.36c1.07-1.07,2.11-2.17,3.21-3.2a10.56,10.56,0,0,0,3.43-8.06,10.28,10.28,0,0,1,.18-1.75c.06-.29.12-.72.55-.69s.51.45.48.88c-.37,4.74-1.47,9.13-5.18,12.93Z"/><path class="f" d="M302,242.06a38.74,38.74,0,0,1,13.39-9.61,15.66,15.66,0,0,1,5.89-1.25c2.45-1.51,5-.58,7.54-.28.66.08,1.57.33,1.69,1.07.16,1-.89.85-1.5,1.1a3.38,3.38,0,0,0-.77.58c1.83,1.41,4.36,1.67,5.87,3.61a2,2,0,0,1,2.21-.15c1.26.53,2.51,1.08,3.74,1.68,2,1,2,1.06.47,2.68l2,1.92c2.06-.72,2.18-.62,2.47,2a20.71,20.71,0,0,0,6.56,3.79c1.87.78,3.69,1.63,5.47,2.59a2.54,2.54,0,0,0,.61-3.21,32.44,32.44,0,0,0-1.66-3.53c-1-1.6-.2-2.8,1.66-2.89.63,0,1.29.45,1.88-.12-.64-.66-1.33-1.27-1.92-2a109.57,109.57,0,0,0-14-14,73.37,73.37,0,0,0-12.08-6.77,37.35,37.35,0,0,1-5.69-3.76c-.48-.34-.85-.89-1.52-.39.36,2.78,2.41,4.28,4.43,5.79.73.54,1.75.93.33,1.83.94.84,2.19,1.12,3.23,1.78a4.15,4.15,0,0,1,2.35,3.28c-3.18-1.1-6.19-2.08-9.15-3.19-.94-.35-1.16-1.17-.42-2-1.75-1.74-3.92-1.09-6-1-2.27.11-4.5.72-6.8.57l-.47.26v-.18l.5-.09c1.08-1.44,2.8-1.58,4.31-2.17.46-.18,1.16-.19,1.22-.82.08-.79-.75-.88-1.23-1a39.15,39.15,0,0,0-5.1-1.37c-2.83-.49-5.68-.8-8.53-1.17-.56-.08-1.13-.24-1.19-.82-.08-.74.68-.69,1.13-.8,1.27-.3,2.58-.45,3.83-.8.69-.19,1.8-.1,1.83-1.12,0-.79-.88-1-1.51-1.37-1.06-.62-2.34-.9-3.12-2a28.72,28.72,0,0,0-12,.28,7.41,7.41,0,0,1-2.91,1.92,66.82,66.82,0,0,1-8.16,2.74c-.66.21-1.54.29-1.4,1.3.33,2.42-1.3,2.18-2.73,1.95-2.25-.35-4.42-1.15-6.74-1.13l-1.79,1.85a3.38,3.38,0,0,1-2.06,1l-8.38,2.12c-1.2.31-1.77,1-.91,2.09,1.29,1.65,0,1.8-1.08,1.86-5.86.36-11.26,2.33-16.53,4.7-.84.37-1.47.49-2.07-.28-2.19.61-3.61,2.26-4.92,3.93-.67.86-1.36,1.71-2.07,2.54a4.09,4.09,0,0,0,.78.05c.75-.12,1.76-.67,2.14.2s-.69,1.46-1.34,1.88-1.57.88-1.53,2.13c1-.21,1.92-.44,2.87-.61.57-.1,1.3-.19,1.5.49s-.19,1.1-.86,1.34a12.19,12.19,0,0,0-1.4.7c-4.72,2.47-9.2,5.21-11.88,10.1-.44.8-1.13,1.7-2.38,1.3-3,6.9-4.69,14.18-6.44,21.44-1.67,6.94-3.11,13.95-4.62,20.93-.24,1.08-.29,2.2-.49,3.3-.32,1.71.13,2.69,2.1,2.52s2.16,1.35,2.37,2.72c.53,3.63,1.16,7.23,2,10.82a61.25,61.25,0,0,0,12.41,25.95c4.07,5,9,9.22,13.42,13.84a19,19,0,0,0,3.4,2.3,3,3,0,0,1,3.86-.69,8.72,8.72,0,0,0,3.16.88c1.37.11,2-.45,2.09-1.89,0-1.11-.59-2.16-.19-3.27-1.91-3.92-3.6-8-7.52-10.45a5.52,5.52,0,0,1-1.84-2c-1.72-3.17-4.3-5.69-6.55-8.46a3.37,3.37,0,0,0-1,2.28c-.06.33-.19.66-.57.7s-.45-.39-.63-.64a10.77,10.77,0,0,1-1.54-5c-.07-.48.18-1.21-.53-1.32-2-.32-1.76-1.89-1.69-3.2.31-5.52,1.23-10.84,5.61-14.83a1.56,1.56,0,0,0,.37-1.82,1.49,1.49,0,0,0-1.59-.91,8.79,8.79,0,0,0-3.3.45c-.52.19-1.26.38-1.55-.34s.35-.94.84-1.31a30.2,30.2,0,0,1,10.06-4.79c.7-.22,1.44-.49,1.46-1.38s-.71-1.18-1.42-1.41c-1.06-.36-2.11-.74-3.19-1-1.57-.44-1.52-1.07-.44-2.12,1.74-1.69,3.81-3,5.44-4.81,3.06-3.43,7-5.73,11-7.86,5.38-2.87,11-5.17,16.35-8.2a15,15,0,0,0,6.31-6c.26-.5.69-1.12.2-1.65s-1,0-1.44.17a26.08,26.08,0,0,1-6.42,1.85c-1.55.35-3.28,1-4.9-.15.32-.69,1-.74,1.45-1,2.1-1.33,4.39-2.36,6.16-4.16.41-.41.94-.77.69-1.5s-.86-.45-1.34-.54l-7.45-1.44a5.4,5.4,0,0,1,3.7-1.84,132.84,132.84,0,0,0,13.76-3.4c.54-.17,1-.34,1.12-.93s-.4-.79-.82-1-1.12-.45-1-1.05.84-.55,1.33-.7A113.93,113.93,0,0,0,300,242.33,2.39,2.39,0,0,1,302,242.06Zm-5.6-17.88c-.92.76-2,.33-3,.4-.73,0-1.66-.07-1.92.68-.8,2.33-1.92,1.23-3.09.44-.8-.55-1.66-1-2.47-1.55-.43-.28-1-.58-.88-1.18s.75-.75,1.23-.78c3.55-.22,7-.06,10.15,2h0Zm-60.6,36.64c-.39-1.4.69-1.74,1.56-2.34s1.77-1,1.52-2.08c-.22-.91-1.3-.64-2-.88-1.17-.4-2.56,0-4-1.23,6.63-1.06,12.65-1,18.44,2.64a9.78,9.78,0,0,1-3.79.92c-2.53.26-5.1.35-7.29,1.89,1.34.69,3.12.29,4.26,1.61A2.31,2.31,0,0,1,243,262a84.42,84.42,0,0,0-9.88,2.59c-.46.15-1.09.67-1.42.15s.13-1.28.66-1.66c1.12-.81,2.29-1.52,3.43-2.26Zm17.59-19a3.39,3.39,0,0,1-2.5,1.77c-1.89.53-3.77,1.13-5.64,1.74-.45.15-1.12.15-1.15.87s.73.85,1.25,1a13.22,13.22,0,0,1,3.85,1.42,1.43,1.43,0,0,1,.68,1.7c-.15.73-.76.57-1.27.62-1.89.16-3.77.35-5.66.5-.86.07-2,.19-2.1-.9-.21-1.83-1.3-1.42-2.39-1.2-.71.13-1.4.35-2.12.43-.56.06-1.27.3-1.63-.3s.23-1.18.67-1.65a21.91,21.91,0,0,1,12.45-6.56,7.88,7.88,0,0,1,5.56.59Zm-13.8,29.65-17,9.38c-1.09.59-2.46,2.17-3.4,1-1.33-1.72,1.07-2.19,1.94-2.89,3.61-2.91,7.3-5.72,11.72-7.37a7.85,7.85,0,0,1,6.74-.14ZM244.54,237a1.8,1.8,0,0,1,1.18-1.57A25.86,25.86,0,0,1,253,233a15.83,15.83,0,0,1,8.13.62c.44.16.84.34.92.9a.75.75,0,0,1-.54.91c-3.24,1.06-6.26,2.73-9.62,3.43-.42.09-1,.49-1.26,0s.27-.94.61-1.32,1.19-.94.78-1.64-1.27-.28-2-.18c-1.85.26-3.48,1.26-5.46,1.2Zm38.56-1c.34-.34.45-.54.62-.6a117.44,117.44,0,0,0,13.36-5.72,1,1,0,0,1,1.4.2l.08.12c1.33,1.47.65,2.47-.65,3.25a24,24,0,0,1-9,3.38,8.69,8.69,0,0,1-5.81-.59Zm-1.47-16.72c-.28-.94.23-1.34.9-1.54,5.34-1.59,10.74-2.52,16.3-1.2.54.13,1.44.08,1.43.73s-.77,1.17-1.57,1.21l-15.93.86a10.55,10.55,0,0,1-1.13-.06Zm-6.92,31c-4.22,3.41-13.5,3.59-16.66.46a48.82,48.82,0,0,1,16.66-.5Zm-55.32,58a10.07,10.07,0,0,1-1.81,1.22c-.43.15-.66.79-1.32.46,1.34-3.08,3.24-5.62,6.42-7,.42-.18.84-.51,1.26-.14s.17.82-.06,1.24a26.52,26.52,0,0,0-3.58,10.28c0,.39-.1.89-.56.91-.73,0-.53-.62-.53-1,0-1.89.11-3.71.18-6Zm3.43-34.52c.72-1.78,2.25-2.67,3.7-3.64a13.38,13.38,0,0,1,9.11-2.41c.54.06,1.28.08,1.38.86s-.34,1-.94,1c-4.08.37-7.67,2.14-11.31,3.8a2.35,2.35,0,0,1-1.94.37Zm23.28-41.05c.74-3.9,8.16-6.91,11.79-6.38a1,1,0,0,1,.93.85.9.9,0,0,1-.7,1,103.49,103.49,0,0,0-12,4.51Zm-31.77,58.91a13.06,13.06,0,0,1,8.4-5.26c.8-.13,1.88-.76,2.3.22s-.76,1.3-1.42,1.79c-1.56,1.16-3.4,2-4.76,3.4-.9,1-1.71,1.91-2.81.2-.28-.46-.89-.17-1.71-.37ZM278,242.73c.32.91-.24,1.55-1.08,1.85-2.84,1-5.7,1.94-8.57,2.86-.57.18-1.24.18-1.54-.48a1.22,1.22,0,0,1,.74-1.58,28.87,28.87,0,0,1,9.26-3.07,1.18,1.18,0,0,1,1.19.4Zm3.6-12.09c-.94.23-1.82.48-2.71.65a17.32,17.32,0,0,1-10.69-1.59c-.61-.28-1.4-.61-1.13-1.35s1-.1,1.51,0c1.62.23,3.23.48,4.84.76a46.23,46.23,0,0,0,7.06.29c.44,0,1-.13,1.17.45a2.48,2.48,0,0,1-.05.77Zm-42.69,52c3.92-5.16,9.2-7.35,12-5.18-3.77,1.84-7.64,3.38-12,5.13Zm53.48-45.06a5.74,5.74,0,0,1-2.65,1.61,14.63,14.63,0,0,1-8.63,1.08c-.39-.09-.87-.16-.84-.65s.56-.4.92-.46c1.68-.25,3.36-.58,5.05-.71,2-.22,3.9-1,6.15-.92Zm-76.25,32.06c.61-4.54,4.15-8.14,7.95-8.36C221.43,264.11,218.46,266.57,216.15,269.64Zm2.5,28.86-6.24,1c1.88-2.28,3.53-2.58,6.22-1Z"/><path class="g" d="M623.22,512.91l-1.51-.32c-1.68.16-3.36.39-5.05.47-2.11.09-2.44-.37-2.09-2.56-.31-2.1-1.6-3.71-2.73-5.38-4.9-7.28-9.75-14.59-14.78-21.78-6.82-9.77-13.29-19.82-21-28.95a122.84,122.84,0,0,0-16.83-16.29c-2.72-2.21-5-4.84-7.54-7.23q-5-4.71-10-9.48c-1.72-1.63-2.54-1.51-3.74.65a79,79,0,0,1-6.47,10.29,47,47,0,0,1-4.87,5.67c-1.19,1.11-1.13,2.15.16,3.09,3.24,2.34,6.49,4.65,9.74,7,1,.73,1.64.18,2.35-.55,2-2,3.23-1.78,4.24.93,3.45,9.26,9.07,17.07,15.72,24.25q12.31,13.27,24.46,26.71c6.85,7.57,13.29,15.57,20.58,22.82A8,8,0,0,1,606,528.4c0,3,.44,5.53,3.54,7.06,1,.51,1.46,2.13,2.37,3,4.74,4.75,9.34,9.64,14.33,14.14,1-.36,1.41.49,1.93,1,4.56,4.53,9.09,9.08,13.64,13.61.6.59,1.14,1.64,2.25.72-1.92-1.9-2.74-4.57-4.6-6.51-1.8-.81-2.92-2.39-4.22-3.76-.73-.76-1.34-1.53-.36-2.52s1.73-.36,2.49.37a54,54,0,0,1,8.86,11,21.63,21.63,0,0,1,3.55,9.85l2.15,2.78c1.14,0,1.41,1,1.94,1.73s.74,1.35,1.66,1.07,1-1.19.88-2a26.13,26.13,0,0,0-.62-3.29c-.93-4-1.89-8-2.83-12.06l-.42-.65A143.55,143.55,0,0,0,641.26,550c-.68-.76-1.37-1.51-.29-2.5s1.66-.25,2.32.45a116,116,0,0,1,8.92,10.26c2.71,3.76,4.91,7.76,4.82,12.54l1,2.25,1.66,1a10.07,10.07,0,0,0,0-4.88c-.65-3.25-.74-6.6-1.86-9.75-1.27-1.54-1.62-3.55-2.74-5.19-3.35-5-6.56-10-9.83-15-.58-.89-1-1.78.15-2.53s1.76.08,2.27.86c4,6.22,8.57,12.12,12,18.75a1.49,1.49,0,0,0,1.53.3,66.29,66.29,0,0,0-12.54-26.92c-2.23-2.89-5.31-4.85-8.2-7-1.07-.79-1.94-1.77-3-2.53-1.27-.09-2.5-.24-2.75-1.85l-1.7-1A79.42,79.42,0,0,1,623.22,512.91Z"/><path class="g" d="M464.27,550.61c-5.45-3-7.09-3.45-13.14-5.35a9.78,9.78,0,0,1-1.86-1c-.93-1.53-3.48-1.24-3.48-3.08-.07-1.28,2.84-1.28,3.16-1.94,1.39-.84-2.66-5.22-4.28-7.53a15.32,15.32,0,0,0-2.77-3.49c-2.38-2.07-2.38-2.07-4.84-.08-4.71,3.82-9.48,7.53-15,10.13-2.57,1.21-2.7,2.27-.86,4.48.37.45.82.85,1.23,1.27,2.7,1.58,4.58,4,6.59,6.33A240.33,240.33,0,0,0,451.39,573l8.29,6.91,1.54,1.21c3.37,2.26.76.48,3.37,2.26l11.67,7.08c8.2,4.64,16.29,9.46,24.36,14.29,3.14,1.88,6.45,3.47,9.45,5.61a6,6,0,0,0,3.93,1c1-.06,1.55.37,1.41,1.37-1,7.29,2.41,13.07,6.19,18.77A66.44,66.44,0,0,0,535,646.38c4.51,3.65,10,6,15.45,8a22.44,22.44,0,0,0,7.35,1.7c.48-.68,1.45-.29,2-.89a10.67,10.67,0,0,0-1.48-1c-6.17-2.84-11.52-7-17.29-10.52-.85-.51-1.78-1.11-1.06-2.33s1.7-.59,2.52-.08c2.58,1.57,5.15,3.15,7.68,4.79,5.46,3.55,10.92,7.06,17.58,7.94a3.71,3.71,0,0,1,1.2.62.37.37,0,0,1,.38,0,9.19,9.19,0,0,1,5.55.53l1.16-.37.6-1.42a35.45,35.45,0,0,1-14.42-5.49,118.54,118.54,0,0,1-10.6-8.51c-.78-.67-1.79-1.41-.8-2.61s1.88-.25,2.66.38c3.16,2.56,6.21,5.27,9.46,7.71,4.39,3.31,9.53,4.66,15.23,5.39-1.09-1.54-2.47-2.31-3.18-3.65a23.58,23.58,0,0,0-6.53-5.86,19.92,19.92,0,0,1-4.69-4.09,8.53,8.53,0,0,1-3.58-2c-1.68-1.21-2.9-2.69-2.42-5q-13.14-13.2-26.26-26.41a2.5,2.5,0,0,0-2.24-.92,3.76,3.76,0,0,1-3.31-.94c-2.56-2.86-6.5-3.88-8.91-6.92-1.67-2.1-4.2-3.11-6.32-4.63-3-2.16-5.35-5-8.13-7.43"/><path class="g" d="M355.26,282.47a18.55,18.55,0,0,1-3.07,3c-3.4,4-7.45,7.41-10.76,11.51a47.59,47.59,0,0,0-7.66,12.71c-2.06,5.26-.17,10.21,6,13.16,5.35,2.54,10.89,4.5,17,4.51C364.05,326,370,322,375.14,316.81a57.55,57.55,0,0,0,6.2-8.29c.45-1.22.93-2.43,1.36-3.66a17.12,17.12,0,0,0,.88-8.91,24.89,24.89,0,0,0-11-16.74c-3.33-2.24-6.89-2.94-10.77-1A31.34,31.34,0,0,0,355.26,282.47ZM360.85,309a35.09,35.09,0,0,1-8.58,6.49c-3.19,1.67-6.47,3.21-9.16,5.68-2.11,1.93-3,1.74-3.62-1a25.68,25.68,0,0,1,6-23.8,36.55,36.55,0,0,1,8.39-7.3,29.84,29.84,0,0,1,14.5-4.48c1.55-.06,2.22.52,1.9,2.12-.27,1.28-.44,2.59-.65,3.88A33.79,33.79,0,0,1,360.85,309Z"/><path class="g" d="M295.86,342,284.1,353.69a34.55,34.55,0,0,0-3.34,4.1c-2.16,3.62-3.84,7.5-1.42,11.61a27.23,27.23,0,0,0,14.57,12.2,38.33,38.33,0,0,0,5.32,1.1h-.05l.7-.08a.14.14,0,0,1,.19,0l0,0a45.07,45.07,0,0,0,7.24-1.8c7.15-2.74,12.23-7.9,16.54-14,2.22-3.14,4.06-6.44,4.43-10.35.15-1.56.14-3.13.2-4.69a105.24,105.24,0,0,0-2.73-10.47,12.41,12.41,0,0,0-13.54-9c-3.22.32-5.61,2.37-8.26,3.8C301.06,337.75,298.76,340.33,295.86,342ZM311,358.79c-6.78,6.89-14.67,9.53-23.33,10.38-1.65.17-2.39-.67-2.23-2.41a31.22,31.22,0,0,1,4.67-14,34.12,34.12,0,0,1,6.53-7.2c3.59-3.22,7.32-5.75,12.18-6.84a34.83,34.83,0,0,1,12.26-.1,2,2,0,0,1,2,1.38c.27.93-.33,1.45-.84,2.06-.9,1.09-2,1.87-2.72,3.28-2.41,5-4.85,10.1-8.52,13.51Z"/><path class="g" d="M441.76,443c-1.88-5.19-4.41-9.85-6.56-14.69-1-2.27-1.91-4.59-3-6.83a20.49,20.49,0,0,1-1.2-14.76,32.52,32.52,0,0,0,1.08-9.37c-.05-2.46-.93-3.08-3.25-2.32a18.18,18.18,0,0,0-10.61,9.11,33.05,33.05,0,0,1-18.3,16.09,2.41,2.41,0,0,0-1.9,2.83s0,.07,0,.1c.25,2.15-1,3.86-2,5.66-1.42,2.8-.75,3.94,2.43,4.13a13.26,13.26,0,0,0,4.84-.75,27.65,27.65,0,0,1,24,2.79c4.19,2.54,8.53,4.83,12.8,7.23A14.11,14.11,0,0,0,441.76,443Z"/><path class="h" d="M302,242.06a2.4,2.4,0,0,0-2.07.25,113.93,113.93,0,0,1-19.71,7.94c-.49.15-1.2.14-1.33.7s.5.82,1,1.05.88.45.82,1-.58.76-1.12.93a132.84,132.84,0,0,1-13.76,3.4,5.4,5.4,0,0,0-3.7,1.84l7.45,1.44c.48.09,1.1-.17,1.34.54s-.28,1.09-.69,1.5c-1.77,1.8-4.06,2.83-6.16,4.16-.47.3-1.13.35-1.45,1,1.62,1.18,3.35.5,4.9.15a26.08,26.08,0,0,0,6.42-1.85c.42-.22,1-.63,1.44-.17s.06,1.15-.2,1.65a15,15,0,0,1-6.31,6c-5.3,3-11,5.33-16.35,8.2-4,2.13-7.89,4.43-11,7.86-1.63,1.83-3.7,3.12-5.44,4.81-1.08,1-1.13,1.68.44,2.12,1.08.3,2.13.68,3.19,1,.71.23,1.43.51,1.42,1.41s-.76,1.16-1.46,1.38a30.2,30.2,0,0,0-10.06,4.79c-.49.37-1.14.6-.84,1.31s1,.53,1.55.34a8.79,8.79,0,0,1,3.3-.45,1.49,1.49,0,0,1,1.59.91,1.56,1.56,0,0,1-.37,1.82c-4.38,4-5.3,9.31-5.61,14.83-.07,1.31-.35,2.88,1.69,3.2.71.11.46.84.53,1.32a10.77,10.77,0,0,0,1.54,5c.18.25.19.7.63.64s.51-.37.57-.7a3.37,3.37,0,0,1,1-2.28,33,33,0,0,1-3.87-10.1c-.59-2.9,1-5.66,2.66-8s3.61-4.46,5.44-6.68a18.26,18.26,0,0,1,5.87-5.86A108.26,108.26,0,0,0,259.9,288c2.65-2.66,5.88-4.53,8.78-6.85a25.72,25.72,0,0,0,5.94-7.15,7,7,0,0,1,1.42-2.1c0-.87.69-1.22,1.17-1.71q6.1-6.13,12.24-12.24c4.4-4.22,7.78-9.34,12-13.72A2.16,2.16,0,0,0,302,242.06Z"/><path class="i" d="M676.5,771.3a18.17,18.17,0,0,0-2.28,10.61,7.21,7.21,0,0,0,3.18,5.81l4.1-2.33c8.64-4.94,16.72-10.58,23-18.48.55-.7,1.17-1.32,2.17-.71.45-.63.91-1.25,1.37-1.88-.62-.77-.25-1.51.17-2.17.55-.88,1.18-1.71,1.8-2.54,1.54-2.08,3.41-4,2.57-7a11.37,11.37,0,0,0-7.21-1.3,32.89,32.89,0,0,0-13.31,5.55c-1.85,1.25-3.07,3.52-5.63,3.68q-4,4-8.06,8a2.22,2.22,0,0,1-1.59,2.71Z"/><path class="i" d="M788.48,676.64a6.31,6.31,0,0,0-5.76-3.37A21.71,21.71,0,0,0,772,675.65c0,1.25-.8,1.59-1.88,1.57l-8.69,8.63a3.78,3.78,0,0,1-1.36,2.52,30.78,30.78,0,0,0-7.85,16.68,8,8,0,0,0,2.58,7.13,1,1,0,0,0,1.38.3l.14-.11c7.59-5,14.66-10.54,20.48-17.63A79.06,79.06,0,0,0,788.48,676.64Z"/><path class="j" d="M788.48,676.64a79.06,79.06,0,0,1-11.69,18.1c-5.82,7.09-12.89,12.64-20.48,17.63a1,1,0,0,1-1.42,0l-.1-.14a8,8,0,0,1-2.58-7.13,30.78,30.78,0,0,1,7.85-16.68c.66-.75,1.39-1.41,1.36-2.52h-1.68c-2.33,2.08-3.55,5-5.6,7.3-.72.81-1.54,1.26-2.59.65s-.81-1.61-.44-2.57a32.56,32.56,0,0,1,10.07-13.33c-.53-.79-1.36-.5-2.09-.56s-1.55.23-2.12-.51l-1.41-.14-.55-.05h0c-1.54,1.48-5.22,2.05-7.3,1.14-2.76-1.21-4-1-6.17,1.16-.28.27-.54.57-.83.83s-.78.93-1.3.39.09-.84.39-1.17a1.28,1.28,0,0,0,.27-1.58,1.55,1.55,0,0,0-1.76-.57,5.5,5.5,0,0,0-2.91,1.51c-1.73,1.79-3.55,3.5-5.33,5.25a8.78,8.78,0,0,0-2.8,5.47,24.32,24.32,0,0,1-1.52,4.65c-.23.63-.64,1.32-.23,2a3.25,3.25,0,0,1,4.15,1.19c1,1.33,2.06,1.17,3.18.16a12.12,12.12,0,0,1,1-.9c1.1-.82,2-.94,2.47.68a2.49,2.49,0,0,0,2.45,2.15,3.08,3.08,0,0,0,3.16-1.89,1.27,1.27,0,0,1,1.54-.92,1.41,1.41,0,0,1,.55.3c1.83,1.36,3.38.89,5-.43a3.47,3.47,0,0,1,1.6-.71c1.54-.3,2.17.5,1.65,2a43.14,43.14,0,0,0-1.4,4.3c-1.07,4.63-.84,9,2.73,12.65,3-.57,5.37-2.31,7.81-3.89a88.83,88.83,0,0,0,18.53-15.68,63.17,63.17,0,0,0,9.49-14.57,2.45,2.45,0,0,0-.73-3.39Z"/><path class="k" d="M271.85,384.49a6,6,0,0,0-3.17-2.21,8.6,8.6,0,0,1-2.86-1.68c-3.23-2.53-6.84-1.64-8.48,2.08a8.3,8.3,0,0,0,1.1,8.91c7.27,9.19,16,16.38,27.62,19.43a33,33,0,0,0,18.27,0c.81-.24,1.78-.41,2-1.4s-.87-1.29-1.54-1.74c-1.5-1-2.89-2.26-4.75-2.65-2.73,3.6-6.64,4.45-9.27,1.83,2.83-.24,6,.45,7.32-3-2.26-2.49-5.48-3.48-8.23-5.18A42,42,0,0,1,280,391a14.07,14.07,0,0,0-2.82-2.1c-.65.29-1.29,0-1.94,0s-1.47-.48-2,.32,0,1.4.3,2A21.16,21.16,0,0,0,279,398.8c.63.55,1.5,1.05,1.53,2.08-.68.31-1.09-.05-1.55-.3-3.89-2.09-6.29-5.43-8-9.38-1.85-4.19-2-4.25-6.49-4h-2.17c-.73,0-1.58.17-1.7-.84s.77-1.23,1.55-1.41a19.94,19.94,0,0,1,7.06-.11A3.93,3.93,0,0,0,271.85,384.49Z"/><path class="j" d="M686.41,760.54c2.56-.16,3.78-2.43,5.63-3.68a32.89,32.89,0,0,1,13.31-5.55,11.37,11.37,0,0,1,7.21,1.3l.64-.62.43-.38c-2.65-2.58-5.93-2.45-9.23-2a21.39,21.39,0,0,0-5.48,1.59c-.68.28-1.38.48-2-.18a1.78,1.78,0,0,1-.22-2.19,12.63,12.63,0,0,1,.85-1.3c.8-1.22,1.29-2.36.2-3.77-.81-1-.75-2,.68-2.88,2.24-1.34,2.23-4.2.16-5.29-2.45-1.28-2.47-1.37-.6-3.57.67-.78,1.44-1.69.33-2.51-1.7-1.25-2-2.92-2-4.82-4.26,1-8.6,1.89-12.29,4.37a19.29,19.29,0,0,0-7.24,8c1.06,1,1.93,2.28,3.94,2.26-1.74,1.49-2.25,3.45-3.68,4.73a4.91,4.91,0,0,0-.31,3.07c2.49,1.35,2.61,1.69,1.19,3.35-.25,3.11-.52,6.21-.75,9.32-.07.91-.16,1.86.85,2.41a6.42,6.42,0,0,0,.72-.93,25.87,25.87,0,0,1,13.81-11.07c.8-.3,1.54-.59,2.07.3a1.82,1.82,0,0,1-.2,2.51,10.84,10.84,0,0,1-1.67,1.35,27.61,27.61,0,0,0-7,5.64Z"/><path class="b" d="M382.23,424.36a4,4,0,0,0-.68,4.39c1.38,3.8,3.82,7,5.8,10.45s5.45,5.37,8.66,7.42c4.56,2.91,9,6,14.06,8.15,2.06.88,2.82.34,2.72-1.88-.23-5.38-.86-10.74-.34-16.15.4-4.23.3-4.23-3.92-3.33A54.81,54.81,0,0,1,398,435c-5.13.07-9.09-2.63-13.12-5.19a1.09,1.09,0,0,1-.4-1.49,1.12,1.12,0,0,1,.19-.24c.55-.63,1.14-.47,1.72,0a7.57,7.57,0,0,0,1.39,1.07c1.89,1,2.82.63,3.75-1.28,2.11-4.32,1.78-4.85-3.07-4.81a31.28,31.28,0,0,0-3.35.14A4.86,4.86,0,0,0,382.23,424.36Z"/><path class="b" d="M428.3,386.16c.44-1.46,1.31-1.31,2.16-.46a10.13,10.13,0,0,1,2.78,4.89,30.38,30.38,0,0,1,.18,15.78,22.06,22.06,0,0,0-.93,4.83c-.06,1.23.45,1.89,1.75,1.72,6.38-.82,12.74-.17,19.1.16.7,0,1.32,0,1.71-.68s-.15-1-.41-1.55c-3.58-6.92-8-13.32-11.66-20.21a6.56,6.56,0,0,0-2.49-2.73,89.8,89.8,0,0,0-10.74-5.69c-4.38-1.72-5.84-.62-5.76,4.23C425.52,387.8,427,387.55,428.3,386.16Z"/><path class="l" d="M579.13,575c-2.08.25-3.07-1.1-3.89-2.67s.12-2.53,1.13-3.58c8.83-9.18,15.51-19.81,21-31.25.7-1.47,1.25-3,2.66-4.07a5.54,5.54,0,0,0-.77-1.36c-.88-.89-1.41-2.34-3-2.17s-1.25,1.78-1.69,2.76c-3.51,7.91-7.37,15.62-12.5,22.62-3,4.06-6.58,7.62-9.69,11.54-3.77,4.74-8.84,7.67-13.48,11.2-4.46,3.39-9,6.71-13.5,10-2.84,2.07-6.15,3.19-9.37,4.48-1,.39-1.95.78-2.9,1.21-2,.91-2.14,1.58-.63,3.33,3.14,1.49,5.42-.43,7.61-2.13a158.09,158.09,0,0,1,15-9.82c3.75-2.28,7.14-5,10.72-7.54,2.43-1.7,5.44-1.78,8.13-2.8,1.52-.57,2.07,1.42,2.86,2.48a2,2,0,0,0,2.28-1.67A2.1,2.1,0,0,0,579.13,575Z"/><path class="i" d="M753.6,714.34c-3.57-3.64-3.8-8-2.73-12.65a43.14,43.14,0,0,1,1.4-4.3c.52-1.48-.11-2.28-1.65-2a3.47,3.47,0,0,0-1.6.71c-1.58,1.32-3.13,1.79-5,.43a1.28,1.28,0,0,0-1.8.08,1.24,1.24,0,0,0-.29.54,3.08,3.08,0,0,1-3.16,1.89,2.49,2.49,0,0,1-2.45-2.15c-.46-1.62-1.37-1.5-2.47-.68a12.12,12.12,0,0,0-1,.9c-1.12,1-2.2,1.17-3.18-.16a3.25,3.25,0,0,0-4.15-1.19,19,19,0,0,0-2.75,5.71c1.35,1,2.37,2.44,3.85,3.35a32.71,32.71,0,0,0,15.7,5.2c1.28.07,2.8.16,3.17,1.79.52,2.32,2.12,2.78,4.14,2.64a2.88,2.88,0,0,1,2.84.93Z"/><path class="i" d="M696.32,724.65c0,1.9.31,3.57,2,4.82,1.11.82.34,1.73-.33,2.51-1.87,2.2-1.85,2.29.6,3.57a3,3,0,0,1-.16,5.29c-1.43.85-1.49,1.83-.68,2.88,1.09,1.41.6,2.55-.2,3.77a12.63,12.63,0,0,0-.85,1.3,1.78,1.78,0,0,0,.22,2.19c.61.66,1.31.46,2,.18a21.39,21.39,0,0,1,5.48-1.59c3.3-.41,6.58-.54,9.23,2l.34.11a6.12,6.12,0,0,0,1.47-4.56,1.73,1.73,0,0,0-1.37-1.89c-2.61-.61-3.25-2.6-3.33-4.92-.27-7.26-3.32-13.26-8.23-18.44A19.09,19.09,0,0,0,696.32,724.65Z"/><path class="b" d="M702.51,721.91c4.91,5.18,8,11.18,8.23,18.44.08,2.32.72,4.31,3.33,4.92a1.73,1.73,0,0,1,1.37,1.89,6.12,6.12,0,0,1-1.47,4.56c1.51,1.45,1.87,1.4,2.82-.42,2.42-4.66,4.4-9.51,6.42-14.34a5.25,5.25,0,0,0-.8-6c-3.71-4.58-8.26-8.27-12.53-12.24a2.32,2.32,0,0,0-3-.08C705.42,719.68,704,720.82,702.51,721.91Z"/><path class="b" d="M752.47,715.4a2.88,2.88,0,0,0-2.84-.93c-2,.14-3.62-.32-4.14-2.64-.37-1.63-1.89-1.72-3.17-1.79a32.71,32.71,0,0,1-15.7-5.2c-1.48-.91-2.5-2.32-3.85-3.35-.89,1.13-1.8,2.25-2.68,3.39a3.75,3.75,0,0,0,.23,5.19c4,4.08,8.08,8.09,12.11,12.15A2.61,2.61,0,0,0,735,723a72.69,72.69,0,0,0,16.84-6.84C752.12,716,752.25,715.64,752.47,715.4Z"/><path class="g" d="M407,297.91a2.37,2.37,0,0,0,0,2.92c.65,1,1.27,2,1.82,3,.39.72.72,1.56,1.66,1.39a2.16,2.16,0,0,0,1.67-2,44.89,44.89,0,0,0,.65-13.73c-.94-7.79-4.52-14.41-9.11-20.6-3.23-4.34-6.67-8.47-11.35-11.33-3-1.83-6.09-2.75-9.41-.67s-3.92,5.48-1,8.06c1.58,1.37,1.6,3.33,2.64,4.85,1.21-.93.93-2.25.84-3.46a15.73,15.73,0,0,1,.34-5.47c.24-.81.59-1.53,1.59-1.38s.77.9.81,1.55c0,.39.1.78.17,1.16a1.12,1.12,0,0,1,.93.09c4.59,1.8,8,5.08,10.83,9,4,5.45,6.18,11.79,8.63,18C410.36,293.21,410,295,407,297.91Z"/><path class="k" d="M407,297.91c3-2.93,3.35-4.7,1.8-8.62-2.45-6.2-4.65-12.54-8.63-18-2.83-3.88-6.24-7.16-10.83-9a1.12,1.12,0,0,0-.93-.09c-1,4.62-.5,5.66,3.6,7.59a26.51,26.51,0,0,1,5.9,3.53,14.77,14.77,0,0,1,3.65,4.83c.23.44.6,1,0,1.39s-.86-.37-1.21-.71a1.83,1.83,0,0,1-.24-.31c-1.94-3.13-5.06-4.68-8.22-6.18a1.71,1.71,0,0,0-1.87-.06c-.67.5-.37,1.15-.32,1.81.15,1.9,1.39,3.21,2.43,4.63a75,75,0,0,1,10.55,15A8.23,8.23,0,0,0,407,297.91Z"/><path class="f" d="M309,327.74a4.67,4.67,0,0,1-.86-.74c-1.7-2.54-2-2.69-4.9-1.66-4.68,1.66-8.46,4.71-12.06,8a70.79,70.79,0,0,0-16.42,22.41c-.54,1.14-1.17,2.3.09,3.39,1.5-2.27,3.42-4.23,4.64-6.72s3.49-4.18,5.56-6,4-3.67,6-5.2c4.33-3.2,7.41-7.73,12-10.62C304.91,329.38,307.35,329.36,309,327.74Z"/><path class="i" d="M766.19,710.12c-2.1.24-3.3,2-4.9,3-7.22,4.71-15.15,7.94-23.06,11.21-.77.32-2.12.36-1.79,1.64s1.67,1,2.66.79a92.93,92.93,0,0,0,27.55-12c10-6.52,17.75-15.24,24.38-25a2.32,2.32,0,0,0,.61-1.59c-.92-.69-1.42.07-1.69.67-2.74,5.93-7.54,10.15-12,14.67-2.92,3-6.47,5.07-9.82,7.45C767.3,711.5,766.32,711.64,766.19,710.12Z"/><path class="i" d="M684.12,792.93c3.42-.39,6-2.6,8.62-4.39,17.8-11.95,29.09-28.53,34.66-49.13a15.64,15.64,0,0,0,.42-1.92c.11-.78.28-1.64-.79-1.93s-1.27.57-1.55,1.32a180.78,180.78,0,0,1-7.36,16.68c-1.2,2.4-3,4.41-4,6.91-.15.36-.24.75-.36,1.12a3.11,3.11,0,0,1-.24,3.51,66,66,0,0,1-5.33,7.74,106.85,106.85,0,0,1-14.06,13.67c-2.71,2.24-6.06,3.34-9,5.2C684.6,792,683.89,792.09,684.12,792.93Z"/><path class="l" d="M300.15,382.65a.16.16,0,0,0-.2,0l0,0-.7.08h0c-.88,1.19-2.13.87-3.26.66a26,26,0,0,1-13.72-7.54c-2.3-2.29-4.45-4.75-5.08-8.2-.49-2.66.32-5,1.1-7.46a3.94,3.94,0,0,0-3.16,2.51l-.26.27a.79.79,0,0,1-.3.83l-.29,1.44a.72.72,0,0,1-.25.82h0c.17.2.42.37.5.6,2.93,8.88,9.73,13.85,17.88,17.19,7.75,3.18,15,1.21,21.84-3.06a37.84,37.84,0,0,0,16.28-20.63c.49-1.46.8-3-.64-4.16h0a30.79,30.79,0,0,0-2.12,6.12,12.2,12.2,0,0,1-1.49,3.62,58.58,58.58,0,0,1-8.07,9.83c-4.22,4.43-9.51,6.56-15.29,7.84A2.66,2.66,0,0,1,300.15,382.65Z"/><path class="h" d="M312.34,222.22c2.3.15,4.53-.46,6.8-.57,2-.1,4.22-.75,6,1l4,.17c1.42-.9.4-1.29-.33-1.83-2-1.51-4.07-3-4.43-5.79a1.7,1.7,0,0,0-2.34-.52l-.18.14c-1.38.84-2.61.91-4-.76-1.08-1.26-3.28-1.63-4.87-2.63a12.41,12.41,0,0,0-5.72-1.86c-1.17-.08-1.91-1.65-3.23-.78.78,1.06,2.06,1.34,3.12,2,.63.36,1.53.58,1.51,1.37,0,1-1.14.93-1.83,1.12-1.25.35-2.56.5-3.83.8-.45.11-1.21.06-1.13.8.06.58.63.74,1.19.82,2.85.37,5.7.68,8.53,1.17a39.15,39.15,0,0,1,5.1,1.37c.48.15,1.31.24,1.23,1s-.76.64-1.22.82c-1.51.59-3.23.73-4.31,2.17Z"/><path class="l" d="M381.33,308.52a57.55,57.55,0,0,1-6.2,8.29C370,322,364.05,326,356.72,327.41c-.09,1.32-1.16,1-1.91,1.06s-1.87-.16-2.54.72c4.52,1.61,8.81.5,13-1.27,3.52-1.5,6.39-4,9.34-6.38a33.87,33.87,0,0,0,11.91-19.74c.82-3.81,1-7.71-2.08-10.88-1.07,1.88.28,3.54.52,5.29.7,5.05-.85,9.45-3.4,14.08Z"/><path class="h" d="M251.15,352.1c-.4,1.11.22,2.16.19,3.27-.05,1.44-.72,2-2.09,1.89a8.72,8.72,0,0,1-3.16-.88,3,3,0,0,0-3.86.69c2.31,2.64,5.39,4.3,8.07,6.43,3.33,2.63,7.31,4.35,10.23,7.48,1,1.06,2.35,1.39,3.45,2.22a1,1,0,0,0,1.41-.13,1.37,1.37,0,0,0,.13-.2,1,1,0,0,0,0-1.41l0,0c-.63-.67-1.3-1.3-1.93-2-1.28-1.36-2.67-2.51-3.22-4.55-.35-1.31-2-2.22-2.81-3.45-1.76-2.58-3.38-5.26-5.09-7.88A14.39,14.39,0,0,0,251.15,352.1Z"/><path class="h" d="M359.51,242.05c-.59.57-1.25.09-1.88.12-1.86.09-2.63,1.29-1.66,2.89a32.44,32.44,0,0,1,1.66,3.53,2.54,2.54,0,0,1-.61,3.21c4.75,3.44,9.89,6.35,14.23,10.34.48.44,1,1.07,1.65.39a1,1,0,0,0,.11-1.41.93.93,0,0,0-.18-.16c-2.91-2.29-3.75-5.92-5.75-8.81-1.24-1.78-2.93-3.12-4.15-4.93-1-1.5-1.06-3.59-2.81-4.62Z"/><path class="m" d="M684.12,792.93c-.22-.84.49-.92,1-1.22,2.93-1.86,6.28-3,9-5.2a106.39,106.39,0,0,0,14-13.67,66,66,0,0,0,5.33-7.74,3.11,3.11,0,0,0,.24-3.51c-2.8,2.55-4.6,5.88-6.92,8.8A69.35,69.35,0,0,1,683,790c-.84.42-2.43.44-2,1.9S682.8,793.4,684.12,792.93Z"/><path class="h" d="M575,646.58c.71,1.34,2.09,2.11,3.18,3.65-5.7-.73-10.84-2.08-15.23-5.39-3.25-2.44-6.3-5.15-9.46-7.71-.78-.63-1.63-1.64-2.66-.38s0,1.94.8,2.61a118.54,118.54,0,0,0,10.6,8.51,35.45,35.45,0,0,0,14.42,5.49c.64-.58,1.49-.2,2.2-.49,2.16-2.19,2.11-2.74-.43-4.41C577.3,647.74,576.58,646.35,575,646.58Z"/><path class="j" d="M415.6,455.16a7.71,7.71,0,0,0,1.54-5.16,31.85,31.85,0,0,1,.73-6.6c.56-2.62,1.18-3.25,3.83-3.67a35.38,35.38,0,0,1,3.7-.37,3.64,3.64,0,0,0,2.51-.93c-3-3.44-7.15-4.07-11.23-4.95a1.51,1.51,0,0,0-1.92,1,1.56,1.56,0,0,0-.08.43c0,.13-.08.26-.09.38A66.86,66.86,0,0,0,415.6,455.16Z"/><path class="j" d="M438.28,428.07a3.49,3.49,0,0,0,.73-1.79,3,3,0,0,1,.28-1.14c1.24-1.83,3.16-3.3,2.51-6-.14-.61,1.17-.85,2-.95,3.25-.38,6.49-.76,9.74-1.12a2.94,2.94,0,0,0,2.4-1.11,48.54,48.54,0,0,0-12.25-1.15,68.67,68.67,0,0,0-8.24.23c-1.42.18-2.39,1-2,2.31C434.66,421.08,435.4,425.06,438.28,428.07Zm-.81-9.21a1,1,0,0,1,1.4-.19c.3.22-.24,3.52-.6,3.82a.59.59,0,0,1-.81.05l0-.05a3.16,3.16,0,0,1,.05-3.63Z"/><path class="h" d="M657,570.78c.07-4.8-2.11-8.76-4.82-12.45a116,116,0,0,0-8.92-10.26c-.66-.7-1.32-1.37-2.32-.45s-.39,1.74.29,2.5A143.18,143.18,0,0,1,652.56,564a1.17,1.17,0,0,1,1.66,0,1.07,1.07,0,0,1,.19.28,2.38,2.38,0,0,1,.43,2.82c-1.16-.55-.36-2.36-1.86-2.49.94,4,1.9,8,2.83,12.06a26.13,26.13,0,0,1,.62,3.29c.09.76.13,1.66-.88,2s-1.24-.49-1.66-1.07-.8-1.71-1.94-1.73a4.43,4.43,0,0,0,1.57,3.25c.82.77,1.77,1.36,2.81.94s.94-1.51,1-2.39c.28-2.66-.5-5.19-1.06-7.75a13.79,13.79,0,0,1-.4-1.91C655.84,570.36,656.38,570.39,657,570.78Z"/><path class="n" d="M237.23,229.2c.6.77,1.23.65,2.07.28,5.27-2.37,10.67-4.34,16.53-4.7,1.13-.06,2.37-.21,1.08-1.86-.86-1.11-.29-1.78.91-2.09l8.33-2.12a3.38,3.38,0,0,0,2.06-1,8.65,8.65,0,0,0-5-.57A48.24,48.24,0,0,0,240,227,11.63,11.63,0,0,0,237.23,229.2Z"/><path class="m" d="M766.19,710.12c.13,1.52,1.11,1.38,1.93.79,3.35-2.38,6.9-4.5,9.82-7.45,4.47-4.52,9.27-8.74,12-14.67.27-.6.77-1.36,1.69-.67.63-2.23,2.68-3.89,2.53-6.43a2.24,2.24,0,0,0-2.65-.83,60.38,60.38,0,0,1-15.11,20.71C773.12,704.54,769.6,707.28,766.19,710.12Z"/><path class="h" d="M568.93,654.61a3.71,3.71,0,0,0-1.2-.62c-6.66-.88-12.12-4.39-17.58-7.94-2.53-1.64-5.1-3.22-7.68-4.79-.82-.51-1.75-1.21-2.52.08s.21,1.82,1.06,2.33c5.77,3.49,11.12,7.68,17.29,10.52a10.67,10.67,0,0,1,1.48,1l5.12.75a3.13,3.13,0,0,1,2.58,1.43c.5.4.94.49,1.15-.27A4.82,4.82,0,0,0,568.93,654.61Z"/><path class="a" d="M352.27,329.19c.67-.88,1.64-.62,2.54-.72s1.82.26,1.91-1.06c-6.05,0-11.59-2-17-4.51-6.18-2.95-8.07-7.9-6-13.16a47.62,47.62,0,0,1,7.7-12.74c3.32-4.1,7.36-7.5,10.76-11.51-.72-.43-1.08.16-1.49.55-.8.78-1.63,1.54-2.36,2.38-3.35,3.9-7.63,6.78-11.36,10.26-.5.47-1.23.84-1.17,1.72,1,1.17.62,2.31-.13,3.4-.58.86-1.32,1.63-1.85,2.52-3.09,5.12-3.15,10.07.4,14.21s8,6,13.16,6.8a5.53,5.53,0,0,1,3.75,1.87Z"/><path class="i" d="M685.75,759.91a27.61,27.61,0,0,1,7-5.64,10.84,10.84,0,0,0,1.67-1.35,1.82,1.82,0,0,0,.2-2.51c-.53-.89-1.27-.6-2.07-.3a25.87,25.87,0,0,0-13.81,11.07,6.42,6.42,0,0,1-.72.93c-.33,1.78-.65,3.56-1.07,5.85Z"/><path class="i" d="M761.18,677.91a32.54,32.54,0,0,0-10.06,13.33c-.37,1-.73,1.9.44,2.57s1.87.16,2.59-.65c2.05-2.29,3.27-5.22,5.6-7.3a48.86,48.86,0,0,1,7.13-7.8c.57-.55,1.2-1,1-2a15.78,15.78,0,0,1-5.32.78C762.12,677.29,761.87,677.88,761.18,677.91Z"/><path class="a" d="M295.86,342c2.9-1.7,5.2-4.28,8.13-5.85,2.65-1.43,5-3.48,8.26-3.8a12.41,12.41,0,0,1,13.54,9,105.24,105.24,0,0,1,2.73,10.47l.86.84,1.11-1.11a1.11,1.11,0,0,0,.12-1.56l-.12-.13c-1.89-1.89-2-4.23-1.67-6.69-.56-1.76-.56-3.77-2.24-5-.93-1-1.84-2-2.68-3.09-2.84-3.73-7.55-6.69-12.76-3.36A1.46,1.46,0,0,1,310,332a2.91,2.91,0,0,0-3.33,1,7.56,7.56,0,0,1-3.87,2.09c-.55,1-1,2.1-2.5,1.94L297,340.4C296.59,340.9,295.8,341.18,295.86,342Z"/><path class="f" d="M392.14,278.77c-1-1.42-2.28-2.73-2.43-4.63,0-.66-.35-1.31.32-1.81a1.71,1.71,0,0,1,1.87.06c3.16,1.5,6.28,3.05,8.22,6.18a1.83,1.83,0,0,0,.24.31c.35.34.57,1.07,1.21.71s.26-.95,0-1.39a14.77,14.77,0,0,0-3.65-4.83,26.51,26.51,0,0,0-5.9-3.53c-4.1-1.93-4.57-3-3.6-7.59-.07-.38-.13-.77-.17-1.16,0-.65.11-1.42-.81-1.55s-1.35.57-1.59,1.38a15.5,15.5,0,0,0-.34,5.47c.09,1.21.37,2.53-.84,3.46,2.1,2.48,3.54,5.46,5.92,7.72C391.06,278,391.41,278.62,392.14,278.77Z"/><path class="b" d="M706.65,766.2c-1-.61-1.62,0-2.17.71-6.26,7.9-14.34,13.54-23,18.48l-4.1,2.33a2,2,0,0,0,2.74.72h0a47.76,47.76,0,0,0,13-7.43c4.53-3.53,7.89-8.18,12-12.07A7.37,7.37,0,0,0,706.65,766.2Z"/><path class="h" d="M659.64,556.24c-3.41-6.63-7.95-12.53-12-18.75-.51-.78-1.18-1.55-2.27-.86s-.73,1.64-.15,2.53c3.27,5,6.48,10.05,9.83,15,1.12,1.64,1.47,3.65,2.74,5.19a1.14,1.14,0,0,0,.26-.9c-.17-1.75.63-.93,1.28-.47Z"/><path class="f" d="M271.85,384.49a3.91,3.91,0,0,1-2.67.32,19.94,19.94,0,0,0-7.06.11c-.78.18-1.67.35-1.55,1.41s1,.86,1.7.84,1.45,0,2.17,0c4.48-.2,4.64-.14,6.49,4s4.15,7.29,8,9.38c.46.25.87.61,1.55.3,0-1-.9-1.53-1.53-2.08a21.16,21.16,0,0,1-5.46-7.63c-.29-.64-.76-1.31-.3-2s1.29-.35,2-.32,1.29.31,1.94,0C275.49,387.25,274.55,384.79,271.85,384.49Z"/><path class="n" d="M270.05,215.84c2.32,0,4.49.78,6.74,1.13,1.43.23,3.06.47,2.73-1.95-.14-1,.74-1.09,1.4-1.3a66.82,66.82,0,0,0,8.16-2.74,7.41,7.41,0,0,0,2.91-1.92c-2.33-.54-4.55.09-6.76.63a99.34,99.34,0,0,1-15,2.81c-.75.06-1.66-.11-1.86,1-.17.93.35,1.45,1.16,1.8C269.73,215.37,269.88,215.64,270.05,215.84Z"/><path class="n" d="M218.15,253.25c1.25.4,1.94-.5,2.38-1.3,2.68-4.89,7.16-7.63,11.88-10.1a12.19,12.19,0,0,1,1.4-.7,1.13,1.13,0,0,0,.86-1.34c-.14-.59-.93-.59-1.5-.49-1,.17-1.88.4-2.87.61,0-1.25.74-1.63,1.53-2.13s1.75-.94,1.34-1.88-1.39-.32-2.14-.2a4.09,4.09,0,0,1-.78-.05,40.29,40.29,0,0,0-10.5,14C219.15,250.88,218.68,252.06,218.15,253.25Z"/><path class="a" d="M381.33,308.52l.19,1.77c2.55-4.63,4.1-9,3.4-14.08-.24-1.75-1.59-3.41-.52-5.29h0a14.57,14.57,0,0,1-1.36-1.67c-2.63-3.87-5.19-7.77-9.14-10.58-4.39-3.13-9.92-4.19-14.68-.57a2.22,2.22,0,0,1-1.64.53c-.51,1.44-2.38,2.05-2.32,3.83a31.92,31.92,0,0,1,6.51-4.3c3.88-1.9,7.44-1.2,10.77,1a24.89,24.89,0,0,1,11,16.74,17.12,17.12,0,0,1-.88,8.91C382.26,306.09,381.78,307.3,381.33,308.52Z"/><path class="l" d="M351.14,329.2a5.48,5.48,0,0,0-3.78-1.84c-5.13-.79-9.74-2.82-13.16-6.8-3.55-4.14-3.49-9.09-.4-14.21.53-.89,1.27-1.66,1.85-2.52.75-1.09,1.15-2.23.13-3.4-3.49,4.23-6,8.88-6,14.54,0,2.88,1,5.25,3.64,6.69a2.24,2.24,0,0,1,.62.49c3.6,4.47,9.15,5,14,7A5.4,5.4,0,0,0,351.14,329.2Z"/><path class="a" d="M278.27,360.19c-.78,2.43-1.59,4.8-1.1,7.46.63,3.45,2.78,5.91,5.08,8.2A26,26,0,0,0,296,383.39c1.13.21,2.38.53,3.26-.66-2-.6-3.55-.46-5.32-1.1a27.23,27.23,0,0,1-14.57-12.2c-2.42-4.11-.74-8,1.42-11.61a34.55,34.55,0,0,1,3.34-4.1c-2.14-.23-3,1.38-4,2.77-.25.35-.2,1.15-.66,1.1C276.09,357.2,278.31,359.18,278.27,360.19Z"/><path class="l" d="M357.58,278.64a2.22,2.22,0,0,0,1.64-.53c4.76-3.62,10.29-2.56,14.68.57,4,2.81,6.51,6.71,9.14,10.58a14.57,14.57,0,0,0,1.36,1.67,4.58,4.58,0,0,0-.87-3.86,38.88,38.88,0,0,0-11.84-12.31A9.75,9.75,0,0,0,360.23,276C359.32,276.85,358.46,277.76,357.58,278.64Z"/><path class="l" d="M302.83,335.07A7.56,7.56,0,0,0,306.7,333a2.91,2.91,0,0,1,3.33-1.05,1.46,1.46,0,0,0,1.11-.26c5.21-3.33,9.92-.37,12.76,3.36.84,1.1,1.75,2.09,2.68,3.09.28-3.55-1.77-5.8-4.5-7.41-6.21-3.67-13.66-1.68-18.56,2C302.87,333.24,301.62,333.88,302.83,335.07Z"/><path class="e" d="M730.07,683.61c1.78-1.75,3.6-3.46,5.33-5.25a5.5,5.5,0,0,1,2.91-1.51,1.55,1.55,0,0,1,1.76.57c.42.61.17,1.1-.27,1.58s-.78.76-.39,1.17.92-.07,1.3-.39.55-.56.83-.83c2.13-2.13,3.41-2.37,6.17-1.16,2.08.91,5.76.34,7.3-1.14-.46-.49-1-.28-1.46-.08a2.48,2.48,0,0,1-3.19-.65,2,2,0,0,0-2-.62,17,17,0,0,1-7.79-.33,3.27,3.27,0,0,0-2.3.25,23,23,0,0,0-7.68,6.56A2.11,2.11,0,0,0,730.07,683.61Z"/><path class="j" d="M500.13,379.53c-.41.72.14,1.09.56,1.48,4.68,4.33,8.69,9.3,13.2,13.78.58.59,1.08,1.36,2.26,1.36l-2-2.82a1.89,1.89,0,0,1,.32-2.9,134.07,134.07,0,0,0-13.34-10.64A3.35,3.35,0,0,0,500.13,379.53Z"/><path class="h" d="M649.8,576.4a21.63,21.63,0,0,0-3.55-9.85,54,54,0,0,0-8.86-11c-.76-.73-1.51-1.36-2.49-.37s-.37,1.76.36,2.52c1.3,1.37,2.42,2.95,4.22,3.76.77-.57,1.32-.15,1.89.38a22.25,22.25,0,0,1,6.35,10.64C648.13,573.94,648.41,575.47,649.8,576.4Z"/><path class="a" d="M333.15,357.41c.92-1.44.55-3,.57-4.59a6.16,6.16,0,0,1,.34-2.59c.92.47,1.05,1.51,1.71,2.08.47.42.94,1.16,1.63.6s0-1.05-.24-1.55c-1.58-2.71-3.18-5.41-4.71-8.15a39.89,39.89,0,0,1-3.36-8.14c-1,.95-.7,2-.19,3.05a34.41,34.41,0,0,1,3.45,17.63A1.65,1.65,0,0,0,333.15,357.41Z"/><path class="f" d="M644.08,568c-1.11.92-1.65-.13-2.25-.72-4.55-4.53-9.08-9.08-13.64-13.61-.52-.52-.93-1.37-1.93-1a3.32,3.32,0,0,0,1.15,2q7.71,7.62,15.35,15.33c.28.27.54.65.88.76.64.2,1.29,1.27,1.81.68a1.83,1.83,0,0,0-.37-2.48A12.84,12.84,0,0,0,644.08,568Z"/><path class="k" d="M324.37,323.05c-.87.88-1.75,1.77-2.64,2.63a1.57,1.57,0,0,0-.5,1.93,1.89,1.89,0,0,0,1.59,1c.85.09,1-.7,1.19-1.31.72-2.1,2.35-3.38,4.12-4.52a10.63,10.63,0,0,0,1.13-.76c.69-.58.63-1.2,0-1.86a1.17,1.17,0,0,0-1.61-.38.92.92,0,0,0-.26.22c-1,1-2,2-3.06,3Z"/><path d="M359.51,242.05l.61.55a2.88,2.88,0,0,0-.66-2.89c-3.31-3.24-6.54-6.56-9.85-9.8-1.3-1.26-2.75-2.36-4.09-3.58-.6-.54-1.17-.83-1.88-.22a110.14,110.14,0,0,1,14,14A24.26,24.26,0,0,0,359.51,242.05Z"/><path class="j" d="M445.83,445.1c.82-.82,1.59-.2,2.32.13a1.82,1.82,0,0,0,2.33-.31,2.39,2.39,0,0,0,.62-2.51c-.88-2.62-2.94-3.14-4.76-1.16a19.38,19.38,0,0,0-1.35,1.91C444.52,444.13,445.35,444.54,445.83,445.1Z"/><path class="j" d="M428.3,386.16c-1.35,1.39-2.78,1.64-4.31.29a7.61,7.61,0,0,0-.6,3.62c.17.9.51,1.67,1.63,1.58a7.21,7.21,0,0,0,4.4-1.85C430.7,388.51,429.23,387.24,428.3,386.16Z"/><path class="b" d="M713.2,752l-.64.62c.84,3-1,4.92-2.57,7-.62.83-1.25,1.66-1.8,2.54-.42.66-.79,1.4-.17,2.17,2.85-2.2,4.52-5.34,6.44-8.26C715.59,754.34,714.26,753.15,713.2,752Z"/><path class="l" d="M272.22,376.85c.74-.75,1.48-1.49,2.23-2.23.44-.45.76-.92.38-1.56a1.1,1.1,0,0,0-1.49-.44l0,0c-2.64,1.08-4.12,3.3-5.44,5.65a.86.86,0,0,0,.28,1.17l.06,0a1.34,1.34,0,0,0,1.49-.18c.87-.8,1.69-1.66,2.52-2.49Z"/><path class="l" d="M767.85,676.09c.22.94-.41,1.42-1,2a48.86,48.86,0,0,0-7.13,7.8h1.7l8.7-8.67c-.64-.61-.07-1,.22-1.51C769.32,674.66,768.57,675.28,767.85,676.09Z"/><path class="h" d="M328.26,233.67a3.38,3.38,0,0,1,.77-.58c.61-.25,1.66-.06,1.5-1.1-.12-.74-1-1-1.69-1.07-2.52-.3-5.09-1.23-7.54.28C323.15,233.21,325.68,233.58,328.26,233.67Z"/><path class="a" d="M274.34,365.24c.1-.48.19-1,.29-1.44a.83.83,0,0,1,.3-.83l.26-.27c-.76-.67-.08-1.78-.78-2.46a5.57,5.57,0,0,0-1.78,5.12A7.75,7.75,0,0,1,270.5,372a2.6,2.6,0,0,0,3.1-2,2.34,2.34,0,0,0,0-.26c.26-1.21.31-2.46.45-3.69h0A.78.78,0,0,1,274.34,365.24Z"/><path class="l" d="M376.39,269.36c-.7.69-1.41,1.37-2.08,2.09a1,1,0,0,0-.15,1.41c0,.05.1.1.15.15a1,1,0,0,0,1.4.24,1.14,1.14,0,0,0,.16-.15c1.46-1.41,2.9-2.85,4.31-4.3a1.16,1.16,0,0,0,.32-1.62,1.18,1.18,0,0,0-1.63-.32,1.28,1.28,0,0,0-.29.28C377.84,267.85,377.14,268.62,376.39,269.36Z"/><path class="f" d="M298.07,404.05c-1.34,3.46-4.49,2.77-7.32,3,2.63,2.62,6.54,1.77,9.27-1.83C299.32,404.91,299,403.92,298.07,404.05Z"/><path class="e" d="M677.05,744c1.43-1.28,1.94-3.24,3.68-4.73-2,0-2.88-1.26-3.94-2.26C675.45,739.35,676,741.66,677.05,744Z"/><path class="k" d="M567.48,657.33a3.13,3.13,0,0,0-2.58-1.43l-5.12-.75c-.52.6-1.49.21-2,.89C560.91,657.38,564.06,658.4,567.48,657.33Z"/><path class="h" d="M340.55,241.49c1.52-1.62,1.52-1.7-.47-2.68-1.23-.6-2.48-1.15-3.74-1.68a2,2,0,0,0-2.21.15C336.3,238.63,337.76,241.08,340.55,241.49Z"/><path class="h" d="M557.75,629.69c-.48,2.28.74,3.76,2.42,5a8.53,8.53,0,0,0,3.58,2,1.33,1.33,0,0,0-.56-1.54C561.05,633.62,559.79,631.26,557.75,629.69Z"/><path class="h" d="M623.22,512.91a78.41,78.41,0,0,0,9.75,4.3c-2.06-2.71-5.12-3.67-8.17-4.64A1.29,1.29,0,0,0,623.22,512.91Z"/><path class="k" d="M659.64,556.24c-.1.58-.2,1.16-.29,1.74,1,1.49.79,3.39,1.55,5,1.6-.24.74-1.74,1.29-2.53a7.15,7.15,0,0,0-1-3.88A1.48,1.48,0,0,1,659.64,556.24Z"/><path class="h" d="M614.57,510.5c-.35,2.19,0,2.65,2.09,2.56,1.69-.08,3.37-.31,5.05-.47a3.25,3.25,0,0,0-3.38-1A3.52,3.52,0,0,1,614.57,510.5Z"/><path class="e" d="M319.45,324.79a12.21,12.21,0,0,0,6.92-6.92Z"/><path class="l" d="M289.07,346.19c-3.16.4-4.11,3.15-5.65,5.28C285.83,350.26,287.36,348.14,289.07,346.19Z"/><path class="l" d="M328.82,343.16c-.34,2.46-.22,4.8,1.67,6.69C330.85,347.39,330.72,345.06,328.82,343.16Z"/><path class="f" d="M289.45,258l-12.24,12.24c-.48.49-1.22.84-1.17,1.71l12.39-12.38C288.87,259.1,289.53,258.76,289.45,258Z"/><path class="e" d="M450.34,450.6a5.36,5.36,0,0,0,5.22,2.1,9.93,9.93,0,0,0-4.51-2.81Z"/><path class="e" d="M761.18,677.91c.69,0,1-.62,1.35-1-2.15-1.5-3.27-1.5-5.56,0,.57.74,1.39.44,2.12.51S760.65,677.12,761.18,677.91Z"/><path class="n" d="M578.82,652.87c-.71.29-1.56-.09-2.2.49l-.6,1.42a3.37,3.37,0,0,0,2.44.17c.65-.12,1.6,0,1.7-.91S579.36,653.16,578.82,652.87Z"/><path class="h" d="M662.19,560.42c-.55.79.31,2.29-1.29,2.53-.19.82-.48,1.83.69,2s1.06-1,1.25-1.76C663.12,562.2,663.24,561.16,662.19,560.42Z"/><path class="e" d="M677.93,750.38c1.42-1.66,1.3-2-1.19-3.35C675.7,748.86,675.9,749.41,677.93,750.38Z"/><path class="h" d="M574.86,655.15a9.19,9.19,0,0,0-5.55-.53C571,656.28,572.89,656.21,574.86,655.15Z"/><path class="l" d="M297,340.35l3.34-3.35c-.12-.23-.25-.66-.35-.65-1.52.13-2,1.61-3,2.38C296.26,339.26,296.38,339.83,297,340.35Z"/><path class="l" d="M330.49,351.54l-1.11,1.11L330,356h0C331.53,354.35,331.66,353.26,330.49,351.54Z"/><path class="n" d="M659.65,574,658,573a1.64,1.64,0,0,0-.13,1.82c.31.57.24,1.86,1.37,1.35a1.28,1.28,0,0,0,.77-1.65A1.23,1.23,0,0,0,659.65,574Z"/><path class="h" d="M345,245.42c-.28-2.63-.4-2.73-2.47-2C342.73,244.85,343.23,245.93,345,245.42Z"/><path class="j" d="M676.5,771.3a2.22,2.22,0,0,0,1.9-2.5,2,2,0,0,0,0-.24C675.74,768.71,675.71,768.75,676.5,771.3Z"/><path class="f" d="M634.67,518.26c.25,1.61,1.48,1.76,2.75,1.85C637.13,518.63,636.29,517.83,634.67,518.26Z"/><path class="i" d="M791.52,680.86a2.24,2.24,0,0,1,2.65.83c.38-1.43-.18-2.3-1.64-2.39C791.47,679.24,791.23,679.93,791.52,680.86Z"/><path d="M329.07,335a3.54,3.54,0,0,0-.87-3.57C327.15,333,328,334,329.07,335Z"/><path class="f" d="M245.31,300.42a18.26,18.26,0,0,0-5.87,5.86Z"/><path class="j" d="M770.33,675.71c-.29.47-.86.9-.22,1.51,1.08,0,1.86-.32,1.88-1.57A1.26,1.26,0,0,0,770.33,675.71Z"/><path class="e" d="M755,676.65l.55.05Z"/><path class="j" d="M443,433.87c.71.83,1.54,1.5,2.75.24s1.47-2.89.22-3.93c-1-.82-2-1.72-3.35-.3S441.33,432.21,443,433.87Z"/><path d="M380.14,380.33a119.9,119.9,0,0,0,17.1-21.58,25.31,25.31,0,0,1,4-5.32,2.2,2.2,0,0,0,.73-2.8,2.57,2.57,0,0,0-3-1.4c-1.21.22-2.93.32-2.9,1.84.11,4.54-3,7.49-5.19,10.78A107.19,107.19,0,0,1,358,393.05c-1.59,1-3.17,1.82-5.15,1.57-1.3-.17-1.86.74-2.11,1.88-.37,1.67-.16,3.16,1.44,4.12,1.07.65,1.84,0,2.6-.69,3.5-3.33,7.75-5.61,11.7-8.32A105.13,105.13,0,0,0,380.14,380.33Z"/><path class="f" d="M360.94,365.19c-4.55-.54-7.33.91-9.39,5.12-.83,1.68-1.9,1.75-3.37,1.1-2.2-1-3.07-3.16-4.41-4.9-.69.24-.47.78-.44,1.16a7.3,7.3,0,0,0,4.46,6.06c2.29,1.14,4.17.13,6-1.32a21.34,21.34,0,0,1,9.32-4.51,7,7,0,0,0,6-6.2,18.14,18.14,0,0,1,3.79-8.35c1.7-2.15,3-4.42,1.71-7.24-1.35-3-4-3.64-7.13-3.82.17.69.72.79,1.09,1.06s.86.61,1.3.88a8,8,0,0,1,2.62,2.64c.81,1.3.68,2.52-.7,3.17-4.37,2-5.66,5.75-5.79,10.16.63,1.45.9,2.93-.29,4.17S362.64,365.63,360.94,365.19Z"/><path class="k" d="M387.56,387.13a27.08,27.08,0,0,0,6.19-7.57,8.38,8.38,0,0,0,.76-1.8c.16-.64.22-1.37-.59-1.66s-1.1.2-1.45.72a40,40,0,0,1-5.55,6.56,92.39,92.39,0,0,1-8,6.91c-.68.53-1.73,1.13-1,2.22s1.61.54,2.46.2A19,19,0,0,0,387.56,387.13Z"/><path class="k" d="M360.94,365.19c1.7.44,3.39.55,4.71-.82s.92-2.72.29-4.17Z"/><path class="l" d="M676.82,718.65c.89-3.08,3.06-4.94,4.69-7.27-3.73,2-5.9,5.25-8.06,8.51a27.07,27.07,0,0,0-2,2.44c-.3.63-.76,1.39,0,2a1.49,1.49,0,0,0,2-.22,12.49,12.49,0,0,0,1.26-1.26c3.35-4.14,8-5.09,13-5.53,1.63-.14,3.25-.37,4.87-.57.51-.06,1.19,0,1.29-.67s-.56-.94-1.13-1.11c-3.39-1-6.64-.27-9.81.91C681,716.58,679.12,717.61,676.82,718.65Z"/><path class="l" d="M616.87,670.21c2.17,2.17,4.87,2.59,7.36,3.37,1.64.52,3,1,3.61,2.89.33,1.08,4.31,2.56,5.4,2.16a.88.88,0,0,0,.49-.51c.09-.33-.23-.4-.49-.47-.63-.18-1.26-.34-1.89-.53s-1.15-.38-1.09-1,.82-.46,1.28-.47a22,22,0,0,0,6.26-.52c.47-.15,1.16,0,1.1-.8s-.71-.66-1.21-.64c-5.57.27-10.93-1-16.3-2.21C619.94,671.18,618.74,670.09,616.87,670.21Z"/><path class="l" d="M664.55,715c3.57.36,6.23-1.08,8.85-2.55a13,13,0,0,0,3.72-3.17c.42-.51.81-1.16.24-1.78s-1.16,0-1.61.41a27.61,27.61,0,0,0-2.22,2.24,10.87,10.87,0,0,1-7.58,4.12,3.41,3.41,0,0,0-.76.2C665.12,714.47,665,714.58,664.55,715Z"/><path class="l" d="M712.24,680.62c2.47-1.75,4.31-3.85,7-4.91.18,2.09-1,3.5-1.85,5-2.17,3.61-2.11,7.45-1.33,11.38.1.49.33.93.83,1s.6-.59.74-1c.72-2.06.66-4.26.86-6.39.46-4.81,2-9,5.71-12.31a4.23,4.23,0,0,0,.68-.72c.42-.61.76-1.22.13-1.95s-1.22-.38-1.74,0C719.31,673.48,715,675.9,712.24,680.62Z"/><path class="l" d="M678.77,631.68a3.52,3.52,0,0,0-1.7-4.69,3.38,3.38,0,0,0-.63-.23,1.94,1.94,0,0,1-1.32-1.76,37.27,37.27,0,0,0-2.75-7.57c-.14-.34-.18-.91-.7-.76s-.43.73-.27,1.16a40.46,40.46,0,0,1,2,5.76c.89,4.26.87,8.6,1.36,12.89,0,.52,0,1.06.07,1.57s.1.86.57.93.57-.47.68-.8a11.66,11.66,0,0,0,.29-7.71c-.22-.63-.64-1.58.3-1.87,1.1-.35,1.12.8,1.42,1.47l.72,1.61Z"/><path class="l" d="M711.26,675.19c3.71-3.8,4.81-8.24,5.17-13,0-.43.06-.84-.48-.88s-.49.4-.55.69a10.28,10.28,0,0,0-.18,1.75,10.56,10.56,0,0,1-3.43,8.06c-1.1,1-2.14,2.13-3.21,3.2-.38.38-.8.83-.45,1.36s1.12.3,1.58,0A12,12,0,0,0,711.26,675.19Z"/><path class="l" d="M678.76,631.68l.09.5H679l-.25-.46Z"/><path class="n" d="M253.41,241.8a7.88,7.88,0,0,0-5.56-.61,21.91,21.91,0,0,0-12.45,6.56c-.44.47-1.13.91-.67,1.65s1.07.36,1.63.3c.72-.08,1.41-.3,2.12-.43,1.09-.22,2.18-.63,2.39,1.2.13,1.09,1.24,1,2.1.9,1.89-.15,3.77-.34,5.66-.5.51-.05,1.12.11,1.27-.62a1.43,1.43,0,0,0-.68-1.7,13.22,13.22,0,0,0-3.85-1.42c-.52-.1-1.29-.08-1.25-.95s.7-.72,1.15-.87c1.87-.61,3.75-1.21,5.64-1.74A3.39,3.39,0,0,0,253.41,241.8Z"/><path class="n" d="M239.61,271.45c-2.49-1.17-4.63-.71-6.76.08-4.42,1.65-8.11,4.46-11.72,7.37-.87.7-3.27,1.17-1.94,2.89.94,1.21,2.31-.37,3.4-1C228.15,277.76,233.79,274.67,239.61,271.45Z"/><path class="h" d="M240.28,259.74c2.19-1.54,4.76-1.63,7.29-1.89a9.78,9.78,0,0,0,3.79-.92c-5.79-3.69-11.81-3.7-18.44-2.64,1.41,1.23,2.8.83,4,1.23.71.24,1.79,0,2,.88.25,1.06-.8,1.59-1.52,2.08s-2,.94-1.56,2.34c.5.06.78-.3,1.1-.56a1.68,1.68,0,0,1,2.32-.52,1.33,1.33,0,0,1,.19.14Z"/><path class="h" d="M244.54,236.94c2,.09,3.66-1,5.5-1.23.69-.1,1.5-.6,2,.18s-.35,1.16-.78,1.64-.92.76-.61,1.32.84.1,1.26,0c3.36-.7,6.38-2.37,9.62-3.43a.75.75,0,0,0,.54-.91c-.08-.56-.48-.74-.92-.9A15.83,15.83,0,0,0,253,233a25.86,25.86,0,0,0-7.26,2.37A1.79,1.79,0,0,0,244.54,236.94Z"/><path class="n" d="M283.1,236a8.72,8.72,0,0,0,5.86.63,24,24,0,0,0,9-3.38c1.3-.78,2-1.78.65-3.25a1,1,0,0,0-1.36-.4l-.12.08a117.44,117.44,0,0,1-13.36,5.72C283.55,235.42,283.44,235.62,283.1,236Z"/><path class="n" d="M281.63,219.24a10.55,10.55,0,0,0,1.13.06l15.93-.86a1.41,1.41,0,0,0,1.57-1.21c0-.76-.89-.6-1.43-.73-5.56-1.32-11-.39-16.3,1.2C281.86,217.9,281.35,218.3,281.63,219.24Z"/><path class="n" d="M274.71,250.2a48.57,48.57,0,0,0-16.66.46C261.21,253.79,270.49,253.61,274.71,250.2Z"/><path class="h" d="M219.39,308.22c-.07,2.28-.15,4.1-.18,5.92,0,.4-.2,1.06.53,1,.46,0,.52-.52.56-.91A26.68,26.68,0,0,1,223.88,304c.23-.42.5-.85.06-1.24s-.84,0-1.26.14c-3.18,1.41-5.08,4-6.42,7,.66.33.89-.31,1.32-.46A10.07,10.07,0,0,0,219.39,308.22Z"/><path class="h" d="M222.82,273.7a2.35,2.35,0,0,0,1.94-.37c3.64-1.66,7.23-3.43,11.31-3.8.6-.06,1-.38.94-1s-.84-.8-1.38-.86a13.38,13.38,0,0,0-9.11,2.41C225.07,271,223.54,271.92,222.82,273.7Z"/><path class="n" d="M246.1,232.65a104.92,104.92,0,0,1,12-4.49.9.9,0,0,0,.7-1,1,1,0,0,0-.93-.85C254.26,225.74,246.84,228.75,246.1,232.65Z"/><path class="h" d="M214.33,291.56c.85.2,1.43-.09,1.71.35,1.1,1.71,1.91.75,2.81-.2,1.36-1.44,3.2-2.24,4.76-3.4.66-.49,1.81-.85,1.42-1.79s-1.5-.35-2.3-.22A13.06,13.06,0,0,0,214.33,291.56Z"/><path class="n" d="M236.92,260.26c-.32.26-.6.62-1.1.56-1.14.74-2.31,1.45-3.41,2.26-.53.38-1,1-.66,1.66s1,0,1.42-.15a84.42,84.42,0,0,1,9.88-2.59,2.31,2.31,0,0,0,1.49-.65c-1.14-1.32-2.92-.92-4.26-1.61l-.85.14C238.72,260.85,237.92,261.23,236.92,260.26Z"/><path class="h" d="M296.42,224.16c-3.11-2-6.6-2.19-10.15-2-.48,0-1.13.16-1.23.78s.45.9.88,1.18c.81.54,1.67,1,2.47,1.55,1.17.79,2.29,1.89,3.09-.44.26-.75,1.19-.63,1.92-.68,1-.07,2.1.36,3-.4Z"/><path class="n" d="M278,242.71a1.18,1.18,0,0,0-1.19-.42,28.87,28.87,0,0,0-9.26,3.07c-.63.33-1.08.83-.74,1.58s1,.66,1.54.48c2.87-.92,5.73-1.85,8.57-2.86C277.77,244.26,278.33,243.62,278,242.71Z"/><path class="h" d="M281.61,230.62a2.26,2.26,0,0,0,0-.82c-.19-.58-.73-.44-1.17-.45a46.23,46.23,0,0,1-7.06-.29c-1.61-.28-3.22-.53-4.84-.76-.51-.07-1.23-.75-1.51,0s.52,1.07,1.13,1.35a17.32,17.32,0,0,0,10.69,1.59C279.79,231.1,280.67,230.85,281.61,230.62Z"/><path class="n" d="M329.1,222.81l-4-.17c-.74.87-.52,1.69.42,2,3,1.11,6,2.09,9.15,3.19-.12-1.76-1.22-2.56-2.35-3.28S330,223.65,329.1,222.81Z"/><path class="h" d="M238.92,282.59c4.36-1.75,8.22-3.29,12-5.18C248.15,275.24,242.84,277.43,238.92,282.59Z"/><path class="h" d="M292.4,237.53c-2.25-.08-4.16.7-6.15.87-1.69.13-3.37.46-5.05.71-.36.06-.89-.08-.92.46s.45.56.84.65a14.63,14.63,0,0,0,8.63-1.08A5.74,5.74,0,0,0,292.4,237.53Z"/><path class="h" d="M216.15,269.64c2.33-3.07,5.3-5.53,7.95-8.36C220.28,261.5,216.74,265.1,216.15,269.64Z"/><path class="h" d="M218.63,298.5c-2.69-1.58-4.34-1.28-6.24,1Z"/><path class="h" d="M312.34,222.21l-.5.09v.18l.47-.26Z"/><path class="a" d="M653,564.68c1.5.13.7,1.94,1.86,2.49a2.38,2.38,0,0,0-.43-2.82,1.17,1.17,0,0,0-1.57-.52,1.79,1.79,0,0,0-.28.2Z"/><path d="M360.85,309c4.57-4.65,7.59-11.08,8.79-18.42.21-1.29.38-2.6.65-3.88.32-1.6-.35-2.18-1.9-2.12a29.84,29.84,0,0,0-14.5,4.48,36.55,36.55,0,0,0-8.39,7.3,25.68,25.68,0,0,0-6,23.8c.65,2.75,1.51,2.94,3.62,1,2.69-2.47,6-4,9.16-5.68A35.2,35.2,0,0,0,360.85,309Zm1.74-7.47c-.33,4.19-5.76,9.61-10.35,10.34-2.67,2.57-6.26,3.72-9.2,5.86-.86.62-1.34,0-1.42-.88-.32-3.76-.3-7.47,2-10.75.86-2.83,1.44-5.83,4.47-7.33a10,10,0,0,1,4.18-4.13c1.15-1.05,1.91-2.77,4-2.27,2.69-2.45,6.06-3.45,9.45-4.39.85-.24,1.47.08,1.35,1.07-.6,4.47-1.31,8.95-4.48,12.46Z"/><path d="M311,358.82c3.67-3.41,6.09-8.48,8.48-13.51.67-1.41,1.82-2.19,2.72-3.28.51-.61,1.11-1.13.84-2.06a2,2,0,0,0-2-1.38,34.83,34.83,0,0,0-12.26.1c-4.86,1.09-8.59,3.62-12.18,6.84a34.12,34.12,0,0,0-6.53,7.2,31.33,31.33,0,0,0-4.67,14.06c-.16,1.74.58,2.58,2.23,2.41C296.37,368.35,304.26,365.71,311,358.82Zm-6.62-11.47c-.47.63-.9,1.27-1.4,1.87a2.39,2.39,0,0,1-3.36.39,2.27,2.27,0,0,1-.28-.26c-1.09-.93-.26-2,.42-2.85a5.09,5.09,0,0,1,3.36-1.75c1.24-.81,1.8-2.88,3.9-2.13,3.2-2.31,6.83-2.31,10.52-1.95,1.5.15,1.49,1.09.86,2.07-1.82,2.85-3.7,5.66-5.56,8.48-.39,4.39-3.71,6.68-6.7,9.15a4.57,4.57,0,0,1-3.58,1.24c-3.18,2.88-7.22,3.56-11.21,4.33-2.44.47-2.78,0-2.12-2.44a20.33,20.33,0,0,1,3.8-7.9c.16-2.66,1.84-4.39,3.66-6a1,1,0,0,1,1.08-.29c.5.22.22.66.16,1a5,5,0,0,0,3.2,5.61c2,.91,3.94.33,5.48-1.73a5,5,0,0,0,.45-5.06C306.65,348,305.91,347,304.42,347.35Z"/><path class="a" d="M330,356l-.57-3.35-.86-.84c-.06,1.56,0,3.13-.2,4.69-.37,3.91-2.21,7.21-4.43,10.35-4.31,6.1-9.39,11.26-16.54,14a45.07,45.07,0,0,1-7.24,1.8,2.64,2.64,0,0,0,2.87.76c5.78-1.28,11.07-3.41,15.29-7.84a58.58,58.58,0,0,0,8.07-9.83,12.2,12.2,0,0,0,1.49-3.62A30.79,30.79,0,0,1,330,356Z"/><path d="M299.15,382.76l.7-.08Z"/><path class="a" d="M274.34,365.24a.78.78,0,0,0-.25.82A.72.72,0,0,0,274.34,365.24Z"/><path class="a" d="M274.93,363a.83.83,0,0,0-.3.83A.79.79,0,0,0,274.93,363Z"/><path class="e" d="M437.47,418.86a3.17,3.17,0,0,0-.05,3.66.58.58,0,0,0,.8.05l0-.05c.36-.3.9-3.6.6-3.82A1,1,0,0,0,437.47,418.86Z"/><path class="f" d="M236.92,260.26c1,1,1.8.59,2.51-.38a1.68,1.68,0,0,0-2.37.19A1.33,1.33,0,0,0,236.92,260.26Z"/><path class="j" d="M356.22,292.35c-2-.5-2.8,1.22-4,2.27,1.14.64,1.07,2,1.85,2.92,1.3.93,2.9,1.56,3.06,3.55a4.77,4.77,0,0,1-2.81,5,4.36,4.36,0,0,1-5.27-.7c-1.79-1.74-2-3.1-.74-5.81l-.27-.78c-3,1.5-3.62,4.5-4.47,7.33a11.78,11.78,0,0,0,4.67,4.24c1.28.64,2.79.64,4,1.53,4.59-.73,10-6.15,10.35-10.34C361.35,297.84,359.5,294.61,356.22,292.35Z"/><path class="m" d="M356.22,292.35c3.28,2.26,5.13,5.49,6.37,9.16,3.17-3.55,3.88-8,4.43-12.48.12-1-.5-1.31-1.35-1.07C362.28,288.9,358.91,289.9,356.22,292.35Z"/><path class="m" d="M352.24,311.85c-1.16-.89-2.67-.89-4-1.53a11.78,11.78,0,0,1-4.67-4.24c-2.3,3.28-2.32,7-2,10.75.08.86.56,1.5,1.42.88C346,315.57,349.57,314.42,352.24,311.85Z"/><path class="m" d="M354.14,297.54c-.78-.88-.71-2.28-1.85-2.92a10,10,0,0,0-4.18,4.13l.27.78c1.68.76,3.29,1.15,4.59-.7Q353.53,298.15,354.14,297.54Z"/><path class="j" d="M302.6,361.61a4.57,4.57,0,0,0,3.58-1.24c3-2.47,6.31-4.76,6.7-9.15-1.25-3.33-2.37-6.75-5.82-8.6-2.1-.75-2.66,1.32-3.9,2.13.81.68.72,1.79,1.26,2.6,1.49-.31,2.23.66,2.68,1.77a5,5,0,0,1-.45,5.06c-1.54,2.06-3.46,2.64-5.48,1.73a5,5,0,0,1-3.2-5.61c.06-.37.34-.81-.16-1a1,1,0,0,0-1.08.29c-1.82,1.65-3.5,3.38-3.66,6C295.94,358.08,298.81,360.57,302.6,361.61Z"/><path class="m" d="M302.6,361.61c-3.79-1-6.66-3.53-9.53-6a20.33,20.33,0,0,0-3.8,7.9c-.66,2.47-.32,2.91,2.12,2.44C295.38,365.17,299.42,364.49,302.6,361.61Z"/><path class="m" d="M307.06,342.62c3.45,1.85,4.57,5.27,5.82,8.6,1.86-2.82,3.74-5.63,5.56-8.48.63-1,.64-1.92-.86-2.07C313.89,340.31,310.26,340.31,307.06,342.62Z"/><path class="m" d="M304.42,347.35c-.54-.81-.45-1.92-1.26-2.6a5.09,5.09,0,0,0-3.36,1.75c-.68.86-1.51,1.92-.42,2.85a2.39,2.39,0,0,0,3.37.15,1.79,1.79,0,0,0,.27-.28C303.52,348.62,304,348,304.42,347.35Z"/><path class="a" d="M354.14,297.54q-.61.61-1.17,1.29c-1.3,1.85-2.91,1.46-4.59.7-1.22,2.71-1.05,4.07.74,5.81a4.36,4.36,0,0,0,5.27.7,4.77,4.77,0,0,0,2.81-5C357,299.1,355.42,298.47,354.14,297.54Z"/><path class="f" d="M328.79,308a5,5,0,0,0-.79-.86c-2.54-1.7-2.69-2-1.67-4.9,1.65-4.67,4.69-8.43,8-12a70.43,70.43,0,0,1,22.34-16.36c1.14-.54,2.52-1.76,3.61-.49-2.26,1.49-4.45,4-6.92,5.2s-4.18,3.49-6,5.55-3.64,3.94-5.17,6c-3.19,4.31-7.7,7.38-10.58,11.91C330.42,303.87,330.41,306.3,328.79,308Z"/></svg>